<?xml version="1.0" encoding="UTF-8" standalone="no"?>
<!-- Created with Inkscape (http://www.inkscape.org/) -->

<svg
   xmlns:dc="http://purl.org/dc/elements/1.1/"
   xmlns:cc="http://creativecommons.org/ns#"
   xmlns:rdf="http://www.w3.org/1999/02/22-rdf-syntax-ns#"
   xmlns:svg="http://www.w3.org/2000/svg"
   xmlns="http://www.w3.org/2000/svg"
   xmlns:sodipodi="http://sodipodi.sourceforge.net/DTD/sodipodi-0.dtd"
   xmlns:inkscape="http://www.inkscape.org/namespaces/inkscape"
   width="210mm"
   height="297mm"
   viewBox="0 0 210 297"
   version="1.1"
   id="svg4516"
   inkscape:version="0.92.1 r15371"
   sodipodi:docname="schriftzug_elektra_a4.svg">
  <defs
     id="defs4510" />
  <sodipodi:namedview
     id="base"
     pagecolor="#ffffff"
     bordercolor="#666666"
     borderopacity="1.0"
     inkscape:pageopacity="0.0"
     inkscape:pageshadow="2"
     inkscape:zoom="0.49497475"
     inkscape:cx="37.176685"
     inkscape:cy="698.06574"
     inkscape:document-units="mm"
     inkscape:current-layer="layer1"
     showgrid="false"
     inkscape:snap-grids="true"
     inkscape:window-width="1920"
     inkscape:window-height="1018"
     inkscape:window-x="0"
     inkscape:window-y="0"
     inkscape:window-maximized="1" />
  <metadata
     id="metadata4513">
    <rdf:RDF>
      <cc:Work
         rdf:about="">
        <dc:format>image/svg+xml</dc:format>
        <dc:type
           rdf:resource="http://purl.org/dc/dcmitype/StillImage" />
        <dc:title />
      </cc:Work>
    </rdf:RDF>
  </metadata>
  <g
     inkscape:label="Ebene 1"
     inkscape:groupmode="layer"
     id="layer1">
    <g
       id="g4687">
      <path
         id="path43"
         d="M 10.688308,27.840732 A 18.487556,17.048429 0 0 1 31.64687,16.14108 18.487556,17.048429 0 1 0 18.516622,47.946516 19.07589,17.590966 0 0 0 20.707304,48.444374 18.484095,17.045237 0 0 1 10.688308,27.840732 Z"
         class="cls-1"
         inkscape:connector-curvature="0"
         style="fill:#2f418f;stroke-width:0.33233652" />
      <path
         id="path45"
         d="M 35.477968,43.934933 A 18.491016,17.05162 0 0 1 14.021052,33.045896 18.487556,17.048429 0 1 0 50.452819,27.620525 19.07243,17.587775 0 0 0 49.826415,25.622712 18.494477,17.054812 0 0 1 35.477968,43.934933 Z"
         class="cls-2"
         inkscape:connector-curvature="0"
         style="fill:#409030;stroke-width:0.33233652" />
      <path
         id="path47"
         d="m 38.070102,16.476176 a 18.491016,17.05162 0 0 1 0.505276,22.58869 18.29029,16.866519 0 0 0 1.7477,-1.314855 18.487556,17.048429 0 1 0 -26.627341,-23.562065 18.491016,17.05162 0 0 1 24.374365,2.28823 z"
         class="cls-3"
         inkscape:connector-curvature="0"
         style="fill:#dfa809;stroke-width:0.33233652" />
      <path
         id="path43-6"
         d="M 10.922838,82.53058 A 18.487556,17.048429 0 0 1 31.8814,70.830928 18.487556,17.048429 0 1 0 18.751152,102.63636 19.07589,17.590966 0 0 0 20.941834,103.13422 18.484095,17.045237 0 0 1 10.922838,82.53058 Z"
         class="cls-1"
         inkscape:connector-curvature="0"
         style="fill:#2f418f;stroke-width:0.33233652" />
      <path
         id="path45-7"
         d="M 35.712498,98.624782 A 18.491016,17.05162 0 0 1 14.255582,87.735744 18.487556,17.048429 0 1 0 50.687349,82.310374 19.07243,17.587775 0 0 0 50.060945,80.312561 18.494477,17.054812 0 0 1 35.712498,98.624782 Z"
         class="cls-2"
         inkscape:connector-curvature="0"
         style="fill:#409030;stroke-width:0.33233652" />
      <path
         id="path47-5"
         d="m 38.304632,71.166024 a 18.491016,17.05162 0 0 1 0.505276,22.58869 18.29029,16.866519 0 0 0 1.7477,-1.314854 18.487556,17.048429 0 1 0 -26.627341,-23.562065 18.491016,17.05162 0 0 1 24.374365,2.288229 z"
         class="cls-3"
         inkscape:connector-curvature="0"
         style="fill:#dfa809;stroke-width:0.33233652" />
      <path
         id="path43-3"
         d="m 10.990692,139.79728 a 18.487556,17.048429 0 0 1 20.958562,-11.69965 18.487556,17.048429 0 1 0 -13.130248,31.80544 19.07589,17.590966 0 0 0 2.190682,0.49785 18.484095,17.045237 0 0 1 -10.018996,-20.60364 z"
         class="cls-1"
         inkscape:connector-curvature="0"
         style="fill:#2f418f;stroke-width:0.33233652" />
      <path
         id="path45-75"
         d="m 35.780352,155.89148 a 18.491016,17.05162 0 0 1 -21.456916,-10.88904 18.487556,17.048429 0 1 0 36.431767,-5.42537 19.07243,17.587775 0 0 0 -0.626404,-1.99781 18.494477,17.054812 0 0 1 -14.348447,18.31222 z"
         class="cls-2"
         inkscape:connector-curvature="0"
         style="fill:#409030;stroke-width:0.33233652" />
      <path
         id="path47-9"
         d="m 38.372486,128.43273 a 18.491016,17.05162 0 0 1 0.505276,22.58868 18.29029,16.866519 0 0 0 1.7477,-1.31485 18.487556,17.048429 0 1 0 -26.627341,-23.56206 18.491016,17.05162 0 0 1 24.374365,2.28823 z"
         class="cls-3"
         inkscape:connector-curvature="0"
         style="fill:#dfa809;stroke-width:0.33233652" />
      <path
         id="path43-0"
         d="m 10.234737,199.74432 a 18.487556,17.048429 0 0 1 20.958562,-11.69965 18.487556,17.048429 0 1 0 -13.130248,31.80543 19.07589,17.590966 0 0 0 2.190682,0.49786 18.484095,17.045237 0 0 1 -10.018996,-20.60364 z"
         class="cls-1"
         inkscape:connector-curvature="0"
         style="fill:#2f418f;stroke-width:0.33233652" />
      <path
         id="path45-6"
         d="M 35.024397,215.83852 A 18.491016,17.05162 0 0 1 13.567481,204.94948 18.487556,17.048429 0 1 0 49.999248,199.52411 19.07243,17.587775 0 0 0 49.372844,197.5263 18.494477,17.054812 0 0 1 35.024397,215.83852 Z"
         class="cls-2"
         inkscape:connector-curvature="0"
         style="fill:#409030;stroke-width:0.33233652" />
      <path
         id="path47-1"
         d="m 37.616531,188.37976 a 18.491016,17.05162 0 0 1 0.505276,22.58869 18.29029,16.866519 0 0 0 1.7477,-1.31485 18.487556,17.048429 0 1 0 -26.627341,-23.56207 18.491016,17.05162 0 0 1 24.374365,2.28823 z"
         class="cls-3"
         inkscape:connector-curvature="0"
         style="fill:#dfa809;stroke-width:0.33233652" />
      <path
         id="path43-4"
         d="M 10.234738,258.255 A 18.487556,17.048429 0 0 1 31.1933,246.55535 18.487556,17.048429 0 1 0 18.063052,278.36078 19.07589,17.590966 0 0 0 20.253734,278.85864 18.484095,17.045237 0 0 1 10.234738,258.255 Z"
         class="cls-1"
         inkscape:connector-curvature="0"
         style="fill:#2f418f;stroke-width:0.33233652" />
      <path
         id="path45-9"
         d="M 35.024398,274.3492 A 18.491016,17.05162 0 0 1 13.567482,263.46016 18.487556,17.048429 0 1 0 49.999249,258.03479 19.07243,17.587775 0 0 0 49.372845,256.03698 18.494477,17.054812 0 0 1 35.024398,274.3492 Z"
         class="cls-2"
         inkscape:connector-curvature="0"
         style="fill:#409030;stroke-width:0.33233652" />
      <path
         id="path47-2"
         d="m 37.616532,246.89044 a 18.491016,17.05162 0 0 1 0.505276,22.58869 18.29029,16.866519 0 0 0 1.7477,-1.31485 18.487556,17.048429 0 1 0 -26.627341,-23.56207 18.491016,17.05162 0 0 1 24.374365,2.28823 z"
         class="cls-3"
         inkscape:connector-curvature="0"
         style="fill:#dfa809;stroke-width:0.33233652" />
    </g>
    <g
       id="g4799"
       transform="translate(-7.9375004)">
      <path
         id="path49"
         d="m 64.783962,16.077252 h 21.602269 v 4.467952 H 71.598263 v 5.99663 h 13.3552 v 4.467952 h -13.3552 v 6.724268 h 15.227489 v 4.467952 h -22.04179 z"
         class="cls-4"
         inkscape:connector-curvature="0"
         style="fill:#282828;stroke-width:0.33233652" />
      <path
         id="path51"
         d="m 91.324783,14.025185 h 6.37132 v 28.176821 h -6.37132 z"
         class="cls-4"
         inkscape:connector-curvature="0"
         style="fill:#282828;stroke-width:0.33233652" />
      <path
         id="path53"
         d="m 102.83884,36.28197 v -7.00192 q 0,-3.660529 2.55407,-5.313671 2.55406,-1.653143 7.87676,-1.649951 5.02161,0 7.35419,1.595697 2.33257,1.595697 2.33257,5.374308 v 4.748795 h -13.70128 v 1.768033 q 0,1.69463 1.30818,2.415885 1.30818,0.721255 4.7136,0.724447 a 31.365166,28.923607 0 0 0 7.0704,-0.84572 v 3.743506 a 39.598392,36.515935 0 0 1 -8.3059,0.765934 q -11.20259,-0.0064 -11.20259,-6.325343 z m 14.05428,-5.594515 v -2.818001 a 1.7303964,1.5956972 0 0 0 -0.85135,-1.448893 c -0.56757,-0.319139 -1.52275,-0.481901 -2.85862,-0.481901 -1.54351,0 -2.57483,0.15957 -3.11471,0.481901 a 1.8099947,1.6690993 0 0 0 -0.82713,1.448893 v 2.818001 z"
         class="cls-4"
         inkscape:connector-curvature="0"
         style="fill:#282828;stroke-width:0.33233652" />
      <path
         id="path55"
         d="m 127.84653,14.025185 h 6.37132 v 28.176821 h -6.37132 z m 6.63434,17.23353 6.92159,-8.530597 h 7.28843 l -7.33342,8.4923 7.95982,10.987971 h -7.20191 z"
         class="cls-4"
         inkscape:connector-curvature="0"
         style="fill:#282828;stroke-width:0.33233652" />
      <path
         id="path57"
         d="m 159.26707,42.479658 a 9.9878483,9.2103642 0 0 1 -2.1803,-0.481901 5.28117,4.8700679 0 0 1 -1.9865,-1.008481 5.0077673,4.6179477 0 0 1 -1.24242,-1.771223 7.5756757,6.9859623 0 0 1 -0.52604,-2.696729 V 26.340776 h -4.27754 V 22.7345 h 4.27754 v -5.648768 h 6.37132 V 22.7345 h 5.80721 v 3.606276 h -5.80721 v 9.175259 a 7.5479893,6.9604312 0 0 0 0.26302,2.112703 1.7926907,1.6531423 0 0 0 1.00363,1.008481 5.9525638,5.4891984 0 0 0 2.27028,0.299991 21.072768,19.432401 0 0 0 2.27028,-0.201058 v 3.663721 a 34.196095,31.534168 0 0 1 -3.53693,0.201058 23.474558,21.647228 0 0 1 -2.70634,-0.121273 z"
         class="cls-4"
         inkscape:connector-curvature="0"
         style="fill:#282828;stroke-width:0.33233652" />
      <path
         id="path59"
         d="m 169.19262,22.7345 h 6.06677 v 3.421175 a 3.0178114,2.7828959 0 0 1 0.82713,-1.812712 6.41631,5.9168452 0 0 1 2.11801,-1.448893 5.949103,5.486007 0 0 1 2.55406,-0.561685 h 2.26682 v 4.870068 h -2.1803 q -2.7098,0 -3.99375,0.762743 -1.28396,0.762743 -1.28742,2.537158 v 11.699652 h -6.37132 z"
         class="cls-4"
         inkscape:connector-curvature="0"
         style="fill:#282828;stroke-width:0.33233652" />
      <path
         id="path61"
         d="m 188.05048,42.09669 a 3.4227242,3.1562891 0 0 1 -2.05225,-1.80952 c -0.39107,-0.874442 -0.58833,-2.179723 -0.58833,-3.925415 q 0,-2.329718 0.63332,-3.663721 a 3.910696,3.6062757 0 0 1 2.04879,-1.914837 q 1.41893,-0.577642 3.90724,-0.580834 h 7.15692 v -1.330811 a 4.2290889,3.899884 0 0 0 -0.37031,-1.851009 2.0764757,1.9148366 0 0 0 -1.35317,-0.842528 12.17853,11.230517 0 0 0 -2.94513,-0.242546 71.067382,65.535284 0 0 0 -7.41994,0.481901 V 22.7345 a 65.242868,60.164167 0 0 1 8.08095,-0.418072 q 4.05951,0 6.26404,0.561685 2.20452,0.561686 3.16316,1.933985 0.95518,1.369108 0.95518,3.986052 v 13.403856 h -6.22943 v -1.771224 a 4.1148828,3.7945679 0 0 1 -2.00726,1.649951 q -1.26665,0.520198 -4.80012,0.523389 -2.9832,-0.0032 -4.44366,-0.507432 z m 9.666,-3.280753 a 2.0037991,1.8478174 0 0 0 0.85135,-0.239355 1.4154643,1.3052803 0 0 0 0.4153,-0.523388 1.9242009,1.7744153 0 0 0 0.17304,-0.84572 V 33.42248 h -4.35368 a 7.6448915,7.0497902 0 0 0 -2.09378,0.18191 1.2493462,1.1520934 0 0 0 -0.83059,0.724446 6.7450854,6.2200277 0 0 0 -0.21803,1.914837 6.2986431,5.8083378 0 0 0 0.21803,1.851009 1.1905128,1.0978397 0 0 0 0.85136,0.68615 9.8840245,9.1146224 0 0 0 2.24951,0.159569 20.072599,18.510088 0 0 0 2.73749,-0.124464 z"
         class="cls-4"
         inkscape:connector-curvature="0"
         style="fill:#282828;stroke-width:0.33233652" />
      <g
         id="text83"
         style="font-style:normal;font-weight:normal;font-size:8.65023804px;line-height:1.25;font-family:sans-serif;letter-spacing:0px;word-spacing:0px;fill:#282828;fill-opacity:1;stroke:none;stroke-width:0.21625593"
         aria-label="libelektra.org"
         transform="translate(-19.990471,-208.20208)">
        <path
           id="path21"
           style="font-style:normal;font-variant:normal;font-weight:normal;font-stretch:normal;font-family:Play;-inkscape-font-specification:Play;fill:#282828;fill-opacity:1;stroke-width:0.21625593"
           d="m 175.00001,255.44428 h 0.77852 v 6.05517 h -0.77852 z"
           inkscape:connector-curvature="0" />
        <path
           id="path23"
           style="font-style:normal;font-variant:normal;font-weight:normal;font-stretch:normal;font-family:Play;-inkscape-font-specification:Play;fill:#282828;fill-opacity:1;stroke-width:0.21625593"
           d="m 177.12877,255.79894 h 0.77853 v 0.81313 h -0.77853 z m 0,1.5138 h 0.77853 v 4.18671 h -0.77853 z"
           inkscape:connector-curvature="0" />
        <path
           id="path25"
           style="font-style:normal;font-variant:normal;font-weight:normal;font-stretch:normal;font-family:Play;-inkscape-font-specification:Play;fill:#282828;fill-opacity:1;stroke-width:0.21625593"
           d="m 181.126,261.58595 q -0.46712,0 -0.75258,-0.0519 -0.2768,-0.0433 -0.55361,-0.173 -0.56227,-0.26816 -0.56227,-1.22834 v -4.68843 h 0.77853 v 1.25429 0.49306 q -0.009,0.22491 -0.009,0.50172 0.0433,-0.19896 0.36331,-0.33736 0.3287,-0.12976 0.95152,-0.12976 1.73005,0 1.73005,1.18509 v 1.72139 q 0,0.37196 -0.11245,0.64877 -0.10381,0.27681 -0.27681,0.43251 -0.15571,0.14706 -0.43251,0.23356 -0.26816,0.0865 -0.53632,0.11245 -0.2422,0.026 -0.58821,0.026 z m 0.0173,-0.51036 q 0.44981,0 0.68336,-0.0605 0.24221,-0.0692 0.34601,-0.24221 0.10381,-0.173 0.10381,-0.52766 v -1.64355 q 0,-0.35466 -0.10381,-0.52766 -0.1038,-0.18166 -0.34601,-0.23356 -0.23355,-0.0605 -0.69201,-0.0605 -0.42387,0 -0.65742,0.0692 -0.23356,0.0692 -0.33736,0.25086 -0.1038,0.173 -0.1038,0.50171 v 1.64355 q 0,0.35466 0.0952,0.52766 0.1038,0.17301 0.33736,0.24221 0.23355,0.0605 0.67472,0.0605 z"
           inkscape:connector-curvature="0" />
        <path
           id="path27"
           style="font-style:normal;font-variant:normal;font-weight:normal;font-stretch:normal;font-family:Play;-inkscape-font-specification:Play;fill:#282828;fill-opacity:1;stroke-width:0.21625593"
           d="m 186.02311,261.58595 q -1.92035,0 -1.92035,-1.28023 v -1.6522 q 0,-0.76122 0.43251,-1.08993 0.44116,-0.33736 1.41864,-0.33736 0.92557,0 1.33214,0.32006 0.41521,0.32006 0.41521,1.10723 v 0.92558 h -2.81133 v 0.63147 q 0,0.43251 0.30276,0.62281 0.30276,0.19031 0.93422,0.19031 0.59687,0 1.40999,-0.20761 v 0.59687 q -0.79582,0.173 -1.51379,0.173 z m 0.89963,-2.51722 v -0.65741 q 0,-0.38061 -0.23356,-0.51902 -0.22491,-0.14705 -0.77852,-0.14705 -0.53632,0 -0.77852,0.14705 -0.24221,0.13841 -0.24221,0.51902 v 0.65741 z"
           inkscape:connector-curvature="0" />
        <path
           id="path29"
           style="font-style:normal;font-variant:normal;font-weight:normal;font-stretch:normal;font-family:Play;-inkscape-font-specification:Play;fill:#282828;fill-opacity:1;stroke-width:0.21625593"
           d="m 188.88769,255.44428 h 0.77852 v 6.05517 h -0.77852 z"
           inkscape:connector-curvature="0" />
        <path
           id="path31"
           style="font-style:normal;font-variant:normal;font-weight:normal;font-stretch:normal;font-family:Play;-inkscape-font-specification:Play;fill:#282828;fill-opacity:1;stroke-width:0.21625593"
           d="m 192.78111,261.58595 q -1.92035,0 -1.92035,-1.28023 v -1.6522 q 0,-0.76122 0.43251,-1.08993 0.44116,-0.33736 1.41864,-0.33736 0.92557,0 1.33214,0.32006 0.41521,0.32006 0.41521,1.10723 v 0.92558 h -2.81133 v 0.63147 q 0,0.43251 0.30276,0.62281 0.30276,0.19031 0.93422,0.19031 0.59687,0 1.40999,-0.20761 v 0.59687 q -0.79582,0.173 -1.51379,0.173 z m 0.89963,-2.51722 v -0.65741 q 0,-0.38061 -0.23356,-0.51902 -0.22491,-0.14705 -0.77852,-0.14705 -0.53632,0 -0.77852,0.14705 -0.24221,0.13841 -0.24221,0.51902 v 0.65741 z"
           inkscape:connector-curvature="0" />
        <path
           id="path33"
           style="font-style:normal;font-variant:normal;font-weight:normal;font-stretch:normal;font-family:Play;-inkscape-font-specification:Play;fill:#282828;fill-opacity:1;stroke-width:0.21625593"
           d="m 195.64569,255.44428 h 0.77852 v 6.05517 h -0.77852 z m 0.87367,3.76286 1.76465,-1.8944 h 0.95153 l -1.81655,1.8944 1.9809,2.29231 h -0.96882 z"
           inkscape:connector-curvature="0" />
        <path
           id="path35"
           style="font-style:normal;font-variant:normal;font-weight:normal;font-stretch:normal;font-family:Play;-inkscape-font-specification:Play;fill:#282828;fill-opacity:1;stroke-width:0.21625593"
           d="m 201.84507,261.58595 q -0.53631,0 -0.83907,-0.11245 -0.30276,-0.1211 -0.44116,-0.39791 -0.12976,-0.28546 -0.12976,-0.79582 v -2.45667 h -0.93422 v -0.51036 h 0.93422 v -1.29754 h 0.78718 v 1.29754 h 1.49649 v 0.51036 h -1.49649 v 2.49992 q 0,0.31141 0.0692,0.46711 0.0779,0.15571 0.25951,0.22491 0.1903,0.0605 0.54496,0.0605 0.11245,0 0.62282,-0.0692 v 0.51036 q -0.44116,0.0692 -0.87368,0.0692 z"
           inkscape:connector-curvature="0" />
        <path
           id="path37"
           style="font-style:normal;font-variant:normal;font-weight:normal;font-stretch:normal;font-family:Play;-inkscape-font-specification:Play;fill:#282828;fill-opacity:1;stroke-width:0.21625593"
           d="m 203.56944,257.31274 h 0.73527 v 0.68336 q 0,-0.19895 0.17301,-0.37196 0.173,-0.18165 0.44116,-0.28545 0.26816,-0.11246 0.52767,-0.11246 h 0.38061 v 0.66607 h -0.43252 q -0.55361,0 -0.80447,0.14706 -0.2422,0.1384 -0.2422,0.51036 v 2.94973 h -0.77853 z"
           inkscape:connector-curvature="0" />
        <path
           id="path39"
           style="font-style:normal;font-variant:normal;font-weight:normal;font-stretch:normal;font-family:Play;-inkscape-font-specification:Play;fill:#282828;fill-opacity:1;stroke-width:0.21625593"
           d="m 207.89943,261.58595 q -0.59687,0 -0.92558,-0.11245 -0.32005,-0.11245 -0.46711,-0.39791 -0.1384,-0.28546 -0.1384,-0.82177 0,-0.47577 0.12975,-0.73527 0.1384,-0.26816 0.45846,-0.38061 0.32871,-0.11246 0.92558,-0.11246 h 1.25428 v -0.66607 q 0,-0.23355 -0.0952,-0.35466 -0.0865,-0.12975 -0.30276,-0.18165 -0.2076,-0.0519 -0.61416,-0.0519 -0.64877,0 -1.43594,0.1038 v -0.57091 q 0.85637,-0.0779 1.54839,-0.0779 0.72662,0 1.07263,0.11246 0.34601,0.1038 0.47576,0.37196 0.12975,0.26815 0.12975,0.83042 v 2.95838 h -0.75257 v -0.39791 q -0.0952,0.48441 -1.26293,0.48441 z m 0.12975,-0.51036 q 0.42386,0 0.71797,-0.0605 0.38926,-0.0779 0.38926,-0.36331 v -1.14183 h -1.20238 q -0.37196,0 -0.53631,0.0605 -0.16436,0.0519 -0.21626,0.2076 -0.0519,0.15571 -0.0519,0.50172 0,0.31141 0.0606,0.48441 0.0606,0.16435 0.21626,0.24221 0.1557,0.0692 0.46711,0.0692 z"
           inkscape:connector-curvature="0" />
        <path
           id="path41"
           style="font-style:normal;font-variant:normal;font-weight:normal;font-stretch:normal;font-family:Play;-inkscape-font-specification:Play;fill:#282828;fill-opacity:1;stroke-width:0.21625593"
           d="m 211.18746,260.56522 h 1.00343 v 0.93423 h -1.00343 z"
           inkscape:connector-curvature="0" />
        <path
           id="path44"
           style="font-style:normal;font-variant:normal;font-weight:normal;font-stretch:normal;font-family:Play;-inkscape-font-specification:Play;fill:#282828;fill-opacity:1;stroke-width:0.21625593"
           d="m 215.24321,261.58595 q -0.55362,0 -0.83042,-0.0433 -0.27681,-0.0346 -0.55362,-0.16435 -0.28546,-0.12976 -0.41521,-0.41521 -0.12975,-0.29411 -0.12975,-0.78718 v -1.45324 q 0,-0.38926 0.0951,-0.68336 0.0952,-0.29411 0.25086,-0.45847 0.12975,-0.14705 0.38926,-0.2249 0.26815,-0.0865 0.54496,-0.11246 0.31141,-0.0173 0.64877,-0.0173 0.44981,0 0.67472,0.026 0.23356,0.0173 0.49306,0.0865 0.26816,0.0779 0.41521,0.23355 0.14706,0.15571 0.25086,0.44981 0.0952,0.30276 0.0952,0.70067 v 1.45324 q 0,0.73527 -0.33736,1.07263 -0.1384,0.13841 -0.39791,0.21626 -0.2595,0.0779 -0.53631,0.1038 -0.32871,0.0173 -0.65742,0.0173 z m 0,-0.51036 q 0.36331,0 0.52766,-0.0173 0.16436,-0.0173 0.32006,-0.0951 0.15571,-0.0692 0.21626,-0.22491 0.0692,-0.16435 0.0692,-0.44981 v -1.69545 q 0,-0.38926 -0.0951,-0.56226 -0.0951,-0.18166 -0.32871,-0.23356 -0.22491,-0.0605 -0.70932,-0.0605 -0.48441,0 -0.71797,0.0605 -0.22491,0.0519 -0.32006,0.23356 -0.0952,0.173 -0.0952,0.56226 v 1.69545 q 0,0.28546 0.0606,0.44981 0.0692,0.1557 0.22491,0.22491 0.1557,0.0779 0.32006,0.0951 0.16435,0.0173 0.52766,0.0173 z"
           inkscape:connector-curvature="0" />
        <path
           id="path46"
           style="font-style:normal;font-variant:normal;font-weight:normal;font-stretch:normal;font-family:Play;-inkscape-font-specification:Play;fill:#282828;fill-opacity:1;stroke-width:0.21625593"
           d="m 218.38635,257.31274 h 0.73527 v 0.68336 q 0,-0.19895 0.17301,-0.37196 0.173,-0.18165 0.44116,-0.28545 0.26816,-0.11246 0.52767,-0.11246 h 0.38061 v 0.66607 h -0.43252 q -0.55361,0 -0.80447,0.14706 -0.2422,0.1384 -0.2422,0.51036 v 2.94973 h -0.77853 z"
           inkscape:connector-curvature="0" />
        <path
           id="path48"
           style="font-style:normal;font-variant:normal;font-weight:normal;font-stretch:normal;font-family:Play;-inkscape-font-specification:Play;fill:#282828;fill-opacity:1;stroke-width:0.21625593"
           d="m 223.01045,263.4025 q -0.85638,0 -1.44459,-0.0951 v -0.55361 q 1.03803,0.1211 1.51379,0.1211 0.59687,0 0.86502,-0.19031 0.27681,-0.1903 0.27681,-0.63146 v -1.00343 q -0.0173,0.27681 -0.38061,0.40656 -0.35466,0.12975 -0.89962,0.12975 -0.64877,0 -1.01208,-0.1211 -0.35466,-0.1211 -0.51037,-0.39791 -0.14705,-0.27681 -0.14705,-0.75257 v -1.7041 q 0,-0.74392 0.39791,-1.06398 0.40656,-0.32006 1.32349,-0.32006 1.08993,0 1.28023,0.49307 v -0.40656 H 225 v 4.58462 q 0,0.57957 -0.21625,0.90828 -0.21626,0.32871 -0.64877,0.45846 -0.43251,0.1384 -1.12453,0.1384 z m 0.0952,-2.33556 q 0.61417,0 0.86502,-0.14706 0.25086,-0.14705 0.25086,-0.55361 v -1.8944 q 0,-0.28546 -0.0952,-0.43251 -0.0865,-0.14706 -0.32871,-0.20761 -0.24221,-0.0692 -0.70932,-0.0692 -0.44116,0 -0.66607,0.0606 -0.21625,0.0605 -0.30276,0.21626 -0.0779,0.14705 -0.0779,0.43251 v 1.8944 q 0,0.29411 0.0865,0.44116 0.0865,0.14706 0.31141,0.20761 0.22491,0.0519 0.66607,0.0519 z"
           inkscape:connector-curvature="0" />
      </g>
      <path
         id="path49-3"
         d="m 65.018492,70.7671 h 21.602269 v 4.467952 H 71.832793 v 5.99663 h 13.3552 v 4.467953 h -13.3552 v 6.724268 h 15.227489 v 4.467952 h -22.04179 z"
         class="cls-4"
         inkscape:connector-curvature="0"
         style="fill:#282828;stroke-width:0.33233652" />
      <path
         id="path51-5"
         d="m 91.559313,68.715034 h 6.37132 v 28.176821 h -6.37132 z"
         class="cls-4"
         inkscape:connector-curvature="0"
         style="fill:#282828;stroke-width:0.33233652" />
      <path
         id="path53-6"
         d="m 103.07337,90.971818 v -7.001919 q 0,-3.66053 2.55407,-5.313672 2.55406,-1.653142 7.87676,-1.649951 5.02161,0 7.35419,1.595697 2.33257,1.595698 2.33257,5.374309 v 4.748794 h -13.70128 v 1.768033 q 0,1.69463 1.30818,2.415886 1.30818,0.721255 4.7136,0.724446 a 31.365166,28.923607 0 0 0 7.0704,-0.845719 v 3.743505 a 39.598392,36.515935 0 0 1 -8.3059,0.765935 q -11.20259,-0.0064 -11.20259,-6.325344 z m 14.05428,-5.594514 v -2.818002 a 1.7303964,1.5956972 0 0 0 -0.85135,-1.448893 c -0.56757,-0.319139 -1.52275,-0.4819 -2.85862,-0.4819 -1.54351,0 -2.57483,0.15957 -3.11471,0.4819 a 1.8099947,1.6690993 0 0 0 -0.82713,1.448893 v 2.818002 z"
         class="cls-4"
         inkscape:connector-curvature="0"
         style="fill:#282828;stroke-width:0.33233652" />
      <path
         id="path55-2"
         d="m 128.08106,68.715034 h 6.37132 v 28.176821 h -6.37132 z m 6.63434,17.233529 6.92159,-8.530597 h 7.28843 l -7.33342,8.492301 7.95982,10.987971 h -7.20191 z"
         class="cls-4"
         inkscape:connector-curvature="0"
         style="fill:#282828;stroke-width:0.33233652" />
      <path
         id="path57-9"
         d="m 159.5016,97.169506 a 9.9878483,9.2103642 0 0 1 -2.1803,-0.481901 5.28117,4.8700679 0 0 1 -1.9865,-1.00848 5.0077673,4.6179477 0 0 1 -1.24242,-1.771224 7.5756757,6.9859623 0 0 1 -0.52604,-2.696728 V 81.030625 h -4.27754 v -3.606276 h 4.27754 v -5.648768 h 6.37132 v 5.648768 h 5.80721 v 3.606276 h -5.80721 v 9.175258 a 7.5479893,6.9604312 0 0 0 0.26302,2.112704 1.7926907,1.6531423 0 0 0 1.00363,1.00848 5.9525638,5.4891984 0 0 0 2.27028,0.299991 21.072768,19.432401 0 0 0 2.27028,-0.201058 v 3.663721 a 34.196095,31.534168 0 0 1 -3.53693,0.201058 23.474558,21.647228 0 0 1 -2.70634,-0.121273 z"
         class="cls-4"
         inkscape:connector-curvature="0"
         style="fill:#282828;stroke-width:0.33233652" />
      <path
         id="path59-1"
         d="m 169.42715,77.424349 h 6.06677 v 3.421175 a 3.0178114,2.7828959 0 0 1 0.82713,-1.812712 6.41631,5.9168452 0 0 1 2.11801,-1.448893 5.949103,5.486007 0 0 1 2.55406,-0.561686 h 2.26682 v 4.870068 h -2.1803 q -2.7098,0 -3.99375,0.762743 -1.28396,0.762744 -1.28742,2.537159 v 11.699652 h -6.37132 z"
         class="cls-4"
         inkscape:connector-curvature="0"
         style="fill:#282828;stroke-width:0.33233652" />
      <path
         id="path61-2"
         d="m 188.28501,96.786539 a 3.4227242,3.1562891 0 0 1 -2.05225,-1.809521 c -0.39107,-0.874442 -0.58833,-2.179722 -0.58833,-3.925415 q 0,-2.329718 0.63332,-3.663721 a 3.910696,3.6062757 0 0 1 2.04879,-1.914836 q 1.41893,-0.577643 3.90724,-0.580834 h 7.15692 V 83.5614 a 4.2290889,3.899884 0 0 0 -0.37031,-1.851008 2.0764757,1.9148366 0 0 0 -1.35317,-0.842529 12.17853,11.230517 0 0 0 -2.94513,-0.242546 71.067382,65.535284 0 0 0 -7.41994,0.481901 v -3.682869 a 65.242868,60.164167 0 0 1 8.08095,-0.418073 q 4.05951,0 6.26404,0.561686 2.20452,0.561685 3.16316,1.933985 0.95518,1.369108 0.95518,3.986051 v 13.403857 h -6.22943 v -1.771224 a 4.1148828,3.7945679 0 0 1 -2.00726,1.649951 q -1.26665,0.520197 -4.80012,0.523388 -2.9832,-0.0032 -4.44366,-0.507431 z m 9.666,-3.280754 a 2.0037991,1.8478174 0 0 0 0.85135,-0.239354 1.4154643,1.3052803 0 0 0 0.4153,-0.523389 1.9242009,1.7744153 0 0 0 0.17304,-0.84572 v -3.784993 h -4.35368 a 7.6448915,7.0497902 0 0 0 -2.09378,0.181909 1.2493462,1.1520934 0 0 0 -0.83059,0.724447 6.7450854,6.2200277 0 0 0 -0.21803,1.914836 6.2986431,5.8083378 0 0 0 0.21803,1.851009 1.1905128,1.0978397 0 0 0 0.85136,0.68615 9.8840245,9.1146224 0 0 0 2.24951,0.15957 20.072599,18.510088 0 0 0 2.73749,-0.124465 z"
         class="cls-4"
         inkscape:connector-curvature="0"
         style="fill:#282828;stroke-width:0.33233652" />
      <g
         id="text83-7"
         style="font-style:normal;font-weight:normal;font-size:8.65023804px;line-height:1.25;font-family:sans-serif;letter-spacing:0px;word-spacing:0px;fill:#282828;fill-opacity:1;stroke:none;stroke-width:0.21625593"
         aria-label="libelektra.org"
         transform="translate(-19.234519,-154.90742)">
        <path
           id="path21-0"
           style="font-style:normal;font-variant:normal;font-weight:normal;font-stretch:normal;font-family:Play;-inkscape-font-specification:Play;fill:#282828;fill-opacity:1;stroke-width:0.21625593"
           d="m 175.00001,255.44428 h 0.77852 v 6.05517 h -0.77852 z"
           inkscape:connector-curvature="0" />
        <path
           id="path23-9"
           style="font-style:normal;font-variant:normal;font-weight:normal;font-stretch:normal;font-family:Play;-inkscape-font-specification:Play;fill:#282828;fill-opacity:1;stroke-width:0.21625593"
           d="m 177.12877,255.79894 h 0.77853 v 0.81313 h -0.77853 z m 0,1.5138 h 0.77853 v 4.18671 h -0.77853 z"
           inkscape:connector-curvature="0" />
        <path
           id="path25-3"
           style="font-style:normal;font-variant:normal;font-weight:normal;font-stretch:normal;font-family:Play;-inkscape-font-specification:Play;fill:#282828;fill-opacity:1;stroke-width:0.21625593"
           d="m 181.126,261.58595 q -0.46712,0 -0.75258,-0.0519 -0.2768,-0.0433 -0.55361,-0.173 -0.56227,-0.26816 -0.56227,-1.22834 v -4.68843 h 0.77853 v 1.25429 0.49306 q -0.009,0.22491 -0.009,0.50172 0.0433,-0.19896 0.36331,-0.33736 0.3287,-0.12976 0.95152,-0.12976 1.73005,0 1.73005,1.18509 v 1.72139 q 0,0.37196 -0.11245,0.64877 -0.10381,0.27681 -0.27681,0.43251 -0.15571,0.14706 -0.43251,0.23356 -0.26816,0.0865 -0.53632,0.11245 -0.2422,0.026 -0.58821,0.026 z m 0.0173,-0.51036 q 0.44981,0 0.68336,-0.0605 0.24221,-0.0692 0.34601,-0.24221 0.10381,-0.173 0.10381,-0.52766 v -1.64355 q 0,-0.35466 -0.10381,-0.52766 -0.1038,-0.18166 -0.34601,-0.23356 -0.23355,-0.0605 -0.69201,-0.0605 -0.42387,0 -0.65742,0.0692 -0.23356,0.0692 -0.33736,0.25086 -0.1038,0.173 -0.1038,0.50171 v 1.64355 q 0,0.35466 0.0952,0.52766 0.1038,0.17301 0.33736,0.24221 0.23355,0.0605 0.67472,0.0605 z"
           inkscape:connector-curvature="0" />
        <path
           id="path27-6"
           style="font-style:normal;font-variant:normal;font-weight:normal;font-stretch:normal;font-family:Play;-inkscape-font-specification:Play;fill:#282828;fill-opacity:1;stroke-width:0.21625593"
           d="m 186.02311,261.58595 q -1.92035,0 -1.92035,-1.28023 v -1.6522 q 0,-0.76122 0.43251,-1.08993 0.44116,-0.33736 1.41864,-0.33736 0.92557,0 1.33214,0.32006 0.41521,0.32006 0.41521,1.10723 v 0.92558 h -2.81133 v 0.63147 q 0,0.43251 0.30276,0.62281 0.30276,0.19031 0.93422,0.19031 0.59687,0 1.40999,-0.20761 v 0.59687 q -0.79582,0.173 -1.51379,0.173 z m 0.89963,-2.51722 v -0.65741 q 0,-0.38061 -0.23356,-0.51902 -0.22491,-0.14705 -0.77852,-0.14705 -0.53632,0 -0.77852,0.14705 -0.24221,0.13841 -0.24221,0.51902 v 0.65741 z"
           inkscape:connector-curvature="0" />
        <path
           id="path29-0"
           style="font-style:normal;font-variant:normal;font-weight:normal;font-stretch:normal;font-family:Play;-inkscape-font-specification:Play;fill:#282828;fill-opacity:1;stroke-width:0.21625593"
           d="m 188.88769,255.44428 h 0.77852 v 6.05517 h -0.77852 z"
           inkscape:connector-curvature="0" />
        <path
           id="path31-6"
           style="font-style:normal;font-variant:normal;font-weight:normal;font-stretch:normal;font-family:Play;-inkscape-font-specification:Play;fill:#282828;fill-opacity:1;stroke-width:0.21625593"
           d="m 192.78111,261.58595 q -1.92035,0 -1.92035,-1.28023 v -1.6522 q 0,-0.76122 0.43251,-1.08993 0.44116,-0.33736 1.41864,-0.33736 0.92557,0 1.33214,0.32006 0.41521,0.32006 0.41521,1.10723 v 0.92558 h -2.81133 v 0.63147 q 0,0.43251 0.30276,0.62281 0.30276,0.19031 0.93422,0.19031 0.59687,0 1.40999,-0.20761 v 0.59687 q -0.79582,0.173 -1.51379,0.173 z m 0.89963,-2.51722 v -0.65741 q 0,-0.38061 -0.23356,-0.51902 -0.22491,-0.14705 -0.77852,-0.14705 -0.53632,0 -0.77852,0.14705 -0.24221,0.13841 -0.24221,0.51902 v 0.65741 z"
           inkscape:connector-curvature="0" />
        <path
           id="path33-2"
           style="font-style:normal;font-variant:normal;font-weight:normal;font-stretch:normal;font-family:Play;-inkscape-font-specification:Play;fill:#282828;fill-opacity:1;stroke-width:0.21625593"
           d="m 195.64569,255.44428 h 0.77852 v 6.05517 h -0.77852 z m 0.87367,3.76286 1.76465,-1.8944 h 0.95153 l -1.81655,1.8944 1.9809,2.29231 h -0.96882 z"
           inkscape:connector-curvature="0" />
        <path
           id="path35-6"
           style="font-style:normal;font-variant:normal;font-weight:normal;font-stretch:normal;font-family:Play;-inkscape-font-specification:Play;fill:#282828;fill-opacity:1;stroke-width:0.21625593"
           d="m 201.84507,261.58595 q -0.53631,0 -0.83907,-0.11245 -0.30276,-0.1211 -0.44116,-0.39791 -0.12976,-0.28546 -0.12976,-0.79582 v -2.45667 h -0.93422 v -0.51036 h 0.93422 v -1.29754 h 0.78718 v 1.29754 h 1.49649 v 0.51036 h -1.49649 v 2.49992 q 0,0.31141 0.0692,0.46711 0.0779,0.15571 0.25951,0.22491 0.1903,0.0605 0.54496,0.0605 0.11245,0 0.62282,-0.0692 v 0.51036 q -0.44116,0.0692 -0.87368,0.0692 z"
           inkscape:connector-curvature="0" />
        <path
           id="path37-1"
           style="font-style:normal;font-variant:normal;font-weight:normal;font-stretch:normal;font-family:Play;-inkscape-font-specification:Play;fill:#282828;fill-opacity:1;stroke-width:0.21625593"
           d="m 203.56944,257.31274 h 0.73527 v 0.68336 q 0,-0.19895 0.17301,-0.37196 0.173,-0.18165 0.44116,-0.28545 0.26816,-0.11246 0.52767,-0.11246 h 0.38061 v 0.66607 h -0.43252 q -0.55361,0 -0.80447,0.14706 -0.2422,0.1384 -0.2422,0.51036 v 2.94973 h -0.77853 z"
           inkscape:connector-curvature="0" />
        <path
           id="path39-8"
           style="font-style:normal;font-variant:normal;font-weight:normal;font-stretch:normal;font-family:Play;-inkscape-font-specification:Play;fill:#282828;fill-opacity:1;stroke-width:0.21625593"
           d="m 207.89943,261.58595 q -0.59687,0 -0.92558,-0.11245 -0.32005,-0.11245 -0.46711,-0.39791 -0.1384,-0.28546 -0.1384,-0.82177 0,-0.47577 0.12975,-0.73527 0.1384,-0.26816 0.45846,-0.38061 0.32871,-0.11246 0.92558,-0.11246 h 1.25428 v -0.66607 q 0,-0.23355 -0.0952,-0.35466 -0.0865,-0.12975 -0.30276,-0.18165 -0.2076,-0.0519 -0.61416,-0.0519 -0.64877,0 -1.43594,0.1038 v -0.57091 q 0.85637,-0.0779 1.54839,-0.0779 0.72662,0 1.07263,0.11246 0.34601,0.1038 0.47576,0.37196 0.12975,0.26815 0.12975,0.83042 v 2.95838 h -0.75257 v -0.39791 q -0.0952,0.48441 -1.26293,0.48441 z m 0.12975,-0.51036 q 0.42386,0 0.71797,-0.0605 0.38926,-0.0779 0.38926,-0.36331 v -1.14183 h -1.20238 q -0.37196,0 -0.53631,0.0605 -0.16436,0.0519 -0.21626,0.2076 -0.0519,0.15571 -0.0519,0.50172 0,0.31141 0.0606,0.48441 0.0606,0.16435 0.21626,0.24221 0.1557,0.0692 0.46711,0.0692 z"
           inkscape:connector-curvature="0" />
        <path
           id="path41-7"
           style="font-style:normal;font-variant:normal;font-weight:normal;font-stretch:normal;font-family:Play;-inkscape-font-specification:Play;fill:#282828;fill-opacity:1;stroke-width:0.21625593"
           d="m 211.18746,260.56522 h 1.00343 v 0.93423 h -1.00343 z"
           inkscape:connector-curvature="0" />
        <path
           id="path44-9"
           style="font-style:normal;font-variant:normal;font-weight:normal;font-stretch:normal;font-family:Play;-inkscape-font-specification:Play;fill:#282828;fill-opacity:1;stroke-width:0.21625593"
           d="m 215.24321,261.58595 q -0.55362,0 -0.83042,-0.0433 -0.27681,-0.0346 -0.55362,-0.16435 -0.28546,-0.12976 -0.41521,-0.41521 -0.12975,-0.29411 -0.12975,-0.78718 v -1.45324 q 0,-0.38926 0.0951,-0.68336 0.0952,-0.29411 0.25086,-0.45847 0.12975,-0.14705 0.38926,-0.2249 0.26815,-0.0865 0.54496,-0.11246 0.31141,-0.0173 0.64877,-0.0173 0.44981,0 0.67472,0.026 0.23356,0.0173 0.49306,0.0865 0.26816,0.0779 0.41521,0.23355 0.14706,0.15571 0.25086,0.44981 0.0952,0.30276 0.0952,0.70067 v 1.45324 q 0,0.73527 -0.33736,1.07263 -0.1384,0.13841 -0.39791,0.21626 -0.2595,0.0779 -0.53631,0.1038 -0.32871,0.0173 -0.65742,0.0173 z m 0,-0.51036 q 0.36331,0 0.52766,-0.0173 0.16436,-0.0173 0.32006,-0.0951 0.15571,-0.0692 0.21626,-0.22491 0.0692,-0.16435 0.0692,-0.44981 v -1.69545 q 0,-0.38926 -0.0951,-0.56226 -0.0951,-0.18166 -0.32871,-0.23356 -0.22491,-0.0605 -0.70932,-0.0605 -0.48441,0 -0.71797,0.0605 -0.22491,0.0519 -0.32006,0.23356 -0.0952,0.173 -0.0952,0.56226 v 1.69545 q 0,0.28546 0.0606,0.44981 0.0692,0.1557 0.22491,0.22491 0.1557,0.0779 0.32006,0.0951 0.16435,0.0173 0.52766,0.0173 z"
           inkscape:connector-curvature="0" />
        <path
           id="path46-2"
           style="font-style:normal;font-variant:normal;font-weight:normal;font-stretch:normal;font-family:Play;-inkscape-font-specification:Play;fill:#282828;fill-opacity:1;stroke-width:0.21625593"
           d="m 218.38635,257.31274 h 0.73527 v 0.68336 q 0,-0.19895 0.17301,-0.37196 0.173,-0.18165 0.44116,-0.28545 0.26816,-0.11246 0.52767,-0.11246 h 0.38061 v 0.66607 h -0.43252 q -0.55361,0 -0.80447,0.14706 -0.2422,0.1384 -0.2422,0.51036 v 2.94973 h -0.77853 z"
           inkscape:connector-curvature="0" />
        <path
           id="path48-0"
           style="font-style:normal;font-variant:normal;font-weight:normal;font-stretch:normal;font-family:Play;-inkscape-font-specification:Play;fill:#282828;fill-opacity:1;stroke-width:0.21625593"
           d="m 223.01045,263.4025 q -0.85638,0 -1.44459,-0.0951 v -0.55361 q 1.03803,0.1211 1.51379,0.1211 0.59687,0 0.86502,-0.19031 0.27681,-0.1903 0.27681,-0.63146 v -1.00343 q -0.0173,0.27681 -0.38061,0.40656 -0.35466,0.12975 -0.89962,0.12975 -0.64877,0 -1.01208,-0.1211 -0.35466,-0.1211 -0.51037,-0.39791 -0.14705,-0.27681 -0.14705,-0.75257 v -1.7041 q 0,-0.74392 0.39791,-1.06398 0.40656,-0.32006 1.32349,-0.32006 1.08993,0 1.28023,0.49307 v -0.40656 H 225 v 4.58462 q 0,0.57957 -0.21625,0.90828 -0.21626,0.32871 -0.64877,0.45846 -0.43251,0.1384 -1.12453,0.1384 z m 0.0952,-2.33556 q 0.61417,0 0.86502,-0.14706 0.25086,-0.14705 0.25086,-0.55361 v -1.8944 q 0,-0.28546 -0.0952,-0.43251 -0.0865,-0.14706 -0.32871,-0.20761 -0.24221,-0.0692 -0.70932,-0.0692 -0.44116,0 -0.66607,0.0606 -0.21625,0.0605 -0.30276,0.21626 -0.0779,0.14705 -0.0779,0.43251 v 1.8944 q 0,0.29411 0.0865,0.44116 0.0865,0.14706 0.31141,0.20761 0.22491,0.0519 0.66607,0.0519 z"
           inkscape:connector-curvature="0" />
      </g>
      <path
         id="path49-2"
         d="m 65.086346,128.0338 h 21.602269 v 4.46795 H 71.900647 v 5.99663 h 13.3552 v 4.46796 h -13.3552 v 6.72426 h 15.227489 v 4.46796 h -22.04179 z"
         class="cls-4"
         inkscape:connector-curvature="0"
         style="fill:#282828;stroke-width:0.33233652" />
      <path
         id="path51-2"
         d="m 91.627167,125.98173 h 6.37132 v 28.17683 h -6.37132 z"
         class="cls-4"
         inkscape:connector-curvature="0"
         style="fill:#282828;stroke-width:0.33233652" />
      <path
         id="path53-8"
         d="m 103.14122,148.23852 v -7.00192 q 0,-3.66053 2.55407,-5.31367 2.55407,-1.65314 7.87676,-1.64995 5.02162,0 7.35419,1.59569 2.33257,1.5957 2.33257,5.37431 v 4.7488 h -13.70128 v 1.76803 q 0,1.69463 1.30818,2.41589 1.30818,0.72125 4.7136,0.72444 a 31.365166,28.923607 0 0 0 7.0704,-0.84572 v 3.74351 a 39.598392,36.515935 0 0 1 -8.3059,0.76593 q -11.20259,-0.006 -11.20259,-6.32534 z M 117.1955,142.644 v -2.818 a 1.7303964,1.5956972 0 0 0 -0.85135,-1.44889 c -0.56757,-0.31914 -1.52275,-0.4819 -2.85862,-0.4819 -1.54351,0 -2.57483,0.15957 -3.11471,0.4819 a 1.8099947,1.6690993 0 0 0 -0.82713,1.44889 v 2.818 z"
         class="cls-4"
         inkscape:connector-curvature="0"
         style="fill:#282828;stroke-width:0.33233652" />
      <path
         id="path55-9"
         d="m 128.14891,125.98173 h 6.37132 v 28.17683 h -6.37132 z m 6.63434,17.23353 6.92159,-8.53059 h 7.28843 l -7.33342,8.4923 7.95982,10.98797 h -7.20191 z"
         class="cls-4"
         inkscape:connector-curvature="0"
         style="fill:#282828;stroke-width:0.33233652" />
      <path
         id="path57-7"
         d="m 159.56945,154.43621 a 9.9878483,9.2103642 0 0 1 -2.1803,-0.4819 5.28117,4.8700679 0 0 1 -1.98649,-1.00848 5.0077673,4.6179477 0 0 1 -1.24243,-1.77123 7.5756757,6.9859623 0 0 1 -0.52604,-2.69673 v -10.18054 h -4.27754 v -3.60628 h 4.27754 v -5.64877 h 6.37132 v 5.64877 h 5.80721 v 3.60628 h -5.80721 v 9.17525 a 7.5479893,6.9604312 0 0 0 0.26302,2.11271 1.7926907,1.6531423 0 0 0 1.00363,1.00848 5.9525638,5.4891984 0 0 0 2.27028,0.29999 21.072768,19.432401 0 0 0 2.27028,-0.20106 v 3.66372 a 34.196095,31.534168 0 0 1 -3.53693,0.20106 23.474558,21.647228 0 0 1 -2.70634,-0.12127 z"
         class="cls-4"
         inkscape:connector-curvature="0"
         style="fill:#282828;stroke-width:0.33233652" />
      <path
         id="path59-3"
         d="m 169.49501,134.69105 h 6.06677 v 3.42117 a 3.0178114,2.7828959 0 0 1 0.82713,-1.81271 6.41631,5.9168452 0 0 1 2.118,-1.44889 5.949103,5.486007 0 0 1 2.55407,-0.56169 h 2.26682 v 4.87007 h -2.1803 q -2.7098,0 -3.99376,0.76274 -1.28395,0.76275 -1.28741,2.53716 v 11.69966 h -6.37132 z"
         class="cls-4"
         inkscape:connector-curvature="0"
         style="fill:#282828;stroke-width:0.33233652" />
      <path
         id="path61-6"
         d="m 188.35287,154.05324 a 3.4227242,3.1562891 0 0 1 -2.05225,-1.80952 c -0.39107,-0.87444 -0.58834,-2.17972 -0.58834,-3.92542 q 0,-2.32971 0.63333,-3.66372 a 3.910696,3.6062757 0 0 1 2.04879,-1.91483 q 1.41892,-0.57765 3.90723,-0.58084 h 7.15692 v -1.33081 a 4.2290889,3.899884 0 0 0 -0.3703,-1.85101 2.0764757,1.9148366 0 0 0 -1.35317,-0.84253 12.17853,11.230517 0 0 0 -2.94514,-0.24254 71.067382,65.535284 0 0 0 -7.41994,0.4819 v -3.68287 a 65.242868,60.164167 0 0 1 8.08095,-0.41807 q 4.05951,0 6.26404,0.56168 2.20452,0.56169 3.16316,1.93399 0.95518,1.36911 0.95518,3.98605 v 13.40386 h -6.22942 v -1.77123 a 4.1148828,3.7945679 0 0 1 -2.00726,1.64995 q -1.26665,0.5202 -4.80012,0.52339 -2.98321,-0.003 -4.44366,-0.50743 z m 9.66599,-3.28075 a 2.0037991,1.8478174 0 0 0 0.85136,-0.23936 1.4154643,1.3052803 0 0 0 0.41529,-0.52339 1.9242009,1.7744153 0 0 0 0.17304,-0.84572 v -3.78499 h -4.35368 a 7.6448915,7.0497902 0 0 0 -2.09378,0.18191 1.2493462,1.1520934 0 0 0 -0.83059,0.72445 6.7450854,6.2200277 0 0 0 -0.21803,1.91483 6.2986431,5.8083378 0 0 0 0.21803,1.85101 1.1905128,1.0978397 0 0 0 0.85136,0.68615 9.8840245,9.1146224 0 0 0 2.24952,0.15957 20.072599,18.510088 0 0 0 2.73748,-0.12446 z"
         class="cls-4"
         inkscape:connector-curvature="0"
         style="fill:#282828;stroke-width:0.33233652" />
      <g
         id="text83-1"
         style="font-style:normal;font-weight:normal;font-size:8.65023804px;line-height:1.25;font-family:sans-serif;letter-spacing:0px;word-spacing:0px;fill:#282828;fill-opacity:1;stroke:none;stroke-width:0.21625593"
         aria-label="libelektra.org"
         transform="translate(-19.166666,-97.640775)">
        <path
           id="path21-2"
           style="font-style:normal;font-variant:normal;font-weight:normal;font-stretch:normal;font-family:Play;-inkscape-font-specification:Play;fill:#282828;fill-opacity:1;stroke-width:0.21625593"
           d="m 175.00001,255.44428 h 0.77852 v 6.05517 h -0.77852 z"
           inkscape:connector-curvature="0" />
        <path
           id="path23-93"
           style="font-style:normal;font-variant:normal;font-weight:normal;font-stretch:normal;font-family:Play;-inkscape-font-specification:Play;fill:#282828;fill-opacity:1;stroke-width:0.21625593"
           d="m 177.12877,255.79894 h 0.77853 v 0.81313 h -0.77853 z m 0,1.5138 h 0.77853 v 4.18671 h -0.77853 z"
           inkscape:connector-curvature="0" />
        <path
           id="path25-1"
           style="font-style:normal;font-variant:normal;font-weight:normal;font-stretch:normal;font-family:Play;-inkscape-font-specification:Play;fill:#282828;fill-opacity:1;stroke-width:0.21625593"
           d="m 181.126,261.58595 q -0.46712,0 -0.75258,-0.0519 -0.2768,-0.0433 -0.55361,-0.173 -0.56227,-0.26816 -0.56227,-1.22834 v -4.68843 h 0.77853 v 1.25429 0.49306 q -0.009,0.22491 -0.009,0.50172 0.0433,-0.19896 0.36331,-0.33736 0.3287,-0.12976 0.95152,-0.12976 1.73005,0 1.73005,1.18509 v 1.72139 q 0,0.37196 -0.11245,0.64877 -0.10381,0.27681 -0.27681,0.43251 -0.15571,0.14706 -0.43251,0.23356 -0.26816,0.0865 -0.53632,0.11245 -0.2422,0.026 -0.58821,0.026 z m 0.0173,-0.51036 q 0.44981,0 0.68336,-0.0605 0.24221,-0.0692 0.34601,-0.24221 0.10381,-0.173 0.10381,-0.52766 v -1.64355 q 0,-0.35466 -0.10381,-0.52766 -0.1038,-0.18166 -0.34601,-0.23356 -0.23355,-0.0605 -0.69201,-0.0605 -0.42387,0 -0.65742,0.0692 -0.23356,0.0692 -0.33736,0.25086 -0.1038,0.173 -0.1038,0.50171 v 1.64355 q 0,0.35466 0.0952,0.52766 0.1038,0.17301 0.33736,0.24221 0.23355,0.0605 0.67472,0.0605 z"
           inkscape:connector-curvature="0" />
        <path
           id="path27-9"
           style="font-style:normal;font-variant:normal;font-weight:normal;font-stretch:normal;font-family:Play;-inkscape-font-specification:Play;fill:#282828;fill-opacity:1;stroke-width:0.21625593"
           d="m 186.02311,261.58595 q -1.92035,0 -1.92035,-1.28023 v -1.6522 q 0,-0.76122 0.43251,-1.08993 0.44116,-0.33736 1.41864,-0.33736 0.92557,0 1.33214,0.32006 0.41521,0.32006 0.41521,1.10723 v 0.92558 h -2.81133 v 0.63147 q 0,0.43251 0.30276,0.62281 0.30276,0.19031 0.93422,0.19031 0.59687,0 1.40999,-0.20761 v 0.59687 q -0.79582,0.173 -1.51379,0.173 z m 0.89963,-2.51722 v -0.65741 q 0,-0.38061 -0.23356,-0.51902 -0.22491,-0.14705 -0.77852,-0.14705 -0.53632,0 -0.77852,0.14705 -0.24221,0.13841 -0.24221,0.51902 v 0.65741 z"
           inkscape:connector-curvature="0" />
        <path
           id="path29-4"
           style="font-style:normal;font-variant:normal;font-weight:normal;font-stretch:normal;font-family:Play;-inkscape-font-specification:Play;fill:#282828;fill-opacity:1;stroke-width:0.21625593"
           d="m 188.88769,255.44428 h 0.77852 v 6.05517 h -0.77852 z"
           inkscape:connector-curvature="0" />
        <path
           id="path31-7"
           style="font-style:normal;font-variant:normal;font-weight:normal;font-stretch:normal;font-family:Play;-inkscape-font-specification:Play;fill:#282828;fill-opacity:1;stroke-width:0.21625593"
           d="m 192.78111,261.58595 q -1.92035,0 -1.92035,-1.28023 v -1.6522 q 0,-0.76122 0.43251,-1.08993 0.44116,-0.33736 1.41864,-0.33736 0.92557,0 1.33214,0.32006 0.41521,0.32006 0.41521,1.10723 v 0.92558 h -2.81133 v 0.63147 q 0,0.43251 0.30276,0.62281 0.30276,0.19031 0.93422,0.19031 0.59687,0 1.40999,-0.20761 v 0.59687 q -0.79582,0.173 -1.51379,0.173 z m 0.89963,-2.51722 v -0.65741 q 0,-0.38061 -0.23356,-0.51902 -0.22491,-0.14705 -0.77852,-0.14705 -0.53632,0 -0.77852,0.14705 -0.24221,0.13841 -0.24221,0.51902 v 0.65741 z"
           inkscape:connector-curvature="0" />
        <path
           id="path33-8"
           style="font-style:normal;font-variant:normal;font-weight:normal;font-stretch:normal;font-family:Play;-inkscape-font-specification:Play;fill:#282828;fill-opacity:1;stroke-width:0.21625593"
           d="m 195.64569,255.44428 h 0.77852 v 6.05517 h -0.77852 z m 0.87367,3.76286 1.76465,-1.8944 h 0.95153 l -1.81655,1.8944 1.9809,2.29231 h -0.96882 z"
           inkscape:connector-curvature="0" />
        <path
           id="path35-4"
           style="font-style:normal;font-variant:normal;font-weight:normal;font-stretch:normal;font-family:Play;-inkscape-font-specification:Play;fill:#282828;fill-opacity:1;stroke-width:0.21625593"
           d="m 201.84507,261.58595 q -0.53631,0 -0.83907,-0.11245 -0.30276,-0.1211 -0.44116,-0.39791 -0.12976,-0.28546 -0.12976,-0.79582 v -2.45667 h -0.93422 v -0.51036 h 0.93422 v -1.29754 h 0.78718 v 1.29754 h 1.49649 v 0.51036 h -1.49649 v 2.49992 q 0,0.31141 0.0692,0.46711 0.0779,0.15571 0.25951,0.22491 0.1903,0.0605 0.54496,0.0605 0.11245,0 0.62282,-0.0692 v 0.51036 q -0.44116,0.0692 -0.87368,0.0692 z"
           inkscape:connector-curvature="0" />
        <path
           id="path37-5"
           style="font-style:normal;font-variant:normal;font-weight:normal;font-stretch:normal;font-family:Play;-inkscape-font-specification:Play;fill:#282828;fill-opacity:1;stroke-width:0.21625593"
           d="m 203.56944,257.31274 h 0.73527 v 0.68336 q 0,-0.19895 0.17301,-0.37196 0.173,-0.18165 0.44116,-0.28545 0.26816,-0.11246 0.52767,-0.11246 h 0.38061 v 0.66607 h -0.43252 q -0.55361,0 -0.80447,0.14706 -0.2422,0.1384 -0.2422,0.51036 v 2.94973 h -0.77853 z"
           inkscape:connector-curvature="0" />
        <path
           id="path39-0"
           style="font-style:normal;font-variant:normal;font-weight:normal;font-stretch:normal;font-family:Play;-inkscape-font-specification:Play;fill:#282828;fill-opacity:1;stroke-width:0.21625593"
           d="m 207.89943,261.58595 q -0.59687,0 -0.92558,-0.11245 -0.32005,-0.11245 -0.46711,-0.39791 -0.1384,-0.28546 -0.1384,-0.82177 0,-0.47577 0.12975,-0.73527 0.1384,-0.26816 0.45846,-0.38061 0.32871,-0.11246 0.92558,-0.11246 h 1.25428 v -0.66607 q 0,-0.23355 -0.0952,-0.35466 -0.0865,-0.12975 -0.30276,-0.18165 -0.2076,-0.0519 -0.61416,-0.0519 -0.64877,0 -1.43594,0.1038 v -0.57091 q 0.85637,-0.0779 1.54839,-0.0779 0.72662,0 1.07263,0.11246 0.34601,0.1038 0.47576,0.37196 0.12975,0.26815 0.12975,0.83042 v 2.95838 h -0.75257 v -0.39791 q -0.0952,0.48441 -1.26293,0.48441 z m 0.12975,-0.51036 q 0.42386,0 0.71797,-0.0605 0.38926,-0.0779 0.38926,-0.36331 v -1.14183 h -1.20238 q -0.37196,0 -0.53631,0.0605 -0.16436,0.0519 -0.21626,0.2076 -0.0519,0.15571 -0.0519,0.50172 0,0.31141 0.0606,0.48441 0.0606,0.16435 0.21626,0.24221 0.1557,0.0692 0.46711,0.0692 z"
           inkscape:connector-curvature="0" />
        <path
           id="path41-3"
           style="font-style:normal;font-variant:normal;font-weight:normal;font-stretch:normal;font-family:Play;-inkscape-font-specification:Play;fill:#282828;fill-opacity:1;stroke-width:0.21625593"
           d="m 211.18746,260.56522 h 1.00343 v 0.93423 h -1.00343 z"
           inkscape:connector-curvature="0" />
        <path
           id="path44-6"
           style="font-style:normal;font-variant:normal;font-weight:normal;font-stretch:normal;font-family:Play;-inkscape-font-specification:Play;fill:#282828;fill-opacity:1;stroke-width:0.21625593"
           d="m 215.24321,261.58595 q -0.55362,0 -0.83042,-0.0433 -0.27681,-0.0346 -0.55362,-0.16435 -0.28546,-0.12976 -0.41521,-0.41521 -0.12975,-0.29411 -0.12975,-0.78718 v -1.45324 q 0,-0.38926 0.0951,-0.68336 0.0952,-0.29411 0.25086,-0.45847 0.12975,-0.14705 0.38926,-0.2249 0.26815,-0.0865 0.54496,-0.11246 0.31141,-0.0173 0.64877,-0.0173 0.44981,0 0.67472,0.026 0.23356,0.0173 0.49306,0.0865 0.26816,0.0779 0.41521,0.23355 0.14706,0.15571 0.25086,0.44981 0.0952,0.30276 0.0952,0.70067 v 1.45324 q 0,0.73527 -0.33736,1.07263 -0.1384,0.13841 -0.39791,0.21626 -0.2595,0.0779 -0.53631,0.1038 -0.32871,0.0173 -0.65742,0.0173 z m 0,-0.51036 q 0.36331,0 0.52766,-0.0173 0.16436,-0.0173 0.32006,-0.0951 0.15571,-0.0692 0.21626,-0.22491 0.0692,-0.16435 0.0692,-0.44981 v -1.69545 q 0,-0.38926 -0.0951,-0.56226 -0.0951,-0.18166 -0.32871,-0.23356 -0.22491,-0.0605 -0.70932,-0.0605 -0.48441,0 -0.71797,0.0605 -0.22491,0.0519 -0.32006,0.23356 -0.0952,0.173 -0.0952,0.56226 v 1.69545 q 0,0.28546 0.0606,0.44981 0.0692,0.1557 0.22491,0.22491 0.1557,0.0779 0.32006,0.0951 0.16435,0.0173 0.52766,0.0173 z"
           inkscape:connector-curvature="0" />
        <path
           id="path46-1"
           style="font-style:normal;font-variant:normal;font-weight:normal;font-stretch:normal;font-family:Play;-inkscape-font-specification:Play;fill:#282828;fill-opacity:1;stroke-width:0.21625593"
           d="m 218.38635,257.31274 h 0.73527 v 0.68336 q 0,-0.19895 0.17301,-0.37196 0.173,-0.18165 0.44116,-0.28545 0.26816,-0.11246 0.52767,-0.11246 h 0.38061 v 0.66607 h -0.43252 q -0.55361,0 -0.80447,0.14706 -0.2422,0.1384 -0.2422,0.51036 v 2.94973 h -0.77853 z"
           inkscape:connector-curvature="0" />
        <path
           id="path48-06"
           style="font-style:normal;font-variant:normal;font-weight:normal;font-stretch:normal;font-family:Play;-inkscape-font-specification:Play;fill:#282828;fill-opacity:1;stroke-width:0.21625593"
           d="m 223.01045,263.4025 q -0.85638,0 -1.44459,-0.0951 v -0.55361 q 1.03803,0.1211 1.51379,0.1211 0.59687,0 0.86502,-0.19031 0.27681,-0.1903 0.27681,-0.63146 v -1.00343 q -0.0173,0.27681 -0.38061,0.40656 -0.35466,0.12975 -0.89962,0.12975 -0.64877,0 -1.01208,-0.1211 -0.35466,-0.1211 -0.51037,-0.39791 -0.14705,-0.27681 -0.14705,-0.75257 v -1.7041 q 0,-0.74392 0.39791,-1.06398 0.40656,-0.32006 1.32349,-0.32006 1.08993,0 1.28023,0.49307 v -0.40656 H 225 v 4.58462 q 0,0.57957 -0.21625,0.90828 -0.21626,0.32871 -0.64877,0.45846 -0.43251,0.1384 -1.12453,0.1384 z m 0.0952,-2.33556 q 0.61417,0 0.86502,-0.14706 0.25086,-0.14705 0.25086,-0.55361 v -1.8944 q 0,-0.28546 -0.0952,-0.43251 -0.0865,-0.14706 -0.32871,-0.20761 -0.24221,-0.0692 -0.70932,-0.0692 -0.44116,0 -0.66607,0.0606 -0.21625,0.0605 -0.30276,0.21626 -0.0779,0.14705 -0.0779,0.43251 v 1.8944 q 0,0.29411 0.0865,0.44116 0.0865,0.14706 0.31141,0.20761 0.22491,0.0519 0.66607,0.0519 z"
           inkscape:connector-curvature="0" />
      </g>
      <path
         id="path49-5"
         d="M 64.330391,187.98084 H 85.93266 v 4.46795 H 71.144692 v 5.99663 h 13.3552 v 4.46795 h -13.3552 v 6.72427 h 15.227489 v 4.46795 h -22.04179 z"
         class="cls-4"
         inkscape:connector-curvature="0"
         style="fill:#282828;stroke-width:0.33233652" />
      <path
         id="path51-54"
         d="m 90.871212,185.92877 h 6.37132 v 28.17682 h -6.37132 z"
         class="cls-4"
         inkscape:connector-curvature="0"
         style="fill:#282828;stroke-width:0.33233652" />
      <path
         id="path53-7"
         d="m 102.38527,208.18556 v -7.00192 q 0,-3.66053 2.55407,-5.31367 2.55406,-1.65315 7.87676,-1.64995 5.02161,0 7.35418,1.59569 2.33258,1.5957 2.33258,5.37431 v 4.7488 h -13.70128 v 1.76803 q 0,1.69463 1.30818,2.41588 1.30818,0.72126 4.7136,0.72445 a 31.365166,28.923607 0 0 0 7.0704,-0.84572 v 3.74351 a 39.598392,36.515935 0 0 1 -8.3059,0.76593 q -11.20259,-0.006 -11.20259,-6.32534 z m 14.05428,-5.59452 v -2.818 a 1.7303964,1.5956972 0 0 0 -0.85136,-1.44889 c -0.56757,-0.31914 -1.52274,-0.4819 -2.85861,-0.4819 -1.54351,0 -2.57483,0.15957 -3.11471,0.4819 a 1.8099947,1.6690993 0 0 0 -0.82713,1.44889 v 2.818 z"
         class="cls-4"
         inkscape:connector-curvature="0"
         style="fill:#282828;stroke-width:0.33233652" />
      <path
         id="path55-6"
         d="m 127.39296,185.92877 h 6.37132 v 28.17682 h -6.37132 z m 6.63434,17.23353 6.92159,-8.53059 h 7.28843 l -7.33343,8.4923 7.95983,10.98797 h -7.20191 z"
         class="cls-4"
         inkscape:connector-curvature="0"
         style="fill:#282828;stroke-width:0.33233652" />
      <path
         id="path57-5"
         d="m 158.8135,214.38325 a 9.9878483,9.2103642 0 0 1 -2.1803,-0.4819 5.28117,4.8700679 0 0 1 -1.9865,-1.00849 5.0077673,4.6179477 0 0 1 -1.24242,-1.77122 7.5756757,6.9859623 0 0 1 -0.52604,-2.69673 v -10.18055 h -4.27754 v -3.60627 h 4.27754 v -5.64877 h 6.37132 v 5.64877 h 5.80721 v 3.60627 h -5.80721 v 9.17526 a 7.5479893,6.9604312 0 0 0 0.26302,2.11271 1.7926907,1.6531423 0 0 0 1.00363,1.00848 5.9525638,5.4891984 0 0 0 2.27028,0.29999 21.072768,19.432401 0 0 0 2.27028,-0.20106 v 3.66372 a 34.196095,31.534168 0 0 1 -3.53693,0.20106 23.474558,21.647228 0 0 1 -2.70634,-0.12127 z"
         class="cls-4"
         inkscape:connector-curvature="0"
         style="fill:#282828;stroke-width:0.33233652" />
      <path
         id="path59-6"
         d="m 168.73905,194.63809 h 6.06677 v 3.42117 a 3.0178114,2.7828959 0 0 1 0.82713,-1.81271 6.41631,5.9168452 0 0 1 2.11801,-1.44889 5.949103,5.486007 0 0 1 2.55406,-0.56169 h 2.26682 v 4.87007 h -2.1803 q -2.7098,0 -3.99375,0.76274 -1.28396,0.76275 -1.28742,2.53716 v 11.69965 h -6.37132 z"
         class="cls-4"
         inkscape:connector-curvature="0"
         style="fill:#282828;stroke-width:0.33233652" />
      <path
         id="path61-9"
         d="m 187.59691,214.00028 a 3.4227242,3.1562891 0 0 1 -2.05225,-1.80952 c -0.39107,-0.87444 -0.58833,-2.17972 -0.58833,-3.92542 q 0,-2.32972 0.63332,-3.66372 a 3.910696,3.6062757 0 0 1 2.04879,-1.91483 q 1.41893,-0.57765 3.90724,-0.58084 h 7.15692 v -1.33081 a 4.2290889,3.899884 0 0 0 -0.37031,-1.85101 2.0764757,1.9148366 0 0 0 -1.35317,-0.84253 12.17853,11.230517 0 0 0 -2.94513,-0.24254 71.067382,65.535284 0 0 0 -7.41994,0.4819 v -3.68287 a 65.242868,60.164167 0 0 1 8.08095,-0.41807 q 4.05951,0 6.26403,0.56168 2.20453,0.56169 3.16317,1.93399 0.95518,1.3691 0.95518,3.98605 v 13.40385 h -6.22943 v -1.77122 a 4.1148828,3.7945679 0 0 1 -2.00726,1.64995 q -1.26665,0.5202 -4.80012,0.52339 -2.9832,-0.003 -4.44366,-0.50743 z m 9.666,-3.28076 a 2.0037991,1.8478174 0 0 0 0.85135,-0.23935 1.4154643,1.3052803 0 0 0 0.4153,-0.52339 1.9242009,1.7744153 0 0 0 0.17304,-0.84572 v -3.78499 h -4.35368 a 7.6448915,7.0497902 0 0 0 -2.09378,0.18191 1.2493462,1.1520934 0 0 0 -0.83059,0.72444 6.7450854,6.2200277 0 0 0 -0.21803,1.91484 6.2986431,5.8083378 0 0 0 0.21803,1.85101 1.1905128,1.0978397 0 0 0 0.85135,0.68615 9.8840245,9.1146224 0 0 0 2.24952,0.15957 20.072599,18.510088 0 0 0 2.73749,-0.12447 z"
         class="cls-4"
         inkscape:connector-curvature="0"
         style="fill:#282828;stroke-width:0.33233652" />
      <g
         id="text83-3"
         style="font-style:normal;font-weight:normal;font-size:8.65023804px;line-height:1.25;font-family:sans-serif;letter-spacing:0px;word-spacing:0px;fill:#282828;fill-opacity:1;stroke:none;stroke-width:0.21625593"
         aria-label="libelektra.org"
         transform="translate(-19.922619,-37.693759)">
        <path
           id="path21-7"
           style="font-style:normal;font-variant:normal;font-weight:normal;font-stretch:normal;font-family:Play;-inkscape-font-specification:Play;fill:#282828;fill-opacity:1;stroke-width:0.21625593"
           d="m 175.00001,255.44428 h 0.77852 v 6.05517 h -0.77852 z"
           inkscape:connector-curvature="0" />
        <path
           id="path23-4"
           style="font-style:normal;font-variant:normal;font-weight:normal;font-stretch:normal;font-family:Play;-inkscape-font-specification:Play;fill:#282828;fill-opacity:1;stroke-width:0.21625593"
           d="m 177.12877,255.79894 h 0.77853 v 0.81313 h -0.77853 z m 0,1.5138 h 0.77853 v 4.18671 h -0.77853 z"
           inkscape:connector-curvature="0" />
        <path
           id="path25-5"
           style="font-style:normal;font-variant:normal;font-weight:normal;font-stretch:normal;font-family:Play;-inkscape-font-specification:Play;fill:#282828;fill-opacity:1;stroke-width:0.21625593"
           d="m 181.126,261.58595 q -0.46712,0 -0.75258,-0.0519 -0.2768,-0.0433 -0.55361,-0.173 -0.56227,-0.26816 -0.56227,-1.22834 v -4.68843 h 0.77853 v 1.25429 0.49306 q -0.009,0.22491 -0.009,0.50172 0.0433,-0.19896 0.36331,-0.33736 0.3287,-0.12976 0.95152,-0.12976 1.73005,0 1.73005,1.18509 v 1.72139 q 0,0.37196 -0.11245,0.64877 -0.10381,0.27681 -0.27681,0.43251 -0.15571,0.14706 -0.43251,0.23356 -0.26816,0.0865 -0.53632,0.11245 -0.2422,0.026 -0.58821,0.026 z m 0.0173,-0.51036 q 0.44981,0 0.68336,-0.0605 0.24221,-0.0692 0.34601,-0.24221 0.10381,-0.173 0.10381,-0.52766 v -1.64355 q 0,-0.35466 -0.10381,-0.52766 -0.1038,-0.18166 -0.34601,-0.23356 -0.23355,-0.0605 -0.69201,-0.0605 -0.42387,0 -0.65742,0.0692 -0.23356,0.0692 -0.33736,0.25086 -0.1038,0.173 -0.1038,0.50171 v 1.64355 q 0,0.35466 0.0952,0.52766 0.1038,0.17301 0.33736,0.24221 0.23355,0.0605 0.67472,0.0605 z"
           inkscape:connector-curvature="0" />
        <path
           id="path27-2"
           style="font-style:normal;font-variant:normal;font-weight:normal;font-stretch:normal;font-family:Play;-inkscape-font-specification:Play;fill:#282828;fill-opacity:1;stroke-width:0.21625593"
           d="m 186.02311,261.58595 q -1.92035,0 -1.92035,-1.28023 v -1.6522 q 0,-0.76122 0.43251,-1.08993 0.44116,-0.33736 1.41864,-0.33736 0.92557,0 1.33214,0.32006 0.41521,0.32006 0.41521,1.10723 v 0.92558 h -2.81133 v 0.63147 q 0,0.43251 0.30276,0.62281 0.30276,0.19031 0.93422,0.19031 0.59687,0 1.40999,-0.20761 v 0.59687 q -0.79582,0.173 -1.51379,0.173 z m 0.89963,-2.51722 v -0.65741 q 0,-0.38061 -0.23356,-0.51902 -0.22491,-0.14705 -0.77852,-0.14705 -0.53632,0 -0.77852,0.14705 -0.24221,0.13841 -0.24221,0.51902 v 0.65741 z"
           inkscape:connector-curvature="0" />
        <path
           id="path29-5"
           style="font-style:normal;font-variant:normal;font-weight:normal;font-stretch:normal;font-family:Play;-inkscape-font-specification:Play;fill:#282828;fill-opacity:1;stroke-width:0.21625593"
           d="m 188.88769,255.44428 h 0.77852 v 6.05517 h -0.77852 z"
           inkscape:connector-curvature="0" />
        <path
           id="path31-4"
           style="font-style:normal;font-variant:normal;font-weight:normal;font-stretch:normal;font-family:Play;-inkscape-font-specification:Play;fill:#282828;fill-opacity:1;stroke-width:0.21625593"
           d="m 192.78111,261.58595 q -1.92035,0 -1.92035,-1.28023 v -1.6522 q 0,-0.76122 0.43251,-1.08993 0.44116,-0.33736 1.41864,-0.33736 0.92557,0 1.33214,0.32006 0.41521,0.32006 0.41521,1.10723 v 0.92558 h -2.81133 v 0.63147 q 0,0.43251 0.30276,0.62281 0.30276,0.19031 0.93422,0.19031 0.59687,0 1.40999,-0.20761 v 0.59687 q -0.79582,0.173 -1.51379,0.173 z m 0.89963,-2.51722 v -0.65741 q 0,-0.38061 -0.23356,-0.51902 -0.22491,-0.14705 -0.77852,-0.14705 -0.53632,0 -0.77852,0.14705 -0.24221,0.13841 -0.24221,0.51902 v 0.65741 z"
           inkscape:connector-curvature="0" />
        <path
           id="path33-7"
           style="font-style:normal;font-variant:normal;font-weight:normal;font-stretch:normal;font-family:Play;-inkscape-font-specification:Play;fill:#282828;fill-opacity:1;stroke-width:0.21625593"
           d="m 195.64569,255.44428 h 0.77852 v 6.05517 h -0.77852 z m 0.87367,3.76286 1.76465,-1.8944 h 0.95153 l -1.81655,1.8944 1.9809,2.29231 h -0.96882 z"
           inkscape:connector-curvature="0" />
        <path
           id="path35-44"
           style="font-style:normal;font-variant:normal;font-weight:normal;font-stretch:normal;font-family:Play;-inkscape-font-specification:Play;fill:#282828;fill-opacity:1;stroke-width:0.21625593"
           d="m 201.84507,261.58595 q -0.53631,0 -0.83907,-0.11245 -0.30276,-0.1211 -0.44116,-0.39791 -0.12976,-0.28546 -0.12976,-0.79582 v -2.45667 h -0.93422 v -0.51036 h 0.93422 v -1.29754 h 0.78718 v 1.29754 h 1.49649 v 0.51036 h -1.49649 v 2.49992 q 0,0.31141 0.0692,0.46711 0.0779,0.15571 0.25951,0.22491 0.1903,0.0605 0.54496,0.0605 0.11245,0 0.62282,-0.0692 v 0.51036 q -0.44116,0.0692 -0.87368,0.0692 z"
           inkscape:connector-curvature="0" />
        <path
           id="path37-3"
           style="font-style:normal;font-variant:normal;font-weight:normal;font-stretch:normal;font-family:Play;-inkscape-font-specification:Play;fill:#282828;fill-opacity:1;stroke-width:0.21625593"
           d="m 203.56944,257.31274 h 0.73527 v 0.68336 q 0,-0.19895 0.17301,-0.37196 0.173,-0.18165 0.44116,-0.28545 0.26816,-0.11246 0.52767,-0.11246 h 0.38061 v 0.66607 h -0.43252 q -0.55361,0 -0.80447,0.14706 -0.2422,0.1384 -0.2422,0.51036 v 2.94973 h -0.77853 z"
           inkscape:connector-curvature="0" />
        <path
           id="path39-07"
           style="font-style:normal;font-variant:normal;font-weight:normal;font-stretch:normal;font-family:Play;-inkscape-font-specification:Play;fill:#282828;fill-opacity:1;stroke-width:0.21625593"
           d="m 207.89943,261.58595 q -0.59687,0 -0.92558,-0.11245 -0.32005,-0.11245 -0.46711,-0.39791 -0.1384,-0.28546 -0.1384,-0.82177 0,-0.47577 0.12975,-0.73527 0.1384,-0.26816 0.45846,-0.38061 0.32871,-0.11246 0.92558,-0.11246 h 1.25428 v -0.66607 q 0,-0.23355 -0.0952,-0.35466 -0.0865,-0.12975 -0.30276,-0.18165 -0.2076,-0.0519 -0.61416,-0.0519 -0.64877,0 -1.43594,0.1038 v -0.57091 q 0.85637,-0.0779 1.54839,-0.0779 0.72662,0 1.07263,0.11246 0.34601,0.1038 0.47576,0.37196 0.12975,0.26815 0.12975,0.83042 v 2.95838 h -0.75257 v -0.39791 q -0.0952,0.48441 -1.26293,0.48441 z m 0.12975,-0.51036 q 0.42386,0 0.71797,-0.0605 0.38926,-0.0779 0.38926,-0.36331 v -1.14183 h -1.20238 q -0.37196,0 -0.53631,0.0605 -0.16436,0.0519 -0.21626,0.2076 -0.0519,0.15571 -0.0519,0.50172 0,0.31141 0.0606,0.48441 0.0606,0.16435 0.21626,0.24221 0.1557,0.0692 0.46711,0.0692 z"
           inkscape:connector-curvature="0" />
        <path
           id="path41-8"
           style="font-style:normal;font-variant:normal;font-weight:normal;font-stretch:normal;font-family:Play;-inkscape-font-specification:Play;fill:#282828;fill-opacity:1;stroke-width:0.21625593"
           d="m 211.18746,260.56522 h 1.00343 v 0.93423 h -1.00343 z"
           inkscape:connector-curvature="0" />
        <path
           id="path44-68"
           style="font-style:normal;font-variant:normal;font-weight:normal;font-stretch:normal;font-family:Play;-inkscape-font-specification:Play;fill:#282828;fill-opacity:1;stroke-width:0.21625593"
           d="m 215.24321,261.58595 q -0.55362,0 -0.83042,-0.0433 -0.27681,-0.0346 -0.55362,-0.16435 -0.28546,-0.12976 -0.41521,-0.41521 -0.12975,-0.29411 -0.12975,-0.78718 v -1.45324 q 0,-0.38926 0.0951,-0.68336 0.0952,-0.29411 0.25086,-0.45847 0.12975,-0.14705 0.38926,-0.2249 0.26815,-0.0865 0.54496,-0.11246 0.31141,-0.0173 0.64877,-0.0173 0.44981,0 0.67472,0.026 0.23356,0.0173 0.49306,0.0865 0.26816,0.0779 0.41521,0.23355 0.14706,0.15571 0.25086,0.44981 0.0952,0.30276 0.0952,0.70067 v 1.45324 q 0,0.73527 -0.33736,1.07263 -0.1384,0.13841 -0.39791,0.21626 -0.2595,0.0779 -0.53631,0.1038 -0.32871,0.0173 -0.65742,0.0173 z m 0,-0.51036 q 0.36331,0 0.52766,-0.0173 0.16436,-0.0173 0.32006,-0.0951 0.15571,-0.0692 0.21626,-0.22491 0.0692,-0.16435 0.0692,-0.44981 v -1.69545 q 0,-0.38926 -0.0951,-0.56226 -0.0951,-0.18166 -0.32871,-0.23356 -0.22491,-0.0605 -0.70932,-0.0605 -0.48441,0 -0.71797,0.0605 -0.22491,0.0519 -0.32006,0.23356 -0.0952,0.173 -0.0952,0.56226 v 1.69545 q 0,0.28546 0.0606,0.44981 0.0692,0.1557 0.22491,0.22491 0.1557,0.0779 0.32006,0.0951 0.16435,0.0173 0.52766,0.0173 z"
           inkscape:connector-curvature="0" />
        <path
           id="path46-8"
           style="font-style:normal;font-variant:normal;font-weight:normal;font-stretch:normal;font-family:Play;-inkscape-font-specification:Play;fill:#282828;fill-opacity:1;stroke-width:0.21625593"
           d="m 218.38635,257.31274 h 0.73527 v 0.68336 q 0,-0.19895 0.17301,-0.37196 0.173,-0.18165 0.44116,-0.28545 0.26816,-0.11246 0.52767,-0.11246 h 0.38061 v 0.66607 h -0.43252 q -0.55361,0 -0.80447,0.14706 -0.2422,0.1384 -0.2422,0.51036 v 2.94973 h -0.77853 z"
           inkscape:connector-curvature="0" />
        <path
           id="path48-4"
           style="font-style:normal;font-variant:normal;font-weight:normal;font-stretch:normal;font-family:Play;-inkscape-font-specification:Play;fill:#282828;fill-opacity:1;stroke-width:0.21625593"
           d="m 223.01045,263.4025 q -0.85638,0 -1.44459,-0.0951 v -0.55361 q 1.03803,0.1211 1.51379,0.1211 0.59687,0 0.86502,-0.19031 0.27681,-0.1903 0.27681,-0.63146 v -1.00343 q -0.0173,0.27681 -0.38061,0.40656 -0.35466,0.12975 -0.89962,0.12975 -0.64877,0 -1.01208,-0.1211 -0.35466,-0.1211 -0.51037,-0.39791 -0.14705,-0.27681 -0.14705,-0.75257 v -1.7041 q 0,-0.74392 0.39791,-1.06398 0.40656,-0.32006 1.32349,-0.32006 1.08993,0 1.28023,0.49307 v -0.40656 H 225 v 4.58462 q 0,0.57957 -0.21625,0.90828 -0.21626,0.32871 -0.64877,0.45846 -0.43251,0.1384 -1.12453,0.1384 z m 0.0952,-2.33556 q 0.61417,0 0.86502,-0.14706 0.25086,-0.14705 0.25086,-0.55361 v -1.8944 q 0,-0.28546 -0.0952,-0.43251 -0.0865,-0.14706 -0.32871,-0.20761 -0.24221,-0.0692 -0.70932,-0.0692 -0.44116,0 -0.66607,0.0606 -0.21625,0.0605 -0.30276,0.21626 -0.0779,0.14705 -0.0779,0.43251 v 1.8944 q 0,0.29411 0.0865,0.44116 0.0865,0.14706 0.31141,0.20761 0.22491,0.0519 0.66607,0.0519 z"
           inkscape:connector-curvature="0" />
      </g>
      <path
         id="path49-0"
         d="m 64.330392,246.49152 h 21.602269 v 4.46795 H 71.144693 v 5.99663 h 13.3552 v 4.46795 h -13.3552 v 6.72427 h 15.227489 v 4.46795 h -22.04179 z"
         class="cls-4"
         inkscape:connector-curvature="0"
         style="fill:#282828;stroke-width:0.33233652" />
      <path
         id="path51-6"
         d="m 90.871213,244.43945 h 6.37132 v 28.17682 h -6.37132 z"
         class="cls-4"
         inkscape:connector-curvature="0"
         style="fill:#282828;stroke-width:0.33233652" />
      <path
         id="path53-89"
         d="m 102.38527,266.69624 v -7.00192 q 0,-3.66053 2.55407,-5.31367 2.55406,-1.65315 7.87676,-1.64995 5.02161,0 7.35419,1.59569 2.33257,1.5957 2.33257,5.37431 v 4.7488 h -13.70128 v 1.76803 q 0,1.69463 1.30818,2.41588 1.30818,0.72126 4.7136,0.72445 a 31.365166,28.923607 0 0 0 7.0704,-0.84572 v 3.74351 a 39.598392,36.515935 0 0 1 -8.3059,0.76593 q -11.20259,-0.006 -11.20259,-6.32534 z m 14.05428,-5.59452 v -2.818 a 1.7303964,1.5956972 0 0 0 -0.85135,-1.44889 c -0.56757,-0.31914 -1.52275,-0.4819 -2.85862,-0.4819 -1.54351,0 -2.57483,0.15957 -3.11471,0.4819 a 1.8099947,1.6690993 0 0 0 -0.82713,1.44889 v 2.818 z"
         class="cls-4"
         inkscape:connector-curvature="0"
         style="fill:#282828;stroke-width:0.33233652" />
      <path
         id="path55-26"
         d="m 127.39296,244.43945 h 6.37132 v 28.17682 h -6.37132 z m 6.63434,17.23353 6.92159,-8.53059 h 7.28843 l -7.33342,8.4923 7.95982,10.98797 h -7.20191 z"
         class="cls-4"
         inkscape:connector-curvature="0"
         style="fill:#282828;stroke-width:0.33233652" />
      <path
         id="path57-6"
         d="m 158.8135,272.89393 a 9.9878483,9.2103642 0 0 1 -2.1803,-0.4819 5.28117,4.8700679 0 0 1 -1.9865,-1.00849 5.0077673,4.6179477 0 0 1 -1.24242,-1.77122 7.5756757,6.9859623 0 0 1 -0.52604,-2.69673 v -10.18055 h -4.27754 v -3.60627 h 4.27754 V 247.5 h 6.37132 v 5.64877 h 5.80721 v 3.60627 h -5.80721 v 9.17526 a 7.5479893,6.9604312 0 0 0 0.26302,2.11271 1.7926907,1.6531423 0 0 0 1.00363,1.00848 5.9525638,5.4891984 0 0 0 2.27028,0.29999 21.072768,19.432401 0 0 0 2.27028,-0.20106 v 3.66372 a 34.196095,31.534168 0 0 1 -3.53693,0.20106 23.474558,21.647228 0 0 1 -2.70634,-0.12127 z"
         class="cls-4"
         inkscape:connector-curvature="0"
         style="fill:#282828;stroke-width:0.33233652" />
      <path
         id="path59-4"
         d="m 168.73905,253.14877 h 6.06677 v 3.42117 a 3.0178114,2.7828959 0 0 1 0.82713,-1.81271 6.41631,5.9168452 0 0 1 2.11801,-1.44889 5.949103,5.486007 0 0 1 2.55406,-0.56169 h 2.26682 v 4.87007 h -2.1803 q -2.7098,0 -3.99375,0.76274 -1.28396,0.76275 -1.28742,2.53716 v 11.69965 h -6.37132 z"
         class="cls-4"
         inkscape:connector-curvature="0"
         style="fill:#282828;stroke-width:0.33233652" />
      <path
         id="path61-95"
         d="m 187.59691,272.51096 a 3.4227242,3.1562891 0 0 1 -2.05225,-1.80952 c -0.39107,-0.87444 -0.58833,-2.17972 -0.58833,-3.92542 q 0,-2.32972 0.63332,-3.66372 a 3.910696,3.6062757 0 0 1 2.04879,-1.91483 q 1.41893,-0.57765 3.90724,-0.58084 h 7.15692 v -1.33081 a 4.2290889,3.899884 0 0 0 -0.37031,-1.85101 2.0764757,1.9148366 0 0 0 -1.35317,-0.84253 12.17853,11.230517 0 0 0 -2.94513,-0.24254 71.067382,65.535284 0 0 0 -7.41994,0.4819 v -3.68287 a 65.242868,60.164167 0 0 1 8.08095,-0.41807 q 4.05951,0 6.26404,0.56168 2.20452,0.56169 3.16316,1.93399 0.95518,1.3691 0.95518,3.98605 v 13.40385 h -6.22943 v -1.77122 a 4.1148828,3.7945679 0 0 1 -2.00726,1.64995 q -1.26665,0.5202 -4.80012,0.52339 -2.9832,-0.003 -4.44366,-0.50743 z m 9.666,-3.28076 a 2.0037991,1.8478174 0 0 0 0.85135,-0.23935 1.4154643,1.3052803 0 0 0 0.4153,-0.52339 1.9242009,1.7744153 0 0 0 0.17304,-0.84572 v -3.78499 h -4.35368 a 7.6448915,7.0497902 0 0 0 -2.09378,0.18191 1.2493462,1.1520934 0 0 0 -0.83059,0.72444 6.7450854,6.2200277 0 0 0 -0.21803,1.91484 6.2986431,5.8083378 0 0 0 0.21803,1.85101 1.1905128,1.0978397 0 0 0 0.85136,0.68615 9.8840245,9.1146224 0 0 0 2.24951,0.15957 20.072599,18.510088 0 0 0 2.73749,-0.12447 z"
         class="cls-4"
         inkscape:connector-curvature="0"
         style="fill:#282828;stroke-width:0.33233652" />
      <g
         id="text83-0"
         style="font-style:normal;font-weight:normal;font-size:8.65023804px;line-height:1.25;font-family:sans-serif;letter-spacing:0px;word-spacing:0px;fill:#282828;fill-opacity:1;stroke:none;stroke-width:0.21625593"
         aria-label="libelektra.org"
         transform="translate(-19.922618,20.816953)">
        <path
           id="path21-4"
           style="font-style:normal;font-variant:normal;font-weight:normal;font-stretch:normal;font-family:Play;-inkscape-font-specification:Play;fill:#282828;fill-opacity:1;stroke-width:0.21625593"
           d="m 175.00001,255.44428 h 0.77852 v 6.05517 h -0.77852 z"
           inkscape:connector-curvature="0" />
        <path
           id="path23-8"
           style="font-style:normal;font-variant:normal;font-weight:normal;font-stretch:normal;font-family:Play;-inkscape-font-specification:Play;fill:#282828;fill-opacity:1;stroke-width:0.21625593"
           d="m 177.12877,255.79894 h 0.77853 v 0.81313 h -0.77853 z m 0,1.5138 h 0.77853 v 4.18671 h -0.77853 z"
           inkscape:connector-curvature="0" />
        <path
           id="path25-7"
           style="font-style:normal;font-variant:normal;font-weight:normal;font-stretch:normal;font-family:Play;-inkscape-font-specification:Play;fill:#282828;fill-opacity:1;stroke-width:0.21625593"
           d="m 181.126,261.58595 q -0.46712,0 -0.75258,-0.0519 -0.2768,-0.0433 -0.55361,-0.173 -0.56227,-0.26816 -0.56227,-1.22834 v -4.68843 h 0.77853 v 1.25429 0.49306 q -0.009,0.22491 -0.009,0.50172 0.0433,-0.19896 0.36331,-0.33736 0.3287,-0.12976 0.95152,-0.12976 1.73005,0 1.73005,1.18509 v 1.72139 q 0,0.37196 -0.11245,0.64877 -0.10381,0.27681 -0.27681,0.43251 -0.15571,0.14706 -0.43251,0.23356 -0.26816,0.0865 -0.53632,0.11245 -0.2422,0.026 -0.58821,0.026 z m 0.0173,-0.51036 q 0.44981,0 0.68336,-0.0605 0.24221,-0.0692 0.34601,-0.24221 0.10381,-0.173 0.10381,-0.52766 v -1.64355 q 0,-0.35466 -0.10381,-0.52766 -0.1038,-0.18166 -0.34601,-0.23356 -0.23355,-0.0605 -0.69201,-0.0605 -0.42387,0 -0.65742,0.0692 -0.23356,0.0692 -0.33736,0.25086 -0.1038,0.173 -0.1038,0.50171 v 1.64355 q 0,0.35466 0.0952,0.52766 0.1038,0.17301 0.33736,0.24221 0.23355,0.0605 0.67472,0.0605 z"
           inkscape:connector-curvature="0" />
        <path
           id="path27-1"
           style="font-style:normal;font-variant:normal;font-weight:normal;font-stretch:normal;font-family:Play;-inkscape-font-specification:Play;fill:#282828;fill-opacity:1;stroke-width:0.21625593"
           d="m 186.02311,261.58595 q -1.92035,0 -1.92035,-1.28023 v -1.6522 q 0,-0.76122 0.43251,-1.08993 0.44116,-0.33736 1.41864,-0.33736 0.92557,0 1.33214,0.32006 0.41521,0.32006 0.41521,1.10723 v 0.92558 h -2.81133 v 0.63147 q 0,0.43251 0.30276,0.62281 0.30276,0.19031 0.93422,0.19031 0.59687,0 1.40999,-0.20761 v 0.59687 q -0.79582,0.173 -1.51379,0.173 z m 0.89963,-2.51722 v -0.65741 q 0,-0.38061 -0.23356,-0.51902 -0.22491,-0.14705 -0.77852,-0.14705 -0.53632,0 -0.77852,0.14705 -0.24221,0.13841 -0.24221,0.51902 v 0.65741 z"
           inkscape:connector-curvature="0" />
        <path
           id="path29-7"
           style="font-style:normal;font-variant:normal;font-weight:normal;font-stretch:normal;font-family:Play;-inkscape-font-specification:Play;fill:#282828;fill-opacity:1;stroke-width:0.21625593"
           d="m 188.88769,255.44428 h 0.77852 v 6.05517 h -0.77852 z"
           inkscape:connector-curvature="0" />
        <path
           id="path31-2"
           style="font-style:normal;font-variant:normal;font-weight:normal;font-stretch:normal;font-family:Play;-inkscape-font-specification:Play;fill:#282828;fill-opacity:1;stroke-width:0.21625593"
           d="m 192.78111,261.58595 q -1.92035,0 -1.92035,-1.28023 v -1.6522 q 0,-0.76122 0.43251,-1.08993 0.44116,-0.33736 1.41864,-0.33736 0.92557,0 1.33214,0.32006 0.41521,0.32006 0.41521,1.10723 v 0.92558 h -2.81133 v 0.63147 q 0,0.43251 0.30276,0.62281 0.30276,0.19031 0.93422,0.19031 0.59687,0 1.40999,-0.20761 v 0.59687 q -0.79582,0.173 -1.51379,0.173 z m 0.89963,-2.51722 v -0.65741 q 0,-0.38061 -0.23356,-0.51902 -0.22491,-0.14705 -0.77852,-0.14705 -0.53632,0 -0.77852,0.14705 -0.24221,0.13841 -0.24221,0.51902 v 0.65741 z"
           inkscape:connector-curvature="0" />
        <path
           id="path33-72"
           style="font-style:normal;font-variant:normal;font-weight:normal;font-stretch:normal;font-family:Play;-inkscape-font-specification:Play;fill:#282828;fill-opacity:1;stroke-width:0.21625593"
           d="m 195.64569,255.44428 h 0.77852 v 6.05517 h -0.77852 z m 0.87367,3.76286 1.76465,-1.8944 h 0.95153 l -1.81655,1.8944 1.9809,2.29231 h -0.96882 z"
           inkscape:connector-curvature="0" />
        <path
           id="path35-2"
           style="font-style:normal;font-variant:normal;font-weight:normal;font-stretch:normal;font-family:Play;-inkscape-font-specification:Play;fill:#282828;fill-opacity:1;stroke-width:0.21625593"
           d="m 201.84507,261.58595 q -0.53631,0 -0.83907,-0.11245 -0.30276,-0.1211 -0.44116,-0.39791 -0.12976,-0.28546 -0.12976,-0.79582 v -2.45667 h -0.93422 v -0.51036 h 0.93422 v -1.29754 h 0.78718 v 1.29754 h 1.49649 v 0.51036 h -1.49649 v 2.49992 q 0,0.31141 0.0692,0.46711 0.0779,0.15571 0.25951,0.22491 0.1903,0.0605 0.54496,0.0605 0.11245,0 0.62282,-0.0692 v 0.51036 q -0.44116,0.0692 -0.87368,0.0692 z"
           inkscape:connector-curvature="0" />
        <path
           id="path37-6"
           style="font-style:normal;font-variant:normal;font-weight:normal;font-stretch:normal;font-family:Play;-inkscape-font-specification:Play;fill:#282828;fill-opacity:1;stroke-width:0.21625593"
           d="m 203.56944,257.31274 h 0.73527 v 0.68336 q 0,-0.19895 0.17301,-0.37196 0.173,-0.18165 0.44116,-0.28545 0.26816,-0.11246 0.52767,-0.11246 h 0.38061 v 0.66607 h -0.43252 q -0.55361,0 -0.80447,0.14706 -0.2422,0.1384 -0.2422,0.51036 v 2.94973 h -0.77853 z"
           inkscape:connector-curvature="0" />
        <path
           id="path39-1"
           style="font-style:normal;font-variant:normal;font-weight:normal;font-stretch:normal;font-family:Play;-inkscape-font-specification:Play;fill:#282828;fill-opacity:1;stroke-width:0.21625593"
           d="m 207.89943,261.58595 q -0.59687,0 -0.92558,-0.11245 -0.32005,-0.11245 -0.46711,-0.39791 -0.1384,-0.28546 -0.1384,-0.82177 0,-0.47577 0.12975,-0.73527 0.1384,-0.26816 0.45846,-0.38061 0.32871,-0.11246 0.92558,-0.11246 h 1.25428 v -0.66607 q 0,-0.23355 -0.0952,-0.35466 -0.0865,-0.12975 -0.30276,-0.18165 -0.2076,-0.0519 -0.61416,-0.0519 -0.64877,0 -1.43594,0.1038 v -0.57091 q 0.85637,-0.0779 1.54839,-0.0779 0.72662,0 1.07263,0.11246 0.34601,0.1038 0.47576,0.37196 0.12975,0.26815 0.12975,0.83042 v 2.95838 h -0.75257 v -0.39791 q -0.0952,0.48441 -1.26293,0.48441 z m 0.12975,-0.51036 q 0.42386,0 0.71797,-0.0605 0.38926,-0.0779 0.38926,-0.36331 v -1.14183 h -1.20238 q -0.37196,0 -0.53631,0.0605 -0.16436,0.0519 -0.21626,0.2076 -0.0519,0.15571 -0.0519,0.50172 0,0.31141 0.0606,0.48441 0.0606,0.16435 0.21626,0.24221 0.1557,0.0692 0.46711,0.0692 z"
           inkscape:connector-curvature="0" />
        <path
           id="path41-0"
           style="font-style:normal;font-variant:normal;font-weight:normal;font-stretch:normal;font-family:Play;-inkscape-font-specification:Play;fill:#282828;fill-opacity:1;stroke-width:0.21625593"
           d="m 211.18746,260.56522 h 1.00343 v 0.93423 h -1.00343 z"
           inkscape:connector-curvature="0" />
        <path
           id="path44-61"
           style="font-style:normal;font-variant:normal;font-weight:normal;font-stretch:normal;font-family:Play;-inkscape-font-specification:Play;fill:#282828;fill-opacity:1;stroke-width:0.21625593"
           d="m 215.24321,261.58595 q -0.55362,0 -0.83042,-0.0433 -0.27681,-0.0346 -0.55362,-0.16435 -0.28546,-0.12976 -0.41521,-0.41521 -0.12975,-0.29411 -0.12975,-0.78718 v -1.45324 q 0,-0.38926 0.0951,-0.68336 0.0952,-0.29411 0.25086,-0.45847 0.12975,-0.14705 0.38926,-0.2249 0.26815,-0.0865 0.54496,-0.11246 0.31141,-0.0173 0.64877,-0.0173 0.44981,0 0.67472,0.026 0.23356,0.0173 0.49306,0.0865 0.26816,0.0779 0.41521,0.23355 0.14706,0.15571 0.25086,0.44981 0.0952,0.30276 0.0952,0.70067 v 1.45324 q 0,0.73527 -0.33736,1.07263 -0.1384,0.13841 -0.39791,0.21626 -0.2595,0.0779 -0.53631,0.1038 -0.32871,0.0173 -0.65742,0.0173 z m 0,-0.51036 q 0.36331,0 0.52766,-0.0173 0.16436,-0.0173 0.32006,-0.0951 0.15571,-0.0692 0.21626,-0.22491 0.0692,-0.16435 0.0692,-0.44981 v -1.69545 q 0,-0.38926 -0.0951,-0.56226 -0.0951,-0.18166 -0.32871,-0.23356 -0.22491,-0.0605 -0.70932,-0.0605 -0.48441,0 -0.71797,0.0605 -0.22491,0.0519 -0.32006,0.23356 -0.0952,0.173 -0.0952,0.56226 v 1.69545 q 0,0.28546 0.0606,0.44981 0.0692,0.1557 0.22491,0.22491 0.1557,0.0779 0.32006,0.0951 0.16435,0.0173 0.52766,0.0173 z"
           inkscape:connector-curvature="0" />
        <path
           id="path46-5"
           style="font-style:normal;font-variant:normal;font-weight:normal;font-stretch:normal;font-family:Play;-inkscape-font-specification:Play;fill:#282828;fill-opacity:1;stroke-width:0.21625593"
           d="m 218.38635,257.31274 h 0.73527 v 0.68336 q 0,-0.19895 0.17301,-0.37196 0.173,-0.18165 0.44116,-0.28545 0.26816,-0.11246 0.52767,-0.11246 h 0.38061 v 0.66607 h -0.43252 q -0.55361,0 -0.80447,0.14706 -0.2422,0.1384 -0.2422,0.51036 v 2.94973 h -0.77853 z"
           inkscape:connector-curvature="0" />
        <path
           id="path48-9"
           style="font-style:normal;font-variant:normal;font-weight:normal;font-stretch:normal;font-family:Play;-inkscape-font-specification:Play;fill:#282828;fill-opacity:1;stroke-width:0.21625593"
           d="m 223.01045,263.4025 q -0.85638,0 -1.44459,-0.0951 v -0.55361 q 1.03803,0.1211 1.51379,0.1211 0.59687,0 0.86502,-0.19031 0.27681,-0.1903 0.27681,-0.63146 v -1.00343 q -0.0173,0.27681 -0.38061,0.40656 -0.35466,0.12975 -0.89962,0.12975 -0.64877,0 -1.01208,-0.1211 -0.35466,-0.1211 -0.51037,-0.39791 -0.14705,-0.27681 -0.14705,-0.75257 v -1.7041 q 0,-0.74392 0.39791,-1.06398 0.40656,-0.32006 1.32349,-0.32006 1.08993,0 1.28023,0.49307 v -0.40656 H 225 v 4.58462 q 0,0.57957 -0.21625,0.90828 -0.21626,0.32871 -0.64877,0.45846 -0.43251,0.1384 -1.12453,0.1384 z m 0.0952,-2.33556 q 0.61417,0 0.86502,-0.14706 0.25086,-0.14705 0.25086,-0.55361 v -1.8944 q 0,-0.28546 -0.0952,-0.43251 -0.0865,-0.14706 -0.32871,-0.20761 -0.24221,-0.0692 -0.70932,-0.0692 -0.44116,0 -0.66607,0.0606 -0.21625,0.0605 -0.30276,0.21626 -0.0779,0.14705 -0.0779,0.43251 v 1.8944 q 0,0.29411 0.0865,0.44116 0.0865,0.14706 0.31141,0.20761 0.22491,0.0519 0.66607,0.0519 z"
           inkscape:connector-curvature="0" />
      </g>
    </g>
  </g>
</svg>
