<?xml version="1.0" encoding="UTF-8" standalone="no"?>
<!-- Created with Inkscape (http://www.inkscape.org/) -->

<svg
   xmlns:dc="http://purl.org/dc/elements/1.1/"
   xmlns:cc="http://creativecommons.org/ns#"
   xmlns:rdf="http://www.w3.org/1999/02/22-rdf-syntax-ns#"
   xmlns:svg="http://www.w3.org/2000/svg"
   xmlns="http://www.w3.org/2000/svg"
   xmlns:sodipodi="http://sodipodi.sourceforge.net/DTD/sodipodi-0.dtd"
   xmlns:inkscape="http://www.inkscape.org/namespaces/inkscape"
   width="210mm"
   height="72.393997mm"
   viewBox="0 0 210 72.393996"
   version="1.1"
   id="svg8"
   inkscape:version="0.92.3 (2405546, 2018-03-11)"
   sodipodi:docname="sticker_rectangle_white_1mm.svg">
  <defs
     id="defs2">
    <style
       id="style37">.cls-1{fill:#2f418f;}.cls-2{fill:#409030;}.cls-3{fill:#dfa809;}.cls-4{fill:#282828;}</style>
  </defs>
  <sodipodi:namedview
     id="base"
     pagecolor="#ffffff"
     bordercolor="#666666"
     borderopacity="1.0"
     inkscape:pageopacity="0.0"
     inkscape:pageshadow="2"
     inkscape:zoom="1.3220524"
     inkscape:cx="290.72404"
     inkscape:cy="171.41945"
     inkscape:document-units="mm"
     inkscape:current-layer="layer1"
     showgrid="false"
     units="mm"
     width="10in"
     inkscape:window-width="2556"
     inkscape:window-height="1353"
     inkscape:window-x="0"
     inkscape:window-y="54"
     inkscape:window-maximized="0"
     inkscape:pagecheckerboard="true" />
  <metadata
     id="metadata5">
    <rdf:RDF>
      <cc:Work
         rdf:about="">
        <dc:format>image/svg+xml</dc:format>
        <dc:type
           rdf:resource="http://purl.org/dc/dcmitype/StillImage" />
        <dc:title></dc:title>
      </cc:Work>
    </rdf:RDF>
  </metadata>
  <g
     inkscape:groupmode="layer"
     id="layer2"
     inkscape:label="White"
     style="display:inline">
    <path
       style="display:inline;fill:#ffffff;fill-opacity:1;stroke:#ffffff;stroke-width:1;stroke-linecap:round;stroke-linejoin:round;stroke-miterlimit:4;stroke-dasharray:none;stroke-opacity:1"
       inkscape:connector-curvature="0"
       class="cls-4"
       d="m 62.03319,21.484021 h 20.408759 v 4.22111 H 68.471006 v 5.66532 H 81.08834 v 4.2211 H 68.471006 v 6.35275 h 14.38618 v 4.2211 H 62.03319 Z"
       id="path49-3" />
    <path
       style="display:inline;fill:#ffffff;fill-opacity:1;stroke:#ffffff;stroke-width:1;stroke-linecap:round;stroke-linejoin:round;stroke-miterlimit:4;stroke-dasharray:none;stroke-opacity:1"
       inkscape:connector-curvature="0"
       class="cls-4"
       d="m 87.107649,19.545331 h 6.019308 v 26.62007 h -6.019308 z"
       id="path51-6" />
    <path
       style="display:inline;fill:#ffffff;fill-opacity:1;stroke:#ffffff;stroke-width:1;stroke-linecap:round;stroke-linejoin:round;stroke-miterlimit:4;stroke-dasharray:none;stroke-opacity:1"
       inkscape:connector-curvature="0"
       class="cls-4"
       d="m 97.985564,40.572451 v -6.61507 q 0,-3.45829 2.412956,-5.0201 2.41295,-1.5618 7.44158,-1.55879 4.74417,0 6.94787,1.50754 2.2037,1.50753 2.2037,5.07738 v 4.48642 h -12.94429 v 1.67035 q 0,1.60101 1.2359,2.28241 1.2359,0.68141 4.45318,0.68443 a 29.632262,27.325598 0 0 0 6.67976,-0.799 v 3.53668 a 37.41061,34.498455 0 0 1 -7.84701,0.723621 q -10.583646,-0.006 -10.583646,-5.975871 z m 13.277786,-5.28543 v -2.6623 a 1.6347932,1.5075361 0 0 0 -0.80432,-1.36885 c -0.53621,-0.3015 -1.43861,-0.45527 -2.70067,-0.45527 -1.45824,0 -2.43258,0.15075 -2.94263,0.45527 a 1.7099937,1.5768827 0 0 0 -0.78143,1.36885 v 2.6623 z"
       id="path53-7" />
    <path
       style="display:inline;fill:#ffffff;fill-opacity:1;stroke:#ffffff;stroke-width:1;stroke-linecap:round;stroke-linejoin:round;stroke-miterlimit:4;stroke-dasharray:none;stroke-opacity:1"
       inkscape:connector-curvature="0"
       class="cls-4"
       d="m 121.61159,19.545331 h 6.01931 v 26.62007 h -6.01931 z m 6.2678,16.28139 6.53917,-8.05929 h 6.88575 l -6.92825,8.02311 7.52005,10.38089 h -6.80401 z"
       id="path55-5" />
    <path
       style="display:inline;fill:#ffffff;fill-opacity:1;stroke:#ffffff;stroke-width:1;stroke-linecap:round;stroke-linejoin:round;stroke-miterlimit:4;stroke-dasharray:none;stroke-opacity:1"
       inkscape:connector-curvature="0"
       class="cls-4"
       d="m 151.29617,46.42772 a 9.4360267,8.7014981 0 0 1 -2.05984,-0.455279 4.9893889,4.6009999 0 0 1 -1.87674,-0.95276 4.7310918,4.3628093 0 0 1 -1.17378,-1.67337 7.157125,6.5999929 0 0 1 -0.49698,-2.54773 v -9.61808 h -4.04121 v -3.40704 h 4.04121 v -5.33667 h 6.01931 v 5.33667 h 5.48636 v 3.40704 h -5.48636 v 8.66833 a 7.1309682,6.5758724 0 0 0 0.24849,1.99598 1.6936458,1.5618073 0 0 0 0.94818,0.95276 5.6236889,5.1859241 0 0 0 2.14485,0.28342 19.908512,18.358774 0 0 0 2.14484,-0.18995 v 3.461299 a 32.306784,29.791927 0 0 1 -3.34151,0.189952 22.177605,20.451234 0 0 1 -2.55682,-0.114572 z"
       id="path57-3" />
    <path
       style="display:inline;fill:#ffffff;fill-opacity:1;stroke:#ffffff;stroke-width:1;stroke-linecap:round;stroke-linejoin:round;stroke-miterlimit:4;stroke-dasharray:none;stroke-opacity:1"
       inkscape:connector-curvature="0"
       class="cls-4"
       d="m 160.67334,27.773461 h 5.73159 v 3.23216 a 2.8510794,2.6291429 0 0 1 0.78143,-1.71256 6.0618135,5.5899436 0 0 1 2.00099,-1.36884 5.6204191,5.1829089 0 0 1 2.41295,-0.53065 h 2.14158 v 4.601 h -2.05984 q -2.56008,0 -3.7731,0.7206 -1.21302,0.7206 -1.21629,2.39698 v 11.05325 h -6.01931 z"
       id="path59-5" />
    <path
       style="display:inline;fill:#ffffff;fill-opacity:1;stroke:#ffffff;stroke-width:1;stroke-linecap:round;stroke-linejoin:round;stroke-miterlimit:4;stroke-dasharray:none;stroke-opacity:1"
       inkscape:connector-curvature="0"
       class="cls-4"
       d="m 178.48932,46.06591 a 3.2336211,2.9819063 0 0 1 -1.93886,-1.709549 c -0.36947,-0.82613 -0.55583,-2.05929 -0.55583,-3.70854 q 0,-2.201 0.59833,-3.4613 a 3.6946327,3.4070316 0 0 1 1.9356,-1.80904 q 1.34053,-0.54573 3.69136,-0.54875 h 6.7615 v -1.25728 a 3.9954348,3.6844182 0 0 0 -0.34984,-1.74874 1.9617519,1.8090433 0 0 0 -1.27841,-0.79598 11.505675,10.610039 0 0 0 -2.78242,-0.22915 67.14096,61.914506 0 0 0 -7.00999,0.45528 v -3.4794 a 61.638246,56.840139 0 0 1 7.63448,-0.39497 q 3.83523,0 5.91795,0.53065 2.08273,0.53066 2.98841,1.82714 0.9024,1.29346 0.9024,3.76582 v 12.6633 h -5.88525 v -1.67336 a 3.8875383,3.5849208 0 0 1 -1.89636,1.558791 q -1.19667,0.49146 -4.53492,0.494469 -2.81838,-0.003 -4.19815,-0.479391 z m 9.13196,-3.099499 a 1.8930906,1.7457267 0 0 0 0.80431,-0.22613 1.3372609,1.2331645 0 0 0 0.39235,-0.49447 1.8178901,1.6763801 0 0 0 0.16348,-0.79899 v -3.57588 h -4.11314 a 7.2225167,6.6602943 0 0 0 -1.9781,0.17186 1.1803207,1.088441 0 0 0 -0.7847,0.68442 6.3724242,5.8763755 0 0 0 -0.20598,1.80904 5.9506474,5.4874313 0 0 0 0.20598,1.74875 1.1247378,1.0371848 0 0 0 0.80432,0.64824 9.3379391,8.6110461 0 0 0 2.12523,0.15075 18.963602,17.487418 0 0 0 2.58625,-0.11759 z"
       id="path61-6" />
    <path
       inkscape:connector-curvature="0"
       id="path21-9"
       style="font-style:normal;font-variant:normal;font-weight:normal;font-stretch:normal;font-size:medium;line-height:1.25;font-family:Play;-inkscape-font-specification:Play;letter-spacing:0px;word-spacing:0px;fill:#ffffff;fill-opacity:1;stroke:#ffffff;stroke-width:1;stroke-linecap:round;stroke-linejoin:round;stroke-miterlimit:4;stroke-dasharray:none;stroke-opacity:1"
       d="m 145.27614,49.479707 h 0.77422 v 6.021712 h -0.77422 z" />
    <path
       inkscape:connector-curvature="0"
       id="path23-1"
       style="font-style:normal;font-variant:normal;font-weight:normal;font-stretch:normal;font-size:medium;line-height:1.25;font-family:Play;-inkscape-font-specification:Play;letter-spacing:0px;word-spacing:0px;fill:#ffffff;fill-opacity:1;stroke:#ffffff;stroke-width:1;stroke-linecap:round;stroke-linejoin:round;stroke-miterlimit:4;stroke-dasharray:none;stroke-opacity:1"
       d="m 147.39314,49.832407 h 0.77423 v 0.808637 h -0.77423 z m 0,1.505436 h 0.77423 v 4.163576 h -0.77423 z" />
    <path
       inkscape:connector-curvature="0"
       id="path25-2"
       style="font-style:normal;font-variant:normal;font-weight:normal;font-stretch:normal;font-size:medium;line-height:1.25;font-family:Play;-inkscape-font-specification:Play;letter-spacing:0px;word-spacing:0px;fill:#ffffff;fill-opacity:1;stroke:#ffffff;stroke-width:1;stroke-linecap:round;stroke-linejoin:round;stroke-miterlimit:4;stroke-dasharray:none;stroke-opacity:1"
       d="m 151.36829,55.587441 q -0.46454,0 -0.74843,-0.05161 -0.27527,-0.04306 -0.55055,-0.172044 -0.55916,-0.266678 -0.55916,-1.221552 v -4.662524 h 0.77423 v 1.247359 0.490336 q -0.009,0.223667 -0.009,0.498948 0.0431,-0.197861 0.3613,-0.335496 0.32688,-0.129043 0.94626,-0.129043 1.72049,0 1.72049,1.178541 v 1.711879 q 0,0.369904 -0.11183,0.645185 -0.10323,0.27528 -0.27528,0.43012 -0.15485,0.146247 -0.43012,0.232269 -0.26667,0.08602 -0.53335,0.111829 -0.24086,0.02586 -0.58496,0.02586 z m 0.0172,-0.50754 q 0.44732,0 0.67958,-0.06017 0.24088,-0.06882 0.3441,-0.240872 0.10324,-0.172044 0.10324,-0.524744 v -1.634468 q 0,-0.352701 -0.10324,-0.524745 -0.10322,-0.180656 -0.3441,-0.232269 -0.23226,-0.06017 -0.68818,-0.06017 -0.42153,0 -0.65379,0.06882 -0.23227,0.06882 -0.3355,0.249474 -0.10322,0.172044 -0.10322,0.498937 v 1.634469 q 0,0.3527 0.0947,0.524744 0.10323,0.172054 0.3355,0.240872 0.23226,0.06016 0.67099,0.06016 z" />
    <path
       inkscape:connector-curvature="0"
       id="path27-7"
       style="font-style:normal;font-variant:normal;font-weight:normal;font-stretch:normal;font-size:medium;line-height:1.25;font-family:Play;-inkscape-font-specification:Play;letter-spacing:0px;word-spacing:0px;fill:#ffffff;fill-opacity:1;stroke:#ffffff;stroke-width:1;stroke-linecap:round;stroke-linejoin:round;stroke-miterlimit:4;stroke-dasharray:none;stroke-opacity:1"
       d="m 156.23834,55.587441 q -1.90974,0 -1.90974,-1.273156 v -1.643071 q 0,-0.757014 0.43012,-1.083907 0.43872,-0.335496 1.4108,-0.335496 0.92045,0 1.32478,0.318291 0.41291,0.318292 0.41291,1.101112 v 0.920466 h -2.79579 v 0.62798 q 0,0.430121 0.30108,0.619369 0.30109,0.189258 0.92906,0.189258 0.59357,0 1.4022,-0.206462 v 0.593572 q -0.79142,0.172044 -1.50542,0.172044 z m 0.89465,-2.503311 v -0.653778 q 0,-0.378506 -0.23226,-0.516152 -0.22367,-0.146237 -0.77422,-0.146237 -0.53336,0 -0.77422,0.146237 -0.24087,0.137646 -0.24087,0.516152 v 0.653778 z" />
    <path
       inkscape:connector-curvature="0"
       id="path29-0"
       style="font-style:normal;font-variant:normal;font-weight:normal;font-stretch:normal;font-size:medium;line-height:1.25;font-family:Play;-inkscape-font-specification:Play;letter-spacing:0px;word-spacing:0px;fill:#ffffff;fill-opacity:1;stroke:#ffffff;stroke-width:1;stroke-linecap:round;stroke-linejoin:round;stroke-miterlimit:4;stroke-dasharray:none;stroke-opacity:1"
       d="m 159.08709,49.479707 h 0.77422 v 6.021712 h -0.77422 z" />
    <path
       inkscape:connector-curvature="0"
       id="path31-9"
       style="font-style:normal;font-variant:normal;font-weight:normal;font-stretch:normal;font-size:medium;line-height:1.25;font-family:Play;-inkscape-font-specification:Play;letter-spacing:0px;word-spacing:0px;fill:#ffffff;fill-opacity:1;stroke:#ffffff;stroke-width:1;stroke-linecap:round;stroke-linejoin:round;stroke-miterlimit:4;stroke-dasharray:none;stroke-opacity:1"
       d="m 162.95899,55.587441 q -1.90974,0 -1.90974,-1.273156 v -1.643071 q 0,-0.757014 0.43012,-1.083907 0.43873,-0.335496 1.41081,-0.335496 0.92045,0 1.32478,0.318291 0.41291,0.318292 0.41291,1.101112 v 0.920466 h -2.79579 v 0.62798 q 0,0.430121 0.30108,0.619369 0.30109,0.189258 0.92906,0.189258 0.59357,0 1.4022,-0.206462 v 0.593572 q -0.79142,0.172044 -1.50543,0.172044 z m 0.89466,-2.503311 v -0.653778 q 0,-0.378506 -0.23227,-0.516152 -0.22366,-0.146237 -0.77421,-0.146237 -0.53336,0 -0.77422,0.146237 -0.24087,0.137646 -0.24087,0.516152 v 0.653778 z" />
    <path
       inkscape:connector-curvature="0"
       id="path33-3"
       style="font-style:normal;font-variant:normal;font-weight:normal;font-stretch:normal;font-size:medium;line-height:1.25;font-family:Play;-inkscape-font-specification:Play;letter-spacing:0px;word-spacing:0px;fill:#ffffff;fill-opacity:1;stroke:#ffffff;stroke-width:1;stroke-linecap:round;stroke-linejoin:round;stroke-miterlimit:4;stroke-dasharray:none;stroke-opacity:1"
       d="m 165.80775,49.479707 h 0.77421 v 6.021712 h -0.77421 z m 0.86884,3.742068 1.7549,-1.883932 h 0.94627 l -1.80651,1.883932 1.96995,2.279644 h -0.96347 z" />
    <path
       inkscape:connector-curvature="0"
       id="path35-6"
       style="font-style:normal;font-variant:normal;font-weight:normal;font-stretch:normal;font-size:medium;line-height:1.25;font-family:Play;-inkscape-font-specification:Play;letter-spacing:0px;word-spacing:0px;fill:#ffffff;fill-opacity:1;stroke:#ffffff;stroke-width:1;stroke-linecap:round;stroke-linejoin:round;stroke-miterlimit:4;stroke-dasharray:none;stroke-opacity:1"
       d="m 171.97287,55.587441 q -0.53335,0 -0.83443,-0.111829 -0.30109,-0.120431 -0.43873,-0.395711 -0.12904,-0.283883 -0.12904,-0.791423 v -2.443095 h -0.92906 v -0.50754 h 0.92906 v -1.290371 h 0.78283 v 1.290371 h 1.48822 v 0.50754 h -1.48822 v 2.486106 q 0,0.309689 0.0688,0.464529 0.0775,0.15485 0.25807,0.223667 0.18925,0.06017 0.54195,0.06017 0.11183,0 0.61938,-0.06882 v 0.50754 q -0.43872,0.06882 -0.86885,0.06882 z" />
    <path
       inkscape:connector-curvature="0"
       id="path37-0"
       style="font-style:normal;font-variant:normal;font-weight:normal;font-stretch:normal;font-size:medium;line-height:1.25;font-family:Play;-inkscape-font-specification:Play;letter-spacing:0px;word-spacing:0px;fill:#ffffff;fill-opacity:1;stroke:#ffffff;stroke-width:1;stroke-linecap:round;stroke-linejoin:round;stroke-miterlimit:4;stroke-dasharray:none;stroke-opacity:1"
       d="m 173.68771,51.337843 h 0.73121 v 0.679584 q 0,-0.197851 0.17205,-0.369905 0.17205,-0.180646 0.43873,-0.283873 0.26667,-0.111838 0.52475,-0.111838 h 0.37851 V 51.9142 h -0.43013 q -0.55055,0 -0.80003,0.146248 -0.24086,0.137635 -0.24086,0.50754 v 2.933431 h -0.77423 z" />
    <path
       inkscape:connector-curvature="0"
       id="path39-6"
       style="font-style:normal;font-variant:normal;font-weight:normal;font-stretch:normal;font-size:medium;line-height:1.25;font-family:Play;-inkscape-font-specification:Play;letter-spacing:0px;word-spacing:0px;fill:#ffffff;fill-opacity:1;stroke:#ffffff;stroke-width:1;stroke-linecap:round;stroke-linejoin:round;stroke-miterlimit:4;stroke-dasharray:none;stroke-opacity:1"
       d="m 177.99378,55.587441 q -0.59358,0 -0.92047,-0.111829 -0.31828,-0.111829 -0.46453,-0.395711 -0.13763,-0.283883 -0.13763,-0.81723 0,-0.473141 0.12903,-0.731207 0.13763,-0.266678 0.45593,-0.378507 0.32689,-0.111838 0.92046,-0.111838 h 1.24735 v -0.66239 q 0,-0.232259 -0.0947,-0.3527 -0.086,-0.129033 -0.30109,-0.180646 -0.20645,-0.05161 -0.61077,-0.05161 -0.64518,0 -1.428,0.103227 v -0.567755 q 0.85164,-0.07747 1.53983,-0.07747 0.72261,0 1.06671,0.111839 0.34409,0.103226 0.47313,0.369904 0.12903,0.266669 0.12903,0.825832 v 2.942033 h -0.74841 v -0.395711 q -0.0947,0.481733 -1.25595,0.481733 z m 0.12903,-0.50754 q 0.42152,0 0.714,-0.06017 0.38711,-0.07747 0.38711,-0.361302 v -1.135521 h -1.19574 q -0.3699,0 -0.53334,0.06017 -0.16345,0.05161 -0.21507,0.206452 -0.0516,0.15485 -0.0516,0.498948 0,0.309689 0.0603,0.481733 0.0603,0.163442 0.21506,0.240872 0.15484,0.06882 0.46453,0.06882 z" />
    <path
       inkscape:connector-curvature="0"
       id="path41-2"
       style="font-style:normal;font-variant:normal;font-weight:normal;font-stretch:normal;font-size:medium;line-height:1.25;font-family:Play;-inkscape-font-specification:Play;letter-spacing:0px;word-spacing:0px;fill:#ffffff;fill-opacity:1;stroke:#ffffff;stroke-width:1;stroke-linecap:round;stroke-linejoin:round;stroke-miterlimit:4;stroke-dasharray:none;stroke-opacity:1"
       d="m 181.26364,54.572351 h 0.99788 v 0.929068 h -0.99788 z" />
    <path
       inkscape:connector-curvature="0"
       id="path44-6"
       style="font-style:normal;font-variant:normal;font-weight:normal;font-stretch:normal;font-size:medium;line-height:1.25;font-family:Play;-inkscape-font-specification:Play;letter-spacing:0px;word-spacing:0px;fill:#ffffff;fill-opacity:1;stroke:#ffffff;stroke-width:1;stroke-linecap:round;stroke-linejoin:round;stroke-miterlimit:4;stroke-dasharray:none;stroke-opacity:1"
       d="m 185.29698,55.587441 q -0.55056,0 -0.82583,-0.04306 -0.27528,-0.03441 -0.55057,-0.163442 -0.28388,-0.129043 -0.41291,-0.412916 -0.12903,-0.292485 -0.12903,-0.78283 v -1.44521 q 0,-0.387109 0.0946,-0.679584 0.0947,-0.292485 0.24947,-0.455937 0.12904,-0.146237 0.38711,-0.223657 0.26667,-0.08602 0.54195,-0.111839 0.30969,-0.0172 0.64519,-0.0172 0.44732,0 0.67099,0.02586 0.23227,0.01721 0.49033,0.08602 0.26668,0.07747 0.41292,0.23226 0.14625,0.154849 0.24947,0.447324 0.0947,0.301087 0.0947,0.696799 v 1.44521 q 0,0.731207 -0.3355,1.066703 -0.13763,0.137645 -0.39571,0.215065 -0.25807,0.07747 -0.53335,0.103226 -0.32689,0.01721 -0.65378,0.01721 z m 0,-0.50754 q 0.3613,0 0.52474,-0.0172 0.16345,-0.0172 0.31829,-0.09457 0.15485,-0.06882 0.21507,-0.223667 0.0688,-0.163442 0.0688,-0.447325 v -1.686082 q 0,-0.387109 -0.0946,-0.559153 -0.0946,-0.180656 -0.32689,-0.232269 -0.22367,-0.06017 -0.7054,-0.06017 -0.48174,0 -0.71401,0.06017 -0.22366,0.05161 -0.31829,0.232269 -0.0947,0.172044 -0.0947,0.559153 v 1.686082 q 0,0.283883 0.0603,0.447325 0.0688,0.154839 0.22367,0.223667 0.15484,0.07747 0.31829,0.09457 0.16344,0.0172 0.52475,0.0172 z" />
    <path
       inkscape:connector-curvature="0"
       id="path46-1"
       style="font-style:normal;font-variant:normal;font-weight:normal;font-stretch:normal;font-size:medium;line-height:1.25;font-family:Play;-inkscape-font-specification:Play;letter-spacing:0px;word-spacing:0px;fill:#ffffff;fill-opacity:1;stroke:#ffffff;stroke-width:1;stroke-linecap:round;stroke-linejoin:round;stroke-miterlimit:4;stroke-dasharray:none;stroke-opacity:1"
       d="m 188.42275,51.337843 h 0.73121 v 0.679584 q 0,-0.197851 0.17205,-0.369905 0.17204,-0.180646 0.43872,-0.283873 0.26668,-0.111838 0.52476,-0.111838 h 0.3785 V 51.9142 h -0.43013 q -0.55055,0 -0.80002,0.146248 -0.24086,0.137635 -0.24086,0.50754 v 2.933431 h -0.77423 z" />
    <path
       inkscape:connector-curvature="0"
       id="path48-8"
       style="font-style:normal;font-variant:normal;font-weight:normal;font-stretch:normal;font-size:medium;line-height:1.25;font-family:Play;-inkscape-font-specification:Play;letter-spacing:0px;word-spacing:0px;fill:#ffffff;fill-opacity:1;stroke:#ffffff;stroke-width:1;stroke-linecap:round;stroke-linejoin:round;stroke-miterlimit:4;stroke-dasharray:none;stroke-opacity:1"
       d="m 193.0213,57.393953 q -0.85165,0 -1.43661,-0.09457 v -0.550551 q 1.03229,0.120431 1.50543,0.120431 0.59357,0 0.86024,-0.189259 0.27528,-0.189248 0.27528,-0.627971 v -0.997885 q -0.0172,0.27528 -0.37851,0.404313 -0.3527,0.129033 -0.89465,0.129033 -0.64518,0 -1.00649,-0.12043 -0.3527,-0.120431 -0.50755,-0.395712 -0.14623,-0.27528 -0.14623,-0.748411 v -1.694684 q 0,-0.73981 0.39571,-1.058101 0.40431,-0.318292 1.31617,-0.318292 1.08391,0 1.27316,0.490346 v -0.404314 h 0.7226 v 4.559288 q 0,0.576367 -0.21505,0.903261 -0.21507,0.326894 -0.64519,0.455927 -0.43012,0.137635 -1.11831,0.137635 z m 0.0947,-2.322654 q 0.61078,0 0.86024,-0.146248 0.24948,-0.146237 0.24948,-0.550551 v -1.883932 q 0,-0.283883 -0.0947,-0.43012 -0.086,-0.146248 -0.32689,-0.206463 -0.24087,-0.06882 -0.7054,-0.06882 -0.43872,0 -0.66239,0.06027 -0.21506,0.06017 -0.30109,0.215065 -0.0775,0.146238 -0.0775,0.430121 v 1.883932 q 0,0.292485 0.086,0.438722 0.086,0.146248 0.30969,0.206463 0.22367,0.05161 0.66239,0.05161 z" />
    <path
       style="display:inline;fill:#ffffff;stroke-width:1;stroke:#ffffff;stroke-opacity:1;stroke-miterlimit:4;stroke-dasharray:none;stroke-linejoin:round;stroke-linecap:round;fill-opacity:1"
       inkscape:connector-curvature="0"
       class="cls-1"
       d="M 19.872413,32.597584 A 17.466131,16.106515 0 0 1 39.673028,21.544334 17.466131,16.106515 0 1 0 27.268217,51.592535 18.021961,16.619077 0 0 0 29.337865,52.062896 17.462861,16.1035 0 0 1 19.872413,32.597584 Z"
       id="path43-3" />
    <path
       style="display:inline;fill:#ffffff;stroke-width:1;stroke:#ffffff;stroke-opacity:1;stroke-miterlimit:4;stroke-dasharray:none;stroke-linejoin:round;stroke-linecap:round;fill-opacity:1"
       inkscape:connector-curvature="0"
       class="cls-2"
       d="M 43.29246,47.802593 A 17.469401,16.10953 0 0 1 23.021025,37.515165 17.466131,16.106515 0 1 0 57.439961,32.389545 18.018691,16.616062 0 0 0 56.848168,30.502104 17.47267,16.112545 0 0 1 43.29246,47.802593 Z"
       id="path45-6" />
    <path
       style="display:inline;fill:#ffffff;stroke-width:1;stroke:#ffffff;stroke-opacity:1;stroke-miterlimit:4;stroke-dasharray:none;stroke-linejoin:round;stroke-linecap:round;fill-opacity:1"
       inkscape:connector-curvature="0"
       class="cls-3"
       d="m 45.74138,21.860914 a 17.469401,16.10953 0 0 1 0.477361,21.340681 17.279765,15.934656 0 0 0 1.65114,-1.242211 17.466131,16.106515 0 1 0 -25.156197,-22.26028 17.469401,16.10953 0 0 1 23.027696,2.16181 z"
       id="path47-7" />
  </g>
  <g
     inkscape:label="Layer 1"
     inkscape:groupmode="layer"
     id="layer1"
     transform="translate(0,-224.60599)"
     style="display:inline">
    <path
       style="fill:#2f418f;stroke-width:0.31397516"
       inkscape:connector-curvature="0"
       class="cls-1"
       d="m 19.872417,257.20357 a 17.466131,16.106515 0 0 1 19.800616,-11.05325 17.466131,16.106515 0 1 0 -12.404811,30.0482 18.021961,16.619077 0 0 0 2.069648,0.47036 17.462861,16.1035 0 0 1 -9.465453,-19.46531 z"
       id="path43" />
    <path
       style="fill:#409030;stroke-width:0.31397516"
       inkscape:connector-curvature="0"
       class="cls-2"
       d="m 43.292465,272.40858 a 17.469401,16.10953 0 0 1 -20.271436,-10.28743 17.466131,16.106515 0 1 0 34.418937,-5.12562 18.018691,16.616062 0 0 0 -0.591795,-1.88744 17.47267,16.112545 0 0 1 -13.555706,17.30049 z"
       id="path45" />
    <path
       style="fill:#dfa809;stroke-width:0.31397516"
       inkscape:connector-curvature="0"
       class="cls-3"
       d="m 45.741385,246.4669 a 17.469401,16.10953 0 0 1 0.47736,21.34068 17.279765,15.934656 0 0 0 1.651141,-1.24221 17.466131,16.106515 0 1 0 -25.156198,-22.26028 17.469401,16.10953 0 0 1 23.027697,2.16181 z"
       id="path47" />
    <path
       style="fill:#282828;stroke-width:0.31397516"
       inkscape:connector-curvature="0"
       class="cls-4"
       d="m 62.033189,246.09001 h 20.408759 v 4.22111 H 68.471005 v 5.66532 h 12.617334 v 4.2211 H 68.471005 v 6.35275 h 14.38618 v 4.2211 H 62.033189 Z"
       id="path49" />
    <path
       style="fill:#282828;stroke-width:0.31397516"
       inkscape:connector-curvature="0"
       class="cls-4"
       d="m 87.107648,244.15132 h 6.019308 v 26.62007 h -6.019308 z"
       id="path51" />
    <path
       style="fill:#282828;stroke-width:0.31397516"
       inkscape:connector-curvature="0"
       class="cls-4"
       d="m 97.985562,265.17844 v -6.61507 q 0,-3.45829 2.412958,-5.0201 2.41295,-1.5618 7.44158,-1.55879 4.74417,0 6.94787,1.50754 2.2037,1.50753 2.2037,5.07738 v 4.48642 h -12.94429 v 1.67035 q 0,1.60101 1.2359,2.28241 1.2359,0.68141 4.45318,0.68443 a 29.632262,27.325598 0 0 0 6.67976,-0.799 v 3.53668 a 37.410609,34.498455 0 0 1 -7.84701,0.72362 q -10.583648,-0.006 -10.583648,-5.97587 z m 13.277788,-5.28543 v -2.6623 a 1.6347932,1.5075361 0 0 0 -0.80432,-1.36885 c -0.53621,-0.3015 -1.43861,-0.45527 -2.70067,-0.45527 -1.45824,0 -2.43258,0.15075 -2.94263,0.45527 a 1.7099937,1.5768827 0 0 0 -0.78143,1.36885 v 2.6623 z"
       id="path53" />
    <path
       style="fill:#282828;stroke-width:0.31397516"
       inkscape:connector-curvature="0"
       class="cls-4"
       d="m 121.61159,244.15132 h 6.01931 v 26.62007 h -6.01931 z m 6.2678,16.28139 6.53917,-8.05929 h 6.88575 l -6.92825,8.02311 7.52005,10.38089 h -6.80401 z"
       id="path55" />
    <path
       style="fill:#282828;stroke-width:0.31397516"
       inkscape:connector-curvature="0"
       class="cls-4"
       d="m 151.29617,271.03371 a 9.4360266,8.7014981 0 0 1 -2.05984,-0.45528 4.989389,4.601 0 0 1 -1.87674,-0.95276 4.7310917,4.3628093 0 0 1 -1.17378,-1.67337 7.1571248,6.5999928 0 0 1 -0.49698,-2.54773 v -9.61808 h -4.04121 v -3.40704 h 4.04121 v -5.33667 h 6.01931 v 5.33667 h 5.48636 v 3.40704 h -5.48636 v 8.66833 a 7.1309682,6.5758723 0 0 0 0.24849,1.99598 1.6936458,1.5618073 0 0 0 0.94818,0.95276 5.6236888,5.185924 0 0 0 2.14485,0.28342 19.908512,18.358774 0 0 0 2.14484,-0.18995 v 3.4613 a 32.306784,29.791927 0 0 1 -3.34151,0.18995 22.177605,20.451234 0 0 1 -2.55682,-0.11457 z"
       id="path57" />
    <path
       style="fill:#282828;stroke-width:0.31397516"
       inkscape:connector-curvature="0"
       class="cls-4"
       d="m 160.67334,252.37945 h 5.73159 v 3.23216 a 2.8510794,2.6291429 0 0 1 0.78143,-1.71256 6.0618134,5.5899437 0 0 1 2.00099,-1.36884 5.6204192,5.1829089 0 0 1 2.41295,-0.53065 h 2.14158 v 4.601 h -2.05984 q -2.56008,0 -3.7731,0.7206 -1.21302,0.7206 -1.21629,2.39698 v 11.05325 h -6.01931 z"
       id="path59" />
    <path
       style="fill:#282828;stroke-width:0.31397516"
       inkscape:connector-curvature="0"
       class="cls-4"
       d="m 178.48932,270.6719 a 3.233621,2.9819063 0 0 1 -1.93886,-1.70955 c -0.36947,-0.82613 -0.55583,-2.05929 -0.55583,-3.70854 q 0,-2.201 0.59833,-3.4613 a 3.6946327,3.4070315 0 0 1 1.9356,-1.80904 q 1.34053,-0.54573 3.69136,-0.54875 h 6.7615 v -1.25728 a 3.9954347,3.6844181 0 0 0 -0.34984,-1.74874 1.9617519,1.8090433 0 0 0 -1.27841,-0.79598 11.505675,10.610039 0 0 0 -2.78242,-0.22915 67.140959,61.914506 0 0 0 -7.00999,0.45528 v -3.4794 a 61.638245,56.840139 0 0 1 7.63448,-0.39497 q 3.83523,0 5.91795,0.53065 2.08273,0.53066 2.98841,1.82714 0.9024,1.29346 0.9024,3.76582 v 12.6633 h -5.88525 v -1.67336 a 3.8875383,3.5849207 0 0 1 -1.89636,1.55879 q -1.19667,0.49146 -4.53492,0.49447 -2.81838,-0.003 -4.19815,-0.47939 z m 9.13196,-3.0995 a 1.8930906,1.7457267 0 0 0 0.80431,-0.22613 1.3372609,1.2331645 0 0 0 0.39235,-0.49447 1.8178901,1.6763801 0 0 0 0.16348,-0.79899 v -3.57588 h -4.11314 a 7.2225166,6.6602943 0 0 0 -1.9781,0.17186 1.1803207,1.088441 0 0 0 -0.7847,0.68442 6.3724241,5.8763755 0 0 0 -0.20598,1.80904 5.9506474,5.4874312 0 0 0 0.20598,1.74875 1.1247378,1.0371848 0 0 0 0.80432,0.64824 9.337939,8.6110459 0 0 0 2.12523,0.15075 18.963602,17.487418 0 0 0 2.58625,-0.11759 z"
       id="path61" />
    <g
       aria-label="libelektra.org"
       style="font-style:normal;font-weight:normal;font-size:8.65023804px;line-height:1.25;font-family:sans-serif;letter-spacing:0px;word-spacing:0px;fill:#282828;fill-opacity:1;stroke:none;stroke-width:0.21625593"
       id="text83"
       transform="matrix(0.99447439,0,0,0.99447439,-28.756884,20.052897)">
      <path
         d="m 175.00001,255.44428 h 0.77852 v 6.05517 h -0.77852 z"
         style="font-style:normal;font-variant:normal;font-weight:normal;font-stretch:normal;font-family:Play;-inkscape-font-specification:Play;fill:#282828;fill-opacity:1;stroke-width:0.21625593"
         id="path21"
         inkscape:connector-curvature="0" />
      <path
         d="m 177.12877,255.79894 h 0.77853 v 0.81313 h -0.77853 z m 0,1.5138 h 0.77853 v 4.18671 h -0.77853 z"
         style="font-style:normal;font-variant:normal;font-weight:normal;font-stretch:normal;font-family:Play;-inkscape-font-specification:Play;fill:#282828;fill-opacity:1;stroke-width:0.21625593"
         id="path23"
         inkscape:connector-curvature="0" />
      <path
         d="m 181.126,261.58595 q -0.46712,0 -0.75258,-0.0519 -0.2768,-0.0433 -0.55361,-0.173 -0.56227,-0.26816 -0.56227,-1.22834 v -4.68843 h 0.77853 v 1.25429 0.49306 q -0.009,0.22491 -0.009,0.50172 0.0433,-0.19896 0.36331,-0.33736 0.3287,-0.12976 0.95152,-0.12976 1.73005,0 1.73005,1.18509 v 1.72139 q 0,0.37196 -0.11245,0.64877 -0.10381,0.27681 -0.27681,0.43251 -0.15571,0.14706 -0.43251,0.23356 -0.26816,0.0865 -0.53632,0.11245 -0.2422,0.026 -0.58821,0.026 z m 0.0173,-0.51036 q 0.44981,0 0.68336,-0.0605 0.24221,-0.0692 0.34601,-0.24221 0.10381,-0.173 0.10381,-0.52766 v -1.64355 q 0,-0.35466 -0.10381,-0.52766 -0.1038,-0.18166 -0.34601,-0.23356 -0.23355,-0.0605 -0.69201,-0.0605 -0.42387,0 -0.65742,0.0692 -0.23356,0.0692 -0.33736,0.25086 -0.1038,0.173 -0.1038,0.50171 v 1.64355 q 0,0.35466 0.0952,0.52766 0.1038,0.17301 0.33736,0.24221 0.23355,0.0605 0.67472,0.0605 z"
         style="font-style:normal;font-variant:normal;font-weight:normal;font-stretch:normal;font-family:Play;-inkscape-font-specification:Play;fill:#282828;fill-opacity:1;stroke-width:0.21625593"
         id="path25"
         inkscape:connector-curvature="0" />
      <path
         d="m 186.02311,261.58595 q -1.92035,0 -1.92035,-1.28023 v -1.6522 q 0,-0.76122 0.43251,-1.08993 0.44116,-0.33736 1.41864,-0.33736 0.92557,0 1.33214,0.32006 0.41521,0.32006 0.41521,1.10723 v 0.92558 h -2.81133 v 0.63147 q 0,0.43251 0.30276,0.62281 0.30276,0.19031 0.93422,0.19031 0.59687,0 1.40999,-0.20761 v 0.59687 q -0.79582,0.173 -1.51379,0.173 z m 0.89963,-2.51722 v -0.65741 q 0,-0.38061 -0.23356,-0.51902 -0.22491,-0.14705 -0.77852,-0.14705 -0.53632,0 -0.77852,0.14705 -0.24221,0.13841 -0.24221,0.51902 v 0.65741 z"
         style="font-style:normal;font-variant:normal;font-weight:normal;font-stretch:normal;font-family:Play;-inkscape-font-specification:Play;fill:#282828;fill-opacity:1;stroke-width:0.21625593"
         id="path27"
         inkscape:connector-curvature="0" />
      <path
         d="m 188.88769,255.44428 h 0.77852 v 6.05517 h -0.77852 z"
         style="font-style:normal;font-variant:normal;font-weight:normal;font-stretch:normal;font-family:Play;-inkscape-font-specification:Play;fill:#282828;fill-opacity:1;stroke-width:0.21625593"
         id="path29"
         inkscape:connector-curvature="0" />
      <path
         d="m 192.78111,261.58595 q -1.92035,0 -1.92035,-1.28023 v -1.6522 q 0,-0.76122 0.43251,-1.08993 0.44116,-0.33736 1.41864,-0.33736 0.92557,0 1.33214,0.32006 0.41521,0.32006 0.41521,1.10723 v 0.92558 h -2.81133 v 0.63147 q 0,0.43251 0.30276,0.62281 0.30276,0.19031 0.93422,0.19031 0.59687,0 1.40999,-0.20761 v 0.59687 q -0.79582,0.173 -1.51379,0.173 z m 0.89963,-2.51722 v -0.65741 q 0,-0.38061 -0.23356,-0.51902 -0.22491,-0.14705 -0.77852,-0.14705 -0.53632,0 -0.77852,0.14705 -0.24221,0.13841 -0.24221,0.51902 v 0.65741 z"
         style="font-style:normal;font-variant:normal;font-weight:normal;font-stretch:normal;font-family:Play;-inkscape-font-specification:Play;fill:#282828;fill-opacity:1;stroke-width:0.21625593"
         id="path31"
         inkscape:connector-curvature="0" />
      <path
         d="m 195.64569,255.44428 h 0.77852 v 6.05517 h -0.77852 z m 0.87367,3.76286 1.76465,-1.8944 h 0.95153 l -1.81655,1.8944 1.9809,2.29231 h -0.96882 z"
         style="font-style:normal;font-variant:normal;font-weight:normal;font-stretch:normal;font-family:Play;-inkscape-font-specification:Play;fill:#282828;fill-opacity:1;stroke-width:0.21625593"
         id="path33"
         inkscape:connector-curvature="0" />
      <path
         d="m 201.84507,261.58595 q -0.53631,0 -0.83907,-0.11245 -0.30276,-0.1211 -0.44116,-0.39791 -0.12976,-0.28546 -0.12976,-0.79582 v -2.45667 h -0.93422 v -0.51036 h 0.93422 v -1.29754 h 0.78718 v 1.29754 h 1.49649 v 0.51036 h -1.49649 v 2.49992 q 0,0.31141 0.0692,0.46711 0.0779,0.15571 0.25951,0.22491 0.1903,0.0605 0.54496,0.0605 0.11245,0 0.62282,-0.0692 v 0.51036 q -0.44116,0.0692 -0.87368,0.0692 z"
         style="font-style:normal;font-variant:normal;font-weight:normal;font-stretch:normal;font-family:Play;-inkscape-font-specification:Play;fill:#282828;fill-opacity:1;stroke-width:0.21625593"
         id="path35"
         inkscape:connector-curvature="0" />
      <path
         d="m 203.56944,257.31274 h 0.73527 v 0.68336 q 0,-0.19895 0.17301,-0.37196 0.173,-0.18165 0.44116,-0.28545 0.26816,-0.11246 0.52767,-0.11246 h 0.38061 v 0.66607 h -0.43252 q -0.55361,0 -0.80447,0.14706 -0.2422,0.1384 -0.2422,0.51036 v 2.94973 h -0.77853 z"
         style="font-style:normal;font-variant:normal;font-weight:normal;font-stretch:normal;font-family:Play;-inkscape-font-specification:Play;fill:#282828;fill-opacity:1;stroke-width:0.21625593"
         id="path37"
         inkscape:connector-curvature="0" />
      <path
         d="m 207.89943,261.58595 q -0.59687,0 -0.92558,-0.11245 -0.32005,-0.11245 -0.46711,-0.39791 -0.1384,-0.28546 -0.1384,-0.82177 0,-0.47577 0.12975,-0.73527 0.1384,-0.26816 0.45846,-0.38061 0.32871,-0.11246 0.92558,-0.11246 h 1.25428 v -0.66607 q 0,-0.23355 -0.0952,-0.35466 -0.0865,-0.12975 -0.30276,-0.18165 -0.2076,-0.0519 -0.61416,-0.0519 -0.64877,0 -1.43594,0.1038 v -0.57091 q 0.85637,-0.0779 1.54839,-0.0779 0.72662,0 1.07263,0.11246 0.34601,0.1038 0.47576,0.37196 0.12975,0.26815 0.12975,0.83042 v 2.95838 h -0.75257 v -0.39791 q -0.0952,0.48441 -1.26293,0.48441 z m 0.12975,-0.51036 q 0.42386,0 0.71797,-0.0605 0.38926,-0.0779 0.38926,-0.36331 v -1.14183 h -1.20238 q -0.37196,0 -0.53631,0.0605 -0.16436,0.0519 -0.21626,0.2076 -0.0519,0.15571 -0.0519,0.50172 0,0.31141 0.0606,0.48441 0.0606,0.16435 0.21626,0.24221 0.1557,0.0692 0.46711,0.0692 z"
         style="font-style:normal;font-variant:normal;font-weight:normal;font-stretch:normal;font-family:Play;-inkscape-font-specification:Play;fill:#282828;fill-opacity:1;stroke-width:0.21625593"
         id="path39"
         inkscape:connector-curvature="0" />
      <path
         d="m 211.18746,260.56522 h 1.00343 v 0.93423 h -1.00343 z"
         style="font-style:normal;font-variant:normal;font-weight:normal;font-stretch:normal;font-family:Play;-inkscape-font-specification:Play;fill:#282828;fill-opacity:1;stroke-width:0.21625593"
         id="path41"
         inkscape:connector-curvature="0" />
      <path
         d="m 215.24321,261.58595 q -0.55362,0 -0.83042,-0.0433 -0.27681,-0.0346 -0.55362,-0.16435 -0.28546,-0.12976 -0.41521,-0.41521 -0.12975,-0.29411 -0.12975,-0.78718 v -1.45324 q 0,-0.38926 0.0951,-0.68336 0.0952,-0.29411 0.25086,-0.45847 0.12975,-0.14705 0.38926,-0.2249 0.26815,-0.0865 0.54496,-0.11246 0.31141,-0.0173 0.64877,-0.0173 0.44981,0 0.67472,0.026 0.23356,0.0173 0.49306,0.0865 0.26816,0.0779 0.41521,0.23355 0.14706,0.15571 0.25086,0.44981 0.0952,0.30276 0.0952,0.70067 v 1.45324 q 0,0.73527 -0.33736,1.07263 -0.1384,0.13841 -0.39791,0.21626 -0.2595,0.0779 -0.53631,0.1038 -0.32871,0.0173 -0.65742,0.0173 z m 0,-0.51036 q 0.36331,0 0.52766,-0.0173 0.16436,-0.0173 0.32006,-0.0951 0.15571,-0.0692 0.21626,-0.22491 0.0692,-0.16435 0.0692,-0.44981 v -1.69545 q 0,-0.38926 -0.0951,-0.56226 -0.0951,-0.18166 -0.32871,-0.23356 -0.22491,-0.0605 -0.70932,-0.0605 -0.48441,0 -0.71797,0.0605 -0.22491,0.0519 -0.32006,0.23356 -0.0952,0.173 -0.0952,0.56226 v 1.69545 q 0,0.28546 0.0606,0.44981 0.0692,0.1557 0.22491,0.22491 0.1557,0.0779 0.32006,0.0951 0.16435,0.0173 0.52766,0.0173 z"
         style="font-style:normal;font-variant:normal;font-weight:normal;font-stretch:normal;font-family:Play;-inkscape-font-specification:Play;fill:#282828;fill-opacity:1;stroke-width:0.21625593"
         id="path44"
         inkscape:connector-curvature="0" />
      <path
         d="m 218.38635,257.31274 h 0.73527 v 0.68336 q 0,-0.19895 0.17301,-0.37196 0.173,-0.18165 0.44116,-0.28545 0.26816,-0.11246 0.52767,-0.11246 h 0.38061 v 0.66607 h -0.43252 q -0.55361,0 -0.80447,0.14706 -0.2422,0.1384 -0.2422,0.51036 v 2.94973 h -0.77853 z"
         style="font-style:normal;font-variant:normal;font-weight:normal;font-stretch:normal;font-family:Play;-inkscape-font-specification:Play;fill:#282828;fill-opacity:1;stroke-width:0.21625593"
         id="path46"
         inkscape:connector-curvature="0" />
      <path
         d="m 223.01045,263.4025 q -0.85638,0 -1.44459,-0.0951 v -0.55361 q 1.03803,0.1211 1.51379,0.1211 0.59687,0 0.86502,-0.19031 0.27681,-0.1903 0.27681,-0.63146 v -1.00343 q -0.0173,0.27681 -0.38061,0.40656 -0.35466,0.12975 -0.89962,0.12975 -0.64877,0 -1.01208,-0.1211 -0.35466,-0.1211 -0.51037,-0.39791 -0.14705,-0.27681 -0.14705,-0.75257 v -1.7041 q 0,-0.74392 0.39791,-1.06398 0.40656,-0.32006 1.32349,-0.32006 1.08993,0 1.28023,0.49307 v -0.40656 H 225 v 4.58462 q 0,0.57957 -0.21625,0.90828 -0.21626,0.32871 -0.64877,0.45846 -0.43251,0.1384 -1.12453,0.1384 z m 0.0952,-2.33556 q 0.61417,0 0.86502,-0.14706 0.25086,-0.14705 0.25086,-0.55361 v -1.8944 q 0,-0.28546 -0.0952,-0.43251 -0.0865,-0.14706 -0.32871,-0.20761 -0.24221,-0.0692 -0.70932,-0.0692 -0.44116,0 -0.66607,0.0606 -0.21625,0.0605 -0.30276,0.21626 -0.0779,0.14705 -0.0779,0.43251 v 1.8944 q 0,0.29411 0.0865,0.44116 0.0865,0.14706 0.31141,0.20761 0.22491,0.0519 0.66607,0.0519 z"
         style="font-style:normal;font-variant:normal;font-weight:normal;font-stretch:normal;font-family:Play;-inkscape-font-specification:Play;fill:#282828;fill-opacity:1;stroke-width:0.21625593"
         id="path48"
         inkscape:connector-curvature="0" />
    </g>
  </g>
</svg>
