<?xml version="1.0" encoding="UTF-8" standalone="no"?>
<!-- Created with Inkscape (http://www.inkscape.org/) -->

<svg
   xmlns:dc="http://purl.org/dc/elements/1.1/"
   xmlns:cc="http://creativecommons.org/ns#"
   xmlns:rdf="http://www.w3.org/1999/02/22-rdf-syntax-ns#"
   xmlns:svg="http://www.w3.org/2000/svg"
   xmlns="http://www.w3.org/2000/svg"
   xmlns:sodipodi="http://sodipodi.sourceforge.net/DTD/sodipodi-0.dtd"
   xmlns:inkscape="http://www.inkscape.org/namespaces/inkscape"
   width="200mm"
   height="200mm"
   viewBox="0 0 200 200"
   version="1.1"
   id="svg8"
   inkscape:version="0.92.2 5c3e80d, 2017-08-06"
   sodipodi:docname="sticker0_path.svg">
  <defs
     id="defs2">
    <style
       id="style312">.cls-1{fill:#2f418f;}.cls-2{fill:#409030;}.cls-3{fill:#dfa809;}.cls-4{fill:#282828;}</style>
  </defs>
  <sodipodi:namedview
     id="base"
     pagecolor="#ffffff"
     bordercolor="#666666"
     borderopacity="1.0"
     inkscape:pageopacity="0.0"
     inkscape:pageshadow="2"
     inkscape:zoom="0.88358896"
     inkscape:cx="402.85714"
     inkscape:cy="368.57143"
     inkscape:document-units="mm"
     inkscape:current-layer="layer1"
     showgrid="false"
     inkscape:window-width="1920"
     inkscape:window-height="1016"
     inkscape:window-x="0"
     inkscape:window-y="27"
     inkscape:window-maximized="1" />
  <metadata
     id="metadata5">
    <rdf:RDF>
      <cc:Work
         rdf:about="">
        <dc:format>image/svg+xml</dc:format>
        <dc:type
           rdf:resource="http://purl.org/dc/dcmitype/StillImage" />
        <dc:title></dc:title>
      </cc:Work>
    </rdf:RDF>
  </metadata>
  <g
     inkscape:label="Layer 1"
     inkscape:groupmode="layer"
     id="layer1"
     transform="translate(0,-97)">
    <g
       id="g108"
       transform="matrix(0.56338694,0,0,0.56338694,-179.47439,68.208682)"
       style="fill:none;fill-opacity:1;stroke:none;stroke-dasharray:none;stroke-opacity:1">
      <title
         id="title96">Canvas 1</title>
      <g
         id="g106">
        <title
           id="title98">Layer 1</title>
        <path
           id="path100"
           d="M 372.45,230.89 C 392.0401,168.08195 455.3905,129.74225 520.12,141.52 474.25367,120.82614 420.5698,128.40492 382.2247,160.98726 343.87958,193.5696 327.7339,245.3259 340.75206,293.93128 353.7702,342.53667 393.62295,379.2947 443.12,388.35 383.1825,361.2382 352.86677,293.69167 372.45,230.89 Z"
           inkscape:connector-curvature="0"
           style="fill:#2f418f" />
        <path
           id="path102"
           d="M 547.22,353.82 C 483.0371,368.2626 418.16135,332.57275 396,270.63 c 5.0365,50.0519 38.4495,92.72733 85.8313,109.6247 47.38186,16.89735 100.25856,4.99464 135.82976,-30.5757 35.57119,-35.57034 47.47514,-88.44676 30.57894,-135.829 6.5057,65.4729 -36.8312,125.51916 -101.02,139.97 z"
           inkscape:connector-curvature="0"
           style="fill:#409030" />
        <path
           id="path104"
           d="m 565.48,144.06 c 44.6031,48.36475 46.1389,122.39706 3.58,172.57 4.3017,-3.09945 8.41247,-6.45554 12.31,-10.05 35.6227,-32.8283 50.08186,-82.71517 37.53556,-129.50473 C 606.35926,130.28572 568.8808,94.32557 521.61266,83.72388 474.3445,73.12219 425.0979,89.63091 393.77,126.58 447.2074,88.2055 520.8717,95.70449 565.48,144.06 Z"
           inkscape:connector-curvature="0"
           style="fill:#dfa809" />
      </g>
    </g>
    <g
       id="g345"
       transform="matrix(0.24588753,0,0,0.24588753,-43.021711,139.3415)">
      <path
         id="path318"
         d="m 378.31,196.14 h 62.42 v 14 H 398 v 18.79 h 38.59 v 14 H 398 V 264 h 44 v 14 h -63.69 z"
         class="cls-4"
         inkscape:connector-curvature="0"
         style="fill:#282828" />
      <path
         id="path320"
         d="m 455,189.71 h 18.41 V 278 H 455 Z"
         class="cls-4"
         inkscape:connector-curvature="0"
         style="fill:#282828" />
      <path
         id="path322"
         d="m 488.27,259.45 v -21.94 q 0,-11.47 7.38,-16.65 7.38,-5.18 22.76,-5.17 14.51,0 21.25,5 6.74,5 6.74,16.84 v 14.88 h -39.59 v 5.54 q 0,5.31 3.78,7.57 3.78,2.26 13.62,2.27 a 90.63,90.63 0 0 0 20.43,-2.65 v 11.73 a 114.42,114.42 0 0 1 -24,2.4 q -32.37,-0.02 -32.37,-19.82 z m 40.61,-17.53 v -8.83 a 5,5 0 0 0 -2.46,-4.54 c -1.64,-1 -4.4,-1.51 -8.26,-1.51 -4.46,0 -7.44,0.5 -9,1.51 a 5.23,5.23 0 0 0 -2.39,4.54 v 8.83 z"
         class="cls-4"
         inkscape:connector-curvature="0"
         style="fill:#282828" />
      <path
         id="path324"
         d="m 560.53,189.71 h 18.41 V 278 h -18.41 z m 19.17,54 20,-26.73 h 21.06 l -21.19,26.61 23,34.43 h -20.81 z"
         class="cls-4"
         inkscape:connector-curvature="0"
         style="fill:#282828" />
      <path
         id="path326"
         d="m 651.32,278.87 a 28.86,28.86 0 0 1 -6.3,-1.51 15.26,15.26 0 0 1 -5.74,-3.16 14.47,14.47 0 0 1 -3.59,-5.55 21.89,21.89 0 0 1 -1.52,-8.45 V 228.3 H 621.81 V 217 h 12.36 v -17.7 h 18.41 V 217 h 16.78 v 11.3 h -16.78 v 28.75 a 21.81,21.81 0 0 0 0.76,6.62 5.18,5.18 0 0 0 2.9,3.16 17.2,17.2 0 0 0 6.56,0.94 60.89,60.89 0 0 0 6.56,-0.63 v 11.48 a 98.81,98.81 0 0 1 -10.22,0.63 67.83,67.83 0 0 1 -7.82,-0.38 z"
         class="cls-4"
         inkscape:connector-curvature="0"
         style="fill:#282828" />
      <path
         id="path328"
         d="m 680,217 h 17.53 v 10.72 a 8.72,8.72 0 0 1 2.39,-5.68 18.54,18.54 0 0 1 6.12,-4.54 17.19,17.19 0 0 1 7.38,-1.76 h 6.55 V 231 h -6.3 q -7.83,0 -11.54,2.39 -3.71,2.39 -3.72,7.95 V 278 H 680 Z"
         class="cls-4"
         inkscape:connector-curvature="0"
         style="fill:#282828" />
      <path
         id="path330"
         d="M 734.49,277.67 A 9.89,9.89 0 0 1 728.56,272 c -1.13,-2.74 -1.7,-6.83 -1.7,-12.3 q 0,-7.3 1.83,-11.48 a 11.3,11.3 0 0 1 5.92,-6 q 4.1,-1.81 11.29,-1.82 h 20.68 v -4.17 a 12.22,12.22 0 0 0 -1.07,-5.8 6,6 0 0 0 -3.91,-2.64 35.19,35.19 0 0 0 -8.51,-0.76 205.35,205.35 0 0 0 -21.44,1.51 V 217 A 188.52,188.52 0 0 1 755,215.69 q 11.73,0 18.1,1.76 6.37,1.76 9.14,6.06 Q 785,227.8 785,236 v 42 h -18 v -5.55 a 11.89,11.89 0 0 1 -5.8,5.17 q -3.66,1.63 -13.87,1.64 -8.62,-0.01 -12.84,-1.59 z m 27.93,-10.28 a 5.79,5.79 0 0 0 2.46,-0.75 4.09,4.09 0 0 0 1.2,-1.64 5.56,5.56 0 0 0 0.5,-2.65 V 250.49 H 754 a 22.09,22.09 0 0 0 -6.05,0.57 3.61,3.61 0 0 0 -2.4,2.27 19.49,19.49 0 0 0 -0.63,6 18.2,18.2 0 0 0 0.63,5.8 3.44,3.44 0 0 0 2.46,2.15 28.56,28.56 0 0 0 6.5,0.5 58,58 0 0 0 7.91,-0.39 z"
         class="cls-4"
         inkscape:connector-curvature="0"
         style="fill:#282828" />
    </g>
    <g
       aria-label="libelektra.org"
       style="font-style:normal;font-weight:normal;font-size:10.86956501px;line-height:1.25;font-family:sans-serif;letter-spacing:0px;word-spacing:0px;fill:#282828;fill-opacity:1;stroke:none;stroke-width:0.27173913"
       id="text349">
      <path
         d="m 87.171999,211.56889 h 0.978261 v 7.60869 h -0.978261 z"
         style="font-style:normal;font-variant:normal;font-weight:normal;font-stretch:normal;font-family:Play;-inkscape-font-specification:Play;fill:#282828;fill-opacity:1;stroke-width:0.27173913"
         id="path370" />
      <path
         d="m 89.846931,212.01454 h 0.978261 v 1.02174 h -0.978261 z m 0,1.90217 h 0.978261 v 5.26087 h -0.978261 z"
         style="font-style:normal;font-variant:normal;font-weight:normal;font-stretch:normal;font-family:Play;-inkscape-font-specification:Play;fill:#282828;fill-opacity:1;stroke-width:0.27173913"
         id="path372" />
      <path
         d="m 94.869689,219.28628 q -0.586956,0 -0.945652,-0.0652 -0.347826,-0.0543 -0.695652,-0.21739 -0.706522,-0.33696 -0.706522,-1.54348 v -5.8913 h 0.978261 v 1.57608 0.61957 q -0.01087,0.28261 -0.01087,0.63043 0.05435,-0.25 0.456522,-0.42391 0.413044,-0.16304 1.195652,-0.16304 2.173913,0 2.173913,1.48913 v 2.16304 q 0,0.46739 -0.141304,0.81522 -0.130435,0.34782 -0.347826,0.54348 -0.195652,0.18478 -0.543478,0.29347 -0.336957,0.1087 -0.673913,0.14131 -0.304348,0.0326 -0.739131,0.0326 z m 0.02174,-0.64131 q 0.565218,0 0.858696,-0.0761 0.304348,-0.087 0.434782,-0.30435 0.130435,-0.21739 0.130435,-0.66305 v -2.06521 q 0,-0.44565 -0.130435,-0.66305 -0.130434,-0.22826 -0.434782,-0.29347 -0.293478,-0.0761 -0.869565,-0.0761 -0.532609,0 -0.826087,0.087 -0.293479,0.087 -0.423913,0.31521 -0.130435,0.21739 -0.130435,0.63044 v 2.06521 q 0,0.44566 0.119565,0.66305 0.130435,0.21739 0.423913,0.30435 0.293478,0.0761 0.847826,0.0761 z"
         style="font-style:normal;font-variant:normal;font-weight:normal;font-stretch:normal;font-family:Play;-inkscape-font-specification:Play;fill:#282828;fill-opacity:1;stroke-width:0.27173913"
         id="path374" />
      <path
         d="m 101.02322,219.28628 q -2.413042,0 -2.413042,-1.6087 v -2.07609 q 0,-0.95652 0.543478,-1.36956 0.554348,-0.42391 1.782604,-0.42391 1.16305,0 1.67392,0.40217 0.52174,0.40217 0.52174,1.3913 v 1.16305 h -3.532612 v 0.79348 q 0,0.54347 0.380435,0.78261 0.380437,0.23913 1.173917,0.23913 0.75,0 1.77174,-0.26087 v 0.75 q -1,0.21739 -1.90218,0.21739 z m 1.13044,-3.16305 v -0.82608 q 0,-0.47826 -0.29348,-0.65218 -0.28261,-0.18478 -0.97826,-0.18478 -0.67392,0 -0.978264,0.18478 -0.304348,0.17392 -0.304348,0.65218 v 0.82608 z"
         style="font-style:normal;font-variant:normal;font-weight:normal;font-stretch:normal;font-family:Play;-inkscape-font-specification:Play;fill:#282828;fill-opacity:1;stroke-width:0.27173913"
         id="path376" />
      <path
         d="m 104.62275,211.56889 h 0.97826 v 7.60869 h -0.97826 z"
         style="font-style:normal;font-variant:normal;font-weight:normal;font-stretch:normal;font-family:Play;-inkscape-font-specification:Play;fill:#282828;fill-opacity:1;stroke-width:0.27173913"
         id="path378" />
      <path
         d="m 109.51507,219.28628 q -2.41304,0 -2.41304,-1.6087 v -2.07609 q 0,-0.95652 0.54347,-1.36956 0.55435,-0.42391 1.78261,-0.42391 1.16305,0 1.67392,0.40217 0.52173,0.40217 0.52173,1.3913 v 1.16305 h -3.5326 v 0.79348 q 0,0.54347 0.38043,0.78261 0.38044,0.23913 1.17391,0.23913 0.75,0 1.77174,-0.26087 v 0.75 q -1,0.21739 -1.90217,0.21739 z m 1.13043,-3.16305 v -0.82608 q 0,-0.47826 -0.29347,-0.65218 -0.28261,-0.18478 -0.97827,-0.18478 -0.67391,0 -0.97826,0.18478 -0.30434,0.17392 -0.30434,0.65218 v 0.82608 z"
         style="font-style:normal;font-variant:normal;font-weight:normal;font-stretch:normal;font-family:Play;-inkscape-font-specification:Play;fill:#282828;fill-opacity:1;stroke-width:0.27173913"
         id="path380" />
      <path
         d="m 113.11459,211.56889 h 0.97826 v 7.60869 h -0.97826 z m 1.09783,4.72826 2.21739,-2.38044 h 1.19565 l -2.28261,2.38044 2.48913,2.88043 h -1.21739 z"
         style="font-style:normal;font-variant:normal;font-weight:normal;font-stretch:normal;font-family:Play;-inkscape-font-specification:Play;fill:#282828;fill-opacity:1;stroke-width:0.27173913"
         id="path382" />
      <path
         d="m 120.9045,219.28628 q -0.67391,0 -1.05434,-0.14131 -0.38044,-0.15217 -0.55435,-0.5 -0.16304,-0.35869 -0.16304,-1 v -3.08695 h -1.17392 v -0.64131 h 1.17392 v -1.63043 h 0.98913 v 1.63043 h 1.88043 v 0.64131 h -1.88043 v 3.1413 q 0,0.39131 0.087,0.58696 0.0978,0.19565 0.32609,0.28261 0.23913,0.0761 0.68478,0.0761 0.14131,0 0.78261,-0.087 v 0.6413 q -0.55435,0.087 -1.09783,0.087 z"
         style="font-style:normal;font-variant:normal;font-weight:normal;font-stretch:normal;font-family:Play;-inkscape-font-specification:Play;fill:#282828;fill-opacity:1;stroke-width:0.27173913"
         id="path384" />
      <path
         d="m 123.07128,213.91671 h 0.92392 v 0.8587 q 0,-0.25 0.21739,-0.46739 0.21739,-0.22826 0.55435,-0.3587 0.33695,-0.1413 0.66304,-0.1413 h 0.47826 v 0.83695 h -0.54348 q -0.69565,0 -1.01087,0.18479 -0.30435,0.17391 -0.30435,0.6413 v 3.70652 h -0.97826 z"
         style="font-style:normal;font-variant:normal;font-weight:normal;font-stretch:normal;font-family:Play;-inkscape-font-specification:Play;fill:#282828;fill-opacity:1;stroke-width:0.27173913"
         id="path386" />
      <path
         d="m 128.51218,219.28628 q -0.75,0 -1.16304,-0.14131 -0.40217,-0.1413 -0.58696,-0.5 -0.17391,-0.35869 -0.17391,-1.03261 0,-0.59782 0.16304,-0.92391 0.17392,-0.33696 0.57609,-0.47826 0.41304,-0.1413 1.16304,-0.1413 h 1.57609 v -0.83696 q 0,-0.29348 -0.11956,-0.44565 -0.1087,-0.16305 -0.38044,-0.22826 -0.26087,-0.0652 -0.77174,-0.0652 -0.81522,0 -1.80435,0.13043 v -0.71739 q 1.07609,-0.0978 1.94566,-0.0978 0.91304,0 1.34782,0.1413 0.43479,0.13044 0.59783,0.46739 0.16304,0.33696 0.16304,1.04348 v 3.71739 h -0.94565 v -0.5 q -0.11957,0.6087 -1.58696,0.6087 z m 0.16305,-0.64131 q 0.53261,0 0.90217,-0.0761 0.48913,-0.0978 0.48913,-0.45653 v -1.43478 h -1.51087 q -0.46739,0 -0.67391,0.0761 -0.20652,0.0652 -0.27174,0.26087 -0.0652,0.19565 -0.0652,0.63043 0,0.39131 0.0761,0.6087 0.0761,0.20652 0.27174,0.30435 0.19565,0.087 0.58695,0.087 z"
         style="font-style:normal;font-variant:normal;font-weight:normal;font-stretch:normal;font-family:Play;-inkscape-font-specification:Play;fill:#282828;fill-opacity:1;stroke-width:0.27173913"
         id="path388" />
      <path
         d="m 132.6438,218.00367 h 1.26087 v 1.17391 h -1.26087 z"
         style="font-style:normal;font-variant:normal;font-weight:normal;font-stretch:normal;font-family:Play;-inkscape-font-specification:Play;fill:#282828;fill-opacity:1;stroke-width:0.27173913"
         id="path390" />
      <path
         d="m 137.7401,219.28628 q -0.69565,0 -1.04347,-0.0543 -0.34783,-0.0435 -0.69566,-0.20652 -0.35869,-0.16305 -0.52174,-0.52174 -0.16304,-0.36957 -0.16304,-0.98913 v -1.82609 q 0,-0.48913 0.11957,-0.85869 0.11956,-0.36957 0.31521,-0.57609 0.16305,-0.18478 0.48913,-0.28261 0.33696,-0.1087 0.68479,-0.1413 0.3913,-0.0217 0.81521,-0.0217 0.56522,0 0.84783,0.0326 0.29348,0.0217 0.61956,0.10869 0.33696,0.0978 0.52174,0.29348 0.18479,0.19565 0.31522,0.56522 0.11957,0.38043 0.11957,0.88043 v 1.82609 q 0,0.92391 -0.42392,1.34782 -0.17391,0.17392 -0.5,0.27174 -0.32608,0.0978 -0.67391,0.13044 -0.41304,0.0217 -0.82609,0.0217 z m 0,-0.64131 q 0.45653,0 0.66305,-0.0217 0.20652,-0.0217 0.40217,-0.11956 0.19565,-0.087 0.27174,-0.28261 0.087,-0.20652 0.087,-0.56522 v -2.13043 q 0,-0.48913 -0.11957,-0.70652 -0.11956,-0.22826 -0.41304,-0.29348 -0.28261,-0.0761 -0.89131,-0.0761 -0.60869,0 -0.90217,0.0761 -0.28261,0.0652 -0.40217,0.29348 -0.11957,0.21739 -0.11957,0.70652 v 2.13043 q 0,0.3587 0.0761,0.56522 0.087,0.19565 0.28261,0.28261 0.19565,0.0978 0.40217,0.11956 0.20652,0.0217 0.66304,0.0217 z"
         style="font-style:normal;font-variant:normal;font-weight:normal;font-stretch:normal;font-family:Play;-inkscape-font-specification:Play;fill:#282828;fill-opacity:1;stroke-width:0.27173913"
         id="path392" />
      <path
         d="m 141.68966,213.91671 h 0.92391 v 0.8587 q 0,-0.25 0.2174,-0.46739 0.21739,-0.22826 0.55434,-0.3587 0.33696,-0.1413 0.66305,-0.1413 h 0.47826 v 0.83695 h -0.54348 q -0.69565,0 -1.01087,0.18479 -0.30435,0.17391 -0.30435,0.6413 v 3.70652 h -0.97826 z"
         style="font-style:normal;font-variant:normal;font-weight:normal;font-stretch:normal;font-family:Play;-inkscape-font-specification:Play;fill:#282828;fill-opacity:1;stroke-width:0.27173913"
         id="path394" />
      <path
         d="m 147.50012,221.56889 q -1.07608,0 -1.81521,-0.11957 v -0.69565 q 1.30434,0.15217 1.90217,0.15217 0.75,0 1.08696,-0.23913 0.34782,-0.23913 0.34782,-0.79348 v -1.26087 q -0.0217,0.34783 -0.47826,0.51087 -0.44565,0.16305 -1.13043,0.16305 -0.81522,0 -1.27174,-0.15218 -0.44566,-0.15217 -0.64131,-0.5 -0.18478,-0.34782 -0.18478,-0.94565 v -2.1413 q 0,-0.93479 0.5,-1.33696 0.51087,-0.40217 1.66304,-0.40217 1.36957,0 1.6087,0.61956 v -0.51087 h 0.91304 v 5.76087 q 0,0.72826 -0.27174,1.14131 -0.27174,0.41304 -0.81521,0.57608 -0.54348,0.17392 -1.41305,0.17392 z m 0.11957,-2.93479 q 0.77174,0 1.08695,-0.18478 0.31522,-0.18478 0.31522,-0.69565 v -2.38044 q 0,-0.35869 -0.11956,-0.54347 -0.1087,-0.18479 -0.41305,-0.26087 -0.30434,-0.087 -0.8913,-0.087 -0.55435,0 -0.83696,0.0761 -0.27174,0.0761 -0.38043,0.27174 -0.0978,0.18478 -0.0978,0.54347 v 2.38044 q 0,0.36956 0.1087,0.55435 0.10869,0.18478 0.3913,0.26087 0.28261,0.0652 0.83696,0.0652 z"
         style="font-style:normal;font-variant:normal;font-weight:normal;font-stretch:normal;font-family:Play;-inkscape-font-specification:Play;fill:#282828;fill-opacity:1;stroke-width:0.27173913"
         id="path396" />
    </g>
  </g>
</svg>
