<?xml version="1.0" encoding="UTF-8" standalone="no"?>
<!-- Created with Inkscape (http://www.inkscape.org/) -->

<svg
   xmlns:dc="http://purl.org/dc/elements/1.1/"
   xmlns:cc="http://creativecommons.org/ns#"
   xmlns:rdf="http://www.w3.org/1999/02/22-rdf-syntax-ns#"
   xmlns:svg="http://www.w3.org/2000/svg"
   xmlns="http://www.w3.org/2000/svg"
   xmlns:sodipodi="http://sodipodi.sourceforge.net/DTD/sodipodi-0.dtd"
   xmlns:inkscape="http://www.inkscape.org/namespaces/inkscape"
   width="210mm"
   height="72.393997mm"
   viewBox="0 0 210 72.393996"
   version="1.1"
   id="svg8"
   inkscape:version="0.92.2 5c3e80d, 2017-08-06"
   sodipodi:docname="sticker_rectangle.svg">
  <defs
     id="defs2">
    <style
       id="style37">.cls-1{fill:#2f418f;}.cls-2{fill:#409030;}.cls-3{fill:#dfa809;}.cls-4{fill:#282828;}</style>
  </defs>
  <sodipodi:namedview
     id="base"
     pagecolor="#ffffff"
     bordercolor="#666666"
     borderopacity="1.0"
     inkscape:pageopacity="0.0"
     inkscape:pageshadow="2"
     inkscape:zoom="1.3220524"
     inkscape:cx="528.06276"
     inkscape:cy="175.71429"
     inkscape:document-units="mm"
     inkscape:current-layer="layer1"
     showgrid="false"
     units="mm"
     width="10in"
     inkscape:window-width="2242"
     inkscape:window-height="1059"
     inkscape:window-x="1380"
     inkscape:window-y="171"
     inkscape:window-maximized="0" />
  <metadata
     id="metadata5">
    <rdf:RDF>
      <cc:Work
         rdf:about="">
        <dc:format>image/svg+xml</dc:format>
        <dc:type
           rdf:resource="http://purl.org/dc/dcmitype/StillImage" />
        <dc:title></dc:title>
      </cc:Work>
    </rdf:RDF>
  </metadata>
  <g
     inkscape:label="Layer 1"
     inkscape:groupmode="layer"
     id="layer1"
     transform="translate(0,-224.60599)"
     style="display:inline">
    <g
       id="g79"
       transform="matrix(0.32695865,0,0,0.30150721,-61.658538,186.95239)">
      <path
         id="path43"
         d="m 249.36167,233 a 53.42,53.42 0 0 1 60.56,-36.66 53.42,53.42 0 1 0 -37.94,99.66 55.12,55.12 0 0 0 6.33,1.56 53.41,53.41 0 0 1 -28.95,-64.56 z"
         class="cls-1"
         inkscape:connector-curvature="0"
         style="fill:#2f418f" />
      <path
         id="path45"
         d="m 320.99167,283.43 a 53.43,53.43 0 0 1 -62,-34.12 53.42,53.42 0 1 0 105.27,-17 55.11,55.11 0 0 0 -1.81,-6.26 53.44,53.44 0 0 1 -41.46,57.38 z"
         class="cls-2"
         inkscape:connector-curvature="0"
         style="fill:#409030" />
      <path
         id="path47"
         d="m 328.48167,197.39 a 53.43,53.43 0 0 1 1.46,70.78 52.85,52.85 0 0 0 5.05,-4.12 53.42,53.42 0 1 0 -76.94,-73.83 53.43,53.43 0 0 1 70.43,7.17 z"
         class="cls-3"
         inkscape:connector-curvature="0"
         style="fill:#dfa809" />
      <path
         id="path49"
         d="m 378.31,196.14 h 62.42 v 14 H 398 v 18.79 h 38.59 v 14 H 398 V 264 h 44 v 14 h -63.69 z"
         class="cls-4"
         inkscape:connector-curvature="0"
         style="fill:#282828" />
      <path
         id="path51"
         d="m 455,189.71 h 18.41 V 278 H 455 Z"
         class="cls-4"
         inkscape:connector-curvature="0"
         style="fill:#282828" />
      <path
         id="path53"
         d="m 488.27,259.45 v -21.94 q 0,-11.47 7.38,-16.65 7.38,-5.18 22.76,-5.17 14.51,0 21.25,5 6.74,5 6.74,16.84 v 14.88 h -39.59 v 5.54 q 0,5.31 3.78,7.57 3.78,2.26 13.62,2.27 a 90.63,90.63 0 0 0 20.43,-2.65 v 11.73 a 114.42,114.42 0 0 1 -24,2.4 q -32.37,-0.02 -32.37,-19.82 z m 40.61,-17.53 v -8.83 a 5,5 0 0 0 -2.46,-4.54 c -1.64,-1 -4.4,-1.51 -8.26,-1.51 -4.46,0 -7.44,0.5 -9,1.51 a 5.23,5.23 0 0 0 -2.39,4.54 v 8.83 z"
         class="cls-4"
         inkscape:connector-curvature="0"
         style="fill:#282828" />
      <path
         id="path55"
         d="m 560.53,189.71 h 18.41 V 278 h -18.41 z m 19.17,54 20,-26.73 h 21.06 l -21.19,26.61 23,34.43 h -20.81 z"
         class="cls-4"
         inkscape:connector-curvature="0"
         style="fill:#282828" />
      <path
         id="path57"
         d="m 651.32,278.87 a 28.86,28.86 0 0 1 -6.3,-1.51 15.26,15.26 0 0 1 -5.74,-3.16 14.47,14.47 0 0 1 -3.59,-5.55 21.89,21.89 0 0 1 -1.52,-8.45 V 228.3 H 621.81 V 217 h 12.36 v -17.7 h 18.41 V 217 h 16.78 v 11.3 h -16.78 v 28.75 a 21.81,21.81 0 0 0 0.76,6.62 5.18,5.18 0 0 0 2.9,3.16 17.2,17.2 0 0 0 6.56,0.94 60.89,60.89 0 0 0 6.56,-0.63 v 11.48 a 98.81,98.81 0 0 1 -10.22,0.63 67.83,67.83 0 0 1 -7.82,-0.38 z"
         class="cls-4"
         inkscape:connector-curvature="0"
         style="fill:#282828" />
      <path
         id="path59"
         d="m 680,217 h 17.53 v 10.72 a 8.72,8.72 0 0 1 2.39,-5.68 18.54,18.54 0 0 1 6.12,-4.54 17.19,17.19 0 0 1 7.38,-1.76 h 6.55 V 231 h -6.3 q -7.83,0 -11.54,2.39 -3.71,2.39 -3.72,7.95 V 278 H 680 Z"
         class="cls-4"
         inkscape:connector-curvature="0"
         style="fill:#282828" />
      <path
         id="path61"
         d="M 734.49,277.67 A 9.89,9.89 0 0 1 728.56,272 c -1.13,-2.74 -1.7,-6.83 -1.7,-12.3 q 0,-7.3 1.83,-11.48 a 11.3,11.3 0 0 1 5.92,-6 q 4.1,-1.81 11.29,-1.82 h 20.68 v -4.17 a 12.22,12.22 0 0 0 -1.07,-5.8 6,6 0 0 0 -3.91,-2.64 35.19,35.19 0 0 0 -8.51,-0.76 205.35,205.35 0 0 0 -21.44,1.51 V 217 A 188.52,188.52 0 0 1 755,215.69 q 11.73,0 18.1,1.76 6.37,1.76 9.14,6.06 Q 785,227.8 785,236 v 42 h -18 v -5.55 a 11.89,11.89 0 0 1 -5.8,5.17 q -3.66,1.63 -13.87,1.64 -8.62,-0.01 -12.84,-1.59 z m 27.93,-10.28 a 5.79,5.79 0 0 0 2.46,-0.75 4.09,4.09 0 0 0 1.2,-1.64 5.56,5.56 0 0 0 0.5,-2.65 V 250.49 H 754 a 22.09,22.09 0 0 0 -6.05,0.57 3.61,3.61 0 0 0 -2.4,2.27 19.49,19.49 0 0 0 -0.63,6 18.2,18.2 0 0 0 0.63,5.8 3.44,3.44 0 0 0 2.46,2.15 28.56,28.56 0 0 0 6.5,0.5 58,58 0 0 0 7.91,-0.39 z"
         class="cls-4"
         inkscape:connector-curvature="0"
         style="fill:#282828" />
    </g>
    <g
       aria-label="libelektra.org"
       style="font-style:normal;font-weight:normal;font-size:8.65023804px;line-height:1.25;font-family:sans-serif;letter-spacing:0px;word-spacing:0px;fill:#282828;fill-opacity:1;stroke:none;stroke-width:0.21625593"
       id="text83"
       transform="matrix(0.99447439,0,0,0.99447439,-28.756884,20.052897)">
      <path
         d="m 175.00001,255.44428 h 0.77852 v 6.05517 h -0.77852 z"
         style="font-style:normal;font-variant:normal;font-weight:normal;font-stretch:normal;font-family:Play;-inkscape-font-specification:Play;fill:#282828;fill-opacity:1;stroke-width:0.21625593"
         id="path21"
         inkscape:connector-curvature="0" />
      <path
         d="m 177.12877,255.79894 h 0.77853 v 0.81313 h -0.77853 z m 0,1.5138 h 0.77853 v 4.18671 h -0.77853 z"
         style="font-style:normal;font-variant:normal;font-weight:normal;font-stretch:normal;font-family:Play;-inkscape-font-specification:Play;fill:#282828;fill-opacity:1;stroke-width:0.21625593"
         id="path23"
         inkscape:connector-curvature="0" />
      <path
         d="m 181.126,261.58595 q -0.46712,0 -0.75258,-0.0519 -0.2768,-0.0433 -0.55361,-0.173 -0.56227,-0.26816 -0.56227,-1.22834 v -4.68843 h 0.77853 v 1.25429 0.49306 q -0.009,0.22491 -0.009,0.50172 0.0433,-0.19896 0.36331,-0.33736 0.3287,-0.12976 0.95152,-0.12976 1.73005,0 1.73005,1.18509 v 1.72139 q 0,0.37196 -0.11245,0.64877 -0.10381,0.27681 -0.27681,0.43251 -0.15571,0.14706 -0.43251,0.23356 -0.26816,0.0865 -0.53632,0.11245 -0.2422,0.026 -0.58821,0.026 z m 0.0173,-0.51036 q 0.44981,0 0.68336,-0.0605 0.24221,-0.0692 0.34601,-0.24221 0.10381,-0.173 0.10381,-0.52766 v -1.64355 q 0,-0.35466 -0.10381,-0.52766 -0.1038,-0.18166 -0.34601,-0.23356 -0.23355,-0.0605 -0.69201,-0.0605 -0.42387,0 -0.65742,0.0692 -0.23356,0.0692 -0.33736,0.25086 -0.1038,0.173 -0.1038,0.50171 v 1.64355 q 0,0.35466 0.0952,0.52766 0.1038,0.17301 0.33736,0.24221 0.23355,0.0605 0.67472,0.0605 z"
         style="font-style:normal;font-variant:normal;font-weight:normal;font-stretch:normal;font-family:Play;-inkscape-font-specification:Play;fill:#282828;fill-opacity:1;stroke-width:0.21625593"
         id="path25"
         inkscape:connector-curvature="0" />
      <path
         d="m 186.02311,261.58595 q -1.92035,0 -1.92035,-1.28023 v -1.6522 q 0,-0.76122 0.43251,-1.08993 0.44116,-0.33736 1.41864,-0.33736 0.92557,0 1.33214,0.32006 0.41521,0.32006 0.41521,1.10723 v 0.92558 h -2.81133 v 0.63147 q 0,0.43251 0.30276,0.62281 0.30276,0.19031 0.93422,0.19031 0.59687,0 1.40999,-0.20761 v 0.59687 q -0.79582,0.173 -1.51379,0.173 z m 0.89963,-2.51722 v -0.65741 q 0,-0.38061 -0.23356,-0.51902 -0.22491,-0.14705 -0.77852,-0.14705 -0.53632,0 -0.77852,0.14705 -0.24221,0.13841 -0.24221,0.51902 v 0.65741 z"
         style="font-style:normal;font-variant:normal;font-weight:normal;font-stretch:normal;font-family:Play;-inkscape-font-specification:Play;fill:#282828;fill-opacity:1;stroke-width:0.21625593"
         id="path27"
         inkscape:connector-curvature="0" />
      <path
         d="m 188.88769,255.44428 h 0.77852 v 6.05517 h -0.77852 z"
         style="font-style:normal;font-variant:normal;font-weight:normal;font-stretch:normal;font-family:Play;-inkscape-font-specification:Play;fill:#282828;fill-opacity:1;stroke-width:0.21625593"
         id="path29"
         inkscape:connector-curvature="0" />
      <path
         d="m 192.78111,261.58595 q -1.92035,0 -1.92035,-1.28023 v -1.6522 q 0,-0.76122 0.43251,-1.08993 0.44116,-0.33736 1.41864,-0.33736 0.92557,0 1.33214,0.32006 0.41521,0.32006 0.41521,1.10723 v 0.92558 h -2.81133 v 0.63147 q 0,0.43251 0.30276,0.62281 0.30276,0.19031 0.93422,0.19031 0.59687,0 1.40999,-0.20761 v 0.59687 q -0.79582,0.173 -1.51379,0.173 z m 0.89963,-2.51722 v -0.65741 q 0,-0.38061 -0.23356,-0.51902 -0.22491,-0.14705 -0.77852,-0.14705 -0.53632,0 -0.77852,0.14705 -0.24221,0.13841 -0.24221,0.51902 v 0.65741 z"
         style="font-style:normal;font-variant:normal;font-weight:normal;font-stretch:normal;font-family:Play;-inkscape-font-specification:Play;fill:#282828;fill-opacity:1;stroke-width:0.21625593"
         id="path31"
         inkscape:connector-curvature="0" />
      <path
         d="m 195.64569,255.44428 h 0.77852 v 6.05517 h -0.77852 z m 0.87367,3.76286 1.76465,-1.8944 h 0.95153 l -1.81655,1.8944 1.9809,2.29231 h -0.96882 z"
         style="font-style:normal;font-variant:normal;font-weight:normal;font-stretch:normal;font-family:Play;-inkscape-font-specification:Play;fill:#282828;fill-opacity:1;stroke-width:0.21625593"
         id="path33"
         inkscape:connector-curvature="0" />
      <path
         d="m 201.84507,261.58595 q -0.53631,0 -0.83907,-0.11245 -0.30276,-0.1211 -0.44116,-0.39791 -0.12976,-0.28546 -0.12976,-0.79582 v -2.45667 h -0.93422 v -0.51036 h 0.93422 v -1.29754 h 0.78718 v 1.29754 h 1.49649 v 0.51036 h -1.49649 v 2.49992 q 0,0.31141 0.0692,0.46711 0.0779,0.15571 0.25951,0.22491 0.1903,0.0605 0.54496,0.0605 0.11245,0 0.62282,-0.0692 v 0.51036 q -0.44116,0.0692 -0.87368,0.0692 z"
         style="font-style:normal;font-variant:normal;font-weight:normal;font-stretch:normal;font-family:Play;-inkscape-font-specification:Play;fill:#282828;fill-opacity:1;stroke-width:0.21625593"
         id="path35"
         inkscape:connector-curvature="0" />
      <path
         d="m 203.56944,257.31274 h 0.73527 v 0.68336 q 0,-0.19895 0.17301,-0.37196 0.173,-0.18165 0.44116,-0.28545 0.26816,-0.11246 0.52767,-0.11246 h 0.38061 v 0.66607 h -0.43252 q -0.55361,0 -0.80447,0.14706 -0.2422,0.1384 -0.2422,0.51036 v 2.94973 h -0.77853 z"
         style="font-style:normal;font-variant:normal;font-weight:normal;font-stretch:normal;font-family:Play;-inkscape-font-specification:Play;fill:#282828;fill-opacity:1;stroke-width:0.21625593"
         id="path37"
         inkscape:connector-curvature="0" />
      <path
         d="m 207.89943,261.58595 q -0.59687,0 -0.92558,-0.11245 -0.32005,-0.11245 -0.46711,-0.39791 -0.1384,-0.28546 -0.1384,-0.82177 0,-0.47577 0.12975,-0.73527 0.1384,-0.26816 0.45846,-0.38061 0.32871,-0.11246 0.92558,-0.11246 h 1.25428 v -0.66607 q 0,-0.23355 -0.0952,-0.35466 -0.0865,-0.12975 -0.30276,-0.18165 -0.2076,-0.0519 -0.61416,-0.0519 -0.64877,0 -1.43594,0.1038 v -0.57091 q 0.85637,-0.0779 1.54839,-0.0779 0.72662,0 1.07263,0.11246 0.34601,0.1038 0.47576,0.37196 0.12975,0.26815 0.12975,0.83042 v 2.95838 h -0.75257 v -0.39791 q -0.0952,0.48441 -1.26293,0.48441 z m 0.12975,-0.51036 q 0.42386,0 0.71797,-0.0605 0.38926,-0.0779 0.38926,-0.36331 v -1.14183 h -1.20238 q -0.37196,0 -0.53631,0.0605 -0.16436,0.0519 -0.21626,0.2076 -0.0519,0.15571 -0.0519,0.50172 0,0.31141 0.0606,0.48441 0.0606,0.16435 0.21626,0.24221 0.1557,0.0692 0.46711,0.0692 z"
         style="font-style:normal;font-variant:normal;font-weight:normal;font-stretch:normal;font-family:Play;-inkscape-font-specification:Play;fill:#282828;fill-opacity:1;stroke-width:0.21625593"
         id="path39"
         inkscape:connector-curvature="0" />
      <path
         d="m 211.18746,260.56522 h 1.00343 v 0.93423 h -1.00343 z"
         style="font-style:normal;font-variant:normal;font-weight:normal;font-stretch:normal;font-family:Play;-inkscape-font-specification:Play;fill:#282828;fill-opacity:1;stroke-width:0.21625593"
         id="path41"
         inkscape:connector-curvature="0" />
      <path
         d="m 215.24321,261.58595 q -0.55362,0 -0.83042,-0.0433 -0.27681,-0.0346 -0.55362,-0.16435 -0.28546,-0.12976 -0.41521,-0.41521 -0.12975,-0.29411 -0.12975,-0.78718 v -1.45324 q 0,-0.38926 0.0951,-0.68336 0.0952,-0.29411 0.25086,-0.45847 0.12975,-0.14705 0.38926,-0.2249 0.26815,-0.0865 0.54496,-0.11246 0.31141,-0.0173 0.64877,-0.0173 0.44981,0 0.67472,0.026 0.23356,0.0173 0.49306,0.0865 0.26816,0.0779 0.41521,0.23355 0.14706,0.15571 0.25086,0.44981 0.0952,0.30276 0.0952,0.70067 v 1.45324 q 0,0.73527 -0.33736,1.07263 -0.1384,0.13841 -0.39791,0.21626 -0.2595,0.0779 -0.53631,0.1038 -0.32871,0.0173 -0.65742,0.0173 z m 0,-0.51036 q 0.36331,0 0.52766,-0.0173 0.16436,-0.0173 0.32006,-0.0951 0.15571,-0.0692 0.21626,-0.22491 0.0692,-0.16435 0.0692,-0.44981 v -1.69545 q 0,-0.38926 -0.0951,-0.56226 -0.0951,-0.18166 -0.32871,-0.23356 -0.22491,-0.0605 -0.70932,-0.0605 -0.48441,0 -0.71797,0.0605 -0.22491,0.0519 -0.32006,0.23356 -0.0952,0.173 -0.0952,0.56226 v 1.69545 q 0,0.28546 0.0606,0.44981 0.0692,0.1557 0.22491,0.22491 0.1557,0.0779 0.32006,0.0951 0.16435,0.0173 0.52766,0.0173 z"
         style="font-style:normal;font-variant:normal;font-weight:normal;font-stretch:normal;font-family:Play;-inkscape-font-specification:Play;fill:#282828;fill-opacity:1;stroke-width:0.21625593"
         id="path44"
         inkscape:connector-curvature="0" />
      <path
         d="m 218.38635,257.31274 h 0.73527 v 0.68336 q 0,-0.19895 0.17301,-0.37196 0.173,-0.18165 0.44116,-0.28545 0.26816,-0.11246 0.52767,-0.11246 h 0.38061 v 0.66607 h -0.43252 q -0.55361,0 -0.80447,0.14706 -0.2422,0.1384 -0.2422,0.51036 v 2.94973 h -0.77853 z"
         style="font-style:normal;font-variant:normal;font-weight:normal;font-stretch:normal;font-family:Play;-inkscape-font-specification:Play;fill:#282828;fill-opacity:1;stroke-width:0.21625593"
         id="path46"
         inkscape:connector-curvature="0" />
      <path
         d="m 223.01045,263.4025 q -0.85638,0 -1.44459,-0.0951 v -0.55361 q 1.03803,0.1211 1.51379,0.1211 0.59687,0 0.86502,-0.19031 0.27681,-0.1903 0.27681,-0.63146 v -1.00343 q -0.0173,0.27681 -0.38061,0.40656 -0.35466,0.12975 -0.89962,0.12975 -0.64877,0 -1.01208,-0.1211 -0.35466,-0.1211 -0.51037,-0.39791 -0.14705,-0.27681 -0.14705,-0.75257 v -1.7041 q 0,-0.74392 0.39791,-1.06398 0.40656,-0.32006 1.32349,-0.32006 1.08993,0 1.28023,0.49307 v -0.40656 H 225 v 4.58462 q 0,0.57957 -0.21625,0.90828 -0.21626,0.32871 -0.64877,0.45846 -0.43251,0.1384 -1.12453,0.1384 z m 0.0952,-2.33556 q 0.61417,0 0.86502,-0.14706 0.25086,-0.14705 0.25086,-0.55361 v -1.8944 q 0,-0.28546 -0.0952,-0.43251 -0.0865,-0.14706 -0.32871,-0.20761 -0.24221,-0.0692 -0.70932,-0.0692 -0.44116,0 -0.66607,0.0606 -0.21625,0.0605 -0.30276,0.21626 -0.0779,0.14705 -0.0779,0.43251 v 1.8944 q 0,0.29411 0.0865,0.44116 0.0865,0.14706 0.31141,0.20761 0.22491,0.0519 0.66607,0.0519 z"
         style="font-style:normal;font-variant:normal;font-weight:normal;font-stretch:normal;font-family:Play;-inkscape-font-specification:Play;fill:#282828;fill-opacity:1;stroke-width:0.21625593"
         id="path48"
         inkscape:connector-curvature="0" />
    </g>
  </g>
</svg>
