<?xml version="1.0" encoding="UTF-8" standalone="no"?>
<!-- Created with Inkscape (http://www.inkscape.org/) -->

<svg
   xmlns:dc="http://purl.org/dc/elements/1.1/"
   xmlns:cc="http://creativecommons.org/ns#"
   xmlns:rdf="http://www.w3.org/1999/02/22-rdf-syntax-ns#"
   xmlns:svg="http://www.w3.org/2000/svg"
   xmlns="http://www.w3.org/2000/svg"
   xmlns:sodipodi="http://sodipodi.sourceforge.net/DTD/sodipodi-0.dtd"
   xmlns:inkscape="http://www.inkscape.org/namespaces/inkscape"
   version="1.1"
   id="svg2"
   width="100"
   height="100"
   viewBox="0 0 100 100"
   sodipodi:docname="cups.svg"
   inkscape:version="0.92.1 r15371">
  <metadata
     id="metadata8">
    <rdf:RDF>
      <cc:Work
         rdf:about="">
        <dc:format>image/svg+xml</dc:format>
        <dc:type
           rdf:resource="http://purl.org/dc/dcmitype/StillImage" />
        <dc:title></dc:title>
      </cc:Work>
    </rdf:RDF>
  </metadata>
  <defs
     id="defs6" />
  <sodipodi:namedview
     pagecolor="#ffffff"
     bordercolor="#666666"
     borderopacity="1"
     objecttolerance="10"
     gridtolerance="10"
     guidetolerance="10"
     inkscape:pageopacity="0"
     inkscape:pageshadow="2"
     inkscape:window-width="1920"
     inkscape:window-height="1138"
     id="namedview4"
     showgrid="false"
     inkscape:zoom="7.8684729"
     inkscape:cx="43.708988"
     inkscape:cy="43.193089"
     inkscape:window-x="0"
     inkscape:window-y="0"
     inkscape:window-maximized="1"
     inkscape:current-layer="svg2" />
  <rect
     style="fill:#000000;fill-opacity:1;stroke-width:960.86303711;stroke-miterlimit:4;stroke-dasharray:none"
     id="rect4508"
     width="100.59617"
     height="100.34199"
     x="-0.38126454"
     y="0.055127997" />
  <g
     id="g4530"
     transform="translate(150.35785,3.2435807)">
    <g
       inkscape:export-ydpi="96"
       inkscape:export-xdpi="96"
       id="text83"
       style="font-style:normal;font-weight:normal;font-size:8.65023804px;line-height:1.25;font-family:sans-serif;letter-spacing:0px;word-spacing:0px;fill:#ffffff;fill-opacity:1;stroke:none;stroke-width:0.21625593"
       aria-label="libelektra.org"
       transform="matrix(1.1338773,0,0,1.0108216,-325.77981,-193.39278)">
      <path
         id="path21"
         style="font-style:normal;font-variant:normal;font-weight:normal;font-stretch:normal;font-family:Play;-inkscape-font-specification:Play;fill:#ffffff;fill-opacity:1;stroke-width:0.21625593"
         d="m 175.00001,255.44428 h 0.77852 v 6.05517 h -0.77852 z"
         inkscape:connector-curvature="0" />
      <path
         id="path23"
         style="font-style:normal;font-variant:normal;font-weight:normal;font-stretch:normal;font-family:Play;-inkscape-font-specification:Play;fill:#ffffff;fill-opacity:1;stroke-width:0.21625593"
         d="m 177.12877,255.79894 h 0.77853 v 0.81313 h -0.77853 z m 0,1.5138 h 0.77853 v 4.18671 h -0.77853 z"
         inkscape:connector-curvature="0" />
      <path
         id="path25"
         style="font-style:normal;font-variant:normal;font-weight:normal;font-stretch:normal;font-family:Play;-inkscape-font-specification:Play;fill:#ffffff;fill-opacity:1;stroke-width:0.21625593"
         d="m 181.126,261.58595 q -0.46712,0 -0.75258,-0.0519 -0.2768,-0.0433 -0.55361,-0.173 -0.56227,-0.26816 -0.56227,-1.22834 v -4.68843 h 0.77853 v 1.25429 0.49306 q -0.009,0.22491 -0.009,0.50172 0.0433,-0.19896 0.36331,-0.33736 0.3287,-0.12976 0.95152,-0.12976 1.73005,0 1.73005,1.18509 v 1.72139 q 0,0.37196 -0.11245,0.64877 -0.10381,0.27681 -0.27681,0.43251 -0.15571,0.14706 -0.43251,0.23356 -0.26816,0.0865 -0.53632,0.11245 -0.2422,0.026 -0.58821,0.026 z m 0.0173,-0.51036 q 0.44981,0 0.68336,-0.0605 0.24221,-0.0692 0.34601,-0.24221 0.10381,-0.173 0.10381,-0.52766 v -1.64355 q 0,-0.35466 -0.10381,-0.52766 -0.1038,-0.18166 -0.34601,-0.23356 -0.23355,-0.0605 -0.69201,-0.0605 -0.42387,0 -0.65742,0.0692 -0.23356,0.0692 -0.33736,0.25086 -0.1038,0.173 -0.1038,0.50171 v 1.64355 q 0,0.35466 0.0952,0.52766 0.1038,0.17301 0.33736,0.24221 0.23355,0.0605 0.67472,0.0605 z"
         inkscape:connector-curvature="0" />
      <path
         id="path27"
         style="font-style:normal;font-variant:normal;font-weight:normal;font-stretch:normal;font-family:Play;-inkscape-font-specification:Play;fill:#ffffff;fill-opacity:1;stroke-width:0.21625593"
         d="m 186.02311,261.58595 q -1.92035,0 -1.92035,-1.28023 v -1.6522 q 0,-0.76122 0.43251,-1.08993 0.44116,-0.33736 1.41864,-0.33736 0.92557,0 1.33214,0.32006 0.41521,0.32006 0.41521,1.10723 v 0.92558 h -2.81133 v 0.63147 q 0,0.43251 0.30276,0.62281 0.30276,0.19031 0.93422,0.19031 0.59687,0 1.40999,-0.20761 v 0.59687 q -0.79582,0.173 -1.51379,0.173 z m 0.89963,-2.51722 v -0.65741 q 0,-0.38061 -0.23356,-0.51902 -0.22491,-0.14705 -0.77852,-0.14705 -0.53632,0 -0.77852,0.14705 -0.24221,0.13841 -0.24221,0.51902 v 0.65741 z"
         inkscape:connector-curvature="0" />
      <path
         id="path29"
         style="font-style:normal;font-variant:normal;font-weight:normal;font-stretch:normal;font-family:Play;-inkscape-font-specification:Play;fill:#ffffff;fill-opacity:1;stroke-width:0.21625593"
         d="m 188.88769,255.44428 h 0.77852 v 6.05517 h -0.77852 z"
         inkscape:connector-curvature="0" />
      <path
         id="path31"
         style="font-style:normal;font-variant:normal;font-weight:normal;font-stretch:normal;font-family:Play;-inkscape-font-specification:Play;fill:#ffffff;fill-opacity:1;stroke-width:0.21625593"
         d="m 192.78111,261.58595 q -1.92035,0 -1.92035,-1.28023 v -1.6522 q 0,-0.76122 0.43251,-1.08993 0.44116,-0.33736 1.41864,-0.33736 0.92557,0 1.33214,0.32006 0.41521,0.32006 0.41521,1.10723 v 0.92558 h -2.81133 v 0.63147 q 0,0.43251 0.30276,0.62281 0.30276,0.19031 0.93422,0.19031 0.59687,0 1.40999,-0.20761 v 0.59687 q -0.79582,0.173 -1.51379,0.173 z m 0.89963,-2.51722 v -0.65741 q 0,-0.38061 -0.23356,-0.51902 -0.22491,-0.14705 -0.77852,-0.14705 -0.53632,0 -0.77852,0.14705 -0.24221,0.13841 -0.24221,0.51902 v 0.65741 z"
         inkscape:connector-curvature="0" />
      <path
         id="path33"
         style="font-style:normal;font-variant:normal;font-weight:normal;font-stretch:normal;font-family:Play;-inkscape-font-specification:Play;fill:#ffffff;fill-opacity:1;stroke-width:0.21625593"
         d="m 195.64569,255.44428 h 0.77852 v 6.05517 h -0.77852 z m 0.87367,3.76286 1.76465,-1.8944 h 0.95153 l -1.81655,1.8944 1.9809,2.29231 h -0.96882 z"
         inkscape:connector-curvature="0" />
      <path
         id="path35"
         style="font-style:normal;font-variant:normal;font-weight:normal;font-stretch:normal;font-family:Play;-inkscape-font-specification:Play;fill:#ffffff;fill-opacity:1;stroke-width:0.21625593"
         d="m 201.84507,261.58595 q -0.53631,0 -0.83907,-0.11245 -0.30276,-0.1211 -0.44116,-0.39791 -0.12976,-0.28546 -0.12976,-0.79582 v -2.45667 h -0.93422 v -0.51036 h 0.93422 v -1.29754 h 0.78718 v 1.29754 h 1.49649 v 0.51036 h -1.49649 v 2.49992 q 0,0.31141 0.0692,0.46711 0.0779,0.15571 0.25951,0.22491 0.1903,0.0605 0.54496,0.0605 0.11245,0 0.62282,-0.0692 v 0.51036 q -0.44116,0.0692 -0.87368,0.0692 z"
         inkscape:connector-curvature="0" />
      <path
         id="path37"
         style="font-style:normal;font-variant:normal;font-weight:normal;font-stretch:normal;font-family:Play;-inkscape-font-specification:Play;fill:#ffffff;fill-opacity:1;stroke-width:0.21625593"
         d="m 203.56944,257.31274 h 0.73527 v 0.68336 q 0,-0.19895 0.17301,-0.37196 0.173,-0.18165 0.44116,-0.28545 0.26816,-0.11246 0.52767,-0.11246 h 0.38061 v 0.66607 h -0.43252 q -0.55361,0 -0.80447,0.14706 -0.2422,0.1384 -0.2422,0.51036 v 2.94973 h -0.77853 z"
         inkscape:connector-curvature="0" />
      <path
         id="path39"
         style="font-style:normal;font-variant:normal;font-weight:normal;font-stretch:normal;font-family:Play;-inkscape-font-specification:Play;fill:#ffffff;fill-opacity:1;stroke-width:0.21625593"
         d="m 207.89943,261.58595 q -0.59687,0 -0.92558,-0.11245 -0.32005,-0.11245 -0.46711,-0.39791 -0.1384,-0.28546 -0.1384,-0.82177 0,-0.47577 0.12975,-0.73527 0.1384,-0.26816 0.45846,-0.38061 0.32871,-0.11246 0.92558,-0.11246 h 1.25428 v -0.66607 q 0,-0.23355 -0.0952,-0.35466 -0.0865,-0.12975 -0.30276,-0.18165 -0.2076,-0.0519 -0.61416,-0.0519 -0.64877,0 -1.43594,0.1038 v -0.57091 q 0.85637,-0.0779 1.54839,-0.0779 0.72662,0 1.07263,0.11246 0.34601,0.1038 0.47576,0.37196 0.12975,0.26815 0.12975,0.83042 v 2.95838 h -0.75257 v -0.39791 q -0.0952,0.48441 -1.26293,0.48441 z m 0.12975,-0.51036 q 0.42386,0 0.71797,-0.0605 0.38926,-0.0779 0.38926,-0.36331 v -1.14183 h -1.20238 q -0.37196,0 -0.53631,0.0605 -0.16436,0.0519 -0.21626,0.2076 -0.0519,0.15571 -0.0519,0.50172 0,0.31141 0.0606,0.48441 0.0606,0.16435 0.21626,0.24221 0.1557,0.0692 0.46711,0.0692 z"
         inkscape:connector-curvature="0" />
      <path
         id="path41"
         style="font-style:normal;font-variant:normal;font-weight:normal;font-stretch:normal;font-family:Play;-inkscape-font-specification:Play;fill:#ffffff;fill-opacity:1;stroke-width:0.21625593"
         d="m 211.18746,260.56522 h 1.00343 v 0.93423 h -1.00343 z"
         inkscape:connector-curvature="0" />
      <path
         id="path44"
         style="font-style:normal;font-variant:normal;font-weight:normal;font-stretch:normal;font-family:Play;-inkscape-font-specification:Play;fill:#ffffff;fill-opacity:1;stroke-width:0.21625593"
         d="m 215.24321,261.58595 q -0.55362,0 -0.83042,-0.0433 -0.27681,-0.0346 -0.55362,-0.16435 -0.28546,-0.12976 -0.41521,-0.41521 -0.12975,-0.29411 -0.12975,-0.78718 v -1.45324 q 0,-0.38926 0.0951,-0.68336 0.0952,-0.29411 0.25086,-0.45847 0.12975,-0.14705 0.38926,-0.2249 0.26815,-0.0865 0.54496,-0.11246 0.31141,-0.0173 0.64877,-0.0173 0.44981,0 0.67472,0.026 0.23356,0.0173 0.49306,0.0865 0.26816,0.0779 0.41521,0.23355 0.14706,0.15571 0.25086,0.44981 0.0952,0.30276 0.0952,0.70067 v 1.45324 q 0,0.73527 -0.33736,1.07263 -0.1384,0.13841 -0.39791,0.21626 -0.2595,0.0779 -0.53631,0.1038 -0.32871,0.0173 -0.65742,0.0173 z m 0,-0.51036 q 0.36331,0 0.52766,-0.0173 0.16436,-0.0173 0.32006,-0.0951 0.15571,-0.0692 0.21626,-0.22491 0.0692,-0.16435 0.0692,-0.44981 v -1.69545 q 0,-0.38926 -0.0951,-0.56226 -0.0951,-0.18166 -0.32871,-0.23356 -0.22491,-0.0605 -0.70932,-0.0605 -0.48441,0 -0.71797,0.0605 -0.22491,0.0519 -0.32006,0.23356 -0.0952,0.173 -0.0952,0.56226 v 1.69545 q 0,0.28546 0.0606,0.44981 0.0692,0.1557 0.22491,0.22491 0.1557,0.0779 0.32006,0.0951 0.16435,0.0173 0.52766,0.0173 z"
         inkscape:connector-curvature="0" />
      <path
         id="path46"
         style="font-style:normal;font-variant:normal;font-weight:normal;font-stretch:normal;font-family:Play;-inkscape-font-specification:Play;fill:#ffffff;fill-opacity:1;stroke-width:0.21625593"
         d="m 218.38635,257.31274 h 0.73527 v 0.68336 q 0,-0.19895 0.17301,-0.37196 0.173,-0.18165 0.44116,-0.28545 0.26816,-0.11246 0.52767,-0.11246 h 0.38061 v 0.66607 h -0.43252 q -0.55361,0 -0.80447,0.14706 -0.2422,0.1384 -0.2422,0.51036 v 2.94973 h -0.77853 z"
         inkscape:connector-curvature="0" />
      <path
         id="path48"
         style="font-style:normal;font-variant:normal;font-weight:normal;font-stretch:normal;font-family:Play;-inkscape-font-specification:Play;fill:#ffffff;fill-opacity:1;stroke-width:0.21625593"
         d="m 223.01045,263.4025 q -0.85638,0 -1.44459,-0.0951 v -0.55361 q 1.03803,0.1211 1.51379,0.1211 0.59687,0 0.86502,-0.19031 0.27681,-0.1903 0.27681,-0.63146 v -1.00343 q -0.0173,0.27681 -0.38061,0.40656 -0.35466,0.12975 -0.89962,0.12975 -0.64877,0 -1.01208,-0.1211 -0.35466,-0.1211 -0.51037,-0.39791 -0.14705,-0.27681 -0.14705,-0.75257 v -1.7041 q 0,-0.74392 0.39791,-1.06398 0.40656,-0.32006 1.32349,-0.32006 1.08993,0 1.28023,0.49307 v -0.40656 H 225 v 4.58462 q 0,0.57957 -0.21625,0.90828 -0.21626,0.32871 -0.64877,0.45846 -0.43251,0.1384 -1.12453,0.1384 z m 0.0952,-2.33556 q 0.61417,0 0.86502,-0.14706 0.25086,-0.14705 0.25086,-0.55361 v -1.8944 q 0,-0.28546 -0.0952,-0.43251 -0.0865,-0.14706 -0.32871,-0.20761 -0.24221,-0.0692 -0.70932,-0.0692 -0.44116,0 -0.66607,0.0606 -0.21625,0.0605 -0.30276,0.21626 -0.0779,0.14705 -0.0779,0.43251 v 1.8944 q 0,0.29411 0.0865,0.44116 0.0865,0.14706 0.31141,0.20761 0.22491,0.0519 0.66607,0.0519 z"
         inkscape:connector-curvature="0" />
    </g>
    <path
       id="path43"
       d="m -116.35737,35.505446 a 16.564791,16.368705 0 0 1 18.7788,-11.23319 16.564791,16.368705 0 1 0 -11.76466,30.53735 17.091937,16.889611 0 0 0 1.96284,0.478 16.561692,16.365641 0 0 1 -8.97698,-19.78216 z"
       class="cls-1"
       inkscape:connector-curvature="0"
       style="fill:#2f418f;stroke-width:0.30824515"
       inkscape:export-xdpi="96"
       inkscape:export-ydpi="96" />
    <path
       id="path45"
       d="m -94.14592,50.957966 a 16.567892,16.37177 0 0 1 -19.22533,-10.45488 16.564791,16.368705 0 1 0 32.64275,-5.20906 17.088838,16.886547 0 0 0 -0.56126,-1.91817 16.570993,16.374834 0 0 1 -12.85616,17.58211 z"
       class="cls-2"
       inkscape:connector-curvature="0"
       style="fill:#409030;stroke-width:0.30824515"
       inkscape:export-xdpi="96"
       inkscape:export-ydpi="96" />
    <path
       id="path47"
       d="m -91.82337,24.593996 a 16.567892,16.37177 0 0 1 0.45273,21.68807 16.388042,16.194049 0 0 0 1.56593,-1.26243 16.564791,16.368705 0 1 0 -23.85803,-22.62263 16.567892,16.37177 0 0 1 21.83937,2.19699 z"
       class="cls-3"
       inkscape:connector-curvature="0"
       style="fill:#dfa809;stroke-width:0.30824515"
       inkscape:export-xdpi="96"
       inkscape:export-ydpi="96" />
  </g>
</svg>
