<?xml version="1.0" encoding="UTF-8" standalone="no"?>
<!-- Created with Inkscape (http://www.inkscape.org/) -->

<svg
   xmlns:dc="http://purl.org/dc/elements/1.1/"
   xmlns:cc="http://creativecommons.org/ns#"
   xmlns:rdf="http://www.w3.org/1999/02/22-rdf-syntax-ns#"
   xmlns:svg="http://www.w3.org/2000/svg"
   xmlns="http://www.w3.org/2000/svg"
   xmlns:sodipodi="http://sodipodi.sourceforge.net/DTD/sodipodi-0.dtd"
   xmlns:inkscape="http://www.inkscape.org/namespaces/inkscape"
   version="1.1"
   id="svg2"
   xml:space="preserve"
   width="793.62665"
   height="1122.6667"
   viewBox="0 0 793.62665 1122.6667"
   sodipodi:docname="sizes.svg"
   inkscape:version="0.92.1 r15371"><metadata
     id="metadata8"><rdf:RDF><cc:Work
         rdf:about=""><dc:format>image/svg+xml</dc:format><dc:type
           rdf:resource="http://purl.org/dc/dcmitype/StillImage" /><dc:title></dc:title></cc:Work></rdf:RDF></metadata><defs
     id="defs6" /><sodipodi:namedview
     pagecolor="#ffffff"
     bordercolor="#666666"
     borderopacity="1"
     objecttolerance="10"
     gridtolerance="10"
     guidetolerance="10"
     inkscape:pageopacity="0"
     inkscape:pageshadow="2"
     inkscape:window-width="1920"
     inkscape:window-height="1138"
     id="namedview4"
     showgrid="false"
     inkscape:zoom="0.84085505"
     inkscape:cx="104.15989"
     inkscape:cy="803.87895"
     inkscape:window-x="0"
     inkscape:window-y="0"
     inkscape:window-maximized="1"
     inkscape:current-layer="g10" /><g
     id="g10"
     inkscape:groupmode="layer"
     inkscape:label="AP812400"
     transform="matrix(1.3333333,0,0,-1.3333333,0,1122.6667)"><path
       d="M 28.316,704.591 H 566.898 V 426.796 H 28.316 Z"
       style="fill:none;stroke:#231f20;stroke-width:0.21600001;stroke-linecap:butt;stroke-linejoin:miter;stroke-miterlimit:22.9260006;stroke-dasharray:none;stroke-opacity:1"
       id="path12"
       inkscape:connector-curvature="0" /><path
       d="M 297.607,762.86 V 367.972"
       style="fill:none;stroke:#2e3092;stroke-width:2.83500004;stroke-linecap:butt;stroke-linejoin:miter;stroke-miterlimit:22.9260006;stroke-dasharray:2.8347, 14.173;stroke-dashoffset:0;stroke-opacity:1"
       id="path14"
       inkscape:connector-curvature="0" /><path
       d="M 396.692,690.418 H 566.77 V 440.969 H 396.692 Z"
       style="fill:none;stroke:#00a650;stroke-width:0.21600001;stroke-linecap:butt;stroke-linejoin:miter;stroke-miterlimit:22.9260006;stroke-dasharray:none;stroke-opacity:1"
       id="path16"
       inkscape:connector-curvature="0" /><path
       d="M 28.316,718.764 H 566.898 V 412.623 H 28.316 Z"
       style="fill:none;stroke:#ec008c;stroke-width:0.21600001;stroke-linecap:butt;stroke-linejoin:miter;stroke-miterlimit:22.9260006;stroke-dasharray:none;stroke-opacity:1"
       id="path18"
       inkscape:connector-curvature="0" /><path
       d="M 113.34,768.907 V 374.018 M 481.731,768.907 V 374.018"
       style="fill:none;stroke:#2e3092;stroke-width:2.83500004;stroke-linecap:butt;stroke-linejoin:miter;stroke-miterlimit:22.9260006;stroke-dasharray:2.8347, 14.173;stroke-dashoffset:0;stroke-opacity:1"
       id="path20"
       inkscape:connector-curvature="0" /><path
       d="M 28.301,690.418 H 198.38 V 440.969 H 28.301 Z"
       style="fill:none;stroke:#00a650;stroke-width:0.21600001;stroke-linecap:butt;stroke-linejoin:miter;stroke-miterlimit:22.9260006;stroke-dasharray:none;stroke-opacity:1"
       id="path22"
       inkscape:connector-curvature="0" /><g
       id="g24"
       transform="translate(39.964,203.895)"><path
         d="M 0,0 H 108.834"
         style="fill:none;stroke:#231f20;stroke-width:0.5;stroke-linecap:butt;stroke-linejoin:miter;stroke-miterlimit:22.9260006;stroke-dasharray:none;stroke-opacity:1"
         id="path26"
         inkscape:connector-curvature="0" /></g><g
       id="g28"
       transform="translate(161.146,203.612)"><path
         d="m 0,0 c 0.014,0.126 0.042,0.322 0.042,0.574 0,1.246 -0.588,3.192 -2.8,3.192 -1.974,0 -3.178,-1.61 -3.178,-3.654 0,-2.044 1.246,-3.416 3.332,-3.416 1.078,0 1.82,0.224 2.254,0.42 l -0.21,0.882 c -0.462,-0.196 -0.994,-0.35 -1.876,-0.35 -1.232,0 -2.296,0.686 -2.324,2.352 z m -4.746,0.882 c 0.098,0.854 0.644,2.002 1.89,2.002 1.386,0 1.722,-1.218 1.708,-2.002 z M 6.188,6.776 V 2.73 H 6.16 C 5.852,3.276 5.152,3.766 4.116,3.766 2.464,3.766 1.064,2.38 1.078,0.126 c 0,-2.058 1.26,-3.444 2.898,-3.444 1.106,0 1.932,0.574 2.31,1.33 H 6.314 L 6.37,-3.164 H 7.476 C 7.434,-2.702 7.42,-2.016 7.42,-1.414 v 8.19 z m 0,-7.098 c 0,-0.196 -0.014,-0.364 -0.056,-0.532 -0.224,-0.924 -0.98,-1.47 -1.806,-1.47 -1.33,0 -2.002,1.134 -2.002,2.506 C 2.324,1.68 3.08,2.8 4.354,2.8 5.278,2.8 5.95,2.156 6.132,1.372 6.174,1.218 6.188,1.008 6.188,0.854 Z M 14.224,3.612 14.168,2.59 H 14.14 c -0.294,0.56 -0.938,1.176 -2.114,1.176 -1.554,0 -3.052,-1.302 -3.052,-3.598 0,-1.876 1.204,-3.304 2.884,-3.304 1.05,0 1.778,0.504 2.156,1.134 h 0.028 v -0.756 c 0,-1.708 -0.924,-2.366 -2.184,-2.366 -0.84,0 -1.54,0.252 -1.988,0.532 L 9.562,-5.53 c 0.546,-0.364 1.442,-0.56 2.254,-0.56 0.854,0 1.806,0.196 2.464,0.812 0.658,0.588 0.966,1.54 0.966,3.094 V 1.75 c 0,0.826 0.028,1.372 0.056,1.862 z M 14.028,-0.28 c 0,-0.21 -0.028,-0.448 -0.098,-0.658 -0.266,-0.784 -0.952,-1.26 -1.708,-1.26 -1.33,0 -2.002,1.106 -2.002,2.436 0,1.568 0.84,2.562 2.016,2.562 0.896,0 1.498,-0.588 1.722,-1.302 0.056,-0.168 0.07,-0.35 0.07,-0.56 z M 22.736,0 c 0.014,0.126 0.042,0.322 0.042,0.574 0,1.246 -0.588,3.192 -2.8,3.192 -1.974,0 -3.178,-1.61 -3.178,-3.654 0,-2.044 1.246,-3.416 3.332,-3.416 1.078,0 1.82,0.224 2.254,0.42 l -0.21,0.882 c -0.462,-0.196 -0.994,-0.35 -1.876,-0.35 -1.232,0 -2.296,0.686 -2.324,2.352 z M 17.99,0.882 c 0.098,0.854 0.644,2.002 1.89,2.002 1.386,0 1.722,-1.218 1.708,-2.002 z m 12.152,2.884 c -1.876,0 -3.36,-1.33 -3.36,-3.598 0,-2.142 1.414,-3.486 3.248,-3.486 1.638,0 3.374,1.092 3.374,3.598 0,2.072 -1.316,3.486 -3.262,3.486 z M 30.114,2.842 c 1.456,0 2.03,-1.456 2.03,-2.604 0,-1.526 -0.882,-2.632 -2.058,-2.632 -1.204,0 -2.058,1.12 -2.058,2.604 0,1.288 0.63,2.632 2.086,2.632 z m 6.188,-6.006 v 5.838 h 1.638 v 0.938 h -1.638 v 0.364 c 0,1.036 0.266,1.96 1.316,1.96 0.35,0 0.602,-0.07 0.784,-0.154 L 38.57,6.734 C 38.332,6.832 37.954,6.93 37.52,6.93 36.946,6.93 36.33,6.748 35.868,6.3 35.294,5.754 35.084,4.886 35.084,3.934 V 3.612 H 34.132 V 2.674 h 0.952 v -5.838 z m 5.712,-2.772 h 1.218 v 3.682 h 0.028 c 0.406,-0.672 1.19,-1.064 2.086,-1.064 1.596,0 3.08,1.204 3.08,3.64 0,2.058 -1.232,3.444 -2.87,3.444 -1.106,0 -1.904,-0.49 -2.408,-1.316 H 43.12 L 43.064,3.612 H 41.958 C 41.986,2.968 42.014,2.268 42.014,1.4 Z m 1.218,6.692 c 0,0.168 0.042,0.35 0.084,0.504 0.238,0.924 1.022,1.526 1.862,1.526 1.302,0 2.016,-1.162 2.016,-2.52 0,-1.554 -0.756,-2.618 -2.058,-2.618 -0.882,0 -1.624,0.588 -1.848,1.442 -0.028,0.154 -0.056,0.322 -0.056,0.504 z m 6.748,-3.92 h 1.218 v 3.612 c 0,0.21 0.028,0.406 0.056,0.574 0.168,0.924 0.784,1.582 1.652,1.582 0.168,0 0.294,-0.014 0.42,-0.042 v 1.162 c -0.112,0.028 -0.21,0.042 -0.35,0.042 -0.826,0 -1.568,-0.574 -1.876,-1.484 h -0.056 l -0.042,1.33 H 49.924 C 49.966,2.982 49.98,2.296 49.98,1.498 Z m 7.448,6.93 c -1.876,0 -3.36,-1.33 -3.36,-3.598 0,-2.142 1.414,-3.486 3.248,-3.486 1.638,0 3.374,1.092 3.374,3.598 0,2.072 -1.316,3.486 -3.262,3.486 z M 57.4,2.842 c 1.456,0 2.03,-1.456 2.03,-2.604 0,-1.526 -0.882,-2.632 -2.058,-2.632 -1.204,0 -2.058,1.12 -2.058,2.604 0,1.288 0.63,2.632 2.086,2.632 z m 9.464,3.934 V 2.73 h -0.028 c -0.308,0.546 -1.008,1.036 -2.044,1.036 -1.652,0 -3.052,-1.386 -3.038,-3.64 0,-2.058 1.26,-3.444 2.898,-3.444 1.106,0 1.932,0.574 2.31,1.33 h 0.028 l 0.056,-1.176 h 1.106 c -0.042,0.462 -0.056,1.148 -0.056,1.75 v 8.19 z m 0,-7.098 c 0,-0.196 -0.014,-0.364 -0.056,-0.532 -0.224,-0.924 -0.98,-1.47 -1.806,-1.47 -1.33,0 -2.002,1.134 -2.002,2.506 0,1.498 0.756,2.618 2.03,2.618 0.924,0 1.596,-0.644 1.778,-1.428 0.042,-0.154 0.056,-0.364 0.056,-0.518 z m 8.946,3.934 h -1.232 v -4.158 c 0,-0.224 -0.042,-0.448 -0.112,-0.63 -0.224,-0.546 -0.798,-1.12 -1.624,-1.12 -1.12,0 -1.512,0.868 -1.512,2.156 V 3.612 H 70.098 V -0.35 c 0,-2.38 1.274,-2.968 2.338,-2.968 1.204,0 1.918,0.714 2.24,1.26 h 0.028 l 0.07,-1.106 h 1.092 c -0.042,0.532 -0.056,1.148 -0.056,1.848 z m 6.664,-5.6 c -0.35,-0.154 -0.812,-0.336 -1.512,-0.336 -1.344,0 -2.352,0.966 -2.352,2.534 0,1.414 0.84,2.562 2.394,2.562 0.672,0 1.134,-0.154 1.428,-0.322 l 0.28,0.952 c -0.336,0.168 -0.98,0.35 -1.708,0.35 -2.212,0 -3.64,-1.512 -3.64,-3.598 0,-2.072 1.33,-3.458 3.374,-3.458 0.91,0 1.624,0.224 1.946,0.392 z m 1.932,7.224 V 3.612 h -1.05 V 2.674 h 1.05 v -3.696 c 0,-0.798 0.126,-1.4 0.475,-1.764 0.295,-0.336 0.756,-0.518 1.331,-0.518 0.476,0 0.854,0.07 1.092,0.168 l -0.056,0.924 c -0.154,-0.042 -0.392,-0.084 -0.714,-0.084 -0.686,0 -0.924,0.476 -0.924,1.316 v 3.654 h 1.764 V 3.612 H 85.61 V 5.558 L 84.406,5.236"
         style="fill:#231f20;fill-opacity:1;fill-rule:evenodd;stroke:none"
         id="path30"
         inkscape:connector-curvature="0" /></g><g
       id="g32"
       transform="translate(39.964,234.839)"><path
         d="M 0,0 H 108.834"
         style="fill:none;stroke:#ec008c;stroke-width:0.5;stroke-linecap:butt;stroke-linejoin:miter;stroke-miterlimit:22.9260006;stroke-dasharray:none;stroke-opacity:1"
         id="path34"
         inkscape:connector-curvature="0" /></g><g
       id="g36"
       transform="translate(156.708,228.557)"><path
         d="m 0,0 0.056,1.12 h 0.042 c 0.504,-0.896 1.288,-1.274 2.268,-1.274 1.512,0 3.038,1.204 3.038,3.626 C 5.418,5.53 4.228,6.93 2.548,6.93 1.456,6.93 0.672,6.44 0.238,5.684 H 0.21 V 9.94 H -1.008 V 1.75 C -1.008,1.148 -1.036,0.462 -1.064,0 Z m 0.21,3.934 c 0,0.196 0.042,0.364 0.07,0.504 0.252,0.938 1.036,1.512 1.876,1.512 1.316,0 2.016,-1.162 2.016,-2.52 0,-1.554 -0.77,-2.604 -2.058,-2.604 -0.896,0 -1.61,0.588 -1.848,1.442 C 0.238,2.408 0.21,2.562 0.21,2.716 Z M 6.958,0 H 8.1902 V 9.94 H 6.958 Z m 8.75,3.164 c 0.014,0.126 0.042,0.322 0.042,0.574 0,1.246 -0.588,3.192 -2.8,3.192 -1.974,0 -3.178,-1.61 -3.178,-3.654 0,-2.044 1.246,-3.416 3.332,-3.416 1.078,0 1.82,0.224 2.254,0.42 l -0.21,0.882 c -0.462,-0.196 -0.994,-0.35 -1.876,-0.35 -1.232,0 -2.296,0.686 -2.324,2.352 z m -4.746,0.882 c 0.098,0.854 0.644,2.002 1.89,2.002 1.386,0 1.722,-1.218 1.708,-2.002 z m 11.76,-0.882 c 0.014,0.126 0.042,0.322 0.042,0.574 0,1.246 -0.588,3.192 -2.8,3.192 -1.974,0 -3.178,-1.61 -3.178,-3.654 0,-2.044 1.246,-3.416 3.332,-3.416 1.078,0 1.82,0.224 2.254,0.42 l -0.21,0.882 C 21.7,0.966 21.168,0.812 20.286,0.812 c -1.232,0 -2.296,0.686 -2.324,2.352 z m -4.746,0.882 c 0.098,0.854 0.644,2.002 1.89,2.002 1.386,0 1.722,-1.218 1.708,-2.002 z M 28.91,9.94 V 5.894 H 28.882 C 28.574,6.44 27.874,6.93 26.838,6.93 25.186,6.93 23.786,5.544 23.8,3.29 c 0,-2.058 1.26,-3.444 2.898,-3.444 1.106,0 1.932,0.574 2.31,1.33 h 0.028 L 29.092,0 h 1.106 c -0.042,0.462 -0.056,1.148 -0.056,1.75 v 8.19 z m 0,-7.098 C 28.91,2.646 28.896,2.478 28.854,2.31 28.63,1.386 27.874,0.84 27.048,0.84 c -1.33,0 -2.002,1.134 -2.002,2.506 0,1.498 0.756,2.618 2.03,2.618 0.924,0 1.596,-0.644 1.778,-1.428 0.042,-0.154 0.056,-0.364 0.056,-0.518 z m 7.952,6.874 C 35.98,8.54 35.042,6.748 35.028,3.99 c 0,-2.73 0.952,-4.522 1.834,-5.684 h 0.966 c -0.994,1.4 -1.764,3.192 -1.764,5.684 0,2.534 0.742,4.354 1.764,5.726 z M 44.17,9.1 H 39.816 L 39.228,4.732 c 0.336,0.042 0.742,0.098 1.26,0.098 1.82,0 2.604,-0.84 2.618,-2.016 0,-1.218 -0.994,-1.974 -2.156,-1.974 -0.826,0 -1.568,0.28 -1.946,0.504 L 38.696,0.406 c 0.434,-0.28 1.274,-0.56 2.268,-0.56 1.974,0 3.388,1.33 3.388,3.108 0,1.148 -0.588,1.932 -1.302,2.338 -0.56,0.336 -1.26,0.49 -1.96,0.49 -0.336,0 -0.532,-0.028 -0.742,-0.056 l 0.35,2.338 H 44.17 Z M 49.168,4.242 H 45.71 V 3.33207 h 3.458 z m -3.458,0 z M 55.65,9.1 H 51.296 L 50.708,4.732 c 0.336,0.042 0.742,0.098 1.26,0.098 1.82,0 2.604,-0.84 2.618,-2.016 0,-1.218 -0.994,-1.974 -2.156,-1.974 -0.826,0 -1.568,0.28 -1.946,0.504 L 50.176,0.406 c 0.434,-0.28 1.274,-0.56 2.268,-0.56 1.974,0 3.388,1.33 3.388,3.108 0,1.148 -0.588,1.932 -1.302,2.338 -0.56,0.336 -1.26,0.49 -1.96,0.49 -0.336,0 -0.532,-0.028 -0.742,-0.056 l 0.35,2.338 H 55.65 Z M 60.76,0 h 1.204 v 4.088 c 0,0.21 0.028,0.42 0.098,0.602 0.196,0.616 0.756,1.232 1.526,1.232 0.938,0 1.414,-0.784 1.414,-1.862 V 0 h 1.204 v 4.186 c 0,0.224 0.042,0.448 0.098,0.616 0.21,0.602 0.756,1.12 1.456,1.12 0.994,0 1.47,-0.784 1.47,-2.086 V 0 h 1.204 v 3.99 c 0,2.352 -1.33,2.94 -2.226,2.94 C 67.564,6.93 67.116,6.762 66.71,6.454 66.43,6.244 66.164,5.95 65.954,5.572 H 65.926 C 65.632,6.37 64.932,6.93 64.008,6.93 62.888,6.93 62.258,6.328 61.88,5.684 H 61.838 L 61.782,6.776 H 60.704 C 60.746,6.216 60.76,5.642 60.76,4.942 Z m 11.676,0 h 1.204 v 4.088 c 0,0.21 0.028,0.42 0.098,0.602 0.196,0.616 0.756,1.232 1.526,1.232 0.938,0 1.414,-0.784 1.414,-1.862 V 0 h 1.204 v 4.186 c 0,0.224 0.042,0.448 0.098,0.616 0.21,0.602 0.756,1.12 1.456,1.12 0.994,0 1.47,-0.784 1.47,-2.086 V 0 h 1.204 v 3.99 c 0,2.352 -1.33,2.94 -2.226,2.94 C 79.24,6.93 78.792,6.762 78.386,6.454 78.106,6.244 77.84,5.95 77.63,5.572 H 77.602 C 77.308,6.37 76.608,6.93 75.684,6.93 c -1.12,0 -1.75,-0.602 -2.128,-1.246 H 73.514 L 73.458,6.776 H 72.38 c 0.042,-0.56 0.056,-1.134 0.056,-1.834 z m 11.886,-1.694 c 0.896,1.19 1.834,2.968 1.834,5.712 0,2.758 -0.938,4.55 -1.834,5.698 H 83.37 c 1.008,-1.386 1.764,-3.178 1.764,-5.684 0,-2.52 -0.77,-4.34 -1.764,-5.726 h 0.952"
         style="fill:#231f20;fill-opacity:1;fill-rule:evenodd;stroke:none"
         id="path38"
         inkscape:connector-curvature="0" /></g><g
       id="g40"
       transform="translate(39.08,152.733)"><path
         d="m 0,0 h 1.218 v 3.612 c 0,0.21 0.028,0.406 0.056,0.574 0.168,0.924 0.784,1.582 1.652,1.582 0.168,0 0.294,-0.014 0.42,-0.042 V 6.888 C 3.234,6.916 3.136,6.93 2.996,6.93 2.17,6.93 1.428,6.356 1.12,5.446 H 1.064 L 1.022,6.776 H -0.056 C -0.014,6.146 0,5.46 0,4.662 Z m 10.024,3.164 c 0.014,0.126 0.042,0.322 0.042,0.574 0,1.246 -0.588,3.192 -2.8,3.192 -1.974,0 -3.178,-1.61 -3.178,-3.654 0,-2.044 1.246,-3.416 3.332,-3.416 1.078,0 1.82,0.224 2.254,0.42 L 9.464,1.162 C 9.002,0.966 8.47,0.812 7.588,0.812 6.356,0.812 5.292,1.498 5.264,3.164 Z M 5.278,4.046 C 5.376,4.9 5.922,6.048 7.168,6.048 8.554,6.048 8.89,4.83 8.876,4.046 Z m 5.838,-3.724 c 0.476,-0.28 1.162,-0.462 1.904,-0.462 1.61,0 2.534,0.84 2.534,2.03 0,1.008 -0.602,1.596 -1.778,2.044 -0.882,0.336 -1.288,0.588 -1.288,1.148 0,0.504 0.406,0.924 1.134,0.924 0.63,0 1.12,-0.224 1.386,-0.392 l 0.308,0.896 c -0.378,0.224 -0.98,0.42 -1.666,0.42 -1.456,0 -2.338,-0.896 -2.338,-1.988 0,-0.812 0.574,-1.484 1.792,-1.918 0.91,-0.336 1.26,-0.658 1.26,-1.246 0,-0.56 -0.42,-1.008 -1.316,-1.008 -0.616,0 -1.26,0.252 -1.624,0.49 z m 8.89,6.608 c -1.876,0 -3.36,-1.33 -3.36,-3.598 0,-2.142 1.414,-3.486 3.248,-3.486 1.638,0 3.374,1.092 3.374,3.598 0,2.072 -1.316,3.486 -3.262,3.486 z M 19.978,6.006 c 1.456,0 2.03,-1.456 2.03,-2.604 0,-1.526 -0.882,-2.632 -2.058,-2.632 -1.204,0 -2.058,1.12 -2.058,2.604 0,1.288 0.63,2.632 2.086,2.632 z M 24.822,0 h 1.2322 V 9.94 H 24.822 Z m 8.974,6.776 H 32.564 V 2.618 c 0,-0.224 -0.042,-0.448 -0.112,-0.63 -0.224,-0.546 -0.798,-1.12 -1.624,-1.12 -1.12,0 -1.512,0.868 -1.512,2.156 V 6.776 H 28.084 V 2.814 c 0,-2.38 1.274,-2.968 2.338,-2.968 1.204,0 1.918,0.714 2.24,1.26 H 32.69 L 32.76,0 h 1.092 C 33.81,0.532 33.796,1.148 33.796,1.848 Z M 36.12,8.4 V 6.776 H 35.07 V 5.838 h 1.05 V 2.142 c 0,-0.798 0.126,-1.4 0.476,-1.764 0.294,-0.336 0.756,-0.518 1.33,-0.518 0.476,0 0.854,0.07 1.092,0.168 L 38.962,0.952 C 38.808,0.91 38.57,0.868 38.248,0.868 c -0.686,0 -0.924,0.476 -0.924,1.316 v 3.654 h 1.764 V 6.776 H 37.324 V 8.722 Z M 40.474,0 h 1.2322 V 6.7759 H 40.474 Z m 1.232,0 z M 41.09,9.45 c -0.448,0 -0.77,-0.336 -0.77,-0.77 0,-0.42 0.308,-0.756 0.742,-0.756 0.49,0 0.798,0.336 0.784,0.756 0,0.434 -0.294,0.77 -0.756,0.77 z m 5.53,-2.52 c -1.876,0 -3.36,-1.33 -3.36,-3.598 0,-2.142 1.414,-3.486 3.248,-3.486 1.638,0 3.374,1.092 3.374,3.598 0,2.072 -1.316,3.486 -3.262,3.486 z M 46.592,6.006 c 1.456,0 2.03,-1.456 2.03,-2.604 0,-1.526 -0.882,-2.632 -2.058,-2.632 -1.204,0 -2.058,1.12 -2.058,2.604 0,1.288 0.63,2.632 2.086,2.632 z M 51.436,0 h 1.233 v 4.074 c 0,0.21 0.027,0.42 0.083,0.574 0.211,0.686 0.84,1.26 1.652,1.26 1.162,0 1.568,-0.91 1.568,-2.002 V 0 h 1.233 v 4.046 c 0,2.324 -1.457,2.884 -2.395,2.884 -1.12,0 -1.904,-0.63 -2.24,-1.274 h -0.028 l -0.07,1.12 H 51.38 c 0.042,-0.56 0.056,-1.134 0.056,-1.834 z m 8.302,4.788 c 0.519,0 0.841,0.378 0.841,0.868 -0.015,0.518 -0.337,0.882 -0.826,0.882 -0.49,0 -0.841,-0.364 -0.841,-0.882 0,-0.49 0.337,-0.868 0.826,-0.868 z m 0,-4.942 c 0.519,0 0.841,0.378 0.841,0.868 -0.015,0.518 -0.337,0.882 -0.826,0.882 -0.49,0 -0.841,-0.364 -0.841,-0.882 0,-0.49 0.337,-0.868 0.826,-0.868 z M 65.072,0 h 1.205 v 4.088 c 0,0.21 0.028,0.42 0.098,0.602 0.196,0.616 0.756,1.232 1.526,1.232 0.938,0 1.413,-0.784 1.413,-1.862 V 0 h 1.205 v 4.186 c 0,0.224 0.042,0.448 0.097,0.616 0.21,0.602 0.756,1.12 1.457,1.12 0.994,0 1.47,-0.784 1.47,-2.086 V 0 h 1.203 v 3.99 c 0,2.352 -1.33,2.94 -2.226,2.94 -0.644,0 -1.091,-0.168 -1.497,-0.476 C 70.743,6.244 70.477,5.95 70.267,5.572 H 70.239 C 69.945,6.37 69.244,6.93 68.321,6.93 c -1.12,0 -1.75,-0.602 -2.128,-1.246 H 66.15 l -0.055,1.092 h -1.078 c 0.042,-0.56 0.055,-1.134 0.055,-1.834 z m 11.676,0 h 1.2322 V 6.7759 H 76.748 Z m 1.233,0 z m -0.616,9.45 c -0.449,0 -0.771,-0.336 -0.771,-0.77 0,-0.42 0.309,-0.756 0.743,-0.756 0.489,0 0.797,0.336 0.784,0.756 0,0.434 -0.295,0.77 -0.756,0.77 z M 80.024,0 h 1.233 v 4.074 c 0,0.21 0.027,0.42 0.083,0.574 0.21,0.686 0.84,1.26 1.652,1.26 1.162,0 1.568,-0.91 1.568,-2.002 V 0 h 1.233 v 4.046 c 0,2.324 -1.457,2.884 -2.395,2.884 -1.12,0 -1.904,-0.63 -2.24,-1.274 H 81.13 l -0.07,1.12 h -1.092 c 0.042,-0.56 0.056,-1.134 0.056,-1.834 z m 8.302,-0.154 c 0.519,0 0.841,0.378 0.841,0.882 0,0.518 -0.337,0.882 -0.826,0.882 -0.491,0 -0.841,-0.364 -0.841,-0.882 0,-0.504 0.337,-0.882 0.826,-0.882 z m 4.9,0.616 c 0.449,-0.294 1.345,-0.616 2.366,-0.616 2.185,0 3.318,1.274 3.318,2.73 0,1.274 -0.91,2.114 -2.029,2.338 v 0.028 c 1.119,0.406 1.68,1.204 1.68,2.142 0,1.106 -0.812,2.17 -2.605,2.17 -0.98,0 -1.904,-0.35 -2.38,-0.7 l 0.322,-0.896 c 0.393,0.28 1.092,0.602 1.821,0.602 1.133,0 1.596,-0.644 1.596,-1.372 0,-1.078 -1.135,-1.54 -2.03,-1.54 H 94.598 V 4.424 h 0.687 c 1.19,0 2.337,-0.546 2.352,-1.82 C 97.65,1.848 97.161,0.84 95.579,0.84 c -0.855,0 -1.667,0.35 -2.016,0.574 z m 10.263,8.792 c -1.848,0 -3.164,-1.68 -3.164,-4.732 0.028,-3.01 1.232,-4.676 3.01,-4.676 2.016,0 3.164,1.708 3.164,4.802 0,2.898 -1.092,4.606 -3.01,4.606 z m -0.07,-0.952 c 1.274,0 1.848,-1.47 1.848,-3.71 0,-2.324 -0.602,-3.794 -1.862,-3.794 -1.121,0 -1.848,1.344 -1.848,3.71 0,2.478 0.784,3.794 1.862,3.794 z m 7.252,0.952 c -1.848,0 -3.164,-1.68 -3.164,-4.732 0.028,-3.01 1.232,-4.676 3.01,-4.676 2.016,0 3.164,1.708 3.164,4.802 0,2.898 -1.092,4.606 -3.01,4.606 z m -0.07,-0.952 c 1.274,0 1.848,-1.47 1.848,-3.71 0,-2.324 -0.602,-3.794 -1.862,-3.794 -1.12,0 -1.848,1.344 -1.848,3.71 0,2.478 0.784,3.794 1.862,3.794 z m 4.648,-8.274 c 0.616,-0.07 1.344,-0.112 2.212,-0.112 1.834,0 3.29,0.476 4.172,1.358 0.882,0.868 1.358,2.128 1.358,3.668 0,1.526 -0.49,2.618 -1.33,3.388 -0.826,0.77 -2.072,1.176 -3.822,1.176 -0.966,0 -1.848,-0.084 -2.59,-0.196 z m 1.218,8.386 c 0.322,0.07 0.798,0.126 1.428,0.126 2.576,0 3.836,-1.414 3.822,-3.64 0,-2.548 -1.414,-4.004 -4.018,-4.004 -0.476,0 -0.924,0.014 -1.232,0.07 z M 124.573,0 h 1.218 v 3.78 c 0.28,-0.07 0.616,-0.084 0.98,-0.084 1.19,0 2.24,0.35 2.884,1.036 0.476,0.49 0.728,1.162 0.728,2.016 0,0.84 -0.308,1.526 -0.826,1.974 -0.56,0.504 -1.442,0.784 -2.646,0.784 -0.98,0 -1.75,-0.084 -2.338,-0.182 z m 1.218,8.442 c 0.21,0.056 0.616,0.098 1.148,0.098 1.344,0 2.226,-0.602 2.226,-1.848 0,-1.302 -0.896,-2.016 -2.366,-2.016 -0.406,0 -0.742,0.028 -1.008,0.098 z m 7.448,0.994 h -1.2178 V 10e-5 h 1.2178 z"
         style="fill:#231f20;fill-opacity:1;fill-rule:evenodd;stroke:none"
         id="path42"
         inkscape:connector-curvature="0" /></g><g
       id="g44"
       transform="translate(43.7,137.081)"><path
         d="m 0,0 c -0.35,-0.154 -0.812,-0.336 -1.512,-0.336 -1.344,0 -2.352,0.966 -2.352,2.534 0,1.414 0.84,2.562 2.394,2.562 0.672,0 1.134,-0.154 1.428,-0.322 l 0.28,0.952 c -0.336,0.168 -0.98,0.35 -1.708,0.35 -2.212,0 -3.64,-1.512 -3.64,-3.598 0,-2.072 1.33,-3.458 3.374,-3.458 0.91,0 1.624,0.224 1.946,0.392 z m 4.522,5.754 c -1.876,0 -3.36,-1.33 -3.36,-3.598 0,-2.142 1.414,-3.486 3.248,-3.486 1.638,0 3.374,1.092 3.374,3.598 0,2.072 -1.316,3.486 -3.262,3.486 z M 4.494,4.83 c 1.456,0 2.03,-1.456 2.03,-2.604 0,-1.526 -0.882,-2.632 -2.058,-2.632 -1.204,0 -2.058,1.12 -2.058,2.604 0,1.288 0.63,2.632 2.086,2.632 z m 4.844,-6.006 h 1.2322 v 9.94 H 9.338 Z m 6.174,6.93 c -1.876,0 -3.36,-1.33 -3.36,-3.598 0,-2.142 1.414,-3.486 3.248,-3.486 1.638,0 3.374,1.092 3.374,3.598 0,2.072 -1.316,3.486 -3.262,3.486 z M 15.484,4.83 c 1.456,0 2.03,-1.456 2.03,-2.604 0,-1.526 -0.882,-2.632 -2.058,-2.632 -1.204,0 -2.058,1.12 -2.058,2.604 0,1.288 0.63,2.632 2.086,2.632 z M 25.998,5.6 H 24.766 V 1.442 c 0,-0.224 -0.042,-0.448 -0.112,-0.63 -0.224,-0.546 -0.798,-1.12 -1.624,-1.12 -1.12,0 -1.512,0.868 -1.512,2.156 V 5.6 H 20.286 V 1.638 c 0,-2.38 1.274,-2.968 2.338,-2.968 1.204,0 1.918,0.714 2.24,1.26 h 0.028 l 0.07,-1.106 h 1.092 c -0.042,0.532 -0.056,1.148 -0.056,1.848 z m 2.044,-6.776 h 1.218 v 3.612 c 0,0.21 0.028,0.406 0.056,0.574 0.168,0.924 0.784,1.582 1.652,1.582 0.168,0 0.294,-0.014 0.42,-0.042 V 5.712 C 31.276,5.74 31.178,5.754 31.038,5.754 30.212,5.754 29.47,5.18 29.162,4.27 H 29.106 L 29.064,5.6 h -1.078 c 0.042,-0.63 0.056,-1.316 0.056,-2.114 z m 4.102,0.322 c 0.476,-0.28 1.162,-0.462 1.904,-0.462 1.61,0 2.534,0.84 2.534,2.03 0,1.008 -0.602,1.596 -1.778,2.044 -0.882,0.336 -1.288,0.588 -1.288,1.148 0,0.504 0.406,0.924 1.134,0.924 0.63,0 1.12,-0.224 1.386,-0.392 l 0.308,0.896 c -0.378,0.224 -0.98,0.42 -1.666,0.42 -1.456,0 -2.338,-0.896 -2.338,-1.988 0,-0.812 0.574,-1.484 1.792,-1.918 0.91,-0.336 1.26,-0.658 1.26,-1.246 0,-0.56 -0.42,-1.008 -1.316,-1.008 -0.616,0 -1.26,0.252 -1.624,0.49 z m 6.552,4.466 c 0.518,0 0.84,0.378 0.84,0.868 -0.014,0.518 -0.336,0.882 -0.826,0.882 -0.49,0 -0.84,-0.364 -0.84,-0.882 0,-0.49 0.336,-0.868 0.826,-0.868 z m 0,-4.942 c 0.518,0 0.84,0.378 0.84,0.868 C 39.522,0.056 39.2,0.42 38.71,0.42 c -0.49,0 -0.84,-0.364 -0.84,-0.882 0,-0.49 0.336,-0.868 0.826,-0.868 z M 50.414,0.098 C 49.924,-0.14 49.168,-0.294 48.426,-0.294 46.13,-0.294 44.8,1.19 44.8,3.5 c 0,2.478 1.47,3.892 3.682,3.892 0.784,0 1.442,-0.168 1.904,-0.392 l 0.294,0.994 c -0.322,0.168 -1.064,0.42 -2.24,0.42 -2.926,0 -4.928,-2.002 -4.928,-4.956 0,-3.094 2.002,-4.774 4.662,-4.774 1.148,0 2.044,0.224 2.492,0.448 z m 9.968,-1.274 h 1.19 L 60.984,8.26 H 59.43 L 57.75,3.696 C 57.33,2.506 56.994,1.47 56.756,0.518 h -0.042 c -0.238,0.98 -0.56,2.016 -0.952,3.178 L 54.152,8.26 H 52.598 L 51.94,-1.176 h 1.162 l 0.252,4.046 c 0.084,1.414 0.154,2.996 0.182,4.172 h 0.028 c 0.266,-1.12 0.644,-2.338 1.092,-3.668 l 1.526,-4.494 h 0.924 l 1.666,4.578 c 0.476,1.302 0.868,2.478 1.19,3.584 h 0.042 c -0.014,-1.176 0.07,-2.758 0.14,-4.074 z m 6.398,0 V 2.842 L 69.944,8.26 H 68.558 L 67.2,5.656 C 66.836,4.942 66.514,4.326 66.248,3.71 H 66.22 c -0.294,0.658 -0.574,1.232 -0.938,1.946 l -1.33,2.604 h -1.386 l 2.982,-5.432 v -4.004 z m 4.242,0 h 1.218 v 3.598 l 0.896,1.036 3.108,-4.634 h 1.442 L 74.004,4.256 77.42,8.26 H 75.908 L 73.024,4.718 C 72.786,4.41 72.534,4.074 72.282,3.71 H 72.24 v 4.55 h -1.218 v -9.436"
         style="fill:#231f20;fill-opacity:1;fill-rule:evenodd;stroke:none"
         id="path46"
         inkscape:connector-curvature="0" /></g><g
       id="g48"
       transform="translate(40.424,119.077)"><path
         d="M 0,0 V 5.838 H 1.638 V 6.776 H 0 V 7.14 C 0,8.176 0.266,9.1 1.316,9.1 1.666,9.1 1.918,9.03 2.1,8.946 L 2.268,9.898 C 2.03,9.996 1.652,10.094 1.218,10.094 0.644,10.094 0.028,9.912 -0.434,9.464 -1.008,8.918 -1.218,8.05 -1.218,7.098 V 6.776 H -2.17 V 5.838 h 0.952 V 0 Z m 5.614,6.93 c -1.876,0 -3.36,-1.33 -3.36,-3.598 0,-2.142 1.414,-3.486 3.248,-3.486 1.638,0 3.374,1.092 3.374,3.598 0,2.072 -1.316,3.486 -3.262,3.486 z M 5.586,6.006 c 1.456,0 2.03,-1.456 2.03,-2.604 C 7.616,1.876 6.734,0.77 5.558,0.77 4.354,0.77 3.5,1.89 3.5,3.374 3.5,4.662 4.13,6.006 5.586,6.006 Z M 10.43,0 h 1.218 v 3.612 c 0,0.21 0.028,0.406 0.056,0.574 0.168,0.924 0.784,1.582 1.652,1.582 0.168,0 0.294,-0.014 0.42,-0.042 V 6.888 C 13.664,6.916 13.566,6.93 13.426,6.93 12.6,6.93 11.858,6.356 11.55,5.446 h -0.056 l -0.042,1.33 H 10.374 C 10.416,6.146 10.43,5.46 10.43,4.662 Z m 4.578,0 h 1.204 v 4.088 c 0,0.21 0.028,0.42 0.098,0.602 0.196,0.616 0.756,1.232 1.526,1.232 0.938,0 1.414,-0.784 1.414,-1.862 V 0 h 1.204 v 4.186 c 0,0.224 0.042,0.448 0.098,0.616 0.21,0.602 0.756,1.12 1.456,1.12 0.994,0 1.47,-0.784 1.47,-2.086 V 0 h 1.204 v 3.99 c 0,2.352 -1.33,2.94 -2.226,2.94 -0.644,0 -1.092,-0.168 -1.498,-0.476 C 20.678,6.244 20.412,5.95 20.202,5.572 H 20.174 C 19.88,6.37 19.18,6.93 18.256,6.93 c -1.12,0 -1.75,-0.602 -2.128,-1.246 H 16.086 L 16.03,6.776 h -1.078 c 0.042,-0.56 0.056,-1.134 0.056,-1.834 z m 16.548,0 c -0.084,0.462 -0.112,1.036 -0.112,1.624 v 2.534 c 0,1.358 -0.504,2.772 -2.576,2.772 -0.854,0 -1.666,-0.238 -2.226,-0.602 l 0.28,-0.812 c 0.476,0.308 1.134,0.504 1.764,0.504 1.386,0 1.54,-1.008 1.54,-1.568 v -0.14 c -2.618,0.014 -4.074,-0.882 -4.074,-2.52 0,-0.98 0.7,-1.946 2.072,-1.946 0.966,0 1.694,0.476 2.072,1.008 h 0.042 L 30.436,0 Z m -1.302,2.282 c 0,-0.126 -0.028,-0.266 -0.07,-0.392 -0.196,-0.574 -0.756,-1.134 -1.638,-1.134 -0.63,0 -1.162,0.378 -1.162,1.176 0,1.316 1.526,1.554 2.87,1.526 z M 33.712,8.4 V 6.776 h -1.05 V 5.838 h 1.05 V 2.142 c 0,-0.798 0.126,-1.4 0.476,-1.764 0.294,-0.336 0.756,-0.518 1.33,-0.518 0.476,0 0.854,0.07 1.092,0.168 L 36.554,0.952 C 36.4,0.91 36.162,0.868 35.84,0.868 c -0.686,0 -0.924,0.476 -0.924,1.316 V 5.838 H 36.68 V 6.776 H 34.916 V 8.722 Z M 37.59,0.322 c 0.476,-0.28 1.162,-0.462 1.904,-0.462 1.61,0 2.534,0.84 2.534,2.03 0,1.008 -0.602,1.596 -1.778,2.044 -0.882,0.336 -1.288,0.588 -1.288,1.148 0,0.504 0.406,0.924 1.134,0.924 0.63,0 1.12,-0.224 1.386,-0.392 L 41.79,6.51 c -0.378,0.224 -0.98,0.42 -1.666,0.42 -1.456,0 -2.338,-0.896 -2.338,-1.988 0,-0.812 0.574,-1.484 1.792,-1.918 0.91,-0.336 1.26,-0.658 1.26,-1.246 0,-0.56 -0.42,-1.008 -1.316,-1.008 -0.616,0 -1.26,0.252 -1.624,0.49 z m 6.552,4.466 c 0.518,0 0.84,0.378 0.84,0.868 -0.014,0.518 -0.336,0.882 -0.826,0.882 -0.49,0 -0.84,-0.364 -0.84,-0.882 0,-0.49 0.336,-0.868 0.826,-0.868 z m 0,-4.942 c 0.518,0 0.84,0.378 0.84,0.868 -0.014,0.518 -0.336,0.882 -0.826,0.882 -0.49,0 -0.84,-0.364 -0.84,-0.882 0,-0.49 0.336,-0.868 0.826,-0.868 z M 51.31,0 h 1.232 v 8.4 h 2.884 V 9.436 H 48.44 V 8.4 h 2.87 z m 6.384,9.436 H 56.4762 V 0 h 1.2178 z m -1.218,0 z M 59.822,0 h 1.218 v 4.27 h 3.57 v 1.008 h -3.57 v 3.136 h 3.864 v 1.022 h -5.082 z m 6.818,0 h 1.218 v 4.27 h 3.57 v 1.008 h -3.57 v 3.136 h 3.864 V 9.436 H 66.64 Z m 6.86,-1.638 c 0.392,0.658 1.008,2.212 1.33,3.402 l -1.372,-0.14 c -0.154,-1.022 -0.532,-2.52 -0.84,-3.346 z M 79.324,0 h 1.218 v 3.78 c 0.28,-0.07 0.616,-0.084 0.98,-0.084 1.19,0 2.24,0.35 2.884,1.036 0.476,0.49 0.728,1.162 0.728,2.016 0,0.84 -0.308,1.526 -0.826,1.974 -0.56,0.504 -1.442,0.784 -2.646,0.784 -0.98,0 -1.75,-0.084 -2.338,-0.182 z m 1.218,8.442 c 0.21,0.056 0.616,0.098 1.148,0.098 1.344,0 2.226,-0.602 2.226,-1.848 0,-1.302 -0.896,-2.016 -2.366,-2.016 -0.406,0 -0.742,0.028 -1.008,0.098 z m 6.23,-8.414 c 0.616,-0.07 1.344,-0.112 2.212,-0.112 1.834,0 3.29,0.476 4.172,1.358 0.882,0.868 1.358,2.128 1.358,3.668 0,1.526 -0.49,2.618 -1.33,3.388 -0.826,0.77 -2.072,1.176 -3.822,1.176 -0.966,0 -1.848,-0.084 -2.59,-0.196 z m 1.218,8.386 c 0.322,0.07 0.798,0.126 1.428,0.126 2.576,0 3.836,-1.414 3.822,-3.64 0,-2.548 -1.414,-4.004 -4.018,-4.004 -0.476,0 -0.924,0.014 -1.232,0.07 z M 96.096,0 h 1.218 v 4.27 h 3.57 v 1.008 h -3.57 v 3.136 h 3.864 v 1.022 h -5.082 z m 6.86,-1.638 c 0.392,0.658 1.008,2.212 1.33,3.402 l -1.372,-0.14 c -0.154,-1.022 -0.532,-2.52 -0.84,-3.346 z m 10.71,7.07 h -3.668 v 2.982 h 3.878 V 9.436 H 108.78 V 0 h 5.306 v 1.022 h -4.088 v 3.402 h 3.668 z M 115.668,0 h 1.217 v 3.78 c 0.281,-0.07 0.617,-0.084 0.981,-0.084 1.19,0 2.24,0.35 2.884,1.036 0.476,0.49 0.728,1.162 0.728,2.016 0,0.84 -0.309,1.526 -0.826,1.974 -0.561,0.504 -1.442,0.784 -2.646,0.784 -0.98,0 -1.75,-0.084 -2.338,-0.182 z m 1.217,8.442 c 0.211,0.056 0.617,0.098 1.149,0.098 1.344,0 2.226,-0.602 2.226,-1.848 0,-1.302 -0.896,-2.016 -2.367,-2.016 -0.405,0 -0.741,0.028 -1.008,0.098 z m 5.755,-7.98 c 0.504,-0.336 1.498,-0.602 2.408,-0.602 2.226,0 3.304,1.26 3.304,2.716 0,1.386 -0.812,2.156 -2.408,2.772 -1.302,0.504 -1.876,0.938 -1.876,1.82 0,0.644 0.49,1.414 1.778,1.414 0.854,0 1.484,-0.28 1.792,-0.448 l 0.336,0.994 c -0.42,0.238 -1.12,0.462 -2.086,0.462 -1.834,0 -3.052,-1.092 -3.052,-2.562 0,-1.33 0.952,-2.128 2.492,-2.674 1.274,-0.49 1.778,-0.994 1.778,-1.876 0,-0.952 -0.728,-1.61 -1.974,-1.61 -0.84,0 -1.638,0.28 -2.184,0.616 z m 7.42,-2.1 c 0.392,0.658 1.008,2.212 1.33,3.402 l -1.372,-0.14 c -0.154,-1.022 -0.532,-2.52 -0.84,-3.346 z M 140.756,2.968 141.764,0 h 1.302 l -3.22,9.436 h -1.47 L 135.17,0 h 1.26 l 0.98,2.968 z m -3.094,0.952 0.924,2.73 c 0.182,0.574 0.336,1.148 0.476,1.708 h 0.028 c 0.14,-0.546 0.28,-1.106 0.49,-1.722 l 0.924,-2.716 z m 8.008,5.516 h -1.2178 V 0 h 1.2178 z m -1.218,0 z m 3.388,-11.074 c 0.392,0.658 1.008,2.212 1.33,3.402 l -1.372,-0.14 c -0.154,-1.022 -0.532,-2.52 -0.84,-3.346 z m 12.166,2.912 c -0.49,-0.238 -1.246,-0.392 -1.988,-0.392 -2.296,0 -3.626,1.484 -3.626,3.794 0,2.478 1.47,3.892 3.682,3.892 0.784,0 1.442,-0.168 1.904,-0.392 l 0.294,0.994 c -0.322,0.168 -1.064,0.42 -2.24,0.42 -2.926,0 -4.928,-2.002 -4.928,-4.956 0,-3.094 2.002,-4.774 4.662,-4.774 1.148,0 2.044,0.224 2.492,0.448 z m 1.778,-1.246 c 0.616,-0.07 1.344,-0.112 2.212,-0.112 1.834,0 3.29,0.476 4.172,1.358 0.882,0.868 1.358,2.128 1.358,3.668 0,1.526 -0.49,2.618 -1.33,3.388 -0.826,0.77 -2.072,1.176 -3.822,1.176 -0.966,0 -1.848,-0.084 -2.59,-0.196 z m 1.218,8.386 c 0.322,0.07 0.798,0.126 1.428,0.126 2.576,0 3.836,-1.414 3.822,-3.64 0,-2.548 -1.414,-4.004 -4.018,-4.004 -0.476,0 -0.924,0.014 -1.232,0.07 z M 171.108,0 h 1.218 v 4.088 h 1.148 c 1.106,-0.042 1.61,-0.532 1.89,-1.834 0.266,-1.176 0.476,-1.988 0.63,-2.254 h 1.26 c -0.196,0.364 -0.42,1.274 -0.728,2.59 -0.224,0.98 -0.658,1.652 -1.386,1.904 v 0.042 c 0.994,0.336 1.778,1.162 1.778,2.408 0,0.728 -0.266,1.372 -0.742,1.792 -0.588,0.532 -1.428,0.77 -2.73,0.77 -0.84,0 -1.722,-0.07 -2.338,-0.196 z m 1.218,8.456 c 0.196,0.056 0.616,0.112 1.204,0.112 1.288,-0.014 2.17,-0.546 2.17,-1.764 0,-1.078 -0.826,-1.792 -2.128,-1.792 h -1.246 v 3.444"
         style="fill:#231f20;fill-opacity:1;fill-rule:evenodd;stroke:none"
         id="path50"
         inkscape:connector-curvature="0" /></g><g
       id="g52"
       transform="translate(40.914,92.827)"><path
         d="M 0,0 H 1.232 V 8.4 H 4.116 V 9.436 H -2.87 V 8.4 H 0 Z m 5.124,0 h 1.232 v 4.088 c 0,0.238 0.014,0.42 0.084,0.588 0.224,0.672 0.854,1.232 1.652,1.232 1.162,0 1.568,-0.924 1.568,-2.016 V 0 h 1.232 V 4.032 C 10.892,6.37 9.436,6.93 8.526,6.93 8.064,6.93 7.63,6.79 7.266,6.58 6.888,6.37 6.58,6.062 6.384,5.712 H 6.356 V 9.94 H 5.124 Z M 18.34,3.164 c 0.014,0.126 0.042,0.322 0.042,0.574 0,1.246 -0.588,3.192 -2.8,3.192 -1.974,0 -3.178,-1.61 -3.178,-3.654 0,-2.044 1.246,-3.416 3.332,-3.416 1.078,0 1.82,0.224 2.254,0.42 l -0.21,0.882 c -0.462,-0.196 -0.994,-0.35 -1.876,-0.35 -1.232,0 -2.296,0.686 -2.324,2.352 z m -4.746,0.882 c 0.098,0.854 0.644,2.002 1.89,2.002 1.386,0 1.722,-1.218 1.708,-2.002 z M 23.884,0 23.94,1.12 h 0.042 c 0.504,-0.896 1.288,-1.274 2.268,-1.274 1.512,0 3.038,1.204 3.038,3.626 0.014,2.058 -1.176,3.458 -2.856,3.458 -1.092,0 -1.876,-0.49 -2.31,-1.246 H 24.094 V 9.94 H 22.876 V 1.75 C 22.876,1.148 22.848,0.462 22.82,0 Z m 0.21,3.934 c 0,0.196 0.042,0.364 0.07,0.504 0.252,0.938 1.036,1.512 1.876,1.512 1.316,0 2.016,-1.162 2.016,-2.52 0,-1.554 -0.77,-2.604 -2.058,-2.604 -0.896,0 -1.61,0.588 -1.848,1.442 -0.028,0.14 -0.056,0.294 -0.056,0.448 z M 30.842,0 h 1.2322 V 9.94 H 30.842 Z m 8.176,0 c -0.084,0.462 -0.112,1.036 -0.112,1.624 v 2.534 c 0,1.358 -0.504,2.772 -2.576,2.772 -0.854,0 -1.666,-0.238 -2.226,-0.602 l 0.28,-0.812 c 0.476,0.308 1.134,0.504 1.764,0.504 1.386,0 1.54,-1.008 1.54,-1.568 V 4.312 C 35.07,4.326 33.614,3.43 33.614,1.792 c 0,-0.98 0.7,-1.946 2.072,-1.946 0.966,0 1.694,0.476 2.072,1.008 H 37.8 L 37.898,0 Z M 37.716,2.282 C 37.716,2.156 37.688,2.016 37.646,1.89 37.45,1.316 36.89,0.756 36.008,0.756 c -0.63,0 -1.162,0.378 -1.162,1.176 0,1.316 1.526,1.554 2.87,1.526 z M 45.514,1.176 C 45.164,1.022 44.702,0.84 44.002,0.84 c -1.344,0 -2.352,0.966 -2.352,2.534 0,1.414 0.84,2.562 2.394,2.562 0.672,0 1.134,-0.154 1.428,-0.322 l 0.28,0.952 c -0.336,0.168 -0.98,0.35 -1.708,0.35 -2.212,0 -3.64,-1.512 -3.64,-3.598 0,-2.072 1.33,-3.458 3.374,-3.458 0.91,0 1.624,0.224 1.946,0.392 z m 2.87,8.764 H 47.166 V 0 h 1.218 v 2.548 l 0.63,0.7 L 51.352,0 h 1.498 l -2.982,3.99 2.618,2.786 H 51.002 L 49.014,4.438 C 48.818,4.2 48.58,3.906 48.412,3.668 H 48.384 Z M 59.57,6.93 c -1.876,0 -3.36,-1.33 -3.36,-3.598 0,-2.142 1.414,-3.486 3.248,-3.486 1.638,0 3.374,1.092 3.374,3.598 0,2.072 -1.317,3.486 -3.262,3.486 z M 59.541,6.006 c 1.457,0 2.031,-1.456 2.031,-2.604 0,-1.526 -0.883,-2.632 -2.058,-2.632 -1.204,0 -2.059,1.12 -2.059,2.604 0,1.288 0.631,2.632 2.086,2.632 z m 10.515,0.77 H 68.824 V 2.618 c 0,-0.224 -0.042,-0.448 -0.112,-0.63 -0.224,-0.546 -0.798,-1.12 -1.624,-1.12 -1.12,0 -1.512,0.868 -1.512,2.156 V 6.776 H 64.344 V 2.814 c 0,-2.38 1.274,-2.968 2.338,-2.968 1.204,0 1.918,0.714 2.24,1.26 H 68.95 L 69.02,0 h 1.092 C 70.07,0.532 70.056,1.148 70.056,1.848 Z M 72.38,8.4 V 6.776 H 71.33 V 5.838 h 1.05 V 2.142 c 0,-0.798 0.126,-1.4 0.475,-1.764 0.295,-0.336 0.756,-0.518 1.331,-0.518 0.476,0 0.854,0.07 1.092,0.168 L 75.222,0.952 C 75.068,0.91 74.83,0.868 74.508,0.868 c -0.686,0 -0.924,0.476 -0.924,1.316 v 3.654 h 1.764 V 6.776 H 73.584 V 8.722 Z M 76.734,0 h 1.2322 V 9.94 H 76.734 Z m 3.304,0 h 1.2322 V 6.7759 H 80.038 Z m 1.232,0 z m -0.616,9.45 c -0.448,0 -0.77,-0.336 -0.77,-0.77 0,-0.42 0.308,-0.756 0.742,-0.756 0.49,0 0.798,0.336 0.784,0.756 0,0.434 -0.294,0.77 -0.756,0.77 z M 83.314,0 h 1.232 v 4.074 c 0,0.21 0.028,0.42 0.084,0.574 0.21,0.686 0.84,1.26 1.652,1.26 1.162,0 1.568,-0.91 1.568,-2.002 V 0 h 1.232 v 4.046 c 0,2.324 -1.456,2.884 -2.394,2.884 -1.12,0 -1.904,-0.63 -2.24,-1.274 H 84.42 l -0.07,1.12 H 83.258 C 83.3,6.216 83.314,5.642 83.314,4.942 Z M 96.53,3.164 c 0.014,0.126 0.042,0.322 0.042,0.574 0,1.246 -0.588,3.192 -2.8,3.192 -1.974,0 -3.178,-1.61 -3.178,-3.654 0,-2.044 1.246,-3.416 3.332,-3.416 1.078,0 1.82,0.224 2.254,0.42 l -0.21,0.882 c -0.462,-0.196 -0.994,-0.35 -1.876,-0.35 -1.232,0 -2.296,0.686 -2.324,2.352 z m -4.746,0.882 c 0.098,0.854 0.644,2.002 1.89,2.002 1.386,0 1.722,-1.218 1.708,-2.002 z M 101.066,0 h 1.2322 v 6.7759 h -1.2322 z m 1.232,0 z m -0.616,9.45 c -0.448,0 -0.77,-0.336 -0.77,-0.77 0,-0.42 0.308,-0.756 0.742,-0.756 0.49,0 0.798,0.336 0.784,0.756 0,0.434 -0.294,0.77 -0.756,0.77 z M 104.342,0 h 1.232 v 4.074 c 0,0.21 0.028,0.42 0.084,0.574 0.21,0.686 0.84,1.26 1.652,1.26 1.162,0 1.568,-0.91 1.568,-2.002 V 0 h 1.232 v 4.046 c 0,2.324 -1.456,2.884 -2.394,2.884 -1.12,0 -1.904,-0.63 -2.24,-1.274 h -0.028 l -0.07,1.12 h -1.092 c 0.042,-0.56 0.056,-1.134 0.056,-1.834 z m 12.39,9.94 V 5.894 h -0.028 c -0.308,0.546 -1.008,1.036 -2.044,1.036 -1.652,0 -3.052,-1.386 -3.038,-3.64 0,-2.058 1.26,-3.444 2.898,-3.444 1.106,0 1.932,0.574 2.31,1.33 h 0.028 L 116.914,0 h 1.106 c -0.042,0.462 -0.056,1.148 -0.056,1.75 v 8.19 z m 0,-7.098 c 0,-0.196 -0.014,-0.364 -0.056,-0.532 -0.224,-0.924 -0.98,-1.47 -1.806,-1.47 -1.33,0 -2.002,1.134 -2.002,2.506 0,1.498 0.756,2.618 2.03,2.618 0.924,0 1.596,-0.644 1.778,-1.428 0.042,-0.154 0.056,-0.364 0.056,-0.518 z M 120.008,0 h 1.2322 v 6.7759 h -1.2322 z m 1.232,0 z m -0.616,9.45 c -0.448,0 -0.77,-0.336 -0.77,-0.77 0,-0.42 0.308,-0.756 0.742,-0.756 0.49,0 0.798,0.336 0.784,0.756 0,0.434 -0.294,0.77 -0.756,0.77 z m 7.28,-8.274 c -0.35,-0.154 -0.812,-0.336 -1.512,-0.336 -1.344,0 -2.352,0.966 -2.352,2.534 0,1.414 0.84,2.562 2.394,2.562 0.672,0 1.134,-0.154 1.428,-0.322 l 0.28,0.952 c -0.336,0.168 -0.98,0.35 -1.708,0.35 -2.212,0 -3.64,-1.512 -3.64,-3.598 0,-2.072 1.33,-3.458 3.374,-3.458 0.91,0 1.624,0.224 1.946,0.392 z M 134.428,0 c -0.085,0.462 -0.112,1.036 -0.112,1.624 v 2.534 c 0,1.358 -0.504,2.772 -2.576,2.772 -0.854,0 -1.666,-0.238 -2.226,-0.602 l 0.28,-0.812 c 0.476,0.308 1.134,0.504 1.764,0.504 1.386,0 1.54,-1.008 1.54,-1.568 v -0.14 c -2.618,0.014 -4.074,-0.882 -4.074,-2.52 0,-0.98 0.7,-1.946 2.072,-1.946 0.966,0 1.694,0.476 2.072,1.008 h 0.042 L 133.308,0 Z m -1.302,2.282 c 0,-0.126 -0.028,-0.266 -0.07,-0.392 -0.196,-0.574 -0.756,-1.134 -1.638,-1.134 -0.63,0 -1.162,0.378 -1.162,1.176 0,1.316 1.526,1.554 2.87,1.526 z M 136.583,8.4 V 6.776 h -1.05 V 5.838 h 1.05 V 2.142 c 0,-0.798 0.127,-1.4 0.476,-1.764 0.295,-0.336 0.756,-0.518 1.33,-0.518 0.477,0 0.854,0.07 1.093,0.168 l -0.057,0.924 c -0.153,-0.042 -0.392,-0.084 -0.714,-0.084 -0.686,0 -0.923,0.476 -0.923,1.316 v 3.654 h 1.764 v 0.938 h -1.764 v 1.946 z m 9.801,-5.236 c 0.014,0.126 0.042,0.322 0.042,0.574 0,1.246 -0.588,3.192 -2.8,3.192 -1.975,0 -3.178,-1.61 -3.178,-3.654 0,-2.044 1.245,-3.416 3.331,-3.416 1.078,0 1.821,0.224 2.255,0.42 l -0.21,0.882 c -0.463,-0.196 -0.994,-0.35 -1.876,-0.35 -1.232,0 -2.297,0.686 -2.325,2.352 z m -4.746,0.882 c 0.098,0.854 0.644,2.002 1.889,2.002 1.387,0 1.723,-1.218 1.709,-2.002 z m 5.838,-3.724 c 0.475,-0.28 1.161,-0.462 1.904,-0.462 1.61,0 2.533,0.84 2.533,2.03 0,1.008 -0.601,1.596 -1.777,2.044 -0.882,0.336 -1.288,0.588 -1.288,1.148 0,0.504 0.406,0.924 1.134,0.924 0.63,0 1.12,-0.224 1.386,-0.392 l 0.308,0.896 c -0.378,0.224 -0.98,0.42 -1.666,0.42 -1.456,0 -2.338,-0.896 -2.338,-1.988 0,-0.812 0.574,-1.484 1.791,-1.918 0.911,-0.336 1.26,-0.658 1.26,-1.246 0,-0.56 -0.419,-1.008 -1.315,-1.008 -0.616,0 -1.26,0.252 -1.624,0.49 z M 156.743,8.4 V 6.776 h -1.05 V 5.838 h 1.05 V 2.142 c 0,-0.798 0.127,-1.4 0.476,-1.764 0.295,-0.336 0.756,-0.518 1.33,-0.518 0.477,0 0.854,0.07 1.093,0.168 l -0.057,0.924 c -0.153,-0.042 -0.392,-0.084 -0.714,-0.084 -0.686,0 -0.923,0.476 -0.923,1.316 v 3.654 h 1.764 v 0.938 h -1.764 V 8.722 Z M 161.097,0 h 1.233 v 4.088 c 0,0.238 0.014,0.42 0.084,0.588 0.224,0.672 0.854,1.232 1.652,1.232 1.162,0 1.567,-0.924 1.567,-2.016 V 0 h 1.233 v 4.032 c 0,2.338 -1.456,2.898 -2.366,2.898 -0.462,0 -0.896,-0.14 -1.26,-0.35 -0.379,-0.21 -0.686,-0.518 -0.883,-0.868 H 162.33 V 9.94 h -1.233 z m 13.217,3.164 c 0.014,0.126 0.042,0.322 0.042,0.574 0,1.246 -0.588,3.192 -2.8,3.192 -1.974,0 -3.178,-1.61 -3.178,-3.654 0,-2.044 1.245,-3.416 3.332,-3.416 1.078,0 1.82,0.224 2.254,0.42 l -0.21,0.882 c -0.462,-0.196 -0.994,-0.35 -1.876,-0.35 -1.232,0 -2.296,0.686 -2.325,2.352 z m -4.746,0.882 c 0.098,0.854 0.644,2.002 1.89,2.002 1.386,0 1.722,-1.218 1.708,-2.002 z m 8.805,-3.724 c 0.476,-0.28 1.162,-0.462 1.905,-0.462 1.61,0 2.533,0.84 2.533,2.03 0,1.008 -0.601,1.596 -1.777,2.044 -0.882,0.336 -1.289,0.588 -1.289,1.148 0,0.504 0.407,0.924 1.135,0.924 0.629,0 1.12,-0.224 1.385,-0.392 l 0.309,0.896 c -0.379,0.224 -0.98,0.42 -1.666,0.42 -1.457,0 -2.338,-0.896 -2.338,-1.988 0,-0.812 0.574,-1.484 1.791,-1.918 0.911,-0.336 1.26,-0.658 1.26,-1.246 0,-0.56 -0.419,-1.008 -1.315,-1.008 -0.616,0 -1.26,0.252 -1.624,0.49 z M 184.393,0 h 1.2322 v 6.7759 h -1.2322 z m 1.233,0 z m -0.616,9.45 c -0.448,0 -0.77,-0.336 -0.77,-0.77 0,-0.42 0.308,-0.756 0.742,-0.756 0.489,0 0.798,0.336 0.784,0.756 0,0.434 -0.295,0.77 -0.756,0.77 z M 186.9,0 h 5.502 v 0.98 h -3.962 v 0.028 c 0.307,0.35 0.587,0.686 0.868,1.064 l 3.024,3.934 0.013,0.77 H 187.18 V 5.782 h 3.668 V 5.754 C 190.539,5.39 190.259,5.068 189.965,4.704 L 186.9,0.714 Z m 12.207,3.164 c 0.014,0.126 0.042,0.322 0.042,0.574 0,1.246 -0.587,3.192 -2.8,3.192 -1.974,0 -3.178,-1.61 -3.178,-3.654 0,-2.044 1.246,-3.416 3.332,-3.416 1.078,0 1.82,0.224 2.254,0.42 l -0.21,0.882 c -0.462,-0.196 -0.993,-0.35 -1.876,-0.35 -1.232,0 -2.296,0.686 -2.324,2.352 z m -4.746,0.882 c 0.099,0.854 0.644,2.002 1.89,2.002 1.386,0 1.722,-1.218 1.708,-2.002 z m 12.152,2.884 c -1.876,0 -3.36,-1.33 -3.36,-3.598 0,-2.142 1.414,-3.486 3.248,-3.486 1.638,0 3.374,1.092 3.374,3.598 0,2.072 -1.316,3.486 -3.262,3.486 z m -0.028,-0.924 c 1.456,0 2.03,-1.456 2.03,-2.604 0,-1.526 -0.882,-2.632 -2.058,-2.632 -1.204,0 -2.058,1.12 -2.058,2.604 0,1.288 0.63,2.632 2.086,2.632 z M 212.674,0 v 5.838 h 1.637 v 0.938 h -1.637 V 7.14 c 0,1.036 0.265,1.96 1.315,1.96 0.35,0 0.602,-0.07 0.784,-0.154 l 0.169,0.952 c -0.239,0.098 -0.616,0.196 -1.05,0.196 -0.574,0 -1.19,-0.182 -1.652,-0.63 -0.574,-0.546 -0.785,-1.414 -0.785,-2.366 V 6.776 h -0.952 V 5.838 h 0.952 V 0 Z m 10.472,6.776 -0.057,-1.022 h -0.028 c -0.294,0.56 -0.938,1.176 -2.113,1.176 -1.555,0 -3.052,-1.302 -3.052,-3.598 0,-1.876 1.203,-3.304 2.884,-3.304 1.049,0 1.777,0.504 2.156,1.134 h 0.028 V 0.406 c 0,-1.708 -0.925,-2.366 -2.184,-2.366 -0.84,0 -1.541,0.252 -1.988,0.532 l -0.309,-0.938 c 0.546,-0.364 1.442,-0.56 2.255,-0.56 0.853,0 1.805,0.196 2.463,0.812 0.658,0.588 0.966,1.54 0.966,3.094 v 3.934 c 0,0.826 0.029,1.372 0.057,1.862 z m -0.197,-3.892 c 0,-0.21 -0.028,-0.448 -0.098,-0.658 -0.266,-0.784 -0.952,-1.26 -1.708,-1.26 -1.33,0 -2.002,1.106 -2.002,2.436 0,1.568 0.841,2.562 2.016,2.562 0.896,0 1.498,-0.588 1.722,-1.302 0.057,-0.168 0.07,-0.35 0.07,-0.56 z M 226.211,0 h 1.218 v 3.612 c 0,0.21 0.028,0.406 0.056,0.574 0.168,0.924 0.785,1.582 1.652,1.582 0.168,0 0.294,-0.014 0.42,-0.042 v 1.162 c -0.112,0.028 -0.209,0.042 -0.35,0.042 -0.826,0 -1.568,-0.574 -1.876,-1.484 h -0.056 l -0.042,1.33 h -1.078 c 0.042,-0.63 0.056,-1.316 0.056,-2.114 z m 9.45,0 c -0.084,0.462 -0.112,1.036 -0.112,1.624 v 2.534 c 0,1.358 -0.504,2.772 -2.576,2.772 -0.854,0 -1.666,-0.238 -2.226,-0.602 l 0.28,-0.812 c 0.476,0.308 1.134,0.504 1.764,0.504 1.386,0 1.54,-1.008 1.54,-1.568 v -0.14 c -2.618,0.014 -4.074,-0.882 -4.074,-2.52 0,-0.98 0.7,-1.946 2.072,-1.946 0.966,0 1.694,0.476 2.072,1.008 h 0.042 L 234.541,0 Z m -1.302,2.282 c 0,-0.126 -0.028,-0.266 -0.07,-0.392 -0.196,-0.574 -0.756,-1.134 -1.638,-1.134 -0.63,0 -1.162,0.378 -1.162,1.176 0,1.316 1.526,1.554 2.87,1.526 z m 3.178,-5.054 h 1.218 V 0.91 h 0.028 c 0.406,-0.672 1.19,-1.064 2.086,-1.064 1.596,0 3.08,1.204 3.08,3.64 0,2.058 -1.232,3.444 -2.87,3.444 -1.106,0 -1.904,-0.49 -2.408,-1.316 h -0.028 l -0.056,1.162 h -1.106 c 0.028,-0.644 0.056,-1.344 0.056,-2.212 z m 1.218,6.692 c 0,0.168 0.042,0.35 0.084,0.504 0.238,0.924 1.022,1.526 1.862,1.526 1.302,0 2.016,-1.162 2.016,-2.52 0,-1.554 -0.756,-2.618 -2.058,-2.618 -0.882,0 -1.624,0.588 -1.848,1.442 -0.028,0.154 -0.056,0.322 -0.056,0.504 z M 245.503,0 h 1.232 v 4.088 c 0,0.238 0.014,0.42 0.084,0.588 0.224,0.672 0.854,1.232 1.652,1.232 1.162,0 1.568,-0.924 1.568,-2.016 V 0 h 1.232 v 4.032 c 0,2.338 -1.456,2.898 -2.366,2.898 -0.462,0 -0.896,-0.14 -1.26,-0.35 -0.378,-0.21 -0.686,-0.518 -0.882,-0.868 h -0.028 V 9.94 h -1.232 z m 7.77,0 h 1.2322 v 6.7759 h -1.2322 z m 1.232,0 z m -0.616,9.45 c -0.448,0 -0.77,-0.336 -0.77,-0.77 0,-0.42 0.308,-0.756 0.742,-0.756 0.49,0 0.798,0.336 0.784,0.756 0,0.434 -0.294,0.77 -0.756,0.77 z m 7.28,-8.274 c -0.35,-0.154 -0.812,-0.336 -1.512,-0.336 -1.344,0 -2.352,0.966 -2.352,2.534 0,1.414 0.84,2.562 2.394,2.562 0.672,0 1.134,-0.154 1.428,-0.322 l 0.28,0.952 c -0.336,0.168 -0.98,0.35 -1.708,0.35 -2.212,0 -3.64,-1.512 -3.64,-3.598 0,-2.072 1.33,-3.458 3.374,-3.458 0.91,0 1.624,0.224 1.946,0.392 z m 3.78,5.6 L 267.525,0 h 1.176 l 2.66,6.776 h -1.288 l -1.316,-3.808 c -0.224,-0.616 -0.42,-1.176 -0.574,-1.736 h -0.042 c -0.14,0.56 -0.322,1.12 -0.546,1.736 l -1.33,3.808 z M 272.523,0 h 1.2323 v 6.7759 h -1.2323 z m 1.232,0 z m -0.616,9.45 c -0.448,0 -0.77,-0.336 -0.77,-0.77 0,-0.42 0.308,-0.756 0.742,-0.756 0.49,0 0.798,0.336 0.784,0.756 0,0.434 -0.294,0.77 -0.756,0.77 z m 2.184,-9.128 c 0.476,-0.28 1.162,-0.462 1.904,-0.462 1.61,0 2.534,0.84 2.534,2.03 0,1.008 -0.602,1.596 -1.778,2.044 -0.882,0.336 -1.288,0.588 -1.288,1.148 0,0.504 0.406,0.924 1.134,0.924 0.63,0 1.12,-0.224 1.386,-0.392 l 0.308,0.896 c -0.378,0.224 -0.98,0.42 -1.666,0.42 -1.456,0 -2.338,-0.896 -2.338,-1.988 0,-0.812 0.574,-1.484 1.792,-1.918 0.91,-0.336 1.26,-0.658 1.26,-1.246 0,-0.56 -0.42,-1.008 -1.316,-1.008 -0.616,0 -1.26,0.252 -1.624,0.49 z M 281.343,0 h 1.2322 v 6.7759 h -1.2322 z m 1.232,0 z m -0.616,9.45 c -0.448,0 -0.77,-0.336 -0.77,-0.77 0,-0.42 0.308,-0.756 0.742,-0.756 0.49,0 0.798,0.336 0.784,0.756 0,0.434 -0.294,0.77 -0.756,0.77 z m 3.668,-9.45 0.056,1.12 h 0.042 c 0.504,-0.896 1.288,-1.274 2.268,-1.274 1.512,0 3.038,1.204 3.038,3.626 0.014,2.058 -1.176,3.458 -2.856,3.458 -1.092,0 -1.876,-0.49 -2.31,-1.246 h -0.028 V 9.94 h -1.218 V 1.75 c 0,-0.602 -0.028,-1.288 -0.056,-1.75 z m 0.21,3.934 c 0,0.196 0.042,0.364 0.07,0.504 0.252,0.938 1.036,1.512 1.876,1.512 1.316,0 2.016,-1.162 2.016,-2.52 0,-1.554 -0.77,-2.604 -2.058,-2.604 -0.896,0 -1.61,0.588 -1.848,1.442 -0.028,0.14 -0.056,0.294 -0.056,0.448 z M 292.585,0 h 1.2322 v 9.94 h -1.2322 z m 8.75,3.164 c 0.014,0.126 0.042,0.322 0.042,0.574 0,1.246 -0.588,3.192 -2.8,3.192 -1.974,0 -3.178,-1.61 -3.178,-3.654 0,-2.044 1.246,-3.416 3.332,-3.416 1.078,0 1.82,0.224 2.254,0.42 l -0.21,0.882 c -0.462,-0.196 -0.994,-0.35 -1.876,-0.35 -1.232,0 -2.296,0.686 -2.324,2.352 z m -4.746,0.882 c 0.098,0.854 0.644,2.002 1.89,2.002 1.386,0 1.722,-1.218 1.708,-2.002 z m 12.152,2.884 c -1.876,0 -3.36,-1.33 -3.36,-3.598 0,-2.142 1.414,-3.486 3.248,-3.486 1.638,0 3.374,1.092 3.374,3.598 0,2.072 -1.316,3.486 -3.262,3.486 z m -0.029,-0.924 c 1.457,0 2.031,-1.456 2.031,-2.604 0,-1.526 -0.882,-2.632 -2.058,-2.632 -1.205,0 -2.059,1.12 -2.059,2.604 0,1.288 0.631,2.632 2.086,2.632 z M 313.557,0 h 1.232 v 4.074 c 0,0.21 0.028,0.42 0.084,0.574 0.21,0.686 0.84,1.26 1.652,1.26 1.162,0 1.568,-0.91 1.568,-2.002 V 0 h 1.232 v 4.046 c 0,2.324 -1.456,2.884 -2.394,2.884 -1.12,0 -1.904,-0.63 -2.24,-1.274 h -0.028 l -0.07,1.12 h -1.092 c 0.042,-0.56 0.056,-1.134 0.056,-1.834 z m 11.018,8.4 V 6.776 h -1.05 V 5.838 h 1.05 V 2.142 c 0,-0.798 0.126,-1.4 0.476,-1.764 0.294,-0.336 0.755,-0.518 1.33,-0.518 0.476,0 0.854,0.07 1.092,0.168 l -0.056,0.924 c -0.154,-0.042 -0.392,-0.084 -0.714,-0.084 -0.686,0 -0.924,0.476 -0.924,1.316 v 3.654 h 1.764 v 0.938 h -1.764 V 8.722 Z M 328.929,0 h 1.232 v 4.088 c 0,0.238 0.014,0.42 0.084,0.588 0.224,0.672 0.854,1.232 1.652,1.232 1.162,0 1.568,-0.924 1.568,-2.016 V 0 h 1.232 v 4.032 c 0,2.338 -1.456,2.898 -2.366,2.898 -0.462,0 -0.896,-0.14 -1.26,-0.35 -0.378,-0.21 -0.686,-0.518 -0.882,-0.868 h -0.028 V 9.94 h -1.232 z m 13.216,3.164 c 0.014,0.126 0.042,0.322 0.042,0.574 0,1.246 -0.588,3.192 -2.8,3.192 -1.974,0 -3.178,-1.61 -3.178,-3.654 0,-2.044 1.246,-3.416 3.332,-3.416 1.078,0 1.82,0.224 2.254,0.42 l -0.21,0.882 c -0.462,-0.196 -0.994,-0.35 -1.876,-0.35 -1.232,0 -2.296,0.686 -2.324,2.352 z m -4.746,0.882 c 0.098,0.854 0.644,2.002 1.89,2.002 1.386,0 1.722,-1.218 1.708,-2.002 z m 9.282,-6.818 h 1.218 V 0.91 h 0.028 c 0.406,-0.672 1.19,-1.064 2.086,-1.064 1.596,0 3.08,1.204 3.08,3.64 0,2.058 -1.232,3.444 -2.87,3.444 -1.106,0 -1.904,-0.49 -2.408,-1.316 h -0.028 l -0.056,1.162 h -1.106 c 0.028,-0.644 0.056,-1.344 0.056,-2.212 z m 1.218,6.692 c 0,0.168 0.042,0.35 0.084,0.504 0.238,0.924 1.022,1.526 1.862,1.526 1.302,0 2.016,-1.162 2.016,-2.52 0,-1.554 -0.756,-2.618 -2.058,-2.618 -0.882,0 -1.624,0.588 -1.848,1.442 -0.028,0.154 -0.056,0.322 -0.056,0.504 z M 354.646,0 h 1.219 v 3.612 c 0,0.21 0.028,0.406 0.056,0.574 0.167,0.924 0.784,1.582 1.652,1.582 0.168,0 0.294,-0.014 0.42,-0.042 v 1.162 c -0.112,0.028 -0.21,0.042 -0.35,0.042 -0.826,0 -1.568,-0.574 -1.876,-1.484 h -0.056 l -0.042,1.33 h -1.078 c 0.042,-0.63 0.055,-1.316 0.055,-2.114 z m 7.449,6.93 c -1.876,0 -3.36,-1.33 -3.36,-3.598 0,-2.142 1.414,-3.486 3.248,-3.486 1.638,0 3.374,1.092 3.374,3.598 0,2.072 -1.317,3.486 -3.262,3.486 z m -0.029,-0.924 c 1.457,0 2.031,-1.456 2.031,-2.604 0,-1.526 -0.883,-2.632 -2.058,-2.632 -1.204,0 -2.059,1.12 -2.059,2.604 0,1.288 0.631,2.632 2.086,2.632 z m 9.465,3.934 V 5.894 h -0.028 c -0.308,0.546 -1.008,1.036 -2.044,1.036 -1.652,0 -3.052,-1.386 -3.038,-3.64 0,-2.058 1.26,-3.444 2.898,-3.444 1.106,0 1.932,0.574 2.31,1.33 h 0.028 L 371.713,0 h 1.106 c -0.042,0.462 -0.056,1.148 -0.056,1.75 v 8.19 z m 0,-7.098 c 0,-0.196 -0.014,-0.364 -0.056,-0.532 -0.224,-0.924 -0.98,-1.47 -1.806,-1.47 -1.33,0 -2.002,1.134 -2.002,2.506 0,1.498 0.756,2.618 2.03,2.618 0.924,0 1.596,-0.644 1.778,-1.428 0.042,-0.154 0.056,-0.364 0.056,-0.518 z m 8.946,3.934 h -1.232 V 2.618 c 0,-0.224 -0.042,-0.448 -0.112,-0.63 -0.225,-0.546 -0.799,-1.12 -1.625,-1.12 -1.119,0 -1.512,0.868 -1.512,2.156 v 3.752 h -1.231 V 2.814 c 0,-2.38 1.274,-2.968 2.338,-2.968 1.204,0 1.917,0.714 2.239,1.26 h 0.029 L 379.441,0 h 1.091 c -0.041,0.532 -0.055,1.148 -0.055,1.848 z m 6.664,-5.6 c -0.35,-0.154 -0.813,-0.336 -1.512,-0.336 -1.345,0 -2.353,0.966 -2.353,2.534 0,1.414 0.841,2.562 2.395,2.562 0.672,0 1.133,-0.154 1.428,-0.322 l 0.279,0.952 c -0.335,0.168 -0.98,0.35 -1.707,0.35 -2.213,0 -3.64,-1.512 -3.64,-3.598 0,-2.072 1.33,-3.458 3.374,-3.458 0.91,0 1.624,0.224 1.946,0.392 z M 389.072,8.4 V 6.776 h -1.05 V 5.838 h 1.05 V 2.142 c 0,-0.798 0.127,-1.4 0.476,-1.764 0.295,-0.336 0.756,-0.518 1.33,-0.518 0.477,0 0.854,0.07 1.093,0.168 l -0.057,0.924 C 391.76,0.91 391.522,0.868 391.2,0.868 c -0.686,0 -0.923,0.476 -0.923,1.316 v 3.654 h 1.764 v 0.938 h -1.764 v 1.946 z m 4.886,-8.554 c 0.519,0 0.841,0.378 0.841,0.882 0,0.518 -0.337,0.882 -0.826,0.882 -0.49,0 -0.841,-0.364 -0.841,-0.882 0,-0.504 0.337,-0.882 0.826,-0.882"
         style="fill:#231f20;fill-opacity:1;fill-rule:evenodd;stroke:none"
         id="path54"
         inkscape:connector-curvature="0" /></g><g
       id="g56"
       transform="translate(40.914,75.999)"><path
         d="M 0,0 H 1.232 V 8.4 H 4.116 V 9.436 H -2.87 V 8.4 H 0 Z m 5.124,0 h 1.232 v 4.088 c 0,0.238 0.014,0.42 0.084,0.588 0.224,0.672 0.854,1.232 1.652,1.232 1.162,0 1.568,-0.924 1.568,-2.016 V 0 h 1.232 V 4.032 C 10.892,6.37 9.436,6.93 8.526,6.93 8.064,6.93 7.63,6.79 7.266,6.58 6.888,6.37 6.58,6.062 6.384,5.712 H 6.356 V 9.94 H 5.124 Z M 18.34,3.164 c 0.014,0.126 0.042,0.322 0.042,0.574 0,1.246 -0.588,3.192 -2.8,3.192 -1.974,0 -3.178,-1.61 -3.178,-3.654 0,-2.044 1.246,-3.416 3.332,-3.416 1.078,0 1.82,0.224 2.254,0.42 l -0.21,0.882 c -0.462,-0.196 -0.994,-0.35 -1.876,-0.35 -1.232,0 -2.296,0.686 -2.324,2.352 z m -4.746,0.882 c 0.098,0.854 0.644,2.002 1.89,2.002 1.386,0 1.722,-1.218 1.708,-2.002 z m 9.282,-6.818 h 1.218 V 0.91 h 0.028 c 0.406,-0.672 1.19,-1.064 2.086,-1.064 1.596,0 3.08,1.204 3.08,3.64 0,2.058 -1.232,3.444 -2.87,3.444 -1.106,0 -1.904,-0.49 -2.408,-1.316 H 23.982 L 23.926,6.776 H 22.82 c 0.028,-0.644 0.056,-1.344 0.056,-2.212 z m 1.218,6.692 c 0,0.168 0.042,0.35 0.084,0.504 0.238,0.924 1.022,1.526 1.862,1.526 1.302,0 2.016,-1.162 2.016,-2.52 0,-1.554 -0.756,-2.618 -2.058,-2.618 -0.882,0 -1.624,0.588 -1.848,1.442 -0.028,0.154 -0.056,0.322 -0.056,0.504 z M 30.842,0 h 1.2322 V 6.7759 H 30.842 Z m 1.232,0 z m -0.616,9.45 c -0.448,0 -0.77,-0.336 -0.77,-0.77 0,-0.42 0.308,-0.756 0.742,-0.756 0.49,0 0.798,0.336 0.784,0.756 0,0.434 -0.294,0.77 -0.756,0.77 z M 34.118,0 h 1.232 v 4.074 c 0,0.21 0.028,0.42 0.084,0.574 0.21,0.686 0.84,1.26 1.652,1.26 1.162,0 1.568,-0.91 1.568,-2.002 V 0 h 1.232 v 4.046 c 0,2.324 -1.456,2.884 -2.394,2.884 -1.12,0 -1.904,-0.63 -2.24,-1.274 h -0.028 l -0.07,1.12 h -1.092 c 0.042,-0.56 0.056,-1.134 0.056,-1.834 z m 8.988,9.94 H 41.888 V 0 h 1.218 v 2.548 l 0.63,0.7 L 46.074,0 h 1.498 L 44.59,3.99 47.208,6.776 H 45.724 L 43.736,4.438 C 43.54,4.2 43.302,3.906 43.134,3.668 H 43.106 Z M 51.422,0 h 1.2322 V 9.94 H 51.422 Z m 3.304,0 h 1.2322 V 6.7759 H 54.726 Z m 1.232,0 z m -0.616,9.45 c -0.448,0 -0.77,-0.336 -0.77,-0.77 0,-0.42 0.308,-0.756 0.742,-0.756 0.49,0 0.798,0.336 0.784,0.756 0,0.434 -0.294,0.77 -0.756,0.77 z M 58.002,0 h 1.232 v 4.074 c 0,0.21 0.028,0.42 0.084,0.574 0.21,0.686 0.84,1.26 1.652,1.26 1.162,0 1.568,-0.91 1.568,-2.002 V 0 h 1.232 v 4.046 c 0,2.324 -1.456,2.884 -2.394,2.884 -1.12,0 -1.904,-0.63 -2.24,-1.274 h -0.028 l -0.07,1.12 h -1.092 c 0.042,-0.56 0.056,-1.134 0.056,-1.834 z m 13.216,3.164 c 0.014,0.126 0.042,0.322 0.042,0.574 0,1.246 -0.588,3.192 -2.8,3.192 -1.974,0 -3.178,-1.61 -3.178,-3.654 0,-2.044 1.246,-3.416 3.332,-3.416 1.078,0 1.82,0.224 2.254,0.42 l -0.21,0.882 c -0.462,-0.196 -0.994,-0.35 -1.876,-0.35 -1.232,0 -2.296,0.686 -2.324,2.352 z m -4.746,0.882 c 0.098,0.854 0.644,2.002 1.89,2.002 1.386,0 1.722,-1.218 1.708,-2.002 z M 75.754,0 h 1.2322 V 6.7759 H 75.754 Z m 1.232,0 z M 76.37,9.45 c -0.448,0 -0.77,-0.336 -0.77,-0.77 0,-0.42 0.308,-0.756 0.742,-0.756 0.49,0 0.798,0.336 0.784,0.756 0,0.434 -0.294,0.77 -0.756,0.77 z M 79.03,0 h 1.232 v 4.074 c 0,0.21 0.028,0.42 0.084,0.574 0.21,0.686 0.84,1.26 1.652,1.26 1.162,0 1.568,-0.91 1.568,-2.002 V 0 h 1.232 v 4.046 c 0,2.324 -1.456,2.884 -2.394,2.884 -1.12,0 -1.904,-0.63 -2.24,-1.274 h -0.028 l -0.07,1.12 H 78.974 C 79.016,6.216 79.03,5.642 79.03,4.942 Z M 91.42,9.94 V 5.894 H 91.392 C 91.084,6.44 90.384,6.93 89.348,6.93 c -1.652,0 -3.052,-1.386 -3.038,-3.64 0,-2.058 1.26,-3.444 2.898,-3.444 1.106,0 1.932,0.574 2.31,1.33 h 0.028 L 91.602,0 h 1.106 c -0.042,0.462 -0.056,1.148 -0.056,1.75 v 8.19 z m 0,-7.098 C 91.42,2.646 91.406,2.478 91.364,2.31 91.14,1.386 90.384,0.84 89.558,0.84 c -1.33,0 -2.002,1.134 -2.002,2.506 0,1.498 0.756,2.618 2.03,2.618 0.924,0 1.596,-0.644 1.778,-1.428 C 91.406,4.382 91.42,4.172 91.42,4.018 Z M 94.696,0 h 1.2322 V 6.7759 H 94.696 Z m 1.232,0 z m -0.616,9.45 c -0.448,0 -0.77,-0.336 -0.77,-0.77 0,-0.42 0.308,-0.756 0.742,-0.756 0.49,0 0.798,0.336 0.784,0.756 0,0.434 -0.294,0.77 -0.756,0.77 z m 7.28,-8.274 C 102.242,1.022 101.78,0.84 101.08,0.84 c -1.344,0 -2.352,0.966 -2.352,2.534 0,1.414 0.84,2.562 2.394,2.562 0.672,0 1.134,-0.154 1.428,-0.322 l 0.28,0.952 c -0.336,0.168 -0.98,0.35 -1.708,0.35 -2.212,0 -3.64,-1.512 -3.64,-3.598 0,-2.072 1.33,-3.458 3.374,-3.458 0.91,0 1.624,0.224 1.946,0.392 z M 109.116,0 c -0.084,0.462 -0.112,1.036 -0.112,1.624 v 2.534 c 0,1.358 -0.504,2.772 -2.576,2.772 -0.854,0 -1.666,-0.238 -2.226,-0.602 l 0.28,-0.812 c 0.476,0.308 1.134,0.504 1.764,0.504 1.386,0 1.54,-1.008 1.54,-1.568 v -0.14 c -2.618,0.014 -4.074,-0.882 -4.074,-2.52 0,-0.98 0.7,-1.946 2.072,-1.946 0.966,0 1.694,0.476 2.072,1.008 h 0.042 L 107.996,0 Z m -1.302,2.282 c 0,-0.126 -0.028,-0.266 -0.07,-0.392 -0.196,-0.574 -0.756,-1.134 -1.638,-1.134 -0.63,0 -1.162,0.378 -1.162,1.176 0,1.316 1.526,1.554 2.87,1.526 z M 111.271,8.4 V 6.776 h -1.049 V 5.838 h 1.049 V 2.142 c 0,-0.798 0.127,-1.4 0.476,-1.764 0.295,-0.336 0.756,-0.518 1.33,-0.518 0.477,0 0.854,0.07 1.093,0.168 l -0.057,0.924 c -0.153,-0.042 -0.392,-0.084 -0.714,-0.084 -0.686,0 -0.923,0.476 -0.923,1.316 v 3.654 h 1.764 v 0.938 h -1.764 v 1.946 z m 9.801,-5.236 c 0.014,0.126 0.042,0.322 0.042,0.574 0,1.246 -0.588,3.192 -2.8,3.192 -1.974,0 -3.178,-1.61 -3.178,-3.654 0,-2.044 1.245,-3.416 3.331,-3.416 1.079,0 1.821,0.224 2.255,0.42 l -0.21,0.882 c -0.463,-0.196 -0.994,-0.35 -1.876,-0.35 -1.232,0 -2.296,0.686 -2.325,2.352 z m -4.746,0.882 c 0.098,0.854 0.644,2.002 1.889,2.002 1.387,0 1.723,-1.218 1.709,-2.002 z m 5.838,-3.724 c 0.476,-0.28 1.162,-0.462 1.904,-0.462 1.61,0 2.534,0.84 2.534,2.03 0,1.008 -0.602,1.596 -1.778,2.044 -0.882,0.336 -1.288,0.588 -1.288,1.148 0,0.504 0.406,0.924 1.134,0.924 0.63,0 1.12,-0.224 1.386,-0.392 l 0.308,0.896 c -0.378,0.224 -0.98,0.42 -1.666,0.42 -1.456,0 -2.338,-0.896 -2.338,-1.988 0,-0.812 0.574,-1.484 1.792,-1.918 0.91,-0.336 1.26,-0.658 1.26,-1.246 0,-0.56 -0.42,-1.008 -1.316,-1.008 -0.616,0 -1.26,0.252 -1.624,0.49 z M 131.431,8.4 V 6.776 h -1.049 V 5.838 h 1.049 V 2.142 c 0,-0.798 0.127,-1.4 0.476,-1.764 0.295,-0.336 0.756,-0.518 1.33,-0.518 0.477,0 0.854,0.07 1.093,0.168 l -0.057,0.924 c -0.153,-0.042 -0.392,-0.084 -0.714,-0.084 -0.686,0 -0.923,0.476 -0.923,1.316 v 3.654 h 1.764 v 0.938 h -1.764 V 8.722 Z M 135.785,0 h 1.233 v 4.088 c 0,0.238 0.014,0.42 0.084,0.588 0.224,0.672 0.854,1.232 1.652,1.232 1.162,0 1.567,-0.924 1.567,-2.016 V 0 h 1.233 v 4.032 c 0,2.338 -1.456,2.898 -2.366,2.898 -0.462,0 -0.896,-0.14 -1.26,-0.35 -0.379,-0.21 -0.686,-0.518 -0.883,-0.868 h -0.027 V 9.94 h -1.233 z m 13.217,3.164 c 0.014,0.126 0.042,0.322 0.042,0.574 0,1.246 -0.588,3.192 -2.8,3.192 -1.974,0 -3.178,-1.61 -3.178,-3.654 0,-2.044 1.246,-3.416 3.332,-3.416 1.078,0 1.82,0.224 2.254,0.42 l -0.21,0.882 c -0.462,-0.196 -0.994,-0.35 -1.876,-0.35 -1.232,0 -2.296,0.686 -2.324,2.352 z m -4.746,0.882 c 0.098,0.854 0.644,2.002 1.89,2.002 1.386,0 1.722,-1.218 1.708,-2.002 z m 8.806,-3.724 c 0.475,-0.28 1.161,-0.462 1.904,-0.462 1.61,0 2.533,0.84 2.533,2.03 0,1.008 -0.601,1.596 -1.777,2.044 -0.882,0.336 -1.289,0.588 -1.289,1.148 0,0.504 0.407,0.924 1.135,0.924 0.629,0 1.12,-0.224 1.385,-0.392 l 0.309,0.896 c -0.379,0.224 -0.98,0.42 -1.666,0.42 -1.456,0 -2.338,-0.896 -2.338,-1.988 0,-0.812 0.574,-1.484 1.791,-1.918 0.911,-0.336 1.26,-0.658 1.26,-1.246 0,-0.56 -0.419,-1.008 -1.315,-1.008 -0.616,0 -1.26,0.252 -1.624,0.49 z M 159.081,0 h 1.2322 v 6.7759 h -1.2322 z m 1.233,0 z m -0.616,9.45 c -0.448,0 -0.77,-0.336 -0.77,-0.77 0,-0.42 0.308,-0.756 0.742,-0.756 0.489,0 0.798,0.336 0.784,0.756 0,0.434 -0.295,0.77 -0.756,0.77 z M 161.588,0 h 5.502 v 0.98 h -3.962 v 0.028 c 0.307,0.35 0.588,0.686 0.868,1.064 l 3.024,3.934 0.013,0.77 h -5.165 V 5.782 h 3.668 V 5.754 c -0.308,-0.364 -0.589,-0.686 -0.882,-1.05 l -3.066,-3.99 z m 12.208,3.164 c 0.013,0.126 0.041,0.322 0.041,0.574 0,1.246 -0.587,3.192 -2.8,3.192 -1.974,0 -3.178,-1.61 -3.178,-3.654 0,-2.044 1.246,-3.416 3.332,-3.416 1.078,0 1.82,0.224 2.254,0.42 l -0.21,0.882 c -0.462,-0.196 -0.993,-0.35 -1.876,-0.35 -1.231,0 -2.296,0.686 -2.324,2.352 z m -4.747,0.882 c 0.099,0.854 0.645,2.002 1.89,2.002 1.386,0 1.722,-1.218 1.708,-2.002 z m 12.152,2.884 c -1.876,0 -3.36,-1.33 -3.36,-3.598 0,-2.142 1.414,-3.486 3.248,-3.486 1.639,0 3.374,1.092 3.374,3.598 0,2.072 -1.316,3.486 -3.262,3.486 z m -0.028,-0.924 c 1.456,0 2.03,-1.456 2.03,-2.604 0,-1.526 -0.882,-2.632 -2.058,-2.632 -1.204,0 -2.058,1.12 -2.058,2.604 0,1.288 0.63,2.632 2.086,2.632 z M 187.362,0 v 5.838 h 1.637 v 0.938 h -1.637 V 7.14 c 0,1.036 0.265,1.96 1.315,1.96 0.35,0 0.602,-0.07 0.784,-0.154 l 0.169,0.952 c -0.239,0.098 -0.616,0.196 -1.05,0.196 -0.574,0 -1.19,-0.182 -1.652,-0.63 -0.574,-0.546 -0.784,-1.414 -0.784,-2.366 V 6.776 h -0.953 V 5.838 h 0.953 V 0 Z m 5.991,8.4 V 6.776 h -1.05 V 5.838 h 1.05 V 2.142 c 0,-0.798 0.127,-1.4 0.476,-1.764 0.295,-0.336 0.756,-0.518 1.33,-0.518 0.477,0 0.854,0.07 1.093,0.168 l -0.057,0.924 c -0.153,-0.042 -0.392,-0.084 -0.714,-0.084 -0.686,0 -0.923,0.476 -0.923,1.316 v 3.654 h 1.764 v 0.938 h -1.764 V 8.722 Z M 197.707,0 h 1.233 v 4.088 c 0,0.238 0.014,0.42 0.084,0.588 0.224,0.672 0.854,1.232 1.652,1.232 1.162,0 1.567,-0.924 1.567,-2.016 V 0 h 1.233 v 4.032 c 0,2.338 -1.456,2.898 -2.366,2.898 -0.462,0 -0.896,-0.14 -1.26,-0.35 -0.379,-0.21 -0.686,-0.518 -0.883,-0.868 H 198.94 V 9.94 h -1.233 z m 13.217,3.164 c 0.014,0.126 0.042,0.322 0.042,0.574 0,1.246 -0.588,3.192 -2.8,3.192 -1.974,0 -3.178,-1.61 -3.178,-3.654 0,-2.044 1.245,-3.416 3.332,-3.416 1.078,0 1.82,0.224 2.254,0.42 l -0.21,0.882 c -0.462,-0.196 -0.994,-0.35 -1.876,-0.35 -1.232,0 -2.296,0.686 -2.325,2.352 z m -4.746,0.882 c 0.098,0.854 0.644,2.002 1.89,2.002 1.386,0 1.722,-1.218 1.708,-2.002 z M 215.459,0 h 1.218 v 3.612 c 0,0.21 0.029,0.406 0.057,0.574 0.167,0.924 0.784,1.582 1.652,1.582 0.167,0 0.294,-0.014 0.419,-0.042 v 1.162 c -0.112,0.028 -0.209,0.042 -0.349,0.042 -0.826,0 -1.568,-0.574 -1.876,-1.484 h -0.056 l -0.042,1.33 h -1.078 c 0.042,-0.63 0.055,-1.316 0.055,-2.114 z m 10.025,3.164 c 0.013,0.126 0.042,0.322 0.042,0.574 0,1.246 -0.588,3.192 -2.801,3.192 -1.974,0 -3.177,-1.61 -3.177,-3.654 0,-2.044 1.245,-3.416 3.331,-3.416 1.078,0 1.821,0.224 2.254,0.42 l -0.21,0.882 c -0.462,-0.196 -0.993,-0.35 -1.875,-0.35 -1.232,0 -2.297,0.686 -2.325,2.352 z m -4.746,0.882 c 0.098,0.854 0.644,2.002 1.889,2.002 1.387,0 1.722,-1.218 1.709,-2.002 z m 10.934,-6.818 h 1.232 v 7.686 c 0,0.7 0.013,1.288 0.041,1.862 h -1.161 l -0.042,-1.022 h -0.028 c -0.336,0.658 -1.036,1.176 -2.086,1.176 -1.429,0 -3.066,-1.12 -3.066,-3.654 0,-2.058 1.288,-3.43 2.87,-3.43 1.092,0 1.848,0.532 2.212,1.204 h 0.028 z m 0,5.53 c 0,-0.182 -0.042,-0.42 -0.098,-0.588 -0.281,-0.854 -0.966,-1.344 -1.764,-1.344 -1.359,0 -2.003,1.176 -2.003,2.52 0,1.526 0.771,2.604 2.045,2.604 0.924,0 1.582,-0.644 1.763,-1.4 0.042,-0.154 0.057,-0.35 0.057,-0.518 z m 8.932,4.018 h -1.232 V 2.618 c 0,-0.224 -0.042,-0.448 -0.112,-0.63 -0.225,-0.546 -0.799,-1.12 -1.625,-1.12 -1.12,0 -1.512,0.868 -1.512,2.156 v 3.752 h -1.231 V 2.814 c 0,-2.38 1.274,-2.968 2.337,-2.968 1.205,0 1.918,0.714 2.24,1.26 h 0.029 L 239.568,0 h 1.091 c -0.042,0.532 -0.055,1.148 -0.055,1.848 z M 242.647,0 h 1.2323 v 6.7759 h -1.2323 z m 1.233,0 z m -0.616,9.45 c -0.449,0 -0.771,-0.336 -0.771,-0.77 0,-0.42 0.309,-0.756 0.743,-0.756 0.489,0 0.798,0.336 0.784,0.756 0,0.434 -0.295,0.77 -0.756,0.77 z M 245.923,0 h 1.218 v 3.612 c 0,0.21 0.028,0.406 0.057,0.574 0.167,0.924 0.784,1.582 1.652,1.582 0.167,0 0.294,-0.014 0.419,-0.042 v 1.162 c -0.112,0.028 -0.209,0.042 -0.349,0.042 -0.826,0 -1.569,-0.574 -1.876,-1.484 h -0.057 l -0.041,1.33 h -1.078 c 0.041,-0.63 0.055,-1.316 0.055,-2.114 z m 10.025,3.164 c 0.013,0.126 0.042,0.322 0.042,0.574 0,1.246 -0.588,3.192 -2.801,3.192 -1.974,0 -3.177,-1.61 -3.177,-3.654 0,-2.044 1.245,-3.416 3.331,-3.416 1.078,0 1.82,0.224 2.254,0.42 l -0.21,0.882 c -0.462,-0.196 -0.993,-0.35 -1.876,-0.35 -1.231,0 -2.296,0.686 -2.324,2.352 z m -4.747,0.882 c 0.099,0.854 0.645,2.002 1.89,2.002 1.386,0 1.722,-1.218 1.708,-2.002 z M 262.136,9.94 V 5.894 h -0.028 c -0.309,0.546 -1.009,1.036 -2.045,1.036 -1.652,0 -3.052,-1.386 -3.037,-3.64 0,-2.058 1.26,-3.444 2.897,-3.444 1.106,0 1.932,0.574 2.31,1.33 h 0.028 L 262.318,0 h 1.106 c -0.043,0.462 -0.057,1.148 -0.057,1.75 v 8.19 z m 0,-7.098 c 0,-0.196 -0.015,-0.364 -0.057,-0.532 -0.224,-0.924 -0.98,-1.47 -1.806,-1.47 -1.33,0 -2.002,1.134 -2.002,2.506 0,1.498 0.756,2.618 2.031,2.618 0.923,0 1.595,-0.644 1.777,-1.428 0.042,-0.154 0.057,-0.364 0.057,-0.518 z m 11.003,3.934 -0.056,-1.022 h -0.028 c -0.294,0.56 -0.938,1.176 -2.114,1.176 -1.554,0 -3.052,-1.302 -3.052,-3.598 0,-1.876 1.204,-3.304 2.884,-3.304 1.05,0 1.778,0.504 2.156,1.134 h 0.028 V 0.406 c 0,-1.708 -0.924,-2.366 -2.184,-2.366 -0.84,0 -1.54,0.252 -1.988,0.532 l -0.308,-0.938 c 0.546,-0.364 1.442,-0.56 2.254,-0.56 0.854,0 1.806,0.196 2.464,0.812 0.658,0.588 0.966,1.54 0.966,3.094 v 3.934 c 0,0.826 0.028,1.372 0.056,1.862 z m -0.196,-3.892 c 0,-0.21 -0.028,-0.448 -0.098,-0.658 -0.266,-0.784 -0.952,-1.26 -1.708,-1.26 -1.33,0 -2.002,1.106 -2.002,2.436 0,1.568 0.84,2.562 2.016,2.562 0.896,0 1.498,-0.588 1.722,-1.302 0.056,-0.168 0.07,-0.35 0.07,-0.56 z M 276.205,0 h 1.218 v 3.612 c 0,0.21 0.028,0.406 0.056,0.574 0.168,0.924 0.784,1.582 1.652,1.582 0.168,0 0.294,-0.014 0.42,-0.042 v 1.162 c -0.112,0.028 -0.21,0.042 -0.35,0.042 -0.826,0 -1.568,-0.574 -1.876,-1.484 h -0.056 l -0.042,1.33 h -1.078 c 0.042,-0.63 0.056,-1.316 0.056,-2.114 z m 9.45,0 c -0.084,0.462 -0.112,1.036 -0.112,1.624 v 2.534 c 0,1.358 -0.504,2.772 -2.576,2.772 -0.854,0 -1.666,-0.238 -2.226,-0.602 l 0.28,-0.812 c 0.476,0.308 1.134,0.504 1.764,0.504 1.386,0 1.54,-1.008 1.54,-1.568 v -0.14 c -2.618,0.014 -4.074,-0.882 -4.074,-2.52 0,-0.98 0.7,-1.946 2.072,-1.946 0.966,0 1.694,0.476 2.072,1.008 h 0.042 L 284.535,0 Z m -1.302,2.282 c 0,-0.126 -0.028,-0.266 -0.07,-0.392 -0.196,-0.574 -0.756,-1.134 -1.638,-1.134 -0.63,0 -1.162,0.378 -1.162,1.176 0,1.316 1.526,1.554 2.87,1.526 z m 3.178,-5.054 h 1.218 V 0.91 h 0.028 c 0.406,-0.672 1.19,-1.064 2.086,-1.064 1.596,0 3.08,1.204 3.08,3.64 0,2.058 -1.232,3.444 -2.87,3.444 -1.106,0 -1.904,-0.49 -2.408,-1.316 h -0.028 l -0.056,1.162 h -1.106 c 0.028,-0.644 0.056,-1.344 0.056,-2.212 z m 1.218,6.692 c 0,0.168 0.042,0.35 0.084,0.504 0.238,0.924 1.022,1.526 1.862,1.526 1.302,0 2.016,-1.162 2.016,-2.52 0,-1.554 -0.756,-2.618 -2.058,-2.618 -0.882,0 -1.624,0.588 -1.848,1.442 -0.028,0.154 -0.056,0.322 -0.056,0.504 z M 295.497,0 h 1.232 v 4.088 c 0,0.238 0.014,0.42 0.084,0.588 0.224,0.672 0.854,1.232 1.652,1.232 1.162,0 1.568,-0.924 1.568,-2.016 V 0 h 1.232 v 4.032 c 0,2.338 -1.456,2.898 -2.366,2.898 -0.462,0 -0.896,-0.14 -1.26,-0.35 -0.379,-0.21 -0.686,-0.518 -0.883,-0.868 h -0.027 V 9.94 h -1.232 z m 7.77,0 h 1.2322 v 6.7759 h -1.2322 z m 1.232,0 z m -0.616,9.45 c -0.448,0 -0.77,-0.336 -0.77,-0.77 0,-0.42 0.308,-0.756 0.742,-0.756 0.49,0 0.798,0.336 0.784,0.756 0,0.434 -0.294,0.77 -0.756,0.77 z m 7.28,-8.274 c -0.35,-0.154 -0.812,-0.336 -1.512,-0.336 -1.344,0 -2.352,0.966 -2.352,2.534 0,1.414 0.84,2.562 2.394,2.562 0.672,0 1.134,-0.154 1.428,-0.322 l 0.28,0.952 c -0.336,0.168 -0.98,0.35 -1.708,0.35 -2.213,0 -3.64,-1.512 -3.64,-3.598 0,-2.072 1.33,-3.458 3.374,-3.458 0.91,0 1.624,0.224 1.946,0.392 z m 1.176,-0.854 c 0.475,-0.28 1.161,-0.462 1.904,-0.462 1.61,0 2.533,0.84 2.533,2.03 0,1.008 -0.601,1.596 -1.777,2.044 -0.882,0.336 -1.288,0.588 -1.288,1.148 0,0.504 0.406,0.924 1.134,0.924 0.63,0 1.12,-0.224 1.386,-0.392 l 0.308,0.896 c -0.379,0.224 -0.98,0.42 -1.666,0.42 -1.456,0 -2.338,-0.896 -2.338,-1.988 0,-0.812 0.574,-1.484 1.791,-1.918 0.911,-0.336 1.26,-0.658 1.26,-1.246 0,-0.56 -0.419,-1.008 -1.315,-1.008 -0.616,0 -1.26,0.252 -1.624,0.49 z M 321.326,0 h 1.2322 v 6.7759 h -1.2322 z m 1.233,0 z m -0.616,9.45 c -0.449,0 -0.771,-0.336 -0.771,-0.77 0,-0.42 0.309,-0.756 0.743,-0.756 0.489,0 0.798,0.336 0.784,0.756 0,0.434 -0.295,0.77 -0.756,0.77 z M 324.602,0 h 1.233 v 4.074 c 0,0.21 0.027,0.42 0.083,0.574 0.211,0.686 0.84,1.26 1.653,1.26 1.161,0 1.567,-0.91 1.567,-2.002 V 0 h 1.233 v 4.046 c 0,2.324 -1.457,2.884 -2.395,2.884 -1.12,0 -1.904,-0.63 -2.239,-1.274 h -0.029 l -0.07,1.12 h -1.091 c 0.041,-0.56 0.055,-1.134 0.055,-1.834 z m 12.391,1.176 C 336.642,1.022 336.18,0.84 335.481,0.84 c -1.345,0 -2.353,0.966 -2.353,2.534 0,1.414 0.841,2.562 2.395,2.562 0.672,0 1.133,-0.154 1.428,-0.322 l 0.279,0.952 c -0.335,0.168 -0.98,0.35 -1.707,0.35 -2.213,0 -3.64,-1.512 -3.64,-3.598 0,-2.072 1.33,-3.458 3.374,-3.458 0.91,0 1.624,0.224 1.946,0.392 z M 338.644,0 h 1.2323 v 9.94 h -1.2323 z m 8.975,6.776 h -1.232 V 2.618 c 0,-0.224 -0.042,-0.448 -0.112,-0.63 -0.225,-0.546 -0.799,-1.12 -1.625,-1.12 -1.12,0 -1.512,0.868 -1.512,2.156 v 3.752 h -1.232 V 2.814 c 0,-2.38 1.275,-2.968 2.338,-2.968 1.205,0 1.918,0.714 2.24,1.26 h 0.028 L 346.582,0 h 1.092 c -0.042,0.532 -0.055,1.148 -0.055,1.848 z m 6.664,3.164 V 5.894 h -0.029 c -0.308,0.546 -1.008,1.036 -2.044,1.036 -1.652,0 -3.052,-1.386 -3.037,-3.64 0,-2.058 1.26,-3.444 2.897,-3.444 1.106,0 1.932,0.574 2.31,1.33 h 0.028 L 354.465,0 h 1.106 c -0.043,0.462 -0.057,1.148 -0.057,1.75 v 8.19 z m 0,-7.098 c 0,-0.196 -0.015,-0.364 -0.057,-0.532 -0.224,-0.924 -0.98,-1.47 -1.806,-1.47 -1.33,0 -2.002,1.134 -2.002,2.506 0,1.498 0.756,2.618 2.03,2.618 0.924,0 1.596,-0.644 1.778,-1.428 0.042,-0.154 0.057,-0.364 0.057,-0.518 z M 357.558,0 h 1.2322 v 6.7759 h -1.2322 z m 1.232,0 z m -0.616,9.45 c -0.448,0 -0.77,-0.336 -0.77,-0.77 0,-0.42 0.308,-0.756 0.742,-0.756 0.49,0 0.798,0.336 0.784,0.756 0,0.434 -0.294,0.77 -0.756,0.77 z M 360.834,0 h 1.232 v 4.074 c 0,0.21 0.028,0.42 0.084,0.574 0.21,0.686 0.84,1.26 1.652,1.26 1.162,0 1.568,-0.91 1.568,-2.002 V 0 h 1.232 v 4.046 c 0,2.324 -1.456,2.884 -2.394,2.884 -1.12,0 -1.904,-0.63 -2.24,-1.274 h -0.028 l -0.07,1.12 h -1.092 c 0.042,-0.56 0.056,-1.134 0.056,-1.834 z m 12.531,6.776 -0.057,-1.022 h -0.028 c -0.294,0.56 -0.938,1.176 -2.113,1.176 -1.555,0 -3.053,-1.302 -3.053,-3.598 0,-1.876 1.204,-3.304 2.884,-3.304 1.05,0 1.778,0.504 2.156,1.134 h 0.029 V 0.406 c 0,-1.708 -0.925,-2.366 -2.185,-2.366 -0.839,0 -1.54,0.252 -1.988,0.532 l -0.308,-0.938 c 0.546,-0.364 1.442,-0.56 2.254,-0.56 0.854,0 1.806,0.196 2.464,0.812 0.658,0.588 0.966,1.54 0.966,3.094 v 3.934 c 0,0.826 0.028,1.372 0.057,1.862 z m -0.197,-3.892 c 0,-0.21 -0.028,-0.448 -0.098,-0.658 -0.266,-0.784 -0.952,-1.26 -1.708,-1.26 -1.33,0 -2.002,1.106 -2.002,2.436 0,1.568 0.84,2.562 2.016,2.562 0.896,0 1.498,-0.588 1.722,-1.302 0.056,-0.168 0.07,-0.35 0.07,-0.56 z M 380.406,0 l 0.056,1.12 h 0.042 c 0.504,-0.896 1.288,-1.274 2.268,-1.274 1.512,0 3.038,1.204 3.038,3.626 0.014,2.058 -1.176,3.458 -2.856,3.458 -1.092,0 -1.876,-0.49 -2.31,-1.246 h -0.028 V 9.94 h -1.218 V 1.75 c 0,-0.602 -0.028,-1.288 -0.056,-1.75 z m 0.21,3.934 c 0,0.196 0.042,0.364 0.07,0.504 0.252,0.938 1.036,1.512 1.876,1.512 1.316,0 2.016,-1.162 2.016,-2.52 0,-1.554 -0.77,-2.604 -2.058,-2.604 -0.896,0 -1.61,0.588 -1.848,1.442 -0.028,0.14 -0.056,0.294 -0.056,0.448 z M 387.364,0 h 1.2322 v 9.94 h -1.2322 z m 8.75,3.164 c 0.014,0.126 0.042,0.322 0.042,0.574 0,1.246 -0.588,3.192 -2.8,3.192 -1.974,0 -3.178,-1.61 -3.178,-3.654 0,-2.044 1.246,-3.416 3.332,-3.416 1.078,0 1.82,0.224 2.254,0.42 l -0.21,0.882 c -0.462,-0.196 -0.994,-0.35 -1.876,-0.35 -1.232,0 -2.296,0.686 -2.324,2.352 z m -4.746,0.882 c 0.098,0.854 0.644,2.002 1.89,2.002 1.386,0 1.722,-1.218 1.708,-2.002 z m 11.76,-0.882 c 0.014,0.126 0.042,0.322 0.042,0.574 0,1.246 -0.588,3.192 -2.8,3.192 -1.974,0 -3.178,-1.61 -3.178,-3.654 0,-2.044 1.246,-3.416 3.332,-3.416 1.078,0 1.82,0.224 2.254,0.42 l -0.21,0.882 c -0.462,-0.196 -0.994,-0.35 -1.876,-0.35 -1.232,0 -2.296,0.686 -2.324,2.352 z m -4.746,0.882 c 0.098,0.854 0.644,2.002 1.89,2.002 1.386,0 1.722,-1.218 1.708,-2.002 z M 409.316,9.94 V 5.894 h -0.028 c -0.308,0.546 -1.008,1.036 -2.044,1.036 -1.652,0 -3.052,-1.386 -3.038,-3.64 0,-2.058 1.26,-3.444 2.898,-3.444 1.106,0 1.932,0.574 2.31,1.33 h 0.028 L 409.498,0 h 1.106 c -0.042,0.462 -0.056,1.148 -0.056,1.75 v 8.19 z m 0,-7.098 c 0,-0.196 -0.014,-0.364 -0.056,-0.532 -0.224,-0.924 -0.98,-1.47 -1.806,-1.47 -1.33,0 -2.002,1.134 -2.002,2.506 0,1.498 0.756,2.618 2.03,2.618 0.924,0 1.596,-0.644 1.778,-1.428 0.042,-0.154 0.056,-0.364 0.056,-0.518 z m 3.808,-2.996 c 0.518,0 0.84,0.378 0.84,0.882 0,0.518 -0.336,0.882 -0.826,0.882 -0.49,0 -0.84,-0.364 -0.84,-0.882 0,-0.504 0.336,-0.882 0.826,-0.882"
         style="fill:#231f20;fill-opacity:1;fill-rule:evenodd;stroke:none"
         id="path58"
         inkscape:connector-curvature="0" /></g><g
       id="g60"
       transform="translate(39.964,265.994)"><path
         d="M 0,0 H 108.834"
         style="fill:none;stroke:#00a650;stroke-width:0.5;stroke-linecap:butt;stroke-linejoin:miter;stroke-miterlimit:22.9260006;stroke-dasharray:none;stroke-opacity:1"
         id="path62"
         inkscape:connector-curvature="0" /></g><text
       transform="matrix(1,0,0,-1,153.2421,262.5443)"
       style="font-variant:normal;font-weight:normal;font-size:13.99979973px;font-family:ArialMT;-inkscape-font-specification:ArialMT;writing-mode:lr-tb;fill:#231f20;fill-opacity:1;fill-rule:nonzero;stroke:none"
       id="text66"><tspan
         x="0 7.7838888 15.567778 23.351665 27.24361 34.243511 37.351467 45.135357 52.919243 56.811188 64.595078 72.378967 75.486923 83.270813 90.270714"
         y="0"
         sodipodi:role="line"
         id="tspan64">one side object</tspan></text>
<rect
       style="fill:#000000;fill-opacity:1;stroke-width:3894.73291016;stroke-miterlimit:4;stroke-dasharray:none"
       id="rect4508"
       width="538.58203"
       height="307.92487"
       x="28.316006"
       y="-720.54785"
       transform="scale(1,-1)" /><g
       id="g4530"
       transform="matrix(3.0522751,0,0,-3.0522751,595.44715,710.81577)"><g
         inkscape:export-ydpi="96"
         inkscape:export-xdpi="96"
         id="text83"
         style="font-style:normal;font-weight:normal;font-size:8.65023804px;line-height:1.25;font-family:sans-serif;letter-spacing:0px;word-spacing:0px;fill:#ffffff;fill-opacity:1;stroke:none;stroke-width:0.21625593"
         aria-label="libelektra.org"
         transform="matrix(1.1338773,0,0,1.0108216,-325.77981,-193.39278)"><path
           id="path21"
           style="font-style:normal;font-variant:normal;font-weight:normal;font-stretch:normal;font-family:Play;-inkscape-font-specification:Play;fill:#ffffff;fill-opacity:1;stroke-width:0.21625593"
           d="m 175.00001,255.44428 h 0.77852 v 6.05517 h -0.77852 z"
           inkscape:connector-curvature="0" /><path
           id="path23"
           style="font-style:normal;font-variant:normal;font-weight:normal;font-stretch:normal;font-family:Play;-inkscape-font-specification:Play;fill:#ffffff;fill-opacity:1;stroke-width:0.21625593"
           d="m 177.12877,255.79894 h 0.77853 v 0.81313 h -0.77853 z m 0,1.5138 h 0.77853 v 4.18671 h -0.77853 z"
           inkscape:connector-curvature="0" /><path
           id="path25"
           style="font-style:normal;font-variant:normal;font-weight:normal;font-stretch:normal;font-family:Play;-inkscape-font-specification:Play;fill:#ffffff;fill-opacity:1;stroke-width:0.21625593"
           d="m 181.126,261.58595 q -0.46712,0 -0.75258,-0.0519 -0.2768,-0.0433 -0.55361,-0.173 -0.56227,-0.26816 -0.56227,-1.22834 v -4.68843 h 0.77853 v 1.25429 0.49306 q -0.009,0.22491 -0.009,0.50172 0.0433,-0.19896 0.36331,-0.33736 0.3287,-0.12976 0.95152,-0.12976 1.73005,0 1.73005,1.18509 v 1.72139 q 0,0.37196 -0.11245,0.64877 -0.10381,0.27681 -0.27681,0.43251 -0.15571,0.14706 -0.43251,0.23356 -0.26816,0.0865 -0.53632,0.11245 -0.2422,0.026 -0.58821,0.026 z m 0.0173,-0.51036 q 0.44981,0 0.68336,-0.0605 0.24221,-0.0692 0.34601,-0.24221 0.10381,-0.173 0.10381,-0.52766 v -1.64355 q 0,-0.35466 -0.10381,-0.52766 -0.1038,-0.18166 -0.34601,-0.23356 -0.23355,-0.0605 -0.69201,-0.0605 -0.42387,0 -0.65742,0.0692 -0.23356,0.0692 -0.33736,0.25086 -0.1038,0.173 -0.1038,0.50171 v 1.64355 q 0,0.35466 0.0952,0.52766 0.1038,0.17301 0.33736,0.24221 0.23355,0.0605 0.67472,0.0605 z"
           inkscape:connector-curvature="0" /><path
           id="path27"
           style="font-style:normal;font-variant:normal;font-weight:normal;font-stretch:normal;font-family:Play;-inkscape-font-specification:Play;fill:#ffffff;fill-opacity:1;stroke-width:0.21625593"
           d="m 186.02311,261.58595 q -1.92035,0 -1.92035,-1.28023 v -1.6522 q 0,-0.76122 0.43251,-1.08993 0.44116,-0.33736 1.41864,-0.33736 0.92557,0 1.33214,0.32006 0.41521,0.32006 0.41521,1.10723 v 0.92558 h -2.81133 v 0.63147 q 0,0.43251 0.30276,0.62281 0.30276,0.19031 0.93422,0.19031 0.59687,0 1.40999,-0.20761 v 0.59687 q -0.79582,0.173 -1.51379,0.173 z m 0.89963,-2.51722 v -0.65741 q 0,-0.38061 -0.23356,-0.51902 -0.22491,-0.14705 -0.77852,-0.14705 -0.53632,0 -0.77852,0.14705 -0.24221,0.13841 -0.24221,0.51902 v 0.65741 z"
           inkscape:connector-curvature="0" /><path
           id="path29"
           style="font-style:normal;font-variant:normal;font-weight:normal;font-stretch:normal;font-family:Play;-inkscape-font-specification:Play;fill:#ffffff;fill-opacity:1;stroke-width:0.21625593"
           d="m 188.88769,255.44428 h 0.77852 v 6.05517 h -0.77852 z"
           inkscape:connector-curvature="0" /><path
           id="path31"
           style="font-style:normal;font-variant:normal;font-weight:normal;font-stretch:normal;font-family:Play;-inkscape-font-specification:Play;fill:#ffffff;fill-opacity:1;stroke-width:0.21625593"
           d="m 192.78111,261.58595 q -1.92035,0 -1.92035,-1.28023 v -1.6522 q 0,-0.76122 0.43251,-1.08993 0.44116,-0.33736 1.41864,-0.33736 0.92557,0 1.33214,0.32006 0.41521,0.32006 0.41521,1.10723 v 0.92558 h -2.81133 v 0.63147 q 0,0.43251 0.30276,0.62281 0.30276,0.19031 0.93422,0.19031 0.59687,0 1.40999,-0.20761 v 0.59687 q -0.79582,0.173 -1.51379,0.173 z m 0.89963,-2.51722 v -0.65741 q 0,-0.38061 -0.23356,-0.51902 -0.22491,-0.14705 -0.77852,-0.14705 -0.53632,0 -0.77852,0.14705 -0.24221,0.13841 -0.24221,0.51902 v 0.65741 z"
           inkscape:connector-curvature="0" /><path
           id="path33"
           style="font-style:normal;font-variant:normal;font-weight:normal;font-stretch:normal;font-family:Play;-inkscape-font-specification:Play;fill:#ffffff;fill-opacity:1;stroke-width:0.21625593"
           d="m 195.64569,255.44428 h 0.77852 v 6.05517 h -0.77852 z m 0.87367,3.76286 1.76465,-1.8944 h 0.95153 l -1.81655,1.8944 1.9809,2.29231 h -0.96882 z"
           inkscape:connector-curvature="0" /><path
           id="path35"
           style="font-style:normal;font-variant:normal;font-weight:normal;font-stretch:normal;font-family:Play;-inkscape-font-specification:Play;fill:#ffffff;fill-opacity:1;stroke-width:0.21625593"
           d="m 201.84507,261.58595 q -0.53631,0 -0.83907,-0.11245 -0.30276,-0.1211 -0.44116,-0.39791 -0.12976,-0.28546 -0.12976,-0.79582 v -2.45667 h -0.93422 v -0.51036 h 0.93422 v -1.29754 h 0.78718 v 1.29754 h 1.49649 v 0.51036 h -1.49649 v 2.49992 q 0,0.31141 0.0692,0.46711 0.0779,0.15571 0.25951,0.22491 0.1903,0.0605 0.54496,0.0605 0.11245,0 0.62282,-0.0692 v 0.51036 q -0.44116,0.0692 -0.87368,0.0692 z"
           inkscape:connector-curvature="0" /><path
           id="path37"
           style="font-style:normal;font-variant:normal;font-weight:normal;font-stretch:normal;font-family:Play;-inkscape-font-specification:Play;fill:#ffffff;fill-opacity:1;stroke-width:0.21625593"
           d="m 203.56944,257.31274 h 0.73527 v 0.68336 q 0,-0.19895 0.17301,-0.37196 0.173,-0.18165 0.44116,-0.28545 0.26816,-0.11246 0.52767,-0.11246 h 0.38061 v 0.66607 h -0.43252 q -0.55361,0 -0.80447,0.14706 -0.2422,0.1384 -0.2422,0.51036 v 2.94973 h -0.77853 z"
           inkscape:connector-curvature="0" /><path
           id="path39"
           style="font-style:normal;font-variant:normal;font-weight:normal;font-stretch:normal;font-family:Play;-inkscape-font-specification:Play;fill:#ffffff;fill-opacity:1;stroke-width:0.21625593"
           d="m 207.89943,261.58595 q -0.59687,0 -0.92558,-0.11245 -0.32005,-0.11245 -0.46711,-0.39791 -0.1384,-0.28546 -0.1384,-0.82177 0,-0.47577 0.12975,-0.73527 0.1384,-0.26816 0.45846,-0.38061 0.32871,-0.11246 0.92558,-0.11246 h 1.25428 v -0.66607 q 0,-0.23355 -0.0952,-0.35466 -0.0865,-0.12975 -0.30276,-0.18165 -0.2076,-0.0519 -0.61416,-0.0519 -0.64877,0 -1.43594,0.1038 v -0.57091 q 0.85637,-0.0779 1.54839,-0.0779 0.72662,0 1.07263,0.11246 0.34601,0.1038 0.47576,0.37196 0.12975,0.26815 0.12975,0.83042 v 2.95838 h -0.75257 v -0.39791 q -0.0952,0.48441 -1.26293,0.48441 z m 0.12975,-0.51036 q 0.42386,0 0.71797,-0.0605 0.38926,-0.0779 0.38926,-0.36331 v -1.14183 h -1.20238 q -0.37196,0 -0.53631,0.0605 -0.16436,0.0519 -0.21626,0.2076 -0.0519,0.15571 -0.0519,0.50172 0,0.31141 0.0606,0.48441 0.0606,0.16435 0.21626,0.24221 0.1557,0.0692 0.46711,0.0692 z"
           inkscape:connector-curvature="0" /><path
           id="path41"
           style="font-style:normal;font-variant:normal;font-weight:normal;font-stretch:normal;font-family:Play;-inkscape-font-specification:Play;fill:#ffffff;fill-opacity:1;stroke-width:0.21625593"
           d="m 211.18746,260.56522 h 1.00343 v 0.93423 h -1.00343 z"
           inkscape:connector-curvature="0" /><path
           id="path44"
           style="font-style:normal;font-variant:normal;font-weight:normal;font-stretch:normal;font-family:Play;-inkscape-font-specification:Play;fill:#ffffff;fill-opacity:1;stroke-width:0.21625593"
           d="m 215.24321,261.58595 q -0.55362,0 -0.83042,-0.0433 -0.27681,-0.0346 -0.55362,-0.16435 -0.28546,-0.12976 -0.41521,-0.41521 -0.12975,-0.29411 -0.12975,-0.78718 v -1.45324 q 0,-0.38926 0.0951,-0.68336 0.0952,-0.29411 0.25086,-0.45847 0.12975,-0.14705 0.38926,-0.2249 0.26815,-0.0865 0.54496,-0.11246 0.31141,-0.0173 0.64877,-0.0173 0.44981,0 0.67472,0.026 0.23356,0.0173 0.49306,0.0865 0.26816,0.0779 0.41521,0.23355 0.14706,0.15571 0.25086,0.44981 0.0952,0.30276 0.0952,0.70067 v 1.45324 q 0,0.73527 -0.33736,1.07263 -0.1384,0.13841 -0.39791,0.21626 -0.2595,0.0779 -0.53631,0.1038 -0.32871,0.0173 -0.65742,0.0173 z m 0,-0.51036 q 0.36331,0 0.52766,-0.0173 0.16436,-0.0173 0.32006,-0.0951 0.15571,-0.0692 0.21626,-0.22491 0.0692,-0.16435 0.0692,-0.44981 v -1.69545 q 0,-0.38926 -0.0951,-0.56226 -0.0951,-0.18166 -0.32871,-0.23356 -0.22491,-0.0605 -0.70932,-0.0605 -0.48441,0 -0.71797,0.0605 -0.22491,0.0519 -0.32006,0.23356 -0.0952,0.173 -0.0952,0.56226 v 1.69545 q 0,0.28546 0.0606,0.44981 0.0692,0.1557 0.22491,0.22491 0.1557,0.0779 0.32006,0.0951 0.16435,0.0173 0.52766,0.0173 z"
           inkscape:connector-curvature="0" /><path
           id="path46-8"
           style="font-style:normal;font-variant:normal;font-weight:normal;font-stretch:normal;font-family:Play;-inkscape-font-specification:Play;fill:#ffffff;fill-opacity:1;stroke-width:0.21625593"
           d="m 218.38635,257.31274 h 0.73527 v 0.68336 q 0,-0.19895 0.17301,-0.37196 0.173,-0.18165 0.44116,-0.28545 0.26816,-0.11246 0.52767,-0.11246 h 0.38061 v 0.66607 h -0.43252 q -0.55361,0 -0.80447,0.14706 -0.2422,0.1384 -0.2422,0.51036 v 2.94973 h -0.77853 z"
           inkscape:connector-curvature="0" /><path
           id="path48"
           style="font-style:normal;font-variant:normal;font-weight:normal;font-stretch:normal;font-family:Play;-inkscape-font-specification:Play;fill:#ffffff;fill-opacity:1;stroke-width:0.21625593"
           d="m 223.01045,263.4025 q -0.85638,0 -1.44459,-0.0951 v -0.55361 q 1.03803,0.1211 1.51379,0.1211 0.59687,0 0.86502,-0.19031 0.27681,-0.1903 0.27681,-0.63146 v -1.00343 q -0.0173,0.27681 -0.38061,0.40656 -0.35466,0.12975 -0.89962,0.12975 -0.64877,0 -1.01208,-0.1211 -0.35466,-0.1211 -0.51037,-0.39791 -0.14705,-0.27681 -0.14705,-0.75257 v -1.7041 q 0,-0.74392 0.39791,-1.06398 0.40656,-0.32006 1.32349,-0.32006 1.08993,0 1.28023,0.49307 v -0.40656 H 225 v 4.58462 q 0,0.57957 -0.21625,0.90828 -0.21626,0.32871 -0.64877,0.45846 -0.43251,0.1384 -1.12453,0.1384 z m 0.0952,-2.33556 q 0.61417,0 0.86502,-0.14706 0.25086,-0.14705 0.25086,-0.55361 v -1.8944 q 0,-0.28546 -0.0952,-0.43251 -0.0865,-0.14706 -0.32871,-0.20761 -0.24221,-0.0692 -0.70932,-0.0692 -0.44116,0 -0.66607,0.0606 -0.21625,0.0605 -0.30276,0.21626 -0.0779,0.14705 -0.0779,0.43251 v 1.8944 q 0,0.29411 0.0865,0.44116 0.0865,0.14706 0.31141,0.20761 0.22491,0.0519 0.66607,0.0519 z"
           inkscape:connector-curvature="0" /></g><path
         id="path43"
         d="m -116.35737,35.505446 a 16.564791,16.368705 0 0 1 18.7788,-11.23319 16.564791,16.368705 0 1 0 -11.76466,30.53735 17.091937,16.889611 0 0 0 1.96284,0.478 16.561692,16.365641 0 0 1 -8.97698,-19.78216 z"
         class="cls-1"
         inkscape:connector-curvature="0"
         style="fill:#2f418f;stroke-width:0.30824515"
         inkscape:export-xdpi="96"
         inkscape:export-ydpi="96" /><path
         id="path45"
         d="m -94.14592,50.957966 a 16.567892,16.37177 0 0 1 -19.22533,-10.45488 16.564791,16.368705 0 1 0 32.64275,-5.20906 17.088838,16.886547 0 0 0 -0.56126,-1.91817 16.570993,16.374834 0 0 1 -12.85616,17.58211 z"
         class="cls-2"
         inkscape:connector-curvature="0"
         style="fill:#409030;stroke-width:0.30824515"
         inkscape:export-xdpi="96"
         inkscape:export-ydpi="96" /><path
         id="path47"
         d="m -91.82337,24.593996 a 16.567892,16.37177 0 0 1 0.45273,21.68807 16.388042,16.194049 0 0 0 1.56593,-1.26243 16.564791,16.368705 0 1 0 -23.85803,-22.62263 16.567892,16.37177 0 0 1 21.83937,2.19699 z"
         class="cls-3"
         inkscape:connector-curvature="0"
         style="fill:#dfa809;stroke-width:0.30824515"
         inkscape:export-xdpi="96"
         inkscape:export-ydpi="96" /></g></g></svg>