<?xml version="1.0" encoding="UTF-8" standalone="no"?>
<!-- Created with Inkscape (http://www.inkscape.org/) -->

<svg
   xmlns:dc="http://purl.org/dc/elements/1.1/"
   xmlns:cc="http://creativecommons.org/ns#"
   xmlns:rdf="http://www.w3.org/1999/02/22-rdf-syntax-ns#"
   xmlns:svg="http://www.w3.org/2000/svg"
   xmlns="http://www.w3.org/2000/svg"
   xmlns:sodipodi="http://sodipodi.sourceforge.net/DTD/sodipodi-0.dtd"
   xmlns:inkscape="http://www.inkscape.org/namespaces/inkscape"
   version="1.1"
   id="svg2"
   xml:space="preserve"
   width="793.62665"
   height="1122.6667"
   viewBox="0 0 793.62665 1122.6667"
   sodipodi:docname="sizes.svg"
   inkscape:version="0.92.1 r15371"><metadata
     id="metadata8"><rdf:RDF><cc:Work
         rdf:about=""><dc:format>image/svg+xml</dc:format><dc:type
           rdf:resource="http://purl.org/dc/dcmitype/StillImage" /><dc:title></dc:title></cc:Work></rdf:RDF></metadata><defs
     id="defs6" /><sodipodi:namedview
     pagecolor="#ffffff"
     bordercolor="#666666"
     borderopacity="1"
     objecttolerance="10"
     gridtolerance="10"
     guidetolerance="10"
     inkscape:pageopacity="0"
     inkscape:pageshadow="2"
     inkscape:window-width="1920"
     inkscape:window-height="1171"
     id="namedview4"
     showgrid="false"
     inkscape:zoom="1.1891486"
     inkscape:cx="291.95834"
     inkscape:cy="640.94323"
     inkscape:window-x="0"
     inkscape:window-y="0"
     inkscape:window-maximized="1"
     inkscape:current-layer="g12" /><g
     id="g10"
     inkscape:groupmode="layer"
     inkscape:label="sizes"
     transform="matrix(1.3333333,0,0,-1.3333333,0,1122.6667)"><g
       id="g12"><g
         id="g14"
         transform="translate(0,842.00006)"><path
           d="M 28.316,-137.41 H 566.898 V -415.203 H 28.316 Z"
           style="fill:none;stroke:#231f20;stroke-width:0.21600001;stroke-linecap:butt;stroke-linejoin:miter;stroke-miterlimit:22.9260006;stroke-dasharray:none;stroke-opacity:1"
           id="path16"
           inkscape:connector-curvature="0" /></g><g
         id="g18"
         transform="translate(0,842.00006)"><path
           d="M 297.605,-79.141 V -474.027"
           style="fill:none;stroke:#2e3092;stroke-width:2.83500004;stroke-linecap:butt;stroke-linejoin:miter;stroke-miterlimit:22.9260006;stroke-dasharray:2.8347, 14.173;stroke-dashoffset:0;stroke-opacity:1"
           id="path20"
           inkscape:connector-curvature="0" /></g><g
         id="g22"
         transform="translate(0,842.00006)"><path
           d="M 396.691,-151.582 H 566.769 V -401.031 H 396.691 Z"
           style="fill:none;stroke:#00a650;stroke-width:0.21600001;stroke-linecap:butt;stroke-linejoin:miter;stroke-miterlimit:22.9260006;stroke-dasharray:none;stroke-opacity:1"
           id="path24"
           inkscape:connector-curvature="0" /></g><g
         id="g26"
         transform="translate(0,842.00006)"><path
           d="M 28.316,-123.234 H 566.898 V -429.379 H 28.316 Z"
           style="fill:none;stroke:#ec008c;stroke-width:0.21600001;stroke-linecap:butt;stroke-linejoin:miter;stroke-miterlimit:22.9260006;stroke-dasharray:none;stroke-opacity:1"
           id="path28"
           inkscape:connector-curvature="0" /></g><g
         id="g30"
         transform="translate(0,842.00006)"><path
           d="M 113.34,-73.094 V -467.98 M 481.73,-73.094 V -467.98"
           style="fill:none;stroke:#2e3092;stroke-width:2.83500004;stroke-linecap:butt;stroke-linejoin:miter;stroke-miterlimit:22.9260006;stroke-dasharray:2.8347, 14.173;stroke-dashoffset:0;stroke-opacity:1"
           id="path32"
           inkscape:connector-curvature="0" /></g><g
         id="g34"
         transform="translate(0,842.00006)"><path
           d="M 28.301,-151.582 H 198.379 V -401.031 H 28.301 Z"
           style="fill:none;stroke:#00a650;stroke-width:0.21600001;stroke-linecap:butt;stroke-linejoin:miter;stroke-miterlimit:22.9260006;stroke-dasharray:none;stroke-opacity:1"
           id="path36"
           inkscape:connector-curvature="0" /></g><g
         id="g38"
         transform="translate(0,842.00006)"><path
           d="M 39.965,-638.105 H 148.797"
           style="fill:none;stroke:#231f20;stroke-width:0.5;stroke-linecap:butt;stroke-linejoin:miter;stroke-miterlimit:22.9260006;stroke-dasharray:none;stroke-opacity:1"
           id="path40"
           inkscape:connector-curvature="0" /></g><path
         d="m 161.145,203.613 c 0.015,0.125 0.043,0.321 0.043,0.575 0,1.246 -0.586,3.191 -2.801,3.191 -1.973,0 -3.176,-1.609 -3.176,-3.656 0,-2.043 1.246,-3.414 3.332,-3.414 1.078,0 1.82,0.222 2.254,0.418 l -0.211,0.882 c -0.461,-0.195 -0.992,-0.347 -1.875,-0.347 -1.234,0 -2.297,0.683 -2.324,2.351 z m -4.747,0.879 c 0.098,0.856 0.645,2.004 1.891,2.004 1.387,0 1.723,-1.219 1.707,-2.004 z m 10.938,5.895 v -4.043 h -0.031 c -0.309,0.543 -1.008,1.035 -2.043,1.035 -1.653,0 -3.051,-1.387 -3.039,-3.641 0,-2.058 1.261,-3.445 2.898,-3.445 1.106,0 1.934,0.574 2.313,1.332 h 0.027 l 0.055,-1.176 h 1.105 c -0.043,0.461 -0.055,1.149 -0.055,1.75 v 8.188 z m 0,-7.098 c 0,-0.195 -0.016,-0.363 -0.059,-0.531 -0.222,-0.926 -0.98,-1.469 -1.804,-1.469 -1.332,0 -2.004,1.133 -2.004,2.504 0,1.5 0.758,2.617 2.031,2.617 0.926,0 1.598,-0.64 1.777,-1.426 0.043,-0.156 0.059,-0.363 0.059,-0.519 z m 8.035,3.934 -0.059,-1.02 h -0.027 c -0.293,0.559 -0.937,1.176 -2.113,1.176 -1.555,0 -3.051,-1.305 -3.051,-3.598 0,-1.879 1.203,-3.304 2.883,-3.304 1.051,0 1.777,0.504 2.156,1.132 h 0.028 v -0.753 c 0,-1.711 -0.922,-2.368 -2.184,-2.368 -0.84,0 -1.539,0.25 -1.988,0.532 l -0.309,-0.938 c 0.547,-0.363 1.441,-0.559 2.254,-0.559 0.855,0 1.809,0.196 2.465,0.809 0.66,0.59 0.965,1.543 0.965,3.098 v 3.933 c 0,0.825 0.031,1.371 0.058,1.86 z m -0.195,-3.891 c 0,-0.211 -0.031,-0.449 -0.102,-0.656 -0.265,-0.785 -0.949,-1.262 -1.707,-1.262 -1.328,0 -2,1.106 -2,2.438 0,1.566 0.84,2.558 2.016,2.558 0.894,0 1.496,-0.586 1.722,-1.301 0.055,-0.168 0.071,-0.347 0.071,-0.558 z m 8.707,0.281 c 0.012,0.125 0.043,0.321 0.043,0.575 0,1.246 -0.59,3.191 -2.801,3.191 -1.977,0 -3.18,-1.609 -3.18,-3.656 0,-2.043 1.246,-3.414 3.332,-3.414 1.078,0 1.821,0.222 2.254,0.418 l -0.211,0.882 c -0.461,-0.195 -0.992,-0.347 -1.875,-0.347 -1.23,0 -2.297,0.683 -2.324,2.351 z m -4.746,0.879 c 0.097,0.856 0.644,2.004 1.89,2.004 1.383,0 1.719,-1.219 1.707,-2.004 z m 12.152,2.887 c -1.879,0 -3.359,-1.332 -3.359,-3.598 0,-2.144 1.414,-3.488 3.246,-3.488 1.636,0 3.375,1.094 3.375,3.598 0,2.074 -1.317,3.488 -3.262,3.488 z m -0.027,-0.926 c 1.453,0 2.027,-1.457 2.027,-2.601 0,-1.528 -0.883,-2.633 -2.059,-2.633 -1.203,0 -2.054,1.121 -2.054,2.601 0,1.289 0.629,2.633 2.086,2.633 z m 6.187,-6.004 v 5.836 h 1.637 v 0.938 h -1.637 v 0.367 c 0,1.035 0.266,1.957 1.317,1.957 0.347,0 0.601,-0.07 0.781,-0.152 l 0.168,0.953 c -0.238,0.097 -0.613,0.195 -1.051,0.195 -0.57,0 -1.187,-0.184 -1.648,-0.633 -0.575,-0.543 -0.786,-1.414 -0.786,-2.363 v -0.324 h -0.953 v -0.938 h 0.953 v -5.836 z m 5.711,-2.773 h 1.219 v 3.683 h 0.027 c 0.406,-0.671 1.192,-1.066 2.086,-1.066 1.598,0 3.078,1.203 3.078,3.641 0,2.058 -1.23,3.445 -2.867,3.445 -1.105,0 -1.906,-0.492 -2.41,-1.316 h -0.027 l -0.055,1.16 h -1.106 c 0.028,-0.645 0.055,-1.344 0.055,-2.211 z m 1.219,6.691 c 0,0.168 0.043,0.352 0.082,0.504 0.238,0.926 1.023,1.527 1.863,1.527 1.301,0 2.016,-1.164 2.016,-2.519 0,-1.555 -0.754,-2.617 -2.059,-2.617 -0.883,0 -1.625,0.586 -1.847,1.441 -0.028,0.153 -0.055,0.32 -0.055,0.504 z m 6.746,-3.918 h 1.219 v 3.61 c 0,0.211 0.027,0.406 0.054,0.574 0.168,0.926 0.786,1.582 1.653,1.582 0.168,0 0.297,-0.012 0.422,-0.039 v 1.16 c -0.114,0.027 -0.211,0.043 -0.352,0.043 -0.824,0 -1.566,-0.574 -1.875,-1.484 h -0.055 l -0.043,1.328 h -1.078 c 0.043,-0.629 0.055,-1.317 0.055,-2.114 z m 7.449,6.93 c -1.875,0 -3.359,-1.332 -3.359,-3.598 0,-2.144 1.414,-3.488 3.246,-3.488 1.641,0 3.375,1.094 3.375,3.598 0,2.074 -1.316,3.488 -3.262,3.488 z m -0.027,-0.926 c 1.457,0 2.027,-1.457 2.027,-2.601 0,-1.528 -0.879,-2.633 -2.054,-2.633 -1.208,0 -2.059,1.121 -2.059,2.601 0,1.289 0.629,2.633 2.086,2.633 z m 9.465,3.934 v -4.043 h -0.032 c -0.304,0.543 -1.007,1.035 -2.042,1.035 -1.653,0 -3.051,-1.387 -3.04,-3.641 0,-2.058 1.262,-3.445 2.899,-3.445 1.105,0 1.933,0.574 2.312,1.332 h 0.028 l 0.054,-1.176 h 1.106 c -0.039,0.461 -0.055,1.149 -0.055,1.75 v 8.188 z m 0,-7.098 c 0,-0.195 -0.016,-0.363 -0.059,-0.531 -0.223,-0.926 -0.98,-1.469 -1.805,-1.469 -1.332,0 -2.003,1.133 -2.003,2.504 0,1.5 0.757,2.617 2.031,2.617 0.926,0 1.597,-0.64 1.777,-1.426 0.043,-0.156 0.059,-0.363 0.059,-0.519 z m 8.945,3.934 h -1.234 v -4.157 c 0,-0.222 -0.039,-0.449 -0.11,-0.628 -0.226,-0.547 -0.801,-1.122 -1.625,-1.122 -1.121,0 -1.511,0.868 -1.511,2.157 v 3.75 h -1.235 v -3.961 c 0,-2.379 1.278,-2.969 2.34,-2.969 1.203,0 1.918,0.715 2.238,1.262 h 0.032 l 0.07,-1.106 h 1.09 c -0.043,0.532 -0.055,1.149 -0.055,1.848 z m 6.664,-5.598 c -0.351,-0.156 -0.812,-0.336 -1.512,-0.336 -1.343,0 -2.351,0.965 -2.351,2.531 0,1.414 0.84,2.563 2.39,2.563 0.672,0 1.137,-0.152 1.43,-0.32 l 0.281,0.953 c -0.336,0.168 -0.98,0.347 -1.711,0.347 -2.21,0 -3.636,-1.511 -3.636,-3.597 0,-2.071 1.328,-3.457 3.371,-3.457 0.91,0 1.625,0.222 1.945,0.39 z m 1.93,7.223 v -1.625 h -1.047 v -0.938 h 1.047 v -3.695 c 0,-0.797 0.129,-1.399 0.476,-1.766 0.293,-0.336 0.754,-0.515 1.332,-0.515 0.477,0 0.852,0.07 1.09,0.168 l -0.054,0.921 c -0.157,-0.039 -0.391,-0.082 -0.715,-0.082 -0.688,0 -0.922,0.477 -0.922,1.317 v 3.652 h 1.762 v 0.938 h -1.762 v 1.949 l -1.207,-0.324"
         style="fill:#231f20;fill-opacity:1;fill-rule:evenodd;stroke:none"
         id="path42"
         inkscape:connector-curvature="0" /><g
         id="g44"
         transform="translate(0,842.00006)"><path
           d="M 39.965,-607.16 H 148.797"
           style="fill:none;stroke:#ec008c;stroke-width:0.5;stroke-linecap:butt;stroke-linejoin:miter;stroke-miterlimit:22.9260006;stroke-dasharray:none;stroke-opacity:1"
           id="path46"
           inkscape:connector-curvature="0" /></g><path
         d="m 156.707,228.559 0.059,1.117 h 0.039 c 0.504,-0.895 1.289,-1.274 2.269,-1.274 1.512,0 3.039,1.204 3.039,3.625 0.012,2.059 -1.175,3.461 -2.855,3.461 -1.094,0 -1.879,-0.492 -2.313,-1.246 h -0.027 v 4.254 h -1.219 v -8.187 c 0,-0.606 -0.027,-1.289 -0.054,-1.75 z m 0.211,3.933 c 0,0.196 0.043,0.364 0.07,0.504 0.25,0.938 1.035,1.512 1.875,1.512 1.317,0 2.016,-1.164 2.016,-2.52 0,-1.554 -0.77,-2.605 -2.059,-2.605 -0.894,0 -1.609,0.59 -1.847,1.441 -0.028,0.141 -0.055,0.293 -0.055,0.449 z m 6.746,-3.933 h 1.234 v 9.937 h -1.234 z m 8.75,3.164 c 0.016,0.125 0.043,0.32 0.043,0.574 0,1.242 -0.586,3.191 -2.801,3.191 -1.972,0 -3.176,-1.609 -3.176,-3.656 0,-2.043 1.247,-3.414 3.332,-3.414 1.079,0 1.821,0.223 2.254,0.418 l -0.211,0.883 c -0.46,-0.196 -0.992,-0.352 -1.875,-0.352 -1.234,0 -2.296,0.688 -2.324,2.356 z m -4.742,0.879 c 0.098,0.855 0.64,2.004 1.887,2.004 1.386,0 1.722,-1.219 1.711,-2.004 z m 11.758,-0.879 c 0.015,0.125 0.043,0.32 0.043,0.574 0,1.242 -0.59,3.191 -2.801,3.191 -1.973,0 -3.18,-1.609 -3.18,-3.656 0,-2.043 1.246,-3.414 3.332,-3.414 1.078,0 1.821,0.223 2.254,0.418 l -0.207,0.883 c -0.465,-0.196 -0.996,-0.352 -1.879,-0.352 -1.23,0 -2.293,0.688 -2.32,2.356 z m -4.746,0.879 c 0.097,0.855 0.644,2.004 1.89,2.004 1.387,0 1.723,-1.219 1.707,-2.004 z m 10.933,5.894 v -4.047 h -0.027 c -0.309,0.547 -1.008,1.039 -2.043,1.039 -1.652,0 -3.055,-1.386 -3.039,-3.64 0,-2.059 1.262,-3.446 2.898,-3.446 1.106,0 1.934,0.575 2.309,1.332 h 0.027 l 0.059,-1.175 h 1.105 c -0.043,0.461 -0.054,1.144 -0.054,1.75 v 8.187 z m 0,-7.098 c 0,-0.195 -0.012,-0.363 -0.055,-0.531 -0.222,-0.926 -0.98,-1.469 -1.804,-1.469 -1.332,0 -2.004,1.133 -2.004,2.504 0,1.5 0.758,2.618 2.031,2.618 0.922,0 1.594,-0.641 1.777,-1.426 0.043,-0.156 0.055,-0.363 0.055,-0.52 z m 7.953,6.875 c -0.882,-1.175 -1.82,-2.968 -1.836,-5.726 0,-2.731 0.954,-4.524 1.836,-5.684 h 0.965 c -0.992,1.399 -1.762,3.192 -1.762,5.684 0,2.535 0.743,4.355 1.762,5.726 z m 7.309,-0.617 h -4.356 l -0.585,-4.367 c 0.335,0.043 0.742,0.098 1.257,0.098 1.821,0 2.606,-0.84 2.617,-2.016 0,-1.219 -0.992,-1.973 -2.156,-1.973 -0.824,0 -1.566,0.278 -1.945,0.504 l -0.309,-0.937 c 0.438,-0.281 1.278,-0.563 2.27,-0.563 1.973,0 3.387,1.332 3.387,3.11 0,1.148 -0.586,1.929 -1.301,2.336 -0.559,0.336 -1.262,0.492 -1.961,0.492 -0.336,0 -0.531,-0.027 -0.742,-0.059 l 0.351,2.34 h 3.473 z m 4.996,-4.855 h -3.457 v -0.91 h 3.457 z m 6.484,4.855 h -4.355 l -0.59,-4.367 c 0.34,0.043 0.742,0.098 1.262,0.098 1.82,0 2.605,-0.84 2.617,-2.016 0,-1.219 -0.992,-1.973 -2.156,-1.973 -0.825,0 -1.567,0.278 -1.946,0.504 l -0.308,-0.937 c 0.433,-0.281 1.273,-0.563 2.269,-0.563 1.973,0 3.387,1.332 3.387,3.11 0,1.148 -0.586,1.929 -1.301,2.336 -0.558,0.336 -1.261,0.492 -1.961,0.492 -0.336,0 -0.531,-0.027 -0.742,-0.059 l 0.352,2.34 h 3.472 z m 5.11,-9.097 h 1.203 v 4.086 c 0,0.211 0.027,0.421 0.098,0.601 0.195,0.617 0.757,1.235 1.527,1.235 0.937,0 1.414,-0.786 1.414,-1.864 v -4.058 h 1.203 v 4.183 c 0,0.227 0.043,0.449 0.098,0.617 0.211,0.602 0.758,1.122 1.457,1.122 0.992,0 1.469,-0.786 1.469,-2.086 v -3.836 h 1.203 v 3.988 c 0,2.351 -1.329,2.941 -2.227,2.941 -0.641,0 -1.09,-0.168 -1.496,-0.476 -0.281,-0.211 -0.547,-0.504 -0.758,-0.883 h -0.027 c -0.293,0.797 -0.992,1.359 -1.918,1.359 -1.117,0 -1.75,-0.601 -2.125,-1.246 h -0.043 l -0.059,1.09 h -1.078 c 0.043,-0.559 0.059,-1.133 0.059,-1.832 z m 11.676,0 h 1.203 v 4.086 c 0,0.211 0.027,0.421 0.097,0.601 0.196,0.617 0.758,1.235 1.528,1.235 0.937,0 1.414,-0.786 1.414,-1.864 v -4.058 h 1.203 v 4.183 c 0,0.227 0.043,0.449 0.098,0.617 0.21,0.602 0.757,1.122 1.457,1.122 0.992,0 1.468,-0.786 1.468,-2.086 v -3.836 h 1.203 v 3.988 c 0,2.351 -1.328,2.941 -2.222,2.941 -0.645,0 -1.094,-0.168 -1.5,-0.476 -0.282,-0.211 -0.547,-0.504 -0.754,-0.883 h -0.031 c -0.293,0.797 -0.993,1.359 -1.918,1.359 -1.118,0 -1.75,-0.601 -2.125,-1.246 h -0.043 l -0.059,1.09 h -1.074 c 0.039,-0.559 0.055,-1.133 0.055,-1.832 z m 11.886,-1.696 c 0.895,1.192 1.832,2.969 1.832,5.711 0,2.758 -0.937,4.551 -1.832,5.699 h -0.953 c 1.008,-1.386 1.766,-3.179 1.766,-5.683 0,-2.52 -0.774,-4.34 -1.766,-5.727 h 0.953"
         style="fill:#231f20;fill-opacity:1;fill-rule:evenodd;stroke:none"
         id="path48"
         inkscape:connector-curvature="0" /><path
         d="m 39.078,152.734 h 1.219 v 3.61 c 0,0.211 0.027,0.406 0.058,0.574 0.168,0.926 0.782,1.582 1.653,1.582 0.168,0 0.293,-0.012 0.418,-0.043 v 1.164 c -0.114,0.027 -0.211,0.043 -0.352,0.043 -0.824,0 -1.566,-0.574 -1.875,-1.484 h -0.054 l -0.043,1.328 h -1.079 c 0.043,-0.629 0.055,-1.317 0.055,-2.113 z m 10.027,3.164 c 0.012,0.125 0.04,0.321 0.04,0.575 0,1.246 -0.586,3.191 -2.797,3.191 -1.977,0 -3.18,-1.609 -3.18,-3.656 0,-2.043 1.246,-3.414 3.332,-3.414 1.078,0 1.82,0.222 2.254,0.418 l -0.211,0.883 c -0.461,-0.196 -0.992,-0.348 -1.875,-0.348 -1.23,0 -2.297,0.684 -2.324,2.351 z m -4.746,0.879 c 0.098,0.856 0.645,2.004 1.887,2.004 1.387,0 1.723,-1.218 1.711,-2.004 z m 5.836,-3.722 c 0.477,-0.282 1.164,-0.461 1.907,-0.461 1.609,0 2.531,0.84 2.531,2.027 0,1.012 -0.602,1.598 -1.778,2.047 -0.882,0.336 -1.289,0.586 -1.289,1.148 0,0.504 0.407,0.922 1.137,0.922 0.629,0 1.117,-0.222 1.387,-0.39 l 0.305,0.894 c -0.375,0.227 -0.981,0.422 -1.665,0.422 -1.457,0 -2.339,-0.898 -2.339,-1.988 0,-0.813 0.574,-1.485 1.793,-1.918 0.91,-0.336 1.261,-0.66 1.261,-1.246 0,-0.563 -0.422,-1.008 -1.316,-1.008 -0.617,0 -1.262,0.25 -1.625,0.488 z m 8.891,6.609 c -1.875,0 -3.359,-1.332 -3.359,-3.598 0,-2.144 1.414,-3.488 3.246,-3.488 1.64,0 3.375,1.094 3.375,3.598 0,2.074 -1.317,3.488 -3.262,3.488 z m -0.027,-0.926 c 1.457,0 2.031,-1.457 2.031,-2.601 0,-1.528 -0.883,-2.633 -2.059,-2.633 -1.207,0 -2.058,1.117 -2.058,2.602 0,1.289 0.629,2.632 2.086,2.632 z m 4.843,-6.004 h 1.231 v 9.938 h -1.231 z m 8.973,6.774 h -1.23 v -4.156 c 0,-0.223 -0.043,-0.45 -0.114,-0.629 -0.222,-0.547 -0.797,-1.121 -1.625,-1.121 -1.117,0 -1.511,0.867 -1.511,2.156 v 3.75 h -1.231 v -3.961 c 0,-2.379 1.274,-2.969 2.34,-2.969 1.203,0 1.918,0.715 2.238,1.262 h 0.028 l 0.07,-1.106 h 1.094 c -0.043,0.532 -0.059,1.149 -0.059,1.848 z m 2.324,1.625 v -1.625 h -1.051 v -0.938 h 1.051 v -3.695 c 0,-0.797 0.125,-1.398 0.477,-1.766 0.293,-0.336 0.758,-0.515 1.332,-0.515 0.472,0 0.851,0.07 1.09,0.168 l -0.055,0.922 c -0.156,-0.039 -0.395,-0.082 -0.715,-0.082 -0.687,0 -0.926,0.476 -0.926,1.316 v 3.652 h 1.766 v 0.938 h -1.766 v 1.945 z m 4.356,-8.399 h 1.23 v 6.774 h -1.23 z m 0.617,9.45 c -0.449,0 -0.774,-0.336 -0.774,-0.77 0,-0.422 0.309,-0.758 0.743,-0.758 0.492,0 0.8,0.336 0.785,0.758 0,0.434 -0.293,0.77 -0.754,0.77 z m 5.527,-2.52 c -1.875,0 -3.359,-1.332 -3.359,-3.598 0,-2.144 1.414,-3.488 3.25,-3.488 1.637,0 3.371,1.094 3.371,3.598 0,2.074 -1.316,3.488 -3.262,3.488 z m -0.027,-0.926 c 1.457,0 2.031,-1.457 2.031,-2.601 0,-1.528 -0.883,-2.633 -2.058,-2.633 -1.204,0 -2.059,1.117 -2.059,2.602 0,1.289 0.629,2.632 2.086,2.632 z m 4.844,-6.004 h 1.234 v 4.075 c 0,0.207 0.027,0.418 0.082,0.574 0.211,0.683 0.84,1.258 1.652,1.258 1.161,0 1.567,-0.91 1.567,-2 v -3.907 h 1.234 v 4.043 c 0,2.325 -1.457,2.887 -2.394,2.887 -1.121,0 -1.907,-0.633 -2.243,-1.273 h -0.027 l -0.07,1.117 h -1.09 c 0.043,-0.559 0.055,-1.133 0.055,-1.832 z m 8.3,4.786 c 0.52,0 0.844,0.378 0.844,0.871 -0.015,0.515 -0.34,0.879 -0.828,0.879 -0.488,0 -0.84,-0.364 -0.84,-0.879 0,-0.493 0.336,-0.871 0.824,-0.871 z m 0,-4.942 c 0.52,0 0.844,0.379 0.844,0.867 -0.015,0.52 -0.34,0.883 -0.828,0.883 -0.488,0 -0.84,-0.363 -0.84,-0.883 0,-0.488 0.336,-0.867 0.824,-0.867 z m 5.336,0.156 h 1.203 v 4.086 c 0,0.211 0.032,0.422 0.098,0.602 0.199,0.617 0.758,1.234 1.527,1.234 0.938,0 1.415,-0.785 1.415,-1.863 v -4.059 h 1.203 v 4.184 c 0,0.227 0.043,0.449 0.097,0.617 0.211,0.602 0.758,1.121 1.457,1.121 0.996,0 1.469,-0.785 1.469,-2.086 v -3.836 h 1.203 v 3.989 c 0,2.351 -1.328,2.941 -2.222,2.941 -0.645,0 -1.094,-0.168 -1.5,-0.476 -0.278,-0.211 -0.543,-0.504 -0.754,-0.883 h -0.028 c -0.297,0.797 -0.996,1.359 -1.918,1.359 -1.121,0 -1.75,-0.601 -2.129,-1.246 h -0.043 l -0.054,1.09 h -1.078 c 0.043,-0.559 0.054,-1.133 0.054,-1.832 z m 11.676,0 h 1.231 v 6.774 h -1.231 z m 0.617,9.45 c -0.449,0 -0.769,-0.336 -0.769,-0.77 0,-0.422 0.308,-0.758 0.742,-0.758 0.488,0 0.797,0.336 0.781,0.758 0,0.434 -0.293,0.77 -0.754,0.77 z m 2.66,-9.45 h 1.231 v 4.075 c 0,0.207 0.027,0.418 0.086,0.574 0.207,0.683 0.84,1.258 1.648,1.258 1.164,0 1.571,-0.91 1.571,-2 v -3.907 h 1.23 v 4.043 c 0,2.325 -1.457,2.887 -2.394,2.887 -1.118,0 -1.903,-0.633 -2.239,-1.273 h -0.027 l -0.07,1.117 h -1.094 c 0.043,-0.559 0.058,-1.133 0.058,-1.832 z m 8.301,-0.156 c 0.52,0 0.84,0.379 0.84,0.883 0,0.52 -0.336,0.883 -0.824,0.883 -0.492,0 -0.844,-0.363 -0.844,-0.883 0,-0.504 0.34,-0.883 0.828,-0.883 z m 4.899,0.617 c 0.449,-0.293 1.347,-0.617 2.367,-0.617 2.183,0 3.316,1.274 3.316,2.731 0,1.273 -0.91,2.113 -2.027,2.339 v 0.028 c 1.117,0.406 1.68,1.203 1.68,2.14 0,1.106 -0.813,2.172 -2.606,2.172 -0.98,0 -1.902,-0.351 -2.379,-0.703 l 0.321,-0.894 c 0.394,0.281 1.093,0.601 1.824,0.601 1.133,0 1.594,-0.644 1.594,-1.371 0,-1.078 -1.133,-1.539 -2.032,-1.539 h -0.683 v -0.926 h 0.683 c 1.192,0 2.34,-0.547 2.356,-1.82 0.011,-0.754 -0.477,-1.762 -2.059,-1.762 -0.855,0 -1.668,0.348 -2.015,0.574 z m 10.265,8.793 c -1.847,0 -3.164,-1.679 -3.164,-4.734 0.028,-3.008 1.231,-4.676 3.008,-4.676 2.016,0 3.164,1.707 3.164,4.805 0,2.894 -1.09,4.605 -3.008,4.605 z m -0.07,-0.953 c 1.273,0 1.848,-1.469 1.848,-3.711 0,-2.324 -0.602,-3.793 -1.864,-3.793 -1.121,0 -1.847,1.344 -1.847,3.711 0,2.477 0.785,3.793 1.863,3.793 z m 7.25,0.953 c -1.848,0 -3.164,-1.679 -3.164,-4.734 0.027,-3.008 1.234,-4.676 3.012,-4.676 2.015,0 3.164,1.707 3.164,4.805 0,2.894 -1.094,4.605 -3.012,4.605 z m -0.07,-0.953 c 1.273,0 1.847,-1.469 1.847,-3.711 0,-2.324 -0.601,-3.793 -1.859,-3.793 -1.121,0 -1.848,1.344 -1.848,3.711 0,2.477 0.782,3.793 1.86,3.793 z m 4.648,-8.273 c 0.617,-0.071 1.344,-0.114 2.211,-0.114 1.836,0 3.293,0.477 4.176,1.36 0.879,0.867 1.355,2.129 1.355,3.668 0,1.523 -0.488,2.617 -1.328,3.387 -0.828,0.769 -2.074,1.175 -3.824,1.175 -0.965,0 -1.848,-0.082 -2.59,-0.195 z m 1.219,8.386 c 0.32,0.071 0.797,0.125 1.43,0.125 2.574,0 3.835,-1.414 3.82,-3.64 0,-2.547 -1.414,-4.004 -4.02,-4.004 -0.472,0 -0.922,0.016 -1.23,0.07 z m 8.105,-8.414 h 1.219 v 3.778 c 0.281,-0.071 0.617,-0.082 0.981,-0.082 1.187,0 2.238,0.347 2.882,1.035 0.477,0.488 0.731,1.164 0.731,2.016 0,0.839 -0.309,1.527 -0.828,1.972 -0.559,0.504 -1.442,0.785 -2.645,0.785 -0.98,0 -1.75,-0.082 -2.34,-0.179 z m 1.219,8.442 c 0.211,0.055 0.617,0.097 1.149,0.097 1.343,0 2.226,-0.601 2.226,-1.847 0,-1.305 -0.898,-2.016 -2.367,-2.016 -0.406,0 -0.742,0.028 -1.008,0.098 z m 7.449,0.992 h -1.218 v -9.434 h 1.218 z"
         style="fill:#231f20;fill-opacity:1;fill-rule:evenodd;stroke:none"
         id="path50"
         inkscape:connector-curvature="0" /><path
         d="m 43.699,137.082 c -0.347,-0.156 -0.812,-0.336 -1.511,-0.336 -1.344,0 -2.352,0.965 -2.352,2.531 0,1.414 0.84,2.563 2.394,2.563 0.672,0 1.133,-0.152 1.426,-0.32 l 0.282,0.953 c -0.336,0.168 -0.981,0.347 -1.708,0.347 -2.21,0 -3.64,-1.511 -3.64,-3.597 0,-2.071 1.332,-3.457 3.375,-3.457 0.91,0 1.625,0.222 1.945,0.39 z m 4.524,5.754 c -1.875,0 -3.36,-1.332 -3.36,-3.598 0,-2.144 1.414,-3.488 3.246,-3.488 1.637,0 3.375,1.094 3.375,3.598 0,2.074 -1.316,3.488 -3.261,3.488 z m -0.028,-0.926 c 1.453,0 2.028,-1.457 2.028,-2.601 0,-1.528 -0.879,-2.633 -2.059,-2.633 -1.203,0 -2.055,1.121 -2.055,2.601 0,1.289 0.629,2.633 2.086,2.633 z m 4.844,-6.004 h 1.231 v 9.938 h -1.231 z m 6.172,6.93 c -1.875,0 -3.359,-1.332 -3.359,-3.598 0,-2.144 1.414,-3.488 3.25,-3.488 1.636,0 3.371,1.094 3.371,3.598 0,2.074 -1.317,3.488 -3.262,3.488 z m -0.027,-0.926 c 1.457,0 2.031,-1.457 2.031,-2.601 0,-1.528 -0.883,-2.633 -2.059,-2.633 -1.203,0 -2.058,1.121 -2.058,2.601 0,1.289 0.629,2.633 2.086,2.633 z m 10.515,0.77 h -1.234 v -4.157 c 0,-0.222 -0.039,-0.449 -0.11,-0.628 -0.226,-0.547 -0.8,-1.122 -1.625,-1.122 -1.121,0 -1.511,0.868 -1.511,2.157 v 3.75 h -1.235 v -3.961 c 0,-2.379 1.278,-2.969 2.34,-2.969 1.203,0 1.918,0.715 2.238,1.262 h 0.032 l 0.066,-1.106 h 1.094 c -0.043,0.532 -0.055,1.149 -0.055,1.848 z m 2.043,-6.774 h 1.219 v 3.61 c 0,0.211 0.027,0.406 0.055,0.574 0.168,0.926 0.785,1.582 1.652,1.582 0.168,0 0.293,-0.012 0.422,-0.039 v 1.16 c -0.113,0.027 -0.211,0.043 -0.352,0.043 -0.828,0 -1.566,-0.574 -1.875,-1.484 h -0.058 l -0.039,1.328 h -1.078 c 0.039,-0.629 0.054,-1.317 0.054,-2.114 z m 4.102,0.321 c 0.476,-0.282 1.164,-0.461 1.902,-0.461 1.613,0 2.535,0.84 2.535,2.031 0,1.008 -0.601,1.594 -1.777,2.043 -0.883,0.336 -1.289,0.586 -1.289,1.148 0,0.504 0.406,0.922 1.137,0.922 0.628,0 1.117,-0.222 1.382,-0.39 l 0.309,0.894 c -0.379,0.227 -0.981,0.422 -1.664,0.422 -1.457,0 -2.34,-0.898 -2.34,-1.988 0,-0.813 0.574,-1.485 1.793,-1.918 0.91,-0.336 1.262,-0.66 1.262,-1.246 0,-0.563 -0.422,-1.008 -1.317,-1.008 -0.617,0 -1.261,0.25 -1.625,0.488 z m 6.551,4.464 c 0.519,0 0.839,0.379 0.839,0.872 -0.011,0.515 -0.336,0.878 -0.824,0.878 -0.488,0 -0.84,-0.363 -0.84,-0.878 0,-0.493 0.336,-0.872 0.825,-0.872 z m 0,-4.941 c 0.519,0 0.839,0.379 0.839,0.867 -0.011,0.52 -0.336,0.883 -0.824,0.883 -0.488,0 -0.84,-0.363 -0.84,-0.883 0,-0.488 0.336,-0.867 0.825,-0.867 z m 11.718,1.43 c -0.488,-0.239 -1.246,-0.395 -1.988,-0.395 -2.297,0 -3.625,1.485 -3.625,3.797 0,2.477 1.469,3.891 3.684,3.891 0.781,0 1.441,-0.168 1.902,-0.391 l 0.293,0.992 c -0.32,0.168 -1.063,0.422 -2.238,0.422 -2.926,0 -4.93,-2.004 -4.93,-4.957 0,-3.094 2.004,-4.773 4.664,-4.773 1.148,0 2.043,0.222 2.492,0.449 z m 9.969,-1.274 h 1.191 l -0.589,9.434 h -1.555 l -1.68,-4.563 c -0.418,-1.191 -0.754,-2.226 -0.992,-3.179 h -0.043 c -0.238,0.98 -0.559,2.015 -0.953,3.179 l -1.609,4.563 h -1.555 l -0.656,-9.434 h 1.16 l 0.254,4.043 c 0.082,1.414 0.152,2.996 0.179,4.172 h 0.032 c 0.265,-1.117 0.64,-2.336 1.089,-3.668 l 1.528,-4.492 h 0.922 l 1.668,4.578 c 0.476,1.301 0.867,2.477 1.187,3.582 h 0.043 c -0.012,-1.176 0.07,-2.758 0.141,-4.07 z m 6.398,0 v 4.016 l 3.165,5.418 h -1.387 l -1.36,-2.602 c -0.363,-0.715 -0.683,-1.332 -0.949,-1.949 h -0.027 c -0.297,0.66 -0.574,1.234 -0.942,1.949 l -1.328,2.602 h -1.386 l 2.98,-5.43 v -4.004 z m 4.243,0 h 1.218 v 3.598 l 0.895,1.035 3.109,-4.633 h 1.442 l -3.684,5.43 3.418,4.004 h -1.512 l -2.886,-3.539 c -0.239,-0.309 -0.489,-0.645 -0.743,-1.012 h -0.039 v 4.551 h -1.218 v -9.434"
         style="fill:#231f20;fill-opacity:1;fill-rule:evenodd;stroke:none"
         id="path52"
         inkscape:connector-curvature="0" /><path
         d="m 40.426,119.078 v 5.836 h 1.636 v 0.938 h -1.636 v 0.367 c 0,1.035 0.265,1.957 1.312,1.957 0.352,0 0.606,-0.07 0.785,-0.153 l 0.168,0.954 c -0.238,0.097 -0.617,0.195 -1.05,0.195 -0.575,0 -1.188,-0.184 -1.653,-0.633 -0.574,-0.543 -0.781,-1.41 -0.781,-2.363 v -0.324 h -0.953 v -0.938 h 0.953 v -5.836 z m 5.613,6.93 c -1.879,0 -3.359,-1.332 -3.359,-3.598 0,-2.144 1.414,-3.488 3.246,-3.488 1.636,0 3.375,1.094 3.375,3.598 0,2.074 -1.317,3.488 -3.262,3.488 z m -0.027,-0.926 c 1.453,0 2.027,-1.453 2.027,-2.601 0,-1.528 -0.883,-2.633 -2.059,-2.633 -1.203,0 -2.054,1.121 -2.054,2.601 0,1.289 0.629,2.633 2.086,2.633 z m 4.843,-6.004 h 1.215 v 3.61 c 0,0.21 0.032,0.406 0.059,0.574 0.168,0.926 0.781,1.582 1.652,1.582 0.168,0 0.293,-0.012 0.418,-0.039 v 1.16 c -0.109,0.027 -0.211,0.043 -0.347,0.043 -0.829,0 -1.571,-0.574 -1.879,-1.485 h -0.055 l -0.043,1.329 h -1.078 c 0.043,-0.629 0.058,-1.317 0.058,-2.114 z m 4.579,0 h 1.203 v 4.086 c 0,0.211 0.027,0.422 0.097,0.602 0.196,0.617 0.754,1.234 1.528,1.234 0.937,0 1.414,-0.785 1.414,-1.863 v -4.059 h 1.203 v 4.184 c 0,0.226 0.043,0.449 0.098,0.617 0.211,0.602 0.753,1.121 1.457,1.121 0.992,0 1.468,-0.785 1.468,-2.086 v -3.836 h 1.203 v 3.988 c 0,2.352 -1.328,2.942 -2.226,2.942 -0.645,0 -1.09,-0.168 -1.496,-0.477 -0.281,-0.211 -0.547,-0.504 -0.758,-0.883 h -0.027 c -0.293,0.797 -0.993,1.36 -1.918,1.36 -1.121,0 -1.75,-0.602 -2.129,-1.246 h -0.039 l -0.059,1.09 h -1.078 c 0.043,-0.559 0.059,-1.133 0.059,-1.832 z m 16.546,0 c -0.085,0.461 -0.113,1.035 -0.113,1.621 v 2.535 c 0,1.36 -0.504,2.774 -2.574,2.774 -0.855,0 -1.668,-0.238 -2.227,-0.602 l 0.282,-0.812 c 0.472,0.308 1.132,0.504 1.761,0.504 1.387,0 1.539,-1.008 1.539,-1.571 v -0.136 c -2.617,0.011 -4.074,-0.883 -4.074,-2.524 0,-0.976 0.703,-1.945 2.074,-1.945 0.965,0 1.696,0.476 2.071,1.008 h 0.043 l 0.097,-0.852 z m -1.3,2.281 c 0,-0.125 -0.032,-0.265 -0.071,-0.39 -0.199,-0.574 -0.757,-1.137 -1.64,-1.137 -0.629,0 -1.16,0.379 -1.16,1.176 0,1.316 1.527,1.555 2.871,1.527 z m 3.457,6.118 v -1.625 h -1.051 v -0.938 h 1.051 v -3.695 c 0,-0.797 0.125,-1.399 0.476,-1.766 0.293,-0.336 0.754,-0.515 1.328,-0.515 0.477,0 0.856,0.07 1.094,0.168 l -0.058,0.921 c -0.153,-0.039 -0.391,-0.082 -0.711,-0.082 -0.688,0 -0.926,0.477 -0.926,1.317 v 3.652 h 1.765 v 0.938 H 75.34 v 1.949 z m 3.879,-8.079 c 0.472,-0.281 1.16,-0.46 1.902,-0.46 1.609,0 2.535,0.839 2.535,2.031 0,1.008 -0.601,1.594 -1.777,2.043 -0.883,0.336 -1.289,0.586 -1.289,1.148 0,0.504 0.406,0.922 1.133,0.922 0.628,0 1.121,-0.223 1.386,-0.391 l 0.309,0.895 c -0.379,0.227 -0.981,0.422 -1.668,0.422 -1.453,0 -2.336,-0.899 -2.336,-1.988 0,-0.813 0.574,-1.485 1.793,-1.918 0.906,-0.336 1.258,-0.661 1.258,-1.246 0,-0.559 -0.418,-1.008 -1.317,-1.008 -0.617,0 -1.257,0.25 -1.625,0.488 z m 6.55,4.465 c 0.52,0 0.84,0.379 0.84,0.871 -0.015,0.516 -0.336,0.879 -0.828,0.879 -0.488,0 -0.84,-0.363 -0.84,-0.879 0,-0.492 0.336,-0.871 0.828,-0.871 z m 0,-4.941 c 0.52,0 0.84,0.379 0.84,0.867 -0.015,0.52 -0.336,0.883 -0.828,0.883 -0.488,0 -0.84,-0.363 -0.84,-0.883 0,-0.488 0.336,-0.867 0.828,-0.867 z m 7.168,0.156 h 1.231 v 8.399 h 2.887 v 1.035 h -6.989 v -1.035 h 2.871 z m 6.383,9.434 h -1.219 v -9.434 h 1.219 z m 2.129,-9.434 h 1.219 v 4.27 h 3.57 v 1.008 h -3.57 v 3.136 h 3.863 v 1.02 h -5.082 z m 6.816,0 h 1.219 v 4.27 h 3.571 v 1.008 h -3.571 v 3.136 h 3.864 v 1.02 h -5.083 z m 6.864,-1.64 c 0.39,0.66 1.008,2.214 1.328,3.402 l -1.371,-0.141 c -0.156,-1.019 -0.531,-2.519 -0.84,-3.343 z m 5.82,1.64 h 1.219 v 3.778 c 0.281,-0.071 0.617,-0.083 0.98,-0.083 1.192,0 2.243,0.348 2.883,1.036 0.477,0.492 0.731,1.164 0.731,2.015 0,0.84 -0.309,1.528 -0.829,1.977 -0.558,0.504 -1.441,0.781 -2.644,0.781 -0.981,0 -1.75,-0.082 -2.34,-0.18 z m 1.219,8.442 c 0.211,0.054 0.617,0.097 1.148,0.097 1.344,0 2.227,-0.601 2.227,-1.847 0,-1.301 -0.895,-2.016 -2.367,-2.016 -0.407,0 -0.743,0.027 -1.008,0.098 z m 6.23,-8.414 c 0.617,-0.071 1.344,-0.114 2.211,-0.114 1.836,0 3.293,0.477 4.172,1.36 0.883,0.867 1.36,2.129 1.36,3.668 0,1.527 -0.489,2.617 -1.329,3.386 -0.828,0.77 -2.074,1.176 -3.824,1.176 -0.965,0 -1.847,-0.082 -2.59,-0.195 z m 1.219,8.386 c 0.32,0.071 0.797,0.125 1.43,0.125 2.574,0 3.836,-1.414 3.82,-3.64 0,-2.547 -1.414,-4.004 -4.019,-4.004 -0.473,0 -0.922,0.015 -1.231,0.07 z m 8.106,-8.414 h 1.218 v 4.27 h 3.571 v 1.008 h -3.571 v 3.136 h 3.864 v 1.02 h -5.082 z m 6.859,-1.64 c 0.394,0.66 1.008,2.214 1.332,3.402 l -1.371,-0.141 c -0.156,-1.019 -0.535,-2.519 -0.844,-3.343 z m 10.711,7.07 h -3.668 v 2.984 h 3.879 v 1.02 h -5.098 v -9.434 h 5.309 v 1.02 h -4.09 v 3.402 h 3.668 z m 2.004,-5.43 h 1.215 v 3.778 c 0.281,-0.071 0.617,-0.083 0.98,-0.083 1.191,0 2.242,0.348 2.887,1.036 0.472,0.492 0.726,1.164 0.726,2.015 0,0.84 -0.308,1.528 -0.828,1.977 -0.558,0.504 -1.441,0.781 -2.644,0.781 -0.981,0 -1.75,-0.082 -2.336,-0.18 z m 1.215,8.442 c 0.211,0.054 0.617,0.097 1.148,0.097 1.344,0 2.227,-0.601 2.227,-1.847 0,-1.301 -0.895,-2.016 -2.368,-2.016 -0.406,0 -0.742,0.027 -1.007,0.098 z m 5.753,-7.981 c 0.504,-0.336 1.5,-0.601 2.411,-0.601 2.226,0 3.304,1.257 3.304,2.714 0,1.387 -0.812,2.157 -2.41,2.774 -1.301,0.504 -1.875,0.937 -1.875,1.82 0,0.645 0.488,1.414 1.778,1.414 0.855,0 1.484,-0.281 1.792,-0.449 l 0.336,0.992 c -0.421,0.238 -1.121,0.465 -2.086,0.465 -1.835,0 -3.05,-1.094 -3.05,-2.562 0,-1.333 0.949,-2.129 2.492,-2.676 1.273,-0.489 1.777,-0.992 1.777,-1.875 0,-0.953 -0.73,-1.61 -1.976,-1.61 -0.84,0 -1.637,0.282 -2.184,0.618 z m 7.422,-2.101 c 0.391,0.66 1.008,2.214 1.328,3.402 l -1.371,-0.141 c -0.152,-1.019 -0.531,-2.519 -0.839,-3.343 z m 10.696,4.609 1.008,-2.969 h 1.3 l -3.218,9.434 h -1.469 l -3.207,-9.434 h 1.261 l 0.981,2.969 z m -3.094,0.949 0.926,2.731 c 0.179,0.574 0.336,1.148 0.472,1.707 h 0.032 c 0.136,-0.543 0.277,-1.106 0.488,-1.719 l 0.926,-2.719 z m 8.008,5.516 h -1.219 v -9.434 h 1.219 z m 2.172,-11.074 c 0.39,0.66 1.007,2.214 1.328,3.402 l -1.371,-0.141 c -0.157,-1.019 -0.532,-2.519 -0.84,-3.343 z m 12.164,2.914 c -0.489,-0.239 -1.246,-0.395 -1.989,-0.395 -2.296,0 -3.625,1.484 -3.625,3.797 0,2.477 1.469,3.891 3.68,3.891 0.785,0 1.445,-0.168 1.906,-0.391 l 0.293,0.992 c -0.32,0.168 -1.062,0.422 -2.238,0.422 -2.926,0 -4.93,-2.004 -4.93,-4.957 0,-3.094 2.004,-4.773 4.664,-4.773 1.149,0 2.043,0.222 2.493,0.449 z m 1.777,-1.246 c 0.617,-0.071 1.344,-0.114 2.215,-0.114 1.832,0 3.289,0.477 4.172,1.36 0.879,0.867 1.355,2.129 1.355,3.668 0,1.527 -0.488,2.617 -1.328,3.386 -0.828,0.77 -2.074,1.176 -3.824,1.176 -0.965,0 -1.848,-0.082 -2.59,-0.195 z m 1.219,8.386 c 0.32,0.071 0.797,0.125 1.429,0.125 2.575,0 3.836,-1.414 3.821,-3.64 0,-2.547 -1.414,-4.004 -4.02,-4.004 -0.472,0 -0.922,0.015 -1.23,0.07 z m 8.105,-8.414 h 1.219 v 4.086 h 1.148 c 1.106,-0.043 1.61,-0.531 1.891,-1.832 0.266,-1.176 0.477,-1.988 0.629,-2.254 h 1.262 c -0.2,0.363 -0.422,1.274 -0.731,2.59 -0.222,0.98 -0.656,1.652 -1.387,1.902 v 0.043 c 0.997,0.336 1.782,1.16 1.782,2.407 0,0.73 -0.27,1.375 -0.742,1.793 -0.59,0.531 -1.43,0.769 -2.731,0.769 -0.84,0 -1.723,-0.07 -2.34,-0.195 z m 1.219,8.453 c 0.195,0.059 0.617,0.114 1.203,0.114 1.289,-0.012 2.172,-0.547 2.172,-1.762 0,-1.078 -0.828,-1.793 -2.129,-1.793 h -1.246 v 3.441"
         style="fill:#231f20;fill-opacity:1;fill-rule:evenodd;stroke:none"
         id="path54"
         inkscape:connector-curvature="0" /><path
         d="m 40.914,92.828 h 1.231 v 8.399 h 2.886 v 1.035 h -6.988 v -1.035 h 2.871 z m 5.125,0 h 1.231 v 4.086 c 0,0.238 0.015,0.422 0.085,0.59 0.223,0.672 0.852,1.23 1.653,1.23 1.16,0 1.566,-0.921 1.566,-2.015 v -3.891 h 1.231 v 4.031 c 0,2.336 -1.453,2.899 -2.364,2.899 -0.464,0 -0.898,-0.141 -1.261,-0.352 -0.379,-0.211 -0.688,-0.515 -0.883,-0.867 H 47.27 v 4.227 h -1.231 z m 13.215,3.164 c 0.016,0.125 0.043,0.321 0.043,0.574 0,1.247 -0.59,3.192 -2.801,3.192 -1.973,0 -3.18,-1.61 -3.18,-3.656 0,-2.043 1.246,-3.414 3.332,-3.414 1.079,0 1.821,0.222 2.254,0.418 l -0.207,0.882 c -0.465,-0.195 -0.996,-0.347 -1.879,-0.347 -1.23,0 -2.293,0.683 -2.324,2.351 z m -4.746,0.879 c 0.097,0.856 0.644,2.004 1.89,2.004 1.387,0 1.723,-1.219 1.707,-2.004 z m 10.289,-4.043 0.058,1.117 h 0.04 c 0.503,-0.894 1.289,-1.273 2.269,-1.273 1.512,0 3.039,1.207 3.039,3.629 0.012,2.055 -1.176,3.457 -2.855,3.457 -1.094,0 -1.879,-0.492 -2.313,-1.246 h -0.027 v 4.254 h -1.219 v -8.188 c 0,-0.601 -0.027,-1.289 -0.055,-1.75 z m 0.211,3.934 c 0,0.195 0.043,0.363 0.07,0.504 0.25,0.937 1.035,1.511 1.875,1.511 1.317,0 2.016,-1.164 2.016,-2.519 0,-1.555 -0.77,-2.606 -2.059,-2.606 -0.894,0 -1.609,0.59 -1.848,1.442 -0.027,0.14 -0.054,0.297 -0.054,0.449 z m 6.75,-3.934 h 1.23 v 9.938 h -1.23 z m 8.176,0 c -0.086,0.461 -0.114,1.035 -0.114,1.621 v 2.535 c 0,1.36 -0.504,2.774 -2.578,2.774 -0.851,0 -1.664,-0.238 -2.222,-0.602 l 0.277,-0.812 c 0.476,0.308 1.137,0.504 1.765,0.504 1.387,0 1.54,-1.008 1.54,-1.571 v -0.136 c -2.618,0.011 -4.075,-0.883 -4.075,-2.524 0,-0.976 0.7,-1.945 2.075,-1.945 0.964,0 1.691,0.476 2.07,1.008 h 0.043 l 0.097,-0.852 z m -1.305,2.281 c 0,-0.125 -0.027,-0.265 -0.07,-0.39 -0.196,-0.574 -0.754,-1.137 -1.637,-1.137 -0.629,0 -1.16,0.379 -1.16,1.176 0,1.316 1.523,1.555 2.867,1.527 z m 7.801,-1.105 c -0.352,-0.156 -0.813,-0.336 -1.516,-0.336 -1.344,0 -2.352,0.965 -2.352,2.531 0,1.414 0.84,2.563 2.395,2.563 0.672,0 1.137,-0.153 1.43,-0.321 l 0.277,0.954 c -0.336,0.168 -0.976,0.347 -1.707,0.347 -2.211,0 -3.641,-1.511 -3.641,-3.597 0,-2.071 1.332,-3.457 3.375,-3.457 0.911,0 1.625,0.222 1.946,0.39 z m 2.867,8.762 h -1.219 v -9.938 h 1.219 v 2.547 l 0.633,0.699 2.336,-3.246 h 1.5 l -2.985,3.988 2.617,2.786 H 91.914 L 89.93,97.266 c -0.2,-0.239 -0.438,-0.532 -0.606,-0.77 h -0.027 z m 11.187,-3.008 c -1.875,0 -3.359,-1.332 -3.359,-3.598 0,-2.144 1.414,-3.488 3.246,-3.488 1.641,0 3.375,1.094 3.375,3.598 0,2.074 -1.316,3.488 -3.262,3.488 z m -0.031,-0.926 c 1.457,0 2.031,-1.453 2.031,-2.601 0,-1.528 -0.882,-2.633 -2.054,-2.633 -1.207,0 -2.063,1.121 -2.063,2.601 0,1.289 0.633,2.633 2.086,2.633 z m 10.516,0.77 h -1.231 v -4.157 c 0,-0.222 -0.043,-0.449 -0.113,-0.629 -0.223,-0.546 -0.797,-1.121 -1.621,-1.121 -1.121,0 -1.516,0.868 -1.516,2.157 v 3.75 h -1.23 v -3.961 c 0,-2.379 1.273,-2.969 2.34,-2.969 1.203,0 1.918,0.715 2.238,1.262 h 0.027 l 0.071,-1.106 h 1.093 c -0.043,0.531 -0.058,1.149 -0.058,1.848 z m 2.324,1.625 v -1.625 h -1.051 v -0.938 h 1.051 v -3.695 c 0,-0.797 0.129,-1.399 0.477,-1.766 0.292,-0.336 0.753,-0.515 1.332,-0.515 0.472,0 0.851,0.07 1.089,0.168 l -0.054,0.921 c -0.157,-0.039 -0.395,-0.082 -0.715,-0.082 -0.688,0 -0.926,0.477 -0.926,1.317 v 3.652 h 1.766 v 0.938 h -1.766 v 1.949 z m 4.355,-8.399 h 1.231 v 9.938 h -1.231 z m 3.305,0 h 1.231 v 6.774 h -1.231 z m 0.613,9.449 c -0.445,0 -0.769,-0.336 -0.769,-0.769 0,-0.422 0.308,-0.758 0.742,-0.758 0.492,0 0.801,0.336 0.785,0.758 0,0.433 -0.293,0.769 -0.758,0.769 z m 2.661,-9.449 h 1.234 v 4.074 c 0,0.207 0.027,0.418 0.082,0.575 0.211,0.683 0.84,1.257 1.652,1.257 1.164,0 1.571,-0.91 1.571,-2 v -3.906 h 1.23 v 4.043 c 0,2.324 -1.457,2.887 -2.394,2.887 -1.122,0 -1.903,-0.629 -2.239,-1.274 h -0.027 l -0.07,1.118 h -1.094 c 0.043,-0.559 0.055,-1.133 0.055,-1.832 z m 13.218,3.164 c 0.012,0.125 0.039,0.321 0.039,0.574 0,1.247 -0.586,3.192 -2.796,3.192 -1.977,0 -3.18,-1.61 -3.18,-3.656 0,-2.043 1.246,-3.414 3.332,-3.414 1.078,0 1.82,0.222 2.254,0.418 l -0.211,0.882 c -0.461,-0.195 -0.992,-0.347 -1.875,-0.347 -1.231,0 -2.297,0.683 -2.324,2.351 z m -4.746,0.879 c 0.098,0.856 0.645,2.004 1.891,2.004 1.383,0 1.719,-1.219 1.707,-2.004 z m 9.281,-4.043 h 1.231 v 6.774 h -1.231 z m 0.618,9.449 c -0.45,0 -0.774,-0.336 -0.774,-0.769 0,-0.422 0.309,-0.758 0.742,-0.758 0.493,0 0.801,0.336 0.786,0.758 0,0.433 -0.293,0.769 -0.754,0.769 z m 2.66,-9.449 h 1.23 v 4.074 c 0,0.207 0.028,0.418 0.082,0.575 0.211,0.683 0.84,1.257 1.653,1.257 1.164,0 1.57,-0.91 1.57,-2 v -3.906 h 1.23 v 4.043 c 0,2.324 -1.457,2.887 -2.394,2.887 -1.117,0 -1.902,-0.629 -2.238,-1.274 h -0.028 l -0.07,1.118 h -1.094 c 0.043,-0.559 0.059,-1.133 0.059,-1.832 z m 12.387,9.938 v -4.043 h -0.028 c -0.308,0.543 -1.008,1.035 -2.043,1.035 -1.652,0 -3.051,-1.387 -3.039,-3.641 0,-2.058 1.262,-3.445 2.899,-3.445 1.105,0 1.933,0.574 2.308,1.332 h 0.031 l 0.055,-1.176 h 1.106 c -0.043,0.461 -0.055,1.149 -0.055,1.75 v 8.188 z m 0,-7.098 c 0,-0.195 -0.012,-0.363 -0.055,-0.531 -0.223,-0.922 -0.981,-1.469 -1.805,-1.469 -1.332,0 -2.004,1.133 -2.004,2.504 0,1.5 0.758,2.617 2.031,2.617 0.922,0 1.594,-0.641 1.778,-1.426 0.043,-0.156 0.055,-0.363 0.055,-0.519 z m 3.277,-2.84 h 1.23 v 6.774 h -1.23 z m 0.617,9.449 c -0.449,0 -0.769,-0.336 -0.769,-0.769 0,-0.422 0.304,-0.758 0.742,-0.758 0.488,0 0.797,0.336 0.781,0.758 0,0.433 -0.293,0.769 -0.754,0.769 z m 7.277,-8.273 c -0.347,-0.156 -0.808,-0.336 -1.511,-0.336 -1.344,0 -2.352,0.965 -2.352,2.531 0,1.414 0.84,2.563 2.395,2.563 0.672,0 1.132,-0.153 1.429,-0.321 l 0.278,0.954 c -0.336,0.168 -0.981,0.347 -1.707,0.347 -2.211,0 -3.641,-1.511 -3.641,-3.597 0,-2.071 1.332,-3.457 3.375,-3.457 0.91,0 1.625,0.222 1.945,0.39 z m 6.528,-1.176 c -0.086,0.461 -0.114,1.035 -0.114,1.621 v 2.535 c 0,1.36 -0.503,2.774 -2.578,2.774 -0.851,0 -1.664,-0.238 -2.222,-0.602 l 0.277,-0.812 c 0.477,0.308 1.137,0.504 1.766,0.504 1.386,0 1.539,-1.008 1.539,-1.571 v -0.136 c -2.617,0.011 -4.074,-0.883 -4.074,-2.524 0,-0.976 0.699,-1.945 2.074,-1.945 0.965,0 1.691,0.476 2.07,1.008 h 0.043 l 0.098,-0.852 z m -1.305,2.281 c 0,-0.125 -0.027,-0.265 -0.07,-0.39 -0.196,-0.574 -0.754,-1.137 -1.637,-1.137 -0.629,0 -1.16,0.379 -1.16,1.176 0,1.316 1.523,1.555 2.867,1.527 z m 3.457,6.118 v -1.625 h -1.051 v -0.938 h 1.051 v -3.695 c 0,-0.797 0.129,-1.399 0.477,-1.766 0.297,-0.336 0.757,-0.515 1.332,-0.515 0.476,0 0.851,0.07 1.09,0.168 l -0.055,0.921 c -0.152,-0.039 -0.395,-0.082 -0.715,-0.082 -0.687,0 -0.922,0.477 -0.922,1.317 v 3.652 h 1.762 v 0.938 h -1.762 v 1.949 z m 9.801,-5.235 c 0.015,0.125 0.043,0.321 0.043,0.574 0,1.247 -0.586,3.192 -2.801,3.192 -1.973,0 -3.176,-1.61 -3.176,-3.656 0,-2.043 1.242,-3.414 3.328,-3.414 1.079,0 1.825,0.222 2.258,0.418 l -0.211,0.882 c -0.465,-0.195 -0.996,-0.347 -1.875,-0.347 -1.234,0 -2.297,0.683 -2.328,2.351 z m -4.746,0.879 c 0.097,0.856 0.644,2.004 1.89,2.004 1.387,0 1.723,-1.219 1.707,-2.004 z m 5.84,-3.723 c 0.472,-0.281 1.16,-0.46 1.902,-0.46 1.609,0 2.535,0.839 2.535,2.031 0,1.008 -0.601,1.594 -1.777,2.043 -0.883,0.336 -1.289,0.586 -1.289,1.148 0,0.504 0.406,0.922 1.133,0.922 0.632,0 1.121,-0.223 1.386,-0.391 l 0.309,0.895 c -0.379,0.227 -0.981,0.422 -1.664,0.422 -1.457,0 -2.34,-0.899 -2.34,-1.988 0,-0.813 0.574,-1.485 1.793,-1.918 0.91,-0.336 1.258,-0.661 1.258,-1.246 0,-0.559 -0.418,-1.008 -1.317,-1.008 -0.613,0 -1.258,0.25 -1.621,0.488 z m 9.265,8.079 v -1.625 h -1.051 v -0.938 h 1.051 v -3.695 c 0,-0.797 0.129,-1.399 0.477,-1.766 0.297,-0.336 0.758,-0.515 1.332,-0.515 0.476,0 0.851,0.07 1.09,0.168 l -0.055,0.921 c -0.152,-0.039 -0.395,-0.082 -0.715,-0.082 -0.687,0 -0.922,0.477 -0.922,1.317 v 3.652 h 1.762 v 0.938 h -1.762 v 1.949 z m 4.356,-8.399 h 1.23 v 4.086 c 0,0.238 0.016,0.422 0.086,0.59 0.223,0.672 0.856,1.23 1.652,1.23 1.161,0 1.567,-0.921 1.567,-2.015 v -3.891 h 1.234 v 4.031 c 0,2.336 -1.457,2.899 -2.367,2.899 -0.461,0 -0.894,-0.141 -1.262,-0.352 -0.379,-0.211 -0.683,-0.515 -0.882,-0.867 h -0.028 v 4.227 h -1.23 z m 13.215,3.164 c 0.015,0.125 0.043,0.321 0.043,0.574 0,1.247 -0.586,3.192 -2.801,3.192 -1.973,0 -3.176,-1.61 -3.176,-3.656 0,-2.043 1.242,-3.414 3.332,-3.414 1.078,0 1.82,0.222 2.254,0.418 l -0.211,0.882 c -0.461,-0.195 -0.992,-0.347 -1.875,-0.347 -1.234,0 -2.297,0.683 -2.324,2.351 z m -4.747,0.879 c 0.098,0.856 0.645,2.004 1.891,2.004 1.387,0 1.723,-1.219 1.707,-2.004 z m 8.805,-3.723 c 0.477,-0.281 1.164,-0.46 1.906,-0.46 1.61,0 2.536,0.839 2.536,2.031 0,1.008 -0.602,1.594 -1.778,2.043 -0.883,0.336 -1.289,0.586 -1.289,1.148 0,0.504 0.406,0.922 1.133,0.922 0.629,0 1.121,-0.223 1.387,-0.391 l 0.308,0.895 c -0.379,0.227 -0.98,0.422 -1.668,0.422 -1.457,0 -2.336,-0.899 -2.336,-1.988 0,-0.813 0.575,-1.485 1.789,-1.918 0.915,-0.336 1.262,-0.661 1.262,-1.246 0,-0.559 -0.418,-1.008 -1.316,-1.008 -0.614,0 -1.258,0.25 -1.621,0.488 z m 6.024,-0.32 h 1.23 v 6.774 h -1.23 z m 0.617,9.449 c -0.449,0 -0.774,-0.336 -0.774,-0.769 0,-0.422 0.309,-0.758 0.743,-0.758 0.492,0 0.8,0.336 0.785,0.758 0,0.433 -0.293,0.769 -0.754,0.769 z m 1.886,-9.449 h 5.504 v 0.981 h -3.961 v 0.027 c 0.305,0.348 0.586,0.684 0.868,1.062 l 3.023,3.934 0.012,0.77 h -5.164 v -0.993 h 3.668 v -0.027 c -0.309,-0.363 -0.59,-0.687 -0.883,-1.051 l -3.067,-3.992 z m 12.208,3.164 c 0.015,0.125 0.042,0.321 0.042,0.574 0,1.247 -0.585,3.192 -2.8,3.192 -1.973,0 -3.176,-1.61 -3.176,-3.656 0,-2.043 1.246,-3.414 3.332,-3.414 1.078,0 1.82,0.222 2.254,0.418 l -0.211,0.882 c -0.461,-0.195 -0.992,-0.347 -1.875,-0.347 -1.234,0 -2.297,0.683 -2.324,2.351 z m -4.747,0.879 c 0.102,0.856 0.645,2.004 1.891,2.004 1.387,0 1.723,-1.219 1.707,-2.004 z m 12.153,2.887 c -1.875,0 -3.36,-1.332 -3.36,-3.598 0,-2.144 1.414,-3.488 3.25,-3.488 1.637,0 3.372,1.094 3.372,3.598 0,2.074 -1.317,3.488 -3.262,3.488 z m -0.028,-0.926 c 1.457,0 2.032,-1.453 2.032,-2.601 0,-1.528 -0.883,-2.633 -2.059,-2.633 -1.203,0 -2.059,1.121 -2.059,2.601 0,1.289 0.629,2.633 2.086,2.633 z m 6.192,-6.004 v 5.836 h 1.637 v 0.938 h -1.637 v 0.367 c 0,1.035 0.262,1.957 1.312,1.957 0.352,0 0.602,-0.07 0.786,-0.153 l 0.167,0.954 c -0.238,0.097 -0.617,0.195 -1.05,0.195 -0.575,0 -1.188,-0.184 -1.653,-0.633 -0.574,-0.543 -0.785,-1.41 -0.785,-2.363 v -0.324 h -0.949 v -0.938 h 0.949 v -5.836 z m 10.469,6.774 -0.055,-1.02 h -0.027 c -0.297,0.559 -0.942,1.176 -2.114,1.176 -1.554,0 -3.054,-1.305 -3.054,-3.598 0,-1.879 1.203,-3.304 2.886,-3.304 1.047,0 1.778,0.503 2.157,1.132 h 0.027 v -0.754 c 0,-1.711 -0.926,-2.367 -2.184,-2.367 -0.84,0 -1.543,0.25 -1.988,0.531 l -0.309,-0.937 c 0.543,-0.363 1.442,-0.559 2.254,-0.559 0.852,0 1.805,0.196 2.461,0.813 0.66,0.586 0.969,1.539 0.969,3.094 v 3.933 c 0,0.824 0.027,1.371 0.055,1.86 z m -0.196,-3.891 c 0,-0.211 -0.027,-0.449 -0.097,-0.656 -0.266,-0.785 -0.954,-1.262 -1.707,-1.262 -1.332,0 -2.004,1.105 -2.004,2.438 0,1.566 0.84,2.558 2.015,2.558 0.899,0 1.5,-0.586 1.723,-1.301 0.059,-0.168 0.07,-0.347 0.07,-0.558 z m 3.262,-2.883 h 1.219 v 3.61 c 0,0.21 0.027,0.406 0.054,0.574 0.168,0.926 0.786,1.582 1.653,1.582 0.168,0 0.293,-0.012 0.422,-0.039 v 1.16 c -0.114,0.027 -0.211,0.043 -0.352,0.043 -0.824,0 -1.566,-0.574 -1.875,-1.485 h -0.058 l -0.04,1.329 h -1.078 c 0.039,-0.629 0.055,-1.317 0.055,-2.114 z m 9.449,0 c -0.082,0.461 -0.109,1.035 -0.109,1.621 v 2.535 c 0,1.36 -0.504,2.774 -2.578,2.774 -0.856,0 -1.664,-0.238 -2.227,-0.602 l 0.281,-0.812 c 0.477,0.308 1.133,0.504 1.762,0.504 1.387,0 1.543,-1.008 1.543,-1.571 v -0.136 c -2.617,0.011 -4.074,-0.883 -4.074,-2.524 0,-0.976 0.699,-1.945 2.07,-1.945 0.969,0 1.696,0.476 2.074,1.008 h 0.039 l 0.098,-0.852 z m -1.301,2.281 c 0,-0.125 -0.027,-0.265 -0.07,-0.39 -0.195,-0.574 -0.758,-1.137 -1.637,-1.137 -0.632,0 -1.164,0.379 -1.164,1.176 0,1.316 1.528,1.555 2.871,1.527 z m 3.176,-5.054 h 1.219 v 3.683 h 0.027 c 0.407,-0.672 1.192,-1.066 2.086,-1.066 1.598,0 3.082,1.207 3.082,3.641 0,2.058 -1.23,3.445 -2.871,3.445 -1.105,0 -1.902,-0.492 -2.406,-1.317 h -0.027 l -0.059,1.161 h -1.105 c 0.027,-0.645 0.054,-1.344 0.054,-2.211 z m 1.219,6.691 c 0,0.168 0.043,0.352 0.086,0.504 0.238,0.926 1.019,1.527 1.859,1.527 1.305,0 2.02,-1.164 2.02,-2.519 0,-1.555 -0.758,-2.617 -2.059,-2.617 -0.883,0 -1.625,0.586 -1.847,1.441 -0.032,0.152 -0.059,0.32 -0.059,0.504 z m 6.75,-3.918 h 1.23 v 4.086 c 0,0.238 0.016,0.422 0.086,0.59 0.223,0.672 0.852,1.23 1.653,1.23 1.16,0 1.566,-0.921 1.566,-2.015 v -3.891 h 1.231 v 4.031 c 0,2.336 -1.454,2.899 -2.364,2.899 -0.465,0 -0.898,-0.141 -1.261,-0.352 -0.379,-0.211 -0.688,-0.515 -0.883,-0.867 h -0.028 v 4.227 h -1.23 z m 7.77,0 h 1.23 v 6.774 h -1.23 z m 0.617,9.449 c -0.45,0 -0.774,-0.336 -0.774,-0.769 0,-0.422 0.309,-0.758 0.742,-0.758 0.493,0 0.801,0.336 0.786,0.758 0,0.433 -0.293,0.769 -0.754,0.769 z m 7.277,-8.273 c -0.348,-0.156 -0.812,-0.336 -1.512,-0.336 -1.343,0 -2.351,0.965 -2.351,2.531 0,1.414 0.84,2.563 2.394,2.563 0.672,0 1.133,-0.153 1.426,-0.321 l 0.281,0.954 c -0.336,0.168 -0.98,0.347 -1.707,0.347 -2.211,0 -3.64,-1.511 -3.64,-3.597 0,-2.071 1.332,-3.457 3.375,-3.457 0.91,0 1.625,0.222 1.945,0.39 z m 3.781,5.598 2.575,-6.774 h 1.175 l 2.66,6.774 h -1.285 l -1.316,-3.805 c -0.227,-0.617 -0.422,-1.18 -0.574,-1.738 h -0.043 c -0.141,0.558 -0.321,1.121 -0.547,1.738 l -1.328,3.805 z m 7.575,-6.774 h 1.23 v 6.774 h -1.23 z m 0.617,9.449 c -0.45,0 -0.774,-0.336 -0.774,-0.769 0,-0.422 0.309,-0.758 0.742,-0.758 0.493,0 0.801,0.336 0.786,0.758 0,0.433 -0.293,0.769 -0.754,0.769 z m 2.183,-9.129 c 0.477,-0.281 1.16,-0.46 1.903,-0.46 1.609,0 2.535,0.839 2.535,2.031 0,1.008 -0.602,1.594 -1.778,2.043 -0.882,0.336 -1.289,0.586 -1.289,1.148 0,0.504 0.407,0.922 1.133,0.922 0.629,0 1.121,-0.223 1.387,-0.391 l 0.309,0.895 c -0.379,0.227 -0.981,0.422 -1.668,0.422 -1.454,0 -2.336,-0.899 -2.336,-1.988 0,-0.813 0.574,-1.485 1.793,-1.918 0.91,-0.336 1.257,-0.661 1.257,-1.246 0,-0.559 -0.418,-1.008 -1.316,-1.008 -0.613,0 -1.258,0.25 -1.621,0.488 z m 6.02,-0.32 h 1.23 v 6.774 h -1.23 z m 0.613,9.449 c -0.445,0 -0.769,-0.336 -0.769,-0.769 0,-0.422 0.308,-0.758 0.742,-0.758 0.492,0 0.801,0.336 0.785,0.758 0,0.433 -0.293,0.769 -0.758,0.769 z m 3.668,-9.449 0.059,1.117 h 0.043 c 0.504,-0.894 1.285,-1.273 2.265,-1.273 1.512,0 3.039,1.207 3.039,3.629 0.016,2.055 -1.175,3.457 -2.855,3.457 -1.094,0 -1.875,-0.492 -2.313,-1.246 h -0.027 v 4.254 h -1.219 v -8.188 c 0,-0.601 -0.027,-1.289 -0.054,-1.75 z m 0.211,3.934 c 0,0.195 0.043,0.363 0.07,0.504 0.254,0.937 1.035,1.511 1.875,1.511 1.317,0 2.02,-1.164 2.02,-2.519 0,-1.555 -0.774,-2.606 -2.059,-2.606 -0.898,0 -1.609,0.59 -1.847,1.442 -0.032,0.14 -0.059,0.297 -0.059,0.449 z m 6.75,-3.934 h 1.23 v 9.938 h -1.23 z m 8.75,3.164 c 0.012,0.125 0.039,0.321 0.039,0.574 0,1.247 -0.586,3.192 -2.797,3.192 -1.976,0 -3.18,-1.61 -3.18,-3.656 0,-2.043 1.247,-3.414 3.333,-3.414 1.078,0 1.82,0.222 2.253,0.418 l -0.21,0.882 c -0.461,-0.195 -0.993,-0.347 -1.876,-0.347 -1.23,0 -2.296,0.683 -2.324,2.351 z m -4.746,0.879 c 0.098,0.856 0.644,2.004 1.891,2.004 1.382,0 1.718,-1.219 1.707,-2.004 z m 12.152,2.887 c -1.879,0 -3.359,-1.332 -3.359,-3.598 0,-2.144 1.414,-3.488 3.246,-3.488 1.637,0 3.375,1.094 3.375,3.598 0,2.074 -1.316,3.488 -3.262,3.488 z m -0.031,-0.926 c 1.457,0 2.031,-1.453 2.031,-2.601 0,-1.528 -0.883,-2.633 -2.058,-2.633 -1.203,0 -2.059,1.121 -2.059,2.601 0,1.289 0.633,2.633 2.086,2.633 z m 4.848,-6.004 h 1.23 v 4.074 c 0,0.207 0.027,0.418 0.082,0.575 0.211,0.683 0.844,1.257 1.653,1.257 1.164,0 1.57,-0.91 1.57,-2 v -3.906 h 1.23 v 4.043 c 0,2.324 -1.457,2.887 -2.394,2.887 -1.117,0 -1.903,-0.629 -2.239,-1.274 h -0.027 l -0.07,1.118 h -1.094 c 0.043,-0.559 0.059,-1.133 0.059,-1.832 z m 11.015,8.399 v -1.625 h -1.05 v -0.938 h 1.05 v -3.695 c 0,-0.797 0.125,-1.399 0.477,-1.766 0.293,-0.336 0.754,-0.515 1.332,-0.515 0.473,0 0.851,0.07 1.09,0.168 l -0.055,0.921 c -0.156,-0.039 -0.394,-0.082 -0.715,-0.082 -0.687,0 -0.926,0.477 -0.926,1.317 v 3.652 h 1.766 v 0.938 h -1.766 v 1.949 z m 4.356,-8.399 h 1.23 v 4.086 c 0,0.238 0.016,0.422 0.086,0.59 0.223,0.672 0.852,1.23 1.652,1.23 1.161,0 1.567,-0.921 1.567,-2.015 v -3.891 h 1.23 v 4.031 c 0,2.336 -1.453,2.899 -2.363,2.899 -0.465,0 -0.898,-0.141 -1.262,-0.352 -0.379,-0.211 -0.683,-0.515 -0.882,-0.867 h -0.028 v 4.227 h -1.23 z m 13.215,3.164 c 0.015,0.125 0.043,0.321 0.043,0.574 0,1.247 -0.59,3.192 -2.801,3.192 -1.973,0 -3.18,-1.61 -3.18,-3.656 0,-2.043 1.246,-3.414 3.332,-3.414 1.078,0 1.82,0.222 2.258,0.418 l -0.211,0.882 c -0.465,-0.195 -0.996,-0.347 -1.879,-0.347 -1.23,0 -2.293,0.683 -2.32,2.351 z m -4.747,0.879 c 0.098,0.856 0.645,2.004 1.891,2.004 1.387,0 1.723,-1.219 1.707,-2.004 z m 9.282,-6.816 h 1.218 v 3.683 h 0.028 c 0.406,-0.672 1.191,-1.066 2.086,-1.066 1.597,0 3.082,1.207 3.082,3.641 0,2.058 -1.235,3.445 -2.871,3.445 -1.106,0 -1.903,-0.492 -2.407,-1.317 h -0.031 l -0.054,1.161 h -1.106 c 0.027,-0.645 0.055,-1.344 0.055,-2.211 z m 1.218,6.691 c 0,0.168 0.043,0.352 0.086,0.504 0.239,0.926 1.02,1.527 1.86,1.527 1.304,0 2.015,-1.164 2.015,-2.519 0,-1.555 -0.753,-2.617 -2.054,-2.617 -0.883,0 -1.625,0.586 -1.852,1.441 -0.027,0.152 -0.055,0.32 -0.055,0.504 z m 6.747,-3.918 h 1.218 v 3.61 c 0,0.21 0.032,0.406 0.059,0.574 0.168,0.926 0.781,1.582 1.652,1.582 0.168,0 0.293,-0.012 0.418,-0.039 v 1.16 c -0.109,0.027 -0.211,0.043 -0.347,0.043 -0.829,0 -1.571,-0.574 -1.879,-1.485 h -0.055 l -0.043,1.329 h -1.078 c 0.043,-0.629 0.055,-1.317 0.055,-2.114 z m 7.449,6.93 c -1.875,0 -3.36,-1.332 -3.36,-3.598 0,-2.144 1.414,-3.488 3.25,-3.488 1.637,0 3.372,1.094 3.372,3.598 0,2.074 -1.317,3.488 -3.262,3.488 z m -0.028,-0.926 c 1.458,0 2.032,-1.453 2.032,-2.601 0,-1.528 -0.883,-2.633 -2.059,-2.633 -1.203,0 -2.058,1.121 -2.058,2.601 0,1.289 0.628,2.633 2.085,2.633 z m 9.465,3.934 v -4.043 h -0.027 c -0.309,0.543 -1.008,1.035 -2.047,1.035 -1.648,0 -3.051,-1.387 -3.035,-3.641 0,-2.058 1.258,-3.445 2.898,-3.445 1.106,0 1.93,0.574 2.309,1.332 h 0.027 l 0.059,-1.176 h 1.105 c -0.043,0.461 -0.058,1.149 -0.058,1.75 v 8.188 z m 0,-7.098 c 0,-0.195 -0.015,-0.363 -0.054,-0.531 -0.227,-0.922 -0.981,-1.469 -1.809,-1.469 -1.328,0 -2,1.133 -2,2.504 0,1.5 0.754,2.617 2.027,2.617 0.926,0 1.598,-0.641 1.782,-1.426 0.039,-0.156 0.054,-0.363 0.054,-0.519 z m 8.946,3.934 h -1.231 v -4.157 c 0,-0.222 -0.043,-0.449 -0.113,-0.629 -0.227,-0.546 -0.801,-1.121 -1.625,-1.121 -1.117,0 -1.512,0.868 -1.512,2.157 v 3.75 h -1.23 v -3.961 c 0,-2.379 1.273,-2.969 2.336,-2.969 1.207,0 1.918,0.715 2.242,1.262 h 0.027 l 0.07,-1.106 h 1.09 c -0.039,0.531 -0.054,1.149 -0.054,1.848 z m 6.664,-5.598 c -0.352,-0.156 -0.813,-0.336 -1.512,-0.336 -1.344,0 -2.352,0.965 -2.352,2.531 0,1.414 0.84,2.563 2.395,2.563 0.672,0 1.133,-0.153 1.426,-0.321 l 0.281,0.954 c -0.336,0.168 -0.981,0.347 -1.707,0.347 -2.215,0 -3.641,-1.511 -3.641,-3.597 0,-2.071 1.328,-3.457 3.375,-3.457 0.91,0 1.621,0.222 1.946,0.39 z m 1.929,7.223 v -1.625 h -1.046 v -0.938 h 1.046 v -3.695 c 0,-0.797 0.129,-1.399 0.477,-1.766 0.297,-0.336 0.758,-0.515 1.332,-0.515 0.477,0 0.852,0.07 1.094,0.168 l -0.059,0.921 c -0.152,-0.039 -0.39,-0.082 -0.715,-0.082 -0.683,0 -0.922,0.477 -0.922,1.317 v 3.652 h 1.762 v 0.938 h -1.762 v 1.949 z m 4.887,-8.555 c 0.52,0 0.844,0.379 0.844,0.883 0,0.519 -0.34,0.883 -0.828,0.883 -0.489,0 -0.84,-0.364 -0.84,-0.883 0,-0.504 0.336,-0.883 0.824,-0.883"
         style="fill:#231f20;fill-opacity:1;fill-rule:evenodd;stroke:none"
         id="path56"
         inkscape:connector-curvature="0" /><path
         d="m 40.914,76 h 1.231 v 8.398 h 2.886 v 1.036 h -6.988 v -1.036 h 2.871 z m 5.125,0 h 1.231 v 4.086 c 0,0.238 0.015,0.422 0.085,0.59 0.223,0.672 0.852,1.23 1.653,1.23 1.16,0 1.566,-0.922 1.566,-2.015 V 76 h 1.231 v 4.031 c 0,2.336 -1.453,2.899 -2.364,2.899 -0.464,0 -0.898,-0.141 -1.261,-0.352 -0.379,-0.211 -0.688,-0.515 -0.883,-0.867 H 47.27 v 4.227 h -1.231 z m 13.215,3.164 c 0.016,0.125 0.043,0.32 0.043,0.574 0,1.246 -0.59,3.192 -2.801,3.192 -1.973,0 -3.18,-1.61 -3.18,-3.657 0,-2.042 1.246,-3.414 3.332,-3.414 1.079,0 1.821,0.223 2.254,0.418 l -0.207,0.883 c -0.465,-0.195 -0.996,-0.347 -1.879,-0.347 -1.23,0 -2.293,0.683 -2.324,2.351 z m -4.746,0.883 c 0.097,0.851 0.644,2 1.89,2 1.387,0 1.723,-1.219 1.707,-2 z m 9.281,-6.82 h 1.219 v 3.683 h 0.027 c 0.406,-0.672 1.192,-1.066 2.086,-1.066 1.598,0 3.082,1.207 3.082,3.64 0,2.059 -1.234,3.446 -2.871,3.446 -1.105,0 -1.902,-0.492 -2.406,-1.317 h -0.031 l -0.055,1.16 h -1.106 c 0.028,-0.64 0.055,-1.343 0.055,-2.21 z m 1.219,6.691 c 0,0.168 0.043,0.352 0.086,0.504 0.234,0.926 1.019,1.527 1.859,1.527 1.305,0 2.016,-1.164 2.016,-2.519 0,-1.555 -0.754,-2.617 -2.059,-2.617 -0.879,0 -1.621,0.585 -1.848,1.441 -0.027,0.152 -0.054,0.32 -0.054,0.504 z M 71.758,76 h 1.23 v 6.773 h -1.23 z m 0.613,9.449 c -0.445,0 -0.769,-0.336 -0.769,-0.769 0,-0.422 0.308,-0.758 0.742,-0.758 0.492,0 0.797,0.336 0.785,0.758 0,0.433 -0.293,0.769 -0.758,0.769 z M 75.031,76 h 1.235 v 4.074 c 0,0.207 0.027,0.418 0.082,0.574 0.211,0.684 0.84,1.258 1.652,1.258 1.16,0 1.566,-0.91 1.566,-2 V 76 h 1.235 v 4.047 c 0,2.32 -1.457,2.883 -2.395,2.883 -1.121,0 -1.902,-0.629 -2.242,-1.274 h -0.027 l -0.071,1.117 h -1.089 c 0.043,-0.558 0.054,-1.132 0.054,-1.832 z m 8.989,9.938 H 82.801 V 76 h 1.219 v 2.547 l 0.628,0.699 2.34,-3.246 h 1.496 l -2.98,3.988 2.617,2.785 h -1.484 l -1.989,-2.335 c -0.195,-0.239 -0.433,-0.532 -0.601,-0.77 H 84.02 Z M 92.336,76 h 1.23 v 9.938 h -1.23 z m 3.305,0 h 1.23 v 6.773 h -1.23 z m 0.617,9.449 c -0.449,0 -0.774,-0.336 -0.774,-0.769 0,-0.422 0.309,-0.758 0.743,-0.758 0.492,0 0.8,0.336 0.785,0.758 0,0.433 -0.293,0.769 -0.754,0.769 z M 98.914,76 h 1.234 v 4.074 c 0,0.207 0.028,0.418 0.082,0.574 0.211,0.684 0.84,1.258 1.653,1.258 1.164,0 1.57,-0.91 1.57,-2 V 76 h 1.231 v 4.047 c 0,2.32 -1.457,2.883 -2.395,2.883 -1.117,0 -1.902,-0.629 -2.238,-1.274 h -0.028 l -0.07,1.117 h -1.094 c 0.043,-0.558 0.055,-1.132 0.055,-1.832 z m 13.219,3.164 c 0.012,0.125 0.043,0.32 0.043,0.574 0,1.246 -0.59,3.192 -2.801,3.192 -1.977,0 -3.18,-1.61 -3.18,-3.657 0,-2.042 1.246,-3.414 3.332,-3.414 1.078,0 1.821,0.223 2.254,0.418 l -0.211,0.883 c -0.461,-0.195 -0.992,-0.347 -1.875,-0.347 -1.23,0 -2.297,0.683 -2.324,2.351 z m -4.746,0.883 c 0.097,0.851 0.644,2 1.89,2 1.383,0 1.719,-1.219 1.707,-2 z M 116.668,76 h 1.23 v 6.773 h -1.23 z m 0.617,9.449 c -0.449,0 -0.769,-0.336 -0.769,-0.769 0,-0.422 0.304,-0.758 0.742,-0.758 0.488,0 0.797,0.336 0.781,0.758 0,0.433 -0.293,0.769 -0.754,0.769 z M 119.945,76 h 1.231 v 4.074 c 0,0.207 0.027,0.418 0.086,0.574 0.207,0.684 0.84,1.258 1.648,1.258 1.164,0 1.57,-0.91 1.57,-2 V 76 h 1.231 v 4.047 c 0,2.32 -1.453,2.883 -2.395,2.883 -1.117,0 -1.902,-0.629 -2.238,-1.274 h -0.027 l -0.071,1.117 h -1.093 c 0.043,-0.558 0.058,-1.132 0.058,-1.832 z m 12.391,9.938 v -4.043 h -0.031 c -0.309,0.543 -1.008,1.035 -2.043,1.035 -1.653,0 -3.051,-1.387 -3.039,-3.641 0,-2.058 1.261,-3.445 2.898,-3.445 1.106,0 1.934,0.574 2.313,1.332 h 0.027 L 132.516,76 h 1.105 c -0.043,0.461 -0.055,1.148 -0.055,1.75 v 8.188 z m 0,-7.098 c 0,-0.195 -0.016,-0.363 -0.059,-0.531 -0.222,-0.922 -0.98,-1.469 -1.804,-1.469 -1.332,0 -2.004,1.133 -2.004,2.504 0,1.5 0.758,2.621 2.031,2.621 0.926,0 1.598,-0.645 1.777,-1.43 0.043,-0.152 0.059,-0.363 0.059,-0.519 z M 135.609,76 h 1.235 v 6.773 h -1.235 z m 0.618,9.449 c -0.45,0 -0.77,-0.336 -0.77,-0.769 0,-0.422 0.309,-0.758 0.742,-0.758 0.489,0 0.797,0.336 0.781,0.758 0,0.433 -0.292,0.769 -0.753,0.769 z m 7.281,-8.273 c -0.352,-0.156 -0.813,-0.336 -1.516,-0.336 -1.344,0 -2.351,0.965 -2.351,2.531 0,1.414 0.839,2.563 2.394,2.563 0.672,0 1.137,-0.153 1.43,-0.321 l 0.277,0.953 c -0.336,0.168 -0.976,0.348 -1.707,0.348 -2.211,0 -3.64,-1.512 -3.64,-3.598 0,-2.07 1.332,-3.457 3.375,-3.457 0.91,0 1.625,0.223 1.945,0.391 z M 150.031,76 c -0.086,0.461 -0.113,1.035 -0.113,1.621 v 2.535 c 0,1.36 -0.504,2.774 -2.574,2.774 -0.856,0 -1.668,-0.239 -2.227,-0.602 l 0.278,-0.812 c 0.476,0.308 1.136,0.504 1.765,0.504 1.387,0 1.539,-1.008 1.539,-1.571 v -0.136 c -2.617,0.011 -4.074,-0.883 -4.074,-2.524 0,-0.976 0.699,-1.945 2.074,-1.945 0.965,0 1.692,0.476 2.071,1.008 h 0.042 L 148.91,76 Z m -1.304,2.281 c 0,-0.125 -0.028,-0.265 -0.071,-0.39 -0.195,-0.575 -0.754,-1.137 -1.636,-1.137 -0.629,0 -1.161,0.379 -1.161,1.176 0,1.316 1.524,1.554 2.868,1.527 z m 3.457,6.117 v -1.625 h -1.047 v -0.937 h 1.047 v -3.695 c 0,-0.797 0.128,-1.399 0.476,-1.762 0.297,-0.34 0.758,-0.52 1.332,-0.52 0.477,0 0.852,0.071 1.094,0.168 l -0.059,0.922 c -0.152,-0.039 -0.39,-0.082 -0.715,-0.082 -0.683,0 -0.921,0.477 -0.921,1.317 v 3.652 h 1.761 v 0.937 h -1.761 v 1.95 z m 9.8,-5.234 c 0.016,0.125 0.043,0.32 0.043,0.574 0,1.246 -0.586,3.192 -2.8,3.192 -1.973,0 -3.176,-1.61 -3.176,-3.657 0,-2.042 1.246,-3.414 3.332,-3.414 1.078,0 1.82,0.223 2.254,0.418 l -0.211,0.883 c -0.461,-0.195 -0.992,-0.347 -1.875,-0.347 -1.235,0 -2.297,0.683 -2.324,2.351 z m -4.746,0.883 c 0.102,0.851 0.645,2 1.891,2 1.387,0 1.723,-1.219 1.711,-2 z m 5.84,-3.727 c 0.477,-0.281 1.16,-0.461 1.902,-0.461 1.614,0 2.536,0.84 2.536,2.032 0,1.007 -0.602,1.593 -1.778,2.043 -0.883,0.336 -1.289,0.586 -1.289,1.148 0,0.504 0.406,0.922 1.137,0.922 0.629,0 1.117,-0.223 1.383,-0.391 l 0.308,0.895 c -0.379,0.226 -0.98,0.422 -1.664,0.422 -1.457,0 -2.34,-0.899 -2.34,-1.989 0,-0.812 0.575,-1.484 1.793,-1.918 0.911,-0.335 1.258,-0.66 1.258,-1.246 0,-0.558 -0.418,-1.007 -1.312,-1.007 -0.617,0 -1.262,0.25 -1.625,0.488 z m 9.266,8.078 v -1.625 h -1.047 v -0.937 h 1.047 v -3.695 c 0,-0.797 0.129,-1.399 0.476,-1.762 0.297,-0.34 0.758,-0.52 1.332,-0.52 0.477,0 0.852,0.071 1.09,0.168 l -0.054,0.922 c -0.153,-0.039 -0.391,-0.082 -0.715,-0.082 -0.688,0 -0.922,0.477 -0.922,1.317 v 3.652 h 1.761 v 0.937 h -1.761 v 1.95 z M 176.699,76 h 1.235 v 4.086 c 0,0.238 0.011,0.422 0.082,0.59 0.222,0.672 0.855,1.23 1.652,1.23 1.16,0 1.566,-0.922 1.566,-2.015 V 76 h 1.235 v 4.031 c 0,2.336 -1.457,2.899 -2.367,2.899 -0.461,0 -0.895,-0.141 -1.258,-0.352 -0.379,-0.211 -0.688,-0.515 -0.883,-0.867 h -0.027 v 4.227 h -1.235 z m 13.215,3.164 c 0.016,0.125 0.043,0.32 0.043,0.574 0,1.246 -0.586,3.192 -2.801,3.192 -1.972,0 -3.176,-1.61 -3.176,-3.657 0,-2.042 1.247,-3.414 3.332,-3.414 1.079,0 1.821,0.223 2.254,0.418 l -0.211,0.883 c -0.46,-0.195 -0.992,-0.347 -1.875,-0.347 -1.234,0 -2.296,0.683 -2.324,2.351 z m -4.742,0.883 c 0.098,0.851 0.64,2 1.887,2 1.386,0 1.722,-1.219 1.711,-2 z m 8.805,-3.727 c 0.472,-0.281 1.16,-0.461 1.902,-0.461 1.609,0 2.535,0.84 2.535,2.032 0,1.007 -0.602,1.593 -1.777,2.043 -0.883,0.336 -1.289,0.586 -1.289,1.148 0,0.504 0.406,0.922 1.132,0.922 0.629,0 1.122,-0.223 1.387,-0.391 l 0.309,0.895 c -0.379,0.226 -0.981,0.422 -1.664,0.422 -1.457,0 -2.34,-0.899 -2.34,-1.989 0,-0.812 0.574,-1.484 1.793,-1.918 0.91,-0.335 1.258,-0.66 1.258,-1.246 0,-0.558 -0.418,-1.007 -1.317,-1.007 -0.613,0 -1.258,0.25 -1.621,0.488 z M 199.996,76 h 1.231 v 6.773 h -1.231 z m 0.617,9.449 c -0.449,0 -0.769,-0.336 -0.769,-0.769 0,-0.422 0.304,-0.758 0.742,-0.758 0.488,0 0.797,0.336 0.781,0.758 0,0.433 -0.293,0.769 -0.754,0.769 z M 202.504,76 h 5.5 v 0.981 h -3.961 v 0.027 c 0.305,0.348 0.586,0.683 0.867,1.062 l 3.024,3.934 0.011,0.769 h -5.164 v -0.992 h 3.668 v -0.027 c -0.308,-0.363 -0.59,-0.688 -0.883,-1.051 l -3.062,-3.988 z m 12.207,3.164 c 0.012,0.125 0.039,0.32 0.039,0.574 0,1.246 -0.586,3.192 -2.801,3.192 -1.972,0 -3.176,-1.61 -3.176,-3.657 0,-2.042 1.247,-3.414 3.332,-3.414 1.079,0 1.821,0.223 2.254,0.418 l -0.211,0.883 c -0.46,-0.195 -0.992,-0.347 -1.875,-0.347 -1.23,0 -2.296,0.683 -2.324,2.351 z m -4.746,0.883 c 0.097,0.851 0.644,2 1.887,2 1.386,0 1.722,-1.219 1.71,-2 z m 12.148,2.883 c -1.875,0 -3.359,-1.332 -3.359,-3.598 0,-2.144 1.414,-3.488 3.25,-3.488 1.637,0 3.375,1.094 3.375,3.597 0,2.075 -1.317,3.489 -3.266,3.489 z m -0.027,-0.926 c 1.457,0 2.031,-1.453 2.031,-2.602 0,-1.527 -0.883,-2.632 -2.058,-2.632 -1.204,0 -2.059,1.121 -2.059,2.601 0,1.289 0.633,2.633 2.086,2.633 z M 228.277,76 v 5.836 h 1.637 v 0.937 h -1.637 v 0.368 c 0,1.035 0.262,1.957 1.313,1.957 0.351,0 0.601,-0.071 0.785,-0.153 l 0.168,0.953 c -0.238,0.098 -0.613,0.196 -1.051,0.196 -0.57,0 -1.187,-0.184 -1.648,-0.629 -0.574,-0.547 -0.785,-1.414 -0.785,-2.367 v -0.325 h -0.954 v -0.937 h 0.954 V 76 Z m 5.989,8.398 v -1.625 h -1.047 v -0.937 h 1.047 v -3.695 c 0,-0.797 0.129,-1.399 0.476,-1.762 0.297,-0.34 0.758,-0.52 1.332,-0.52 0.477,0 0.852,0.071 1.09,0.168 l -0.055,0.922 c -0.152,-0.039 -0.39,-0.082 -0.714,-0.082 -0.684,0 -0.922,0.477 -0.922,1.317 v 3.652 h 1.761 v 0.937 h -1.761 v 1.95 z M 238.621,76 h 1.234 v 4.086 c 0,0.238 0.012,0.422 0.083,0.59 0.222,0.672 0.855,1.23 1.652,1.23 1.164,0 1.566,-0.922 1.566,-2.015 V 76 h 1.235 v 4.031 c 0,2.336 -1.457,2.899 -2.368,2.899 -0.461,0 -0.894,-0.141 -1.257,-0.352 -0.379,-0.211 -0.688,-0.515 -0.883,-0.867 h -0.028 v 4.227 h -1.234 z m 13.219,3.164 c 0.012,0.125 0.039,0.32 0.039,0.574 0,1.246 -0.586,3.192 -2.801,3.192 -1.973,0 -3.176,-1.61 -3.176,-3.657 0,-2.042 1.246,-3.414 3.332,-3.414 1.078,0 1.821,0.223 2.254,0.418 l -0.211,0.883 c -0.461,-0.195 -0.992,-0.347 -1.875,-0.347 -1.23,0 -2.297,0.683 -2.324,2.351 z m -4.746,0.883 c 0.097,0.851 0.64,2 1.886,2 1.387,0 1.723,-1.219 1.711,-2 z M 256.371,76 h 1.219 v 3.609 c 0,0.211 0.031,0.407 0.058,0.575 0.168,0.925 0.786,1.582 1.653,1.582 0.168,0 0.293,-0.012 0.418,-0.039 v 1.16 c -0.114,0.027 -0.207,0.043 -0.348,0.043 -0.828,0 -1.57,-0.574 -1.879,-1.485 h -0.054 l -0.043,1.328 h -1.079 c 0.043,-0.628 0.055,-1.316 0.055,-2.113 z m 10.027,3.164 c 0.012,0.125 0.043,0.32 0.043,0.574 0,1.246 -0.589,3.192 -2.8,3.192 -1.977,0 -3.18,-1.61 -3.18,-3.657 0,-2.042 1.246,-3.414 3.332,-3.414 1.078,0 1.82,0.223 2.254,0.418 l -0.211,0.883 c -0.461,-0.195 -0.992,-0.347 -1.875,-0.347 -1.231,0 -2.297,0.683 -2.324,2.351 z m -4.746,0.883 c 0.098,0.851 0.645,2 1.887,2 1.391,0 1.723,-1.219 1.711,-2 z m 10.934,-6.82 h 1.23 v 7.687 c 0,0.699 0.016,1.285 0.043,1.859 h -1.16 l -0.043,-1.019 h -0.027 c -0.336,0.656 -1.035,1.176 -2.086,1.176 -1.43,0 -3.066,-1.121 -3.066,-3.657 0,-2.054 1.289,-3.429 2.871,-3.429 1.09,0 1.847,0.535 2.211,1.207 h 0.027 z m 0,5.531 c 0,-0.184 -0.043,-0.422 -0.098,-0.59 -0.281,-0.852 -0.965,-1.344 -1.765,-1.344 -1.36,0 -2,1.176 -2,2.52 0,1.527 0.769,2.605 2.043,2.605 0.925,0 1.582,-0.644 1.761,-1.398 0.043,-0.156 0.059,-0.352 0.059,-0.52 z m 8.934,4.015 h -1.235 v -4.156 c 0,-0.222 -0.043,-0.449 -0.109,-0.629 -0.227,-0.547 -0.801,-1.121 -1.625,-1.121 -1.121,0 -1.516,0.867 -1.516,2.156 v 3.75 h -1.23 v -3.96 c 0,-2.379 1.273,-2.969 2.34,-2.969 1.203,0 1.917,0.715 2.238,1.262 h 0.027 L 280.48,76 h 1.094 c -0.043,0.531 -0.054,1.148 -0.054,1.848 z M 283.562,76 h 1.231 v 6.773 h -1.231 z m 0.618,9.449 c -0.45,0 -0.774,-0.336 -0.774,-0.769 0,-0.422 0.309,-0.758 0.742,-0.758 0.493,0 0.801,0.336 0.786,0.758 0,0.433 -0.293,0.769 -0.754,0.769 z M 286.836,76 h 1.219 v 3.609 c 0,0.211 0.027,0.407 0.058,0.575 0.164,0.925 0.782,1.582 1.653,1.582 0.164,0 0.293,-0.012 0.418,-0.039 v 1.16 c -0.114,0.027 -0.211,0.043 -0.348,0.043 -0.828,0 -1.57,-0.574 -1.879,-1.485 h -0.055 l -0.043,1.328 h -1.078 c 0.043,-0.628 0.055,-1.316 0.055,-2.113 z m 10.027,3.164 c 0.012,0.125 0.039,0.32 0.039,0.574 0,1.246 -0.586,3.192 -2.8,3.192 -1.973,0 -3.176,-1.61 -3.176,-3.657 0,-2.042 1.246,-3.414 3.332,-3.414 1.078,0 1.82,0.223 2.254,0.418 l -0.211,0.883 c -0.461,-0.195 -0.992,-0.347 -1.875,-0.347 -1.231,0 -2.297,0.683 -2.324,2.351 z m -4.75,0.883 c 0.102,0.851 0.649,2 1.891,2 1.387,0 1.723,-1.219 1.711,-2 z m 10.938,5.891 v -4.043 h -0.028 c -0.308,0.543 -1.011,1.035 -2.046,1.035 -1.653,0 -3.051,-1.387 -3.036,-3.641 0,-2.058 1.258,-3.445 2.895,-3.445 1.105,0 1.934,0.574 2.312,1.332 h 0.028 L 303.23,76 h 1.11 c -0.043,0.461 -0.059,1.148 -0.059,1.75 v 8.188 z m 0,-7.098 c 0,-0.195 -0.016,-0.363 -0.059,-0.531 -0.222,-0.922 -0.98,-1.469 -1.804,-1.469 -1.333,0 -2.004,1.133 -2.004,2.504 0,1.5 0.757,2.621 2.031,2.621 0.926,0 1.597,-0.645 1.777,-1.43 0.043,-0.152 0.059,-0.363 0.059,-0.519 z m 11.004,3.933 -0.059,-1.019 h -0.027 c -0.293,0.559 -0.938,1.176 -2.114,1.176 -1.554,0 -3.05,-1.301 -3.05,-3.598 0,-1.879 1.203,-3.305 2.883,-3.305 1.05,0 1.777,0.504 2.156,1.133 h 0.027 v -0.754 c 0,-1.711 -0.926,-2.367 -2.183,-2.367 -0.84,0 -1.54,0.25 -1.989,0.531 l -0.308,-0.937 c 0.547,-0.363 1.441,-0.559 2.254,-0.559 0.855,0 1.804,0.196 2.464,0.813 0.657,0.586 0.965,1.539 0.965,3.094 v 3.933 c 0,0.824 0.028,1.371 0.059,1.859 z m -0.2,-3.89 c 0,-0.211 -0.027,-0.449 -0.097,-0.656 -0.266,-0.786 -0.949,-1.262 -1.707,-1.262 -1.328,0 -2,1.105 -2,2.437 0,1.567 0.84,2.563 2.015,2.563 0.895,0 1.496,-0.59 1.719,-1.305 0.059,-0.168 0.07,-0.347 0.07,-0.558 z M 317.117,76 h 1.219 v 3.609 c 0,0.211 0.027,0.407 0.059,0.575 0.167,0.925 0.781,1.582 1.652,1.582 0.168,0 0.293,-0.012 0.418,-0.039 v 1.16 c -0.113,0.027 -0.211,0.043 -0.352,0.043 -0.824,0 -1.566,-0.574 -1.875,-1.485 h -0.054 l -0.043,1.328 h -1.079 c 0.043,-0.628 0.055,-1.316 0.055,-2.113 z m 9.453,0 c -0.086,0.461 -0.113,1.035 -0.113,1.621 v 2.535 c 0,1.36 -0.504,2.774 -2.574,2.774 -0.856,0 -1.668,-0.239 -2.227,-0.602 l 0.278,-0.812 c 0.476,0.308 1.136,0.504 1.765,0.504 1.387,0 1.539,-1.008 1.539,-1.571 v -0.136 c -2.617,0.011 -4.074,-0.883 -4.074,-2.524 0,-0.976 0.699,-1.945 2.074,-1.945 0.965,0 1.692,0.476 2.071,1.008 h 0.043 L 325.449,76 Z m -1.304,2.281 c 0,-0.125 -0.028,-0.265 -0.071,-0.39 -0.195,-0.575 -0.754,-1.137 -1.636,-1.137 -0.629,0 -1.161,0.379 -1.161,1.176 0,1.316 1.524,1.554 2.868,1.527 z m 3.179,-5.054 h 1.219 v 3.683 h 0.027 c 0.407,-0.672 1.192,-1.066 2.086,-1.066 1.594,0 3.078,1.207 3.078,3.64 0,2.059 -1.23,3.446 -2.867,3.446 -1.105,0 -1.906,-0.492 -2.41,-1.317 h -0.027 l -0.055,1.16 h -1.105 c 0.027,-0.64 0.054,-1.343 0.054,-2.21 z m 1.219,6.691 c 0,0.168 0.039,0.352 0.082,0.504 0.238,0.926 1.024,1.527 1.863,1.527 1.301,0 2.016,-1.164 2.016,-2.519 0,-1.555 -0.758,-2.617 -2.059,-2.617 -0.882,0 -1.625,0.585 -1.847,1.441 -0.028,0.152 -0.055,0.32 -0.055,0.504 z M 336.41,76 h 1.235 v 4.086 c 0,0.238 0.011,0.422 0.082,0.59 0.222,0.672 0.855,1.23 1.652,1.23 1.16,0 1.566,-0.922 1.566,-2.015 V 76 h 1.235 v 4.031 c 0,2.336 -1.457,2.899 -2.368,2.899 -0.46,0 -0.894,-0.141 -1.257,-0.352 -0.379,-0.211 -0.688,-0.515 -0.883,-0.867 h -0.027 v 4.227 h -1.235 z m 7.77,0 h 1.234 v 6.773 h -1.234 z m 0.617,9.449 c -0.449,0 -0.77,-0.336 -0.77,-0.769 0,-0.422 0.309,-0.758 0.743,-0.758 0.488,0 0.796,0.336 0.785,0.758 0,0.433 -0.297,0.769 -0.758,0.769 z m 7.281,-8.273 c -0.351,-0.156 -0.812,-0.336 -1.512,-0.336 -1.343,0 -2.351,0.965 -2.351,2.531 0,1.414 0.84,2.563 2.39,2.563 0.672,0 1.137,-0.153 1.43,-0.321 l 0.281,0.953 c -0.336,0.168 -0.98,0.348 -1.711,0.348 -2.21,0 -3.636,-1.512 -3.636,-3.598 0,-2.07 1.328,-3.457 3.371,-3.457 0.91,0 1.625,0.223 1.945,0.391 z m 1.176,-0.856 c 0.473,-0.281 1.16,-0.461 1.902,-0.461 1.61,0 2.535,0.84 2.535,2.032 0,1.007 -0.601,1.593 -1.777,2.043 -0.883,0.336 -1.289,0.586 -1.289,1.148 0,0.504 0.406,0.922 1.133,0.922 0.633,0 1.121,-0.223 1.387,-0.391 l 0.308,0.895 c -0.379,0.226 -0.98,0.422 -1.668,0.422 -1.453,0 -2.336,-0.899 -2.336,-1.989 0,-0.812 0.574,-1.484 1.789,-1.918 0.914,-0.335 1.262,-0.66 1.262,-1.246 0,-0.558 -0.418,-1.007 -1.316,-1.007 -0.614,0 -1.258,0.25 -1.622,0.488 z M 362.238,76 h 1.235 v 6.773 h -1.235 z m 0.617,9.449 c -0.449,0 -0.769,-0.336 -0.769,-0.769 0,-0.422 0.309,-0.758 0.742,-0.758 0.488,0 0.801,0.336 0.785,0.758 0,0.433 -0.297,0.769 -0.758,0.769 z M 365.516,76 h 1.234 v 4.074 c 0,0.207 0.027,0.418 0.082,0.574 0.211,0.684 0.84,1.258 1.652,1.258 1.161,0 1.567,-0.91 1.567,-2 V 76 h 1.234 v 4.047 c 0,2.32 -1.457,2.883 -2.394,2.883 -1.121,0 -1.907,-0.629 -2.239,-1.274 h -0.031 l -0.07,1.117 h -1.09 c 0.043,-0.558 0.055,-1.132 0.055,-1.832 z m 12.39,1.176 c -0.351,-0.156 -0.812,-0.336 -1.511,-0.336 -1.344,0 -2.352,0.965 -2.352,2.531 0,1.414 0.84,2.563 2.395,2.563 0.671,0 1.132,-0.153 1.425,-0.321 l 0.282,0.953 c -0.336,0.168 -0.981,0.348 -1.707,0.348 -2.215,0 -3.641,-1.512 -3.641,-3.598 0,-2.07 1.332,-3.457 3.375,-3.457 0.91,0 1.625,0.223 1.945,0.391 z M 379.559,76 h 1.23 v 9.938 h -1.23 z m 8.972,6.773 h -1.23 v -4.156 c 0,-0.222 -0.043,-0.449 -0.113,-0.629 -0.223,-0.547 -0.797,-1.121 -1.626,-1.121 -1.117,0 -1.511,0.867 -1.511,2.156 v 3.75 h -1.231 v -3.96 c 0,-2.379 1.274,-2.969 2.336,-2.969 1.207,0 1.918,0.715 2.242,1.262 h 0.028 L 387.496,76 h 1.094 c -0.043,0.531 -0.059,1.148 -0.059,1.848 z m 6.664,3.165 v -4.043 h -0.027 c -0.309,0.543 -1.008,1.035 -2.043,1.035 -1.652,0 -3.055,-1.387 -3.039,-3.641 0,-2.058 1.262,-3.445 2.898,-3.445 1.106,0 1.93,0.574 2.309,1.332 h 0.027 L 395.379,76 h 1.105 c -0.043,0.461 -0.054,1.148 -0.054,1.75 v 8.188 z m 0,-7.098 c 0,-0.195 -0.011,-0.363 -0.054,-0.531 -0.227,-0.922 -0.981,-1.469 -1.805,-1.469 -1.332,0 -2.004,1.133 -2.004,2.504 0,1.5 0.758,2.621 2.031,2.621 0.922,0 1.594,-0.645 1.778,-1.43 0.043,-0.152 0.054,-0.363 0.054,-0.519 z M 398.473,76 h 1.23 v 6.773 h -1.23 z m 0.617,9.449 c -0.449,0 -0.774,-0.336 -0.774,-0.769 0,-0.422 0.309,-0.758 0.743,-0.758 0.492,0 0.8,0.336 0.785,0.758 0,0.433 -0.293,0.769 -0.754,0.769 z M 401.746,76 h 1.234 v 4.074 c 0,0.207 0.028,0.418 0.082,0.574 0.211,0.684 0.84,1.258 1.653,1.258 1.164,0 1.57,-0.91 1.57,-2 V 76 h 1.231 v 4.047 c 0,2.32 -1.457,2.883 -2.395,2.883 -1.117,0 -1.902,-0.629 -2.238,-1.274 h -0.028 l -0.07,1.117 h -1.094 c 0.043,-0.558 0.055,-1.132 0.055,-1.832 z m 12.531,6.773 -0.054,-1.019 h -0.028 c -0.297,0.559 -0.937,1.176 -2.113,1.176 -1.555,0 -3.055,-1.301 -3.055,-3.598 0,-1.879 1.203,-3.305 2.883,-3.305 1.051,0 1.781,0.504 2.156,1.133 h 0.032 v -0.754 c 0,-1.711 -0.926,-2.367 -2.188,-2.367 -0.836,0 -1.539,0.25 -1.984,0.531 l -0.309,-0.937 c 0.543,-0.363 1.442,-0.559 2.254,-0.559 0.852,0 1.805,0.196 2.465,0.813 0.656,0.586 0.965,1.539 0.965,3.094 v 3.933 c 0,0.824 0.027,1.371 0.054,1.859 z m -0.195,-3.89 c 0,-0.211 -0.027,-0.449 -0.098,-0.656 -0.265,-0.786 -0.953,-1.262 -1.707,-1.262 -1.332,0 -2.004,1.105 -2.004,2.437 0,1.567 0.84,2.563 2.016,2.563 0.899,0 1.5,-0.59 1.723,-1.305 0.054,-0.168 0.07,-0.347 0.07,-0.558 z M 421.32,76 l 0.055,1.117 h 0.043 c 0.504,-0.894 1.289,-1.273 2.27,-1.273 1.511,0 3.035,1.207 3.035,3.629 0.015,2.054 -1.176,3.457 -2.856,3.457 -1.09,0 -1.875,-0.492 -2.308,-1.246 h -0.028 v 4.254 h -1.219 V 77.75 c 0,-0.602 -0.027,-1.289 -0.054,-1.75 z m 0.211,3.934 c 0,0.195 0.039,0.363 0.071,0.504 0.25,0.937 1.035,1.511 1.875,1.511 1.316,0 2.015,-1.164 2.015,-2.519 0,-1.555 -0.769,-2.606 -2.058,-2.606 -0.895,0 -1.61,0.59 -1.848,1.442 -0.027,0.14 -0.055,0.297 -0.055,0.449 z M 428.277,76 h 1.235 v 9.938 h -1.235 z m 8.75,3.164 c 0.016,0.125 0.043,0.32 0.043,0.574 0,1.246 -0.59,3.192 -2.8,3.192 -1.973,0 -3.176,-1.61 -3.176,-3.657 0,-2.042 1.246,-3.414 3.332,-3.414 1.078,0 1.816,0.223 2.254,0.418 l -0.211,0.883 c -0.461,-0.195 -0.996,-0.347 -1.875,-0.347 -1.235,0 -2.297,0.683 -2.324,2.351 z m -4.746,0.883 c 0.098,0.851 0.645,2 1.891,2 1.387,0 1.723,-1.219 1.707,-2 z m 11.762,-0.883 c 0.012,0.125 0.043,0.32 0.043,0.574 0,1.246 -0.59,3.192 -2.801,3.192 -1.976,0 -3.18,-1.61 -3.18,-3.657 0,-2.042 1.247,-3.414 3.333,-3.414 1.078,0 1.82,0.223 2.253,0.418 l -0.211,0.883 c -0.46,-0.195 -0.992,-0.347 -1.875,-0.347 -1.23,0 -2.296,0.683 -2.324,2.351 z m -4.746,0.883 c 0.098,0.851 0.644,2 1.891,2 1.382,0 1.718,-1.219 1.707,-2 z m 10.933,5.891 v -4.043 h -0.027 c -0.308,0.543 -1.008,1.035 -2.047,1.035 -1.648,0 -3.051,-1.387 -3.035,-3.641 0,-2.058 1.258,-3.445 2.899,-3.445 1.105,0 1.929,0.574 2.308,1.332 h 0.027 L 450.41,76 h 1.11 c -0.043,0.461 -0.059,1.148 -0.059,1.75 v 8.188 z m 0,-7.098 c 0,-0.195 -0.015,-0.363 -0.054,-0.531 -0.227,-0.922 -0.981,-1.469 -1.809,-1.469 -1.328,0 -2,1.133 -2,2.504 0,1.5 0.754,2.621 2.028,2.621 0.925,0 1.597,-0.645 1.781,-1.43 0.039,-0.152 0.054,-0.363 0.054,-0.519 z m 3.809,-2.996 c 0.516,0 0.84,0.379 0.84,0.883 0,0.519 -0.336,0.882 -0.828,0.882 -0.489,0 -0.84,-0.363 -0.84,-0.882 0,-0.504 0.336,-0.883 0.828,-0.883"
         style="fill:#231f20;fill-opacity:1;fill-rule:evenodd;stroke:none"
         id="path58"
         inkscape:connector-curvature="0" /><g
         id="g60"
         transform="translate(0,842.00006)"><path
           d="M 39.965,-576.008 H 148.797"
           style="fill:none;stroke:#00a650;stroke-width:0.5;stroke-linecap:butt;stroke-linejoin:miter;stroke-miterlimit:22.9260006;stroke-dasharray:none;stroke-opacity:1"
           id="path62"
           inkscape:connector-curvature="0" /></g><text
         transform="matrix(1,0,0,-1,153.2421,262.54433)"
         style="font-variant:normal;font-weight:normal;font-size:13.99979877px;font-family:'DejaVu Sans';-inkscape-font-specification:DejaVuSans;writing-mode:lr-tb;fill:#231f20;fill-opacity:1;fill-rule:nonzero;stroke:none"
         id="text66"><tspan
           x="0 7.7698884 15.539777 23.323666 27.201609 34.187508 37.281464 45.065353 52.835243 56.727184 64.49707 72.26696 75.360916 83.144806 90.130707"
           y="0"
           sodipodi:role="line"
           id="tspan64">one side object</tspan></text>
<path
         d="M 28.316001,718.76606 H 566.898 v -307.926 H 28.316001 Z"
         style="fill:#000000;fill-opacity:1;fill-rule:nonzero;stroke:none"
         id="path68"
         inkscape:connector-curvature="0" /><g
         id="g4679"
         transform="translate(3,4.75032)"><path
           inkscape:connector-curvature="0"
           id="path70"
           style="fill:#ffffff;fill-opacity:1;fill-rule:nonzero;stroke:none;stroke-width:0.93439549"
           d="M 32.659874,510.02074 H 35.17807 V 492.56249 H 32.659874 Z" /><path
           inkscape:connector-curvature="0"
           id="path72"
           style="fill:#ffffff;fill-opacity:1;fill-rule:nonzero;stroke:none;stroke-width:0.93439549"
           d="m 39.5445,508.99851 h 2.518196 v -2.34347 H 39.5445 Z m 0,-4.3655 h 2.518196 V 492.56249 H 39.5445 Z" /><path
           inkscape:connector-curvature="0"
           id="path74"
           style="fill:#ffffff;fill-opacity:1;fill-rule:nonzero;stroke:none;stroke-width:0.93439549"
           d="m 52.472796,492.31394 c -1.008212,0 -1.818333,0.0514 -2.435034,0.1495 -0.59521,0.0841 -1.193223,0.24855 -1.788433,0.50084 -1.211911,0.51392 -1.8174,1.69312 -1.8174,3.54042 v 13.51604 h 2.514459 v -5.03733 c -0.01775,-0.43449 -0.02897,-0.91664 -0.02897,-1.44925 0.09437,0.3831 0.484952,0.70827 1.17547,0.97458 0.707337,0.24855 1.733304,0.37282 3.076964,0.37282 3.730107,0 5.595161,-1.13903 5.595161,-3.41708 v -4.95978 c 0,-0.71574 -0.120537,-1.33992 -0.365349,-1.87252 -0.222386,-0.52981 -0.521393,-0.94561 -0.894216,-1.24462 -0.335448,-0.28499 -0.798909,-0.50738 -1.397856,-0.67557 -0.576522,-0.16445 -1.156782,-0.27377 -1.733304,-0.32517 -0.522327,-0.0467 -1.157716,-0.0729 -1.901495,-0.0729 z m 0.05419,1.47167 c 0.970837,0 1.708075,0.0579 2.211714,0.17474 0.522328,0.13175 0.894217,0.36534 1.117538,0.69705 0.226123,0.33265 0.335447,0.84003 0.335447,1.52213 v 4.73739 c 0,0.68304 -0.109324,1.19042 -0.335447,1.52213 -0.223321,0.34666 -0.59521,0.57372 -1.117538,0.67183 -0.503639,0.1168 -1.25209,0.17473 -2.236942,0.17473 -0.916642,0 -1.624914,-0.0654 -2.128553,-0.19996 -0.50364,-0.13175 -0.864316,-0.37282 -1.091374,-0.72322 -0.222386,-0.33171 -0.335448,-0.81386 -0.335448,-1.44551 v -4.73739 c 0,-0.6821 0.101849,-1.18948 0.310219,-1.52213 0.222386,-0.33171 0.587735,-0.5653 1.091374,-0.69705 0.503639,-0.1168 1.229664,-0.17474 2.17901,-0.17474 z" /><path
           inkscape:connector-curvature="0"
           id="path76"
           style="fill:#ffffff;fill-opacity:1;fill-rule:nonzero;stroke:none;stroke-width:0.93439549"
           d="m 68.309866,492.31394 c -4.139372,0 -6.212796,1.2306 -6.212796,3.69086 v 4.76262 c 0,1.46419 0.467198,2.51165 1.401593,3.14237 0.949346,0.65034 2.478952,0.97177 4.585079,0.97177 1.995869,0 3.433904,-0.30742 4.310367,-0.92038 0.894216,-0.6167 1.342726,-1.67911 1.342726,-3.19376 v -2.6677 h -9.091668 v -1.82207 c 0,-0.82788 0.324235,-1.42683 0.978312,-1.79498 0.653142,-0.36535 1.660421,-0.54755 3.021835,-0.54755 1.284794,0 2.806924,0.20089 4.558916,0.59801 v -1.71929 c -1.715551,-0.33171 -3.347005,-0.4999 -4.894364,-0.4999 z m 2.908773,7.25652 v 1.89402 c 0,0.7335 -0.252287,1.23059 -0.755926,1.4969 -0.484951,0.28499 -1.324973,0.42328 -2.518196,0.42328 -1.156781,0 -1.996803,-0.13829 -2.518196,-0.42328 -0.522327,-0.26631 -0.781154,-0.7634 -0.781154,-1.4969 v -1.89402 z" /><path
           inkscape:connector-curvature="0"
           id="path78"
           style="fill:#ffffff;fill-opacity:1;fill-rule:nonzero;stroke:none;stroke-width:0.93439549"
           d="m 77.573463,510.02074 h 2.518196 v -17.45825 h -2.518196 z" /><path
           inkscape:connector-curvature="0"
           id="path80"
           style="fill:#ffffff;fill-opacity:1;fill-rule:nonzero;stroke:none;stroke-width:0.93439549"
           d="m 90.161639,492.31394 c -4.138438,0 -6.208124,1.2306 -6.208124,3.69086 v 4.76262 c 0,1.46419 0.467198,2.51165 1.397856,3.14237 0.953084,0.65034 2.481755,0.97177 4.587882,0.97177 1.996803,0 3.4311,-0.30742 4.307563,-0.92038 0.89702,-0.6167 1.342727,-1.67911 1.342727,-3.19376 v -2.6677 h -9.091669 v -1.82207 c 0,-0.82788 0.327973,-1.42683 0.981116,-1.79498 0.650339,-0.36535 1.657617,-0.54755 3.019032,-0.54755 1.288531,0 2.806924,0.20089 4.562653,0.59801 v -1.71929 c -1.719288,-0.33171 -3.350742,-0.4999 -4.899036,-0.4999 z m 2.909708,7.25652 v 1.89402 c 0,0.7335 -0.252287,1.23059 -0.755926,1.4969 -0.482148,0.28499 -1.321235,0.42328 -2.514458,0.42328 -1.157716,0 -1.996804,-0.13829 -2.519131,-0.42328 -0.521392,-0.26631 -0.783958,-0.7634 -0.783958,-1.4969 v -1.89402 z" /><path
           inkscape:connector-curvature="0"
           id="path82"
           style="fill:#ffffff;fill-opacity:1;fill-rule:nonzero;stroke:none;stroke-width:0.93439549"
           d="m 99.426171,510.02074 h 2.518199 v -17.45825 h -2.518199 z m 2.824679,-10.84834 5.70822,5.46061 h 3.07696 l -5.87641,-5.46061 6.40995,-6.60991 h -3.13583 z" /><path
           inkscape:connector-curvature="0"
           id="path84"
           style="fill:#ffffff;fill-opacity:1;fill-rule:nonzero;stroke:none;stroke-width:0.93439549"
           d="m 119.47549,492.31394 c -1.15771,0 -2.06221,0.10932 -2.71255,0.32517 -0.65314,0.2336 -1.13155,0.61296 -1.42682,1.1465 -0.28125,0.54662 -0.41954,1.31376 -0.41954,2.29581 v 7.08085 h -3.02277 v 1.47074 h 3.02277 v 3.74132 H 117.46 v -3.74132 h 4.84017 v -1.47074 H 117.46 v -7.20886 c 0,-0.59895 0.0766,-1.04372 0.22332,-1.34366 0.16726,-0.29901 0.44851,-0.51765 0.83909,-0.6494 0.41207,-0.1168 0.9998,-0.17474 1.7632,-0.17474 0.24388,0 0.91571,0.0654 2.01456,0.19996 v -1.47073 c -0.95308,-0.13456 -1.89402,-0.2009 -2.82468,-0.2009 z" /><path
           inkscape:connector-curvature="0"
           id="path86"
           style="fill:#ffffff;fill-opacity:1;fill-rule:nonzero;stroke:none;stroke-width:0.93439549"
           d="m 125.05196,504.63301 h 2.37617 v -1.97064 c 0,0.3831 0.18595,0.74004 0.55877,1.07269 0.37563,0.3504 0.8503,0.62417 1.42682,0.82507 0.58026,0.21491 1.15024,0.32143 1.70808,0.32143 h 1.2306 v -1.92018 h -1.39786 c -1.19416,0 -2.06221,-0.13923 -2.60229,-0.42328 -0.52233,-0.26631 -0.78489,-0.75593 -0.78489,-1.47168 v -8.50393 h -2.5154 z" /><path
           inkscape:connector-curvature="0"
           id="path88"
           style="fill:#ffffff;fill-opacity:1;fill-rule:nonzero;stroke:none;stroke-width:0.93439549"
           d="m 139.05388,492.31394 c -1.28853,0 -2.28553,0.10932 -2.99287,0.32517 -0.69052,0.21491 -1.19416,0.59895 -1.51185,1.1465 -0.29901,0.54662 -0.44477,1.33899 -0.44477,2.3687 0,0.9157 0.13829,1.62024 0.4158,2.12014 0.29901,0.51485 0.79611,0.8802 1.48569,1.09511 0.70827,0.21865 1.70434,0.32517 2.99287,0.32517 h 4.05528 v 1.91925 c 0,0.44944 -0.10185,0.79237 -0.30648,1.02597 -0.18595,0.24854 -0.51486,0.42328 -0.98205,0.52232 -0.44571,0.0981 -1.11007,0.14951 -1.98559,0.14951 -1.39786,0 -2.94522,-0.099 -4.64302,-0.29901 v 1.64547 c 1.8473,0.1495 3.5152,0.22332 5.00836,0.22332 1.56512,0 2.72283,-0.10652 3.46755,-0.32143 0.74751,-0.2009 1.25863,-0.55877 1.53988,-1.07362 0.27752,-0.51392 0.41954,-1.31376 0.41954,-2.39392 v -8.5301 h -2.4341 v 1.14931 c -0.20463,-0.93066 -1.56604,-1.39786 -4.08424,-1.39786 z m 0.41954,1.47167 c 0.91197,0 1.68659,0.0579 2.32104,0.17474 0.84002,0.1495 1.25957,0.4999 1.25957,1.04745 v 3.29281 h -3.88709 c -0.80358,0 -1.3801,-0.0589 -1.73424,-0.17566 -0.35787,-0.0981 -0.58773,-0.29901 -0.70079,-0.59895 -0.11306,-0.29901 -0.16726,-0.78116 -0.16726,-1.44458 0,-0.59894 0.0654,-1.06614 0.19716,-1.39879 0.12708,-0.31676 0.36067,-0.54662 0.69706,-0.69706 0.33545,-0.13455 0.83908,-0.19996 1.51091,-0.19996 z" /><path
           inkscape:connector-curvature="0"
           id="path90"
           style="fill:#ffffff;fill-opacity:1;fill-rule:nonzero;stroke:none;stroke-width:0.93439549"
           d="m 149.68637,495.25635 h 3.24515 v -2.69386 h -3.24515 z" /><path
           inkscape:connector-curvature="0"
           id="path92"
           style="fill:#ffffff;fill-opacity:1;fill-rule:nonzero;stroke:none;stroke-width:0.93439549"
           d="m 162.80435,492.31394 c -1.19416,0 -2.09212,0.0402 -2.68639,0.12428 -0.59895,0.0654 -1.19416,0.22612 -1.79217,0.47467 -0.6139,0.24855 -1.06241,0.6494 -1.34366,1.19696 -0.27752,0.56624 -0.41955,1.32123 -0.41955,2.27058 v 4.18609 c 0,0.74845 0.10559,1.40533 0.31022,1.97158 0.20464,0.56531 0.47468,1.00727 0.81012,1.32123 0.28126,0.28406 0.7008,0.4999 1.25957,0.64941 0.57652,0.16819 1.16426,0.27377 1.7632,0.32517 0.6709,0.0327 1.36796,0.0476 2.09866,0.0476 0.96709,0 1.69312,-0.0224 2.17901,-0.0738 0.50363,-0.0327 1.03624,-0.1168 1.59501,-0.24761 0.58026,-0.14951 1.02503,-0.37656 1.34273,-0.67557 0.31769,-0.29901 0.58773,-0.72976 0.81012,-1.29601 0.20837,-0.58399 0.31022,-1.25489 0.31022,-2.02203 v -4.18609 c 0,-1.41654 -0.36442,-2.44531 -1.09138,-3.09565 -0.29901,-0.26257 -0.72976,-0.47094 -1.2876,-0.62044 -0.55876,-0.1495 -1.13529,-0.25135 -1.73423,-0.29901 -0.70828,-0.0327 -1.41655,-0.0514 -2.12388,-0.0514 z m 0,1.47167 c 0.78115,0 1.3502,0.0178 1.70433,0.0505 0.35414,0.0327 0.7008,0.12428 1.03625,0.27378 0.33638,0.13175 0.56624,0.34666 0.69706,0.6466 0.1495,0.31676 0.22705,0.74752 0.22705,1.29881 v 4.88782 c 0,0.74752 -0.10652,1.28853 -0.31115,1.62024 -0.2037,0.3504 -0.55783,0.57279 -1.06147,0.67184 -0.48589,0.11679 -1.24835,0.17473 -2.29207,0.17473 -1.04746,0 -1.82208,-0.0579 -2.32572,-0.17473 -0.48121,-0.0991 -0.82787,-0.32144 -1.0325,-0.67184 -0.20463,-0.33171 -0.30648,-0.87272 -0.30648,-1.62024 v -4.88782 c 0,-0.55129 0.0617,-0.98205 0.19342,-1.29881 0.1495,-0.29994 0.39431,-0.51485 0.72976,-0.6466 0.33545,-0.1495 0.6793,-0.24108 1.03344,-0.27378 0.3532,-0.0327 0.92318,-0.0505 1.70808,-0.0505 z" /><path
           inkscape:connector-curvature="0"
           id="path94"
           style="fill:#ffffff;fill-opacity:1;fill-rule:nonzero;stroke:none;stroke-width:0.93439549"
           d="m 172.9659,504.63301 h 2.3799 v -1.97064 c 0,0.3831 0.18595,0.74004 0.55784,1.07269 0.37282,0.3504 0.8503,0.62417 1.42682,0.82507 0.57745,0.21491 1.1465,0.32143 1.70527,0.32143 h 1.2334 v -1.92018 h -1.40159 c -1.19322,0 -2.05847,-0.13923 -2.59856,-0.42328 -0.52232,-0.26631 -0.78489,-0.75593 -0.78489,-1.47168 v -8.50393 h -2.51819 z" /><path
           inkscape:connector-curvature="0"
           id="path96"
           style="fill:#ffffff;fill-opacity:1;fill-rule:nonzero;stroke:none;stroke-width:0.93439549"
           d="m 187.91996,487.07665 c -1.8473,0 -3.40213,0.0906 -4.67198,0.27378 v 1.59875 c 2.24068,-0.2336 3.87214,-0.3504 4.89811,-0.3504 1.28479,0 2.21919,0.18221 2.79571,0.54756 0.59521,0.36441 0.89421,0.97457 0.89421,1.82114 v 2.89475 c -0.0364,-0.53354 -0.4457,-0.92411 -1.22966,-1.17547 -0.7634,-0.24854 -1.73424,-0.37282 -2.90971,-0.37282 -1.39785,0 -2.48923,0.1168 -3.27412,0.3504 -0.76247,0.22986 -1.31376,0.6139 -1.64921,1.1465 -0.31769,0.53261 -0.47467,1.25583 -0.47467,2.1678 v 4.91305 c 0,1.43056 0.42702,2.45279 1.28479,3.06949 0.87553,0.61296 2.30329,0.92038 4.2814,0.92038 2.35094,0 3.73011,-0.47094 4.13937,-1.42028 v 1.17173 h 2.35001 v -13.21702 c 0,-1.11287 -0.2336,-1.98559 -0.7008,-2.61631 -0.46346,-0.63539 -1.16425,-1.07362 -2.09491,-1.32497 -0.9344,-0.2635 -2.14631,-0.39806 -3.63854,-0.39806 z m 0.31022,6.73419 c 1.32124,0 2.25563,0.14203 2.79571,0.42328 0.54008,0.28126 0.81012,0.81386 0.81012,1.59502 v 5.46434 c 0,0.54756 -0.10185,0.96336 -0.30648,1.24462 -0.18594,0.28405 -0.54008,0.48121 -1.06241,0.59801 -0.52232,0.13549 -1.28853,0.20089 -2.29581,0.20089 -0.94934,0 -1.66789,-0.0579 -2.15378,-0.17473 -0.46719,-0.1168 -0.79143,-0.32517 -0.97831,-0.62417 -0.16726,-0.28126 -0.25135,-0.69706 -0.25135,-1.24462 v -5.46434 c 0,-0.56531 0.0916,-0.98953 0.27751,-1.26985 0.18969,-0.28499 0.52513,-0.48215 1.00728,-0.59894 0.48589,-0.0981 1.20444,-0.14951 2.15752,-0.14951 z" /><path
           inkscape:connector-curvature="0"
           id="path98"
           style="fill:#2f418f;fill-opacity:1;fill-rule:nonzero;stroke:none;stroke-width:0.93439549"
           d="m 64.017253,593.61176 c 7.103275,22.51332 30.079126,36.25922 53.555807,32.04042 -11.87336,5.31391 -25.439846,5.54377 -37.492614,0.63819 -12.048096,-4.90931 -21.512588,-14.51583 -26.151861,-26.55365 -4.639274,-12.03782 -4.036589,-25.43331 1.66042,-37.01795 5.701682,-11.58463 15.987508,-20.32684 28.433656,-24.15973 1.836087,-0.56531 3.704878,-1.01755 5.59516,-1.36421 -21.720958,9.72332 -32.703843,33.92229 -25.600568,56.41693 z" /><path
           inkscape:connector-curvature="0"
           id="path100"
           style="fill:#409030;fill-opacity:1;fill-rule:nonzero;stroke:none;stroke-width:0.93439549"
           d="m 127.36646,549.54193 c -23.27579,-5.16067 -46.792653,7.6284 -54.834061,29.81749 1.277319,-12.82271 7.858266,-24.55404 18.188009,-32.41605 10.329742,-7.862 23.487892,-11.15761 36.361062,-9.10288 12.87317,2.05474 24.31297,9.27481 31.61247,19.95122 7.30043,10.67546 9.81115,23.85605 6.93882,36.42647 -0.42702,1.8501 -0.95962,3.67872 -1.60249,5.47089 2.33973,-23.46548 -13.38428,-44.97433 -36.66381,-50.14714 z" /><path
           inkscape:connector-curvature="0"
           id="path102"
           style="fill:#dfa809;fill-opacity:1;fill-rule:nonzero;stroke:none;stroke-width:0.93439549"
           d="m 133.98759,624.73554 c 16.17625,-17.34145 16.73128,-43.87267 1.29227,-61.85605 1.56137,1.10539 3.05454,2.30982 4.46734,3.59836 9.59531,8.72725 15.11478,20.98091 15.25307,33.8681 0.13549,12.88531 -5.12422,25.2511 -14.53078,34.17177 -9.40936,8.92442 -22.13303,13.60293 -35.15663,12.93858 -13.01893,-0.66716 -25.18476,-6.62019 -33.612073,-16.45751 19.384969,13.75337 46.105873,11.06698 62.286803,-6.26325 z" /></g><g
         id="g4660"
         transform="translate(-1.500003)"><path
           inkscape:connector-curvature="0"
           id="path70-5"
           style="fill:#ffffff;fill-opacity:1;fill-rule:nonzero;stroke:none;stroke-width:0.93439543"
           d="m 399.11809,514.77107 h 2.5182 v -17.45826 h -2.5182 z" /><path
           inkscape:connector-curvature="0"
           id="path72-0"
           style="fill:#ffffff;fill-opacity:1;fill-rule:nonzero;stroke:none;stroke-width:0.93439543"
           d="m 406.00272,513.74884 h 2.51819 v -2.34347 h -2.51819 z m 0,-4.36551 h 2.51819 v -12.07052 h -2.51819 z" /><path
           inkscape:connector-curvature="0"
           id="path74-6"
           style="fill:#ffffff;fill-opacity:1;fill-rule:nonzero;stroke:none;stroke-width:0.93439543"
           d="m 418.93101,497.06426 c -1.00821,0 -1.81833,0.0514 -2.43503,0.14951 -0.59521,0.0841 -1.19323,0.24855 -1.78844,0.50083 -1.21191,0.51392 -1.8174,1.69313 -1.8174,3.54042 v 13.51605 h 2.51446 v -5.03734 c -0.0178,-0.43449 -0.029,-0.91664 -0.029,-1.44924 0.0944,0.3831 0.48496,0.70827 1.17547,0.97458 0.70734,0.24855 1.73331,0.37281 3.07697,0.37281 3.7301,0 5.59516,-1.13903 5.59516,-3.41708 v -4.95978 c 0,-0.71574 -0.12054,-1.33992 -0.36535,-1.87252 -0.22239,-0.5298 -0.52139,-0.9456 -0.89422,-1.24461 -0.33544,-0.285 -0.79891,-0.50739 -1.39785,-0.67557 -0.57652,-0.16446 -1.15678,-0.27378 -1.73331,-0.32517 -0.52232,-0.0467 -1.15771,-0.0729 -1.90149,-0.0729 z m 0.0542,1.47167 c 0.97084,0 1.70808,0.0579 2.21172,0.17475 0.52232,0.13174 0.89421,0.36534 1.11753,0.69705 0.22613,0.33264 0.33545,0.84003 0.33545,1.52212 v 4.73739 c 0,0.68304 -0.10932,1.19042 -0.33545,1.52213 -0.22332,0.34666 -0.59521,0.57372 -1.11753,0.67183 -0.50364,0.11681 -1.25209,0.17474 -2.23695,0.17474 -0.91664,0 -1.62491,-0.0654 -2.12855,-0.19997 -0.50364,-0.13174 -0.86432,-0.37282 -1.09137,-0.72322 -0.22239,-0.33171 -0.33545,-0.81386 -0.33545,-1.44551 v -4.73739 c 0,-0.68209 0.10185,-1.18948 0.31022,-1.52212 0.22238,-0.33171 0.58773,-0.56531 1.09137,-0.69705 0.50364,-0.11681 1.22966,-0.17475 2.17901,-0.17475 z" /><path
           inkscape:connector-curvature="0"
           id="path76-4"
           style="fill:#ffffff;fill-opacity:1;fill-rule:nonzero;stroke:none;stroke-width:0.93439543"
           d="m 434.76808,497.06426 c -4.13937,0 -6.21279,1.2306 -6.21279,3.69086 v 4.76262 c 0,1.46419 0.46719,2.51166 1.40159,3.14238 0.94934,0.65034 2.47895,0.97176 4.58508,0.97176 1.99587,0 3.4339,-0.30741 4.31036,-0.92037 0.89422,-0.61671 1.34273,-1.67912 1.34273,-3.19377 v -2.66769 h -9.09167 v -1.82208 c 0,-0.82788 0.32424,-1.42683 0.97831,-1.79498 0.65315,-0.36535 1.66043,-0.54754 3.02184,-0.54754 1.28479,0 2.80692,0.20088 4.55892,0.598 v -1.71928 c -1.71556,-0.33171 -3.34701,-0.49991 -4.89437,-0.49991 z m 2.90877,7.25652 v 1.89402 c 0,0.7335 -0.25228,1.23059 -0.75592,1.4969 -0.48495,0.285 -1.32497,0.42328 -2.5182,0.42328 -1.15678,0 -1.9968,-0.13828 -2.51819,-0.42328 -0.52233,-0.26631 -0.78116,-0.7634 -0.78116,-1.4969 v -1.89402 z" /><path
           inkscape:connector-curvature="0"
           id="path78-6"
           style="fill:#ffffff;fill-opacity:1;fill-rule:nonzero;stroke:none;stroke-width:0.93439543"
           d="m 444.03168,514.77107 h 2.5182 v -17.45826 h -2.5182 z" /><path
           inkscape:connector-curvature="0"
           id="path80-2"
           style="fill:#ffffff;fill-opacity:1;fill-rule:nonzero;stroke:none;stroke-width:0.93439543"
           d="m 456.61986,497.06426 c -4.13844,0 -6.20813,1.2306 -6.20813,3.69086 v 4.76262 c 0,1.46419 0.4672,2.51166 1.39786,3.14238 0.95308,0.65034 2.48176,0.97176 4.58788,0.97176 1.99681,0 3.4311,-0.30741 4.30757,-0.92037 0.89702,-0.61671 1.34272,-1.67912 1.34272,-3.19377 v -2.66769 h -9.09167 v -1.82208 c 0,-0.82788 0.32798,-1.42683 0.98112,-1.79498 0.65034,-0.36535 1.65762,-0.54754 3.01903,-0.54754 1.28853,0 2.80693,0.20088 4.56265,0.598 v -1.71928 c -1.71928,-0.33171 -3.35074,-0.49991 -4.89903,-0.49991 z m 2.90971,7.25652 v 1.89402 c 0,0.7335 -0.25229,1.23059 -0.75593,1.4969 -0.48215,0.285 -1.32123,0.42328 -2.51446,0.42328 -1.15771,0 -1.9968,-0.13828 -2.51913,-0.42328 -0.52139,-0.26631 -0.78396,-0.7634 -0.78396,-1.4969 v -1.89402 z" /><path
           inkscape:connector-curvature="0"
           id="path82-5"
           style="fill:#ffffff;fill-opacity:1;fill-rule:nonzero;stroke:none;stroke-width:0.93439543"
           d="m 465.88439,514.77107 h 2.5182 v -17.45826 h -2.5182 z m 2.82468,-10.84834 5.70822,5.4606 h 3.07696 l -5.87641,-5.4606 6.40995,-6.60992 h -3.13583 z" /><path
           inkscape:connector-curvature="0"
           id="path84-8"
           style="fill:#ffffff;fill-opacity:1;fill-rule:nonzero;stroke:none;stroke-width:0.93439543"
           d="m 485.93371,497.06426 c -1.15771,0 -2.06221,0.10932 -2.71255,0.32517 -0.65314,0.2336 -1.13155,0.61296 -1.42682,1.1465 -0.28125,0.54663 -0.41954,1.31376 -0.41954,2.29581 v 7.08085 h -3.02277 v 1.47074 h 3.02277 v 3.74133 h 2.54342 v -3.74133 h 4.84017 v -1.47074 h -4.84017 v -7.20886 c 0,-0.59895 0.0766,-1.04372 0.22332,-1.34366 0.16726,-0.29901 0.44851,-0.51765 0.83909,-0.64939 0.41207,-0.11681 0.9998,-0.17475 1.7632,-0.17475 0.24388,0 0.91571,0.0654 2.01456,0.19996 v -1.47073 c -0.95308,-0.13455 -1.89402,-0.2009 -2.82468,-0.2009 z" /><path
           inkscape:connector-curvature="0"
           id="path86-6"
           style="fill:#ffffff;fill-opacity:1;fill-rule:nonzero;stroke:none;stroke-width:0.93439543"
           d="m 491.51018,509.38333 h 2.37617 v -1.97064 c 0,0.3831 0.18595,0.74004 0.55877,1.07269 0.37563,0.3504 0.8503,0.62417 1.42682,0.82508 0.58026,0.2149 1.15024,0.32142 1.70808,0.32142 h 1.2306 v -1.92018 h -1.39786 c -1.19416,0 -2.06221,-0.13923 -2.60229,-0.42327 -0.52233,-0.26631 -0.78489,-0.75594 -0.78489,-1.47168 v -8.50394 h -2.5154 z" /><path
           inkscape:connector-curvature="0"
           id="path88-2"
           style="fill:#ffffff;fill-opacity:1;fill-rule:nonzero;stroke:none;stroke-width:0.93439543"
           d="m 505.5121,497.06426 c -1.28853,0 -2.28553,0.10932 -2.99287,0.32517 -0.69053,0.21491 -1.19417,0.59895 -1.51185,1.1465 -0.29901,0.54663 -0.44477,1.33899 -0.44477,2.36871 0,0.91569 0.13829,1.62024 0.4158,2.12013 0.29901,0.51486 0.79611,0.8802 1.48569,1.09512 0.70827,0.21864 1.70433,0.32517 2.99286,0.32517 h 4.05528 v 1.91925 c 0,0.44943 -0.10185,0.79236 -0.30648,1.02597 -0.18594,0.24853 -0.51486,0.42327 -0.98205,0.52231 -0.44571,0.0981 -1.11006,0.14951 -1.98558,0.14951 -1.39786,0 -2.94522,-0.099 -4.64302,-0.29901 v 1.64547 c 1.84729,0.1495 3.5152,0.22332 5.00836,0.22332 1.56512,0 2.72283,-0.10652 3.46755,-0.32142 0.74751,-0.20091 1.25862,-0.55878 1.53987,-1.07363 0.27753,-0.51391 0.41955,-1.31376 0.41955,-2.39392 v -8.5301 h -2.43411 v 1.14932 c -0.20463,-0.93066 -1.56603,-1.39787 -4.08423,-1.39787 z m 0.41954,1.47167 c 0.91197,0 1.68658,0.0579 2.32104,0.17475 0.84001,0.14949 1.25956,0.49989 1.25956,1.04745 v 3.2928 h -3.88708 c -0.80358,0 -1.38011,-0.0589 -1.73424,-0.17565 -0.35787,-0.0981 -0.58773,-0.29901 -0.70079,-0.59895 -0.11307,-0.29901 -0.16726,-0.78117 -0.16726,-1.44459 0,-0.59894 0.0654,-1.06614 0.19716,-1.39878 0.12708,-0.31677 0.36067,-0.54663 0.69706,-0.69707 0.33545,-0.13455 0.83907,-0.19996 1.51091,-0.19996 z" /><path
           inkscape:connector-curvature="0"
           id="path90-8"
           style="fill:#ffffff;fill-opacity:1;fill-rule:nonzero;stroke:none;stroke-width:0.93439543"
           d="m 516.14458,500.00668 h 3.24516 v -2.69387 h -3.24516 z" /><path
           inkscape:connector-curvature="0"
           id="path92-4"
           style="fill:#ffffff;fill-opacity:1;fill-rule:nonzero;stroke:none;stroke-width:0.93439543"
           d="m 529.26256,497.06426 c -1.19415,0 -2.09211,0.0402 -2.68638,0.12428 -0.59895,0.0654 -1.19416,0.22612 -1.79217,0.47467 -0.6139,0.24855 -1.06242,0.6494 -1.34367,1.19696 -0.27751,0.56625 -0.41955,1.32123 -0.41955,2.27058 v 4.18609 c 0,0.74846 0.1056,1.40534 0.31023,1.97159 0.20463,0.5653 0.47468,1.00726 0.81012,1.32123 0.28125,0.28405 0.7008,0.49989 1.25957,0.64941 0.57652,0.16818 1.16425,0.27376 1.7632,0.32517 0.67089,0.0327 1.36796,0.0476 2.09865,0.0476 0.9671,0 1.69313,-0.0224 2.17902,-0.0738 0.50363,-0.0327 1.03623,-0.1168 1.59501,-0.2476 0.58026,-0.14952 1.02503,-0.37656 1.34273,-0.67557 0.31768,-0.29901 0.58773,-0.72977 0.81012,-1.29602 0.20836,-0.58399 0.31021,-1.25488 0.31021,-2.02203 v -4.18609 c 0,-1.41654 -0.36441,-2.4453 -1.09137,-3.09564 -0.29901,-0.26258 -0.72976,-0.47094 -1.2876,-0.62045 -0.55876,-0.1495 -1.13529,-0.25135 -1.73424,-0.29901 -0.70827,-0.0327 -1.41654,-0.0514 -2.12388,-0.0514 z m 0,1.47167 c 0.78116,0 1.35021,0.0178 1.70433,0.0505 0.35415,0.0327 0.7008,0.12428 1.03626,0.27378 0.33638,0.13175 0.56624,0.34666 0.69705,0.6466 0.14951,0.31676 0.22706,0.74752 0.22706,1.29881 v 4.88782 c 0,0.74752 -0.10652,1.28853 -0.31115,1.62024 -0.2037,0.3504 -0.55783,0.57279 -1.06147,0.67184 -0.4859,0.11679 -1.24835,0.17473 -2.29208,0.17473 -1.04745,0 -1.82208,-0.0579 -2.32572,-0.17473 -0.4812,-0.0991 -0.82786,-0.32144 -1.03249,-0.67184 -0.20463,-0.33171 -0.30648,-0.87272 -0.30648,-1.62024 v -4.88782 c 0,-0.55129 0.0617,-0.98205 0.19342,-1.29881 0.14949,-0.29994 0.39431,-0.51485 0.72975,-0.6466 0.33546,-0.1495 0.67931,-0.24108 1.03344,-0.27378 0.35321,-0.0327 0.92319,-0.0505 1.70808,-0.0505 z" /><path
           inkscape:connector-curvature="0"
           id="path94-7"
           style="fill:#ffffff;fill-opacity:1;fill-rule:nonzero;stroke:none;stroke-width:0.93439543"
           d="m 539.42412,509.38333 h 2.3799 v -1.97064 c 0,0.3831 0.18595,0.74004 0.55783,1.07269 0.37283,0.3504 0.85031,0.62417 1.42683,0.82508 0.57744,0.2149 1.1465,0.32142 1.70526,0.32142 h 1.23341 v -1.92018 h -1.40159 c -1.19322,0 -2.05848,-0.13923 -2.59857,-0.42327 -0.52231,-0.26631 -0.78489,-0.75594 -0.78489,-1.47168 v -8.50394 h -2.51818 z" /><path
           inkscape:connector-curvature="0"
           id="path96-2"
           style="fill:#ffffff;fill-opacity:1;fill-rule:nonzero;stroke:none;stroke-width:0.93439543"
           d="m 554.37817,491.82697 c -1.84729,0 -3.40212,0.0906 -4.67197,0.27378 v 1.59876 c 2.24068,-0.23361 3.87214,-0.3504 4.89811,-0.3504 1.28478,0 2.21919,0.1822 2.7957,0.54756 0.59522,0.36441 0.89421,0.97456 0.89421,1.82113 v 2.89475 c -0.0364,-0.53354 -0.44569,-0.92411 -1.22965,-1.17546 -0.7634,-0.24855 -1.73424,-0.37283 -2.90972,-0.37283 -1.39785,0 -2.48922,0.11681 -3.27411,0.3504 -0.76248,0.22986 -1.31376,0.61391 -1.64922,1.1465 -0.31768,0.53262 -0.47466,1.25583 -0.47466,2.1678 v 4.91305 c 0,1.43057 0.42702,2.45279 1.28478,3.0695 0.87554,0.61296 2.3033,0.92037 4.28141,0.92037 2.35093,0 3.73011,-0.47094 4.13937,-1.42028 v 1.17173 h 2.35 v -13.21701 c 0,-1.11288 -0.23359,-1.9856 -0.7008,-2.61632 -0.46345,-0.63538 -1.16424,-1.07362 -2.0949,-1.32496 -0.93441,-0.26351 -2.14632,-0.39807 -3.63855,-0.39807 z m 0.31023,6.73419 c 1.32123,0 2.25563,0.14203 2.7957,0.42328 0.54009,0.28127 0.81012,0.81386 0.81012,1.59503 v 5.46433 c 0,0.54756 -0.10185,0.96336 -0.30648,1.24463 -0.18594,0.28404 -0.54007,0.4812 -1.0624,0.598 -0.52232,0.1355 -1.28853,0.2009 -2.29581,0.2009 -0.94934,0 -1.6679,-0.0579 -2.15378,-0.17474 -0.46719,-0.1168 -0.79143,-0.32517 -0.97831,-0.62416 -0.16727,-0.28127 -0.25136,-0.69707 -0.25136,-1.24463 v -5.46433 c 0,-0.56532 0.0916,-0.98954 0.27752,-1.26986 0.18969,-0.28498 0.52513,-0.48214 1.00728,-0.59893 0.48589,-0.0981 1.20444,-0.14952 2.15752,-0.14952 z" /><path
           inkscape:connector-curvature="0"
           id="path98-4"
           style="fill:#2f418f;fill-opacity:1;fill-rule:nonzero;stroke:none;stroke-width:0.93439543"
           d="m 430.47547,598.36208 c 7.10327,22.51332 30.07913,36.25922 53.55581,32.04042 -11.87336,5.31391 -25.43985,5.54377 -37.49261,0.63819 -12.0481,-4.90931 -21.5126,-14.51583 -26.15187,-26.55365 -4.63927,-12.03782 -4.03659,-25.43331 1.66042,-37.01794 5.70168,-11.58464 15.98751,-20.32685 28.43366,-24.15974 1.83609,-0.5653 3.70488,-1.01755 5.59516,-1.3642 -21.72096,9.72331 -32.70385,33.92229 -25.60057,56.41692 z" /><path
           inkscape:connector-curvature="0"
           id="path100-0"
           style="fill:#409030;fill-opacity:1;fill-rule:nonzero;stroke:none;stroke-width:0.93439543"
           d="m 493.82468,554.29226 c -23.27579,-5.16068 -46.79265,7.6284 -54.83407,29.81748 1.27733,-12.82271 7.85827,-24.55404 18.18802,-32.41605 10.32974,-7.862 23.48789,-11.1576 36.36106,-9.10287 12.87316,2.05473 24.31297,9.2748 31.61247,19.95121 7.30042,10.67546 9.81115,23.85605 6.93882,36.42647 -0.42702,1.8501 -0.95963,3.67872 -1.6025,5.47089 2.33973,-23.46548 -13.38427,-44.97432 -36.6638,-50.14713 z" /><path
           inkscape:connector-curvature="0"
           id="path102-6"
           style="fill:#dfa809;fill-opacity:1;fill-rule:nonzero;stroke:none;stroke-width:0.93439543"
           d="m 500.44581,629.48586 c 16.17625,-17.34145 16.73128,-43.87267 1.29226,-61.85605 1.56138,1.10539 3.05454,2.30982 4.46735,3.59836 9.5953,8.72725 15.11478,20.98091 15.25306,33.8681 0.1355,12.88531 -5.12421,25.2511 -14.53077,34.17177 -9.40936,8.92442 -22.13303,13.60293 -35.15663,12.93858 -13.01893,-0.66716 -25.18476,-6.62019 -33.61208,-16.45751 19.38498,13.75337 46.10588,11.06698 62.28681,-6.26325 z" /></g></g></g></svg>