<?xml version="1.0" encoding="UTF-8" standalone="no"?>
<svg
   xmlns:dc="http://purl.org/dc/elements/1.1/"
   xmlns:cc="http://creativecommons.org/ns#"
   xmlns:rdf="http://www.w3.org/1999/02/22-rdf-syntax-ns#"
   xmlns:svg="http://www.w3.org/2000/svg"
   xmlns="http://www.w3.org/2000/svg"
   xmlns:sodipodi="http://sodipodi.sourceforge.net/DTD/sodipodi-0.dtd"
   xmlns:inkscape="http://www.inkscape.org/namespaces/inkscape"
   id="Ebene_1"
   data-name="Ebene 1"
   viewBox="0 0 1288 154.89"
   version="1.1"
   sodipodi:docname="slogan_black_08.svg"
   inkscape:version="0.92.2 5c3e80d, 2017-08-06">
  <metadata
     id="metadata13">
    <rdf:RDF>
      <cc:Work
         rdf:about="">
        <dc:format>image/svg+xml</dc:format>
        <dc:type
           rdf:resource="http://purl.org/dc/dcmitype/StillImage" />
      </cc:Work>
    </rdf:RDF>
  </metadata>
  <sodipodi:namedview
     pagecolor="#ffffff"
     bordercolor="#666666"
     borderopacity="1"
     objecttolerance="10"
     gridtolerance="10"
     guidetolerance="10"
     inkscape:pageopacity="0"
     inkscape:pageshadow="2"
     inkscape:window-width="640"
     inkscape:window-height="480"
     id="namedview11"
     showgrid="false"
     inkscape:zoom="0.24223602"
     inkscape:cx="644"
     inkscape:cy="77.445"
     inkscape:window-x="0"
     inkscape:window-y="27"
     inkscape:window-maximized="0"
     inkscape:current-layer="Ebene_1" />
  <defs
     id="defs4">
    <style
       id="style2">.cls-1{font-size:69.26px;font-family:Play-Regular, Play;}</style>
  </defs>
  <title
     id="title6">Elektra_v02</title>
  <g
     aria-label="Configure everything, now."
     transform="translate(100 100)"
     style="font-size:69.26000214px;font-family:Play-Regular, Play"
     id="text8">
    <path
       d="m 23.340621,0.69260002 q -18.9079809,0 -18.9079809,-12.18976002 v -21.332081 q 0,-12.88236 18.9079809,-12.88236 6.44118,0 12.32828,1.31594 v 4.98672 q -6.64896,-1.66224 -12.18976,-1.66224 -2.70114,0 -4.70968,0.3463 -2.00854,0.27704 -3.878561,1.0389 -4.01708,1.7315 -4.01708,6.78748 v 21.055041 q 0,7.7571199 12.882361,7.7571199 5.5408,0 12.18976,-1.6622401 v 5.12524018 q -5.8871,1.31594004 -12.60532,1.31594004 z"
       style="font-size:69.26000214px;font-family:Play-Regular, Play"
       id="path15" />
    <path
       d="m 58.694605,0.69260002 q -4.43264,0 -6.64896,-0.34630001 -2.21632,-0.27704001 -4.43264,-1.31594004 -2.28558,-1.03890007 -3.32448,-3.32448007 -1.0389,-2.3548401 -1.0389,-6.3026599 v -11.635681 q 0,-3.1167 0.76186,-5.47154 0.76186,-2.35484 2.00854,-3.67078 1.0389,-1.17742 3.1167,-1.80076 2.14706,-0.6926 4.36338,-0.90038 2.49336,-0.13852 5.1945,-0.13852 3.60152,0 5.40228,0.20778 1.87002,0.13852 3.947821,0.6926 2.14706,0.62334 3.32448,1.87002 1.17742,1.24668 2.00854,3.60152 0.76186,2.4241 0.76186,5.61006 v 11.635681 q 0,5.8870999 -2.70114,8.5882399 -1.10816,1.10816007 -3.18596,1.73150009 -2.077801,0.62334002 -4.294121,0.83112003 -2.63188,0.13852 -5.26376,0.13852 z m 0,-4.08634012 q 2.90892,0 4.22486,-0.13852 1.31594,-0.13852 2.56262,-0.76186 1.246681,-0.55408 1.731501,-1.8007601 0.55408,-1.31594 0.55408,-3.6015201 V -23.271361 q 0,-3.1167 -0.76186,-4.5019 -0.761861,-1.45446 -2.631881,-1.87002 -1.80076,-0.48482 -5.67932,-0.48482 -3.87856,0 -5.74858,0.48482 -1.80076,0.41556 -2.56262,1.87002 -0.76186,1.3852 -0.76186,4.5019 v 13.5749607 q 0,2.2855801 0.48482,3.6015201 0.55408,1.2466801 1.80076,1.8007601 1.24668,0.62334 2.56262,0.76186 1.31594,0.13852 4.22486,0.13852 z"
       style="font-size:69.26000214px;font-family:Play-Regular, Play"
       id="path17" />
    <path
       d="m 83.860875,-33.521841 h 6.233401 v 4.08634 q 0.96964,-4.77894 11.012344,-4.77894 6.44118,0 9.0038,2.35484 2.63188,2.28558 2.63188,7.2723 V 0 h -6.2334 v -24.241001 q 0,-1.31594 -0.20778,-2.14706 -0.20778,-0.83112 -0.83112,-1.66224 -1.3852,-1.7315 -6.164144,-1.7315 -3.67078,0 -5.67932,0.55408 -1.93928,0.48482 -2.7704,1.66224 -0.76186,1.17742 -0.76186,3.32448 V 0 h -6.233401 z"
       style="font-size:69.26000214px;font-family:Play-Regular, Play"
       id="path19" />
    <path
       d="m 126.47417,-29.435501 h -7.68786 v -4.08634 h 7.68786 v -5.40228 q 0,-5.74858 2.49336,-7.9649 2.56262,-2.285581 8.58824,-2.285581 3.74004,0 6.99526,0.3463 v 4.017081 q -2.63188,-0.3463 -4.70968,-0.3463 -2.97818,0 -4.5019,0.48482 -1.45446,0.48482 -2.0778,1.7315 -0.55408,1.17742 -0.55408,3.60152 v 5.81784 h 11.84346 v 4.08634 H 132.70757 V 0 h -6.2334 z m 22.64802,-19.0465 h 6.2334 v 6.78748 h -6.2334 z m 0,14.96016 h 6.2334 V 0 h -6.2334 z"
       style="font-size:69.26000214px;font-family:Play-Regular, Play"
       id="path21" />
    <path
       d="m 178.78171,15.2372 q -6.85674,0 -11.56642,-0.76186 V 10.0427 q 8.3112,0.96964 12.1205,0.96964 4.77894,0 6.926,-1.5237197 2.21632,-1.5237201 2.21632,-5.0559802 v -8.0341602 q -0.13852,2.2163201 -3.04744,3.25522009 -2.83966,1.03890003 -7.20304,1.03890003 -5.1945,0 -8.10342,-0.96964003 -2.83966,-0.96963999 -4.08634,-3.18596009 -1.17742,-2.2163201 -1.17742,-6.0256202 V -23.132841 q 0,-5.95636 3.18596,-8.51898 3.25522,-2.56262 10.59678,-2.56262 8.72676,0 10.25048,3.94782 v -3.25522 h 5.81784 V 3.1859601 q 0,4.6404201 -1.7315,7.2722999 -1.7315,2.63188 -5.1945,3.67078 -3.463,1.10816 -9.0038,1.10816 z m 0.76186,-18.7002001 q 4.91746,0 6.926,-1.17742 2.00854,-1.1774201 2.00854,-4.4326402 V -24.241001 q 0,-2.28558 -0.76186,-3.463 -0.6926,-1.17742 -2.63188,-1.66224 -1.93928,-0.55408 -5.67932,-0.55408 -3.53226,0 -5.33302,0.48482 -1.7315,0.48482 -2.4241,1.7315 -0.62334,1.17742 -0.62334,3.463 v 15.1679407 q 0,2.3548401 0.6926,3.5322601 0.6926,1.1774201 2.49336,1.6622401 1.80076,0.41556 5.33302,0.41556 z"
       style="font-size:69.26000214px;font-family:Play-Regular, Play"
       id="path23" />
    <path
       d="m 217.10737,0.69260002 q -6.44118,0 -9.07306,-2.28558002 -2.56262,-2.3548401 -2.56262,-7.3415603 V -33.521841 h 6.2334 v 24.2410007 q 0,1.3159401 0.20778,2.1470601 0.27704,0.76186 0.90038,1.59298 1.24668,1.8007601 6.09488,1.8007601 5.12524,0 7.20304,-0.96964 2.00854,-0.9696401 2.00854,-3.5322602 V -33.521841 h 6.2334 V 0 h -6.2334 v -4.0863401 q -0.90038,4.77894012 -11.01234,4.77894012 z"
       style="font-size:69.26000214px;font-family:Play-Regular, Play"
       id="path25" />
    <path
       d="m 245.10681,-33.521841 h 5.8871 v 5.47154 q 0,-1.59298 1.3852,-2.97818 1.3852,-1.45446 3.53226,-2.28558 2.14706,-0.90038 4.22486,-0.90038 h 3.04744 v 5.33302 h -3.463 q -4.43264,0 -6.44118,1.17742 -1.93928,1.10816 -1.93928,4.08634 V 0 h -6.2334 z"
       style="font-size:69.26000214px;font-family:Play-Regular, Play"
       id="path27" />
    <path
       d="m 283.58506,0.69260002 q -15.37572,0 -15.37572,-10.25048032 V -22.786541 q 0,-6.09488 3.463,-8.72676 3.53226,-2.70114 11.35864,-2.70114 7.41082,0 10.66604,2.56262 3.32448,2.56262 3.32448,8.86528 v 7.410821 H 274.512 v 5.05598 q 0,3.4629998 2.4241,4.9867198 2.4241,1.5237201 7.48008,1.5237201 4.77894,0 11.28938,-1.6622401 v 4.77894018 q -6.37192,1.38520004 -12.1205,1.38520004 z M 290.7881,-19.462061 v -5.26376 q 0,-3.04744 -1.87002,-4.1556 -1.80076,-1.17742 -6.2334,-1.17742 -4.29412,0 -6.2334,1.17742 -1.93928,1.10816 -1.93928,4.1556 v 5.26376 z"
       style="font-size:69.26000214px;font-family:Play-Regular, Play"
       id="path29" />
    <path
       d="m 336.61225,0.69260002 q -15.37572,0 -15.37572,-10.25048032 V -22.786541 q 0,-6.09488 3.463,-8.72676 3.53226,-2.70114 11.35864,-2.70114 7.41082,0 10.66604,2.56262 3.32448,2.56262 3.32448,8.86528 v 7.410821 h -22.5095 v 5.05598 q 0,3.4629998 2.4241,4.9867198 2.4241,1.5237201 7.48008,1.5237201 4.77894,0 11.28938,-1.6622401 v 4.77894018 q -6.37192,1.38520004 -12.1205,1.38520004 z m 7.20304,-20.15466102 v -5.26376 q 0,-3.04744 -1.87002,-4.1556 -1.80076,-1.17742 -6.2334,-1.17742 -4.29412,0 -6.2334,1.17742 -1.93928,1.10816 -1.93928,4.1556 v 5.26376 z"
       style="font-size:69.26000214px;font-family:Play-Regular, Play"
       id="path31" />
    <path
       d="m 354.56143,-33.521841 h 6.5797 l 9.28084,28.1195608 h 0.3463 l 9.0038,-28.1195608 h 6.02562 L 374.09275,0 h -7.48008 z"
       style="font-size:69.26000214px;font-family:Play-Regular, Play"
       id="path33" />
    <path
       d="m 405.73698,0.69260002 q -15.37572,0 -15.37572,-10.25048032 V -22.786541 q 0,-6.09488 3.463,-8.72676 3.53226,-2.70114 11.35864,-2.70114 7.41082,0 10.66604,2.56262 3.32448,2.56262 3.32448,8.86528 v 7.410821 h -22.5095 v 5.05598 q 0,3.4629998 2.4241,4.9867198 2.4241,1.5237201 7.48008,1.5237201 4.77894,0 11.28938,-1.6622401 v 4.77894018 q -6.37192,1.38520004 -12.1205,1.38520004 z m 7.20304,-20.15466102 v -5.26376 q 0,-3.04744 -1.87002,-4.1556 -1.80076,-1.17742 -6.2334,-1.17742 -4.29412,0 -6.2334,1.17742 -1.93928,1.10816 -1.93928,4.1556 v 5.26376 z"
       style="font-size:69.26000214px;font-family:Play-Regular, Play"
       id="path35" />
    <path
       d="m 428.67288,-33.521841 h 5.8871 v 5.47154 q 0,-1.59298 1.3852,-2.97818 1.3852,-1.45446 3.53226,-2.28558 2.14706,-0.90038 4.22486,-0.90038 h 3.04744 v 5.33302 h -3.463 q -4.43264,0 -6.44118,1.17742 -1.93928,1.10816 -1.93928,4.08634 V 0 h -6.2334 z"
       style="font-size:69.26000214px;font-family:Play-Regular, Play"
       id="path37" />
    <path
       d="M 460.98699,0.48482001 448.03537,-33.521841 h 6.78748 l 9.3501,27.3577008 h 0.13852 l 8.44972,-27.3577008 h 6.30266 L 462.23367,14.40608 h -6.51044 z"
       style="font-size:69.26000214px;font-family:Play-Regular, Play"
       id="path39" />
    <path
       d="m 499.0064,0.69260002 q -4.29412,0 -6.71822,-0.90038003 -2.4241,-0.96963999 -3.53226,-3.18596009 -1.0389,-2.2855801 -1.0389,-6.3719202 V -29.435501 h -7.48008 v -4.08634 h 7.48008 v -10.389 h 6.30266 v 10.389 h 11.98198 v 4.08634 h -11.98198 v 20.0161407 q 0,2.4933601 0.55408,3.7400401 0.62334,1.2466801 2.0778,1.8007601 1.52372,0.48482 4.36338,0.48482 0.90038,0 4.98672,-0.55408 V 0.13852 q -3.53226,0.55408002 -6.99526,0.55408002 z"
       style="font-size:69.26000214px;font-family:Play-Regular, Play"
       id="path41" />
    <path
       d="m 512.81296,-48.482001 h 6.2334 v 19.0465 q 0.96964,-4.77894 11.01234,-4.77894 6.44118,0 9.0038,2.35484 2.63188,2.28558 2.63188,7.2723 V 0 h -6.2334 v -24.171741 q 0,-1.31594 -0.20778,-2.14706 -0.20778,-0.83112 -0.83112,-1.66224 -1.3852,-1.7315 -6.16414,-1.7315 -3.8093,0 -5.81784,0.55408 -1.93928,0.48482 -2.70114,1.66224 -0.6926,1.17742 -0.6926,3.32448 V 0 h -6.2334 z"
       style="font-size:69.26000214px;font-family:Play-Regular, Play"
       id="path43" />
    <path
       d="m 552.44806,-45.642341 h 6.2334 v 6.51044 h -6.2334 z m 0,12.1205 h 6.2334 V 0 h -6.2334 z"
       style="font-size:69.26000214px;font-family:Play-Regular, Play"
       id="path45" />
    <path
       d="m 569.49255,-33.521841 h 6.2334 v 4.08634 q 0.96964,-4.77894 11.01234,-4.77894 6.44118,0 9.0038,2.35484 2.63188,2.28558 2.63188,7.2723 V 0 h -6.2334 v -24.241001 q 0,-1.31594 -0.20778,-2.14706 -0.20778,-0.83112 -0.83112,-1.66224 -1.3852,-1.7315 -6.16414,-1.7315 -3.67078,0 -5.67932,0.55408 -1.93928,0.48482 -2.7704,1.66224 -0.76186,1.17742 -0.76186,3.32448 V 0 h -6.2334 z"
       style="font-size:69.26000214px;font-family:Play-Regular, Play"
       id="path47" />
    <path
       d="m 621.8022,15.2372 q -6.85674,0 -11.56642,-0.76186 V 10.0427 q 8.3112,0.96964 12.1205,0.96964 4.77894,0 6.926,-1.5237197 2.21632,-1.5237201 2.21632,-5.0559802 v -8.0341602 q -0.13852,2.2163201 -3.04744,3.25522009 -2.83966,1.03890003 -7.20304,1.03890003 -5.1945,0 -8.10342,-0.96964003 -2.83966,-0.96963999 -4.08634,-3.18596009 -1.17742,-2.2163201 -1.17742,-6.0256202 V -23.132841 q 0,-5.95636 3.18596,-8.51898 3.25522,-2.56262 10.59678,-2.56262 8.72676,0 10.25048,3.94782 v -3.25522 H 637.732 V 3.1859601 q 0,4.6404201 -1.7315,7.2722999 -1.7315,2.63188 -5.1945,3.67078 -3.463,1.10816 -9.0038,1.10816 z m 0.76186,-18.7002001 q 4.91746,0 6.926,-1.17742 2.00854,-1.1774201 2.00854,-4.4326402 V -24.241001 q 0,-2.28558 -0.76186,-3.463 -0.6926,-1.17742 -2.63188,-1.66224 -1.93928,-0.55408 -5.67932,-0.55408 -3.53226,0 -5.33302,0.48482 -1.7315,0.48482 -2.4241,1.7315 -0.62334,1.17742 -0.62334,3.463 v 15.1679407 q 0,2.3548401 0.6926,3.5322601 0.6926,1.1774201 2.49336,1.6622401 1.80076,0.41556 5.33302,0.41556 z"
       style="font-size:69.26000214px;font-family:Play-Regular, Play"
       id="path49" />
    <path
       d="m 648.977,-7.4800802 h 7.34157 l -6.51045,15.2372004 h -4.01708 z"
       style="font-size:69.26000214px;font-family:Play-Regular, Play"
       id="path51" />
    <path
       d="m 682.17529,-33.521841 h 6.2334 v 4.08634 q 0.96964,-4.77894 11.01234,-4.77894 6.44118,0 9.0038,2.35484 2.63188,2.28558 2.63188,7.2723 V 0 h -6.2334 v -24.241001 q 0,-1.31594 -0.20778,-2.14706 -0.20778,-0.83112 -0.83112,-1.66224 -1.3852,-1.7315 -6.16414,-1.7315 -3.67078,0 -5.67932,0.55408 -1.93928,0.48482 -2.7704,1.66224 -0.76186,1.17742 -0.76186,3.32448 V 0 h -6.2334 z"
       style="font-size:69.26000214px;font-family:Play-Regular, Play"
       id="path53" />
    <path
       d="m 736.00872,0.69260002 q -4.43264,0 -6.64896,-0.34630001 -2.21632,-0.27704001 -4.43264,-1.31594004 -2.28558,-1.03890007 -3.32448,-3.32448007 -1.0389,-2.3548401 -1.0389,-6.3026599 v -11.635681 q 0,-3.1167 0.76186,-5.47154 0.76186,-2.35484 2.00854,-3.67078 1.0389,-1.17742 3.1167,-1.80076 2.14706,-0.6926 4.36338,-0.90038 2.49336,-0.13852 5.1945,-0.13852 3.60152,0 5.40228,0.20778 1.87002,0.13852 3.94782,0.6926 2.14706,0.62334 3.32448,1.87002 1.17742,1.24668 2.00854,3.60152 0.76186,2.4241 0.76186,5.61006 v 11.635681 q 0,5.8870999 -2.70114,8.5882399 -1.10816,1.10816007 -3.18596,1.73150009 -2.0778,0.62334002 -4.29412,0.83112003 -2.63188,0.13852 -5.26376,0.13852 z m 0,-4.08634012 q 2.90892,0 4.22486,-0.13852 1.31594,-0.13852 2.56262,-0.76186 1.24668,-0.55408 1.7315,-1.8007601 0.55408,-1.31594 0.55408,-3.6015201 V -23.271361 q 0,-3.1167 -0.76186,-4.5019 -0.76186,-1.45446 -2.63188,-1.87002 -1.80076,-0.48482 -5.67932,-0.48482 -3.87856,0 -5.74858,0.48482 -1.80076,0.41556 -2.56262,1.87002 -0.76186,1.3852 -0.76186,4.5019 v 13.5749607 q 0,2.2855801 0.48482,3.6015201 0.55408,1.2466801 1.80076,1.8007601 1.24668,0.62334 2.56262,0.76186 1.31594,0.13852 4.22486,0.13852 z"
       style="font-size:69.26000214px;font-family:Play-Regular, Play"
       id="path55" />
    <path
       d="m 756.60383,-33.521841 h 6.85674 l 8.17268,27.5654808 h 0.41556 l 7.89564,-27.5654808 h 6.99526 l 8.17268,27.5654808 h 0.41556 l 7.89564,-27.5654808 h 6.37192 L 798.78317,0 h -7.41082 L 783.26893,-27.080661 775.30403,0 h -7.41082 z"
       style="font-size:69.26000214px;font-family:Play-Regular, Play"
       id="path57" />
    <path
       d="m 815.54193,-7.4800802 h 8.03416 V 0 h -8.03416 z"
       style="font-size:69.26000214px;font-family:Play-Regular, Play"
       id="path59" />
  </g>
</svg>
